<svg xmlns="http://www.w3.org/2000/svg" width="55" height="49" viewBox="0 0 55 49"><g fill="none" fill-rule="evenodd"><path fill="#FFF" d="M4.585 47.478c-.417.642-1.108.932-1.544.648-.436-.283-.452-1.033-.036-1.674.417-.641 1.11-.932 1.545-.648.436.283.453 1.033.035 1.674"/><path stroke="#35444C" d="M4.585 47.478c-.417.642-1.108.932-1.544.648-.436-.283-.452-1.033-.036-1.674.417-.641 1.11-.932 1.545-.648.436.283.453 1.033.035 1.674z"/><path fill="#FFF" d="M5.22 47.82c-.416.642-1.107.932-1.543.648-.436-.283-.452-1.033-.036-1.674.417-.641 1.108-.932 1.545-.648.436.283.452 1.033.035 1.674"/><path stroke="#35444C" d="M5.22 47.82c-.416.642-1.107.932-1.543.648-.436-.283-.452-1.033-.036-1.674.417-.641 1.108-.932 1.545-.648.436.283.452 1.033.035 1.674z"/><path stroke="#35444C" stroke-linecap="round" d="M4.494 45.77l.644.348m-2.064 2.026l.648.351"/><path fill="#FFF" d="M9.487 33.47L1.5 44.502v2.42l19.52-4.353v-2.421l-2.92-1.471-9.005 2.31 2.146-4.09-.22-2.258z"/><path fill="#FFF" d="M17.405 11.368l-5.121 5.33-2.875 7.212-.627 11.653 15.678 8.31 27.853-15.468 2.038-4.129-.261-13.274-1.255-1.463-16.2-9.197-1.776.627z"/><path stroke="#35444C" d="M9.487 33.47L1.5 44.502v2.67l19.57-4.353v-2.723"/><path fill="#CBCFD2" d="M54.37 20.285C52.78 26.326 25.72 40.87 24.3 41.718c-.804.48-.742 2.512.186 2.441.928-.07.1.133 2.14-1.044 2.042-1.18 5.286-2.94 6.46-3.623 1.178-.681 5.55-2.926 6.666-3.82.932-.744 14.1-8.045 14.028-8.738-.072-.693.592-6.649.592-6.649"/><path fill="#35444C" d="M38.992 34.438l.098 1.619 2.11 1.275 1.079.196-1.08-1.103-.146-1.693 1.974-2.891 2.71.61-.578-1.414-1.355-.648-2.727.517z"/><path fill="#FFF" d="M44.239 35.12c-.86 1.323-2.284 1.92-3.184 1.337-.9-.585-.931-2.13-.072-3.452.859-1.322 2.284-1.92 3.183-1.336.899.585.932 2.13.073 3.452"/><path stroke="#35444C" d="M44.239 35.12c-.86 1.323-2.284 1.92-3.184 1.337-.9-.585-.931-2.13-.072-3.452.859-1.322 2.284-1.92 3.183-1.336.899.585.932 2.13.073 3.452z"/><path stroke="#35444C" d="M44.8 31.115c1.104.87.962 2.89-.316 4.514-1.28 1.623-2.96 2.087-4.172 1.317l-1.651-.985M1.5 44.502l18.955-4.246M15.29 39.25l-4.011-2.354V34.47"/><path stroke="#35444C" d="M21.35 40.573l-3.27-1.893-11.628 2.805 4.57-6.846-2.04-1.17m2.422 3.428l-2.51 3.935m30.4-5.276l-15.148 8.822-3.237-1.864"/><path stroke="#35444C" d="M23.952 43.824c0-11.714 1.112-18.632 11.69-24.83 0 0 14.736-8.529 15.48-8.878 1.587-.744 3.143-.373 3.143 1.49v10.688c0 2.926-.183 4.986-2.813 6.391l-5.815 3.302"/><path stroke="#35444C" stroke-linecap="round" d="M35.09 37.835l.003-12.692-4.788 2.797v12.62"/><path fill="#35444C" d="M34.193 32.45l-.64.37v-1.544l.64-.37z"/><path stroke="#35444C" d="M8.646 34.544c0-10.09 1.227-19.06 11.863-25.263 0 0 13.876-8.101 14.618-8.45.844-.394 1.673-.44 2.267-.116m-.036-.017L53.401 9.94"/><path fill="#35444C" d="M53.976 20.23s-.513.517-.9.9c-.303.302-.284.564-.287.779-.001.103-.005 2.16 0 2.576.003.254.35.242.46.2.109-.041.583-.387.583-.387"/><path stroke="#35444C" d="M48.78 22.985l.017-5.76-4.986 2.892v5.732zM40.81 9.698l-5.003-2.89-4.998 2.89 5.003 2.885z"/><path stroke="#35444C" stroke-linecap="round" d="M20.455 12.583c-7.801 5.884-9.109 12.173-9.109 19.67l9.965 5.559c.46-7.157 1.709-14.063 9.837-19.345l-10.693-5.884z"/><path stroke="#35444C" d="M12.197 23.75L22.5 29.5m16.483 6.45c-.154-1.032.154-2.329.925-3.516 1.29-1.985 3.39-2.911 4.69-2.066.53.344.844.929.945 1.636"/></g></svg>