<svg xmlns="http://www.w3.org/2000/svg" width="41" height="29" viewBox="0 0 41 29"><g fill="none" fill-rule="evenodd"><path fill="#FFF" d="M.5 25.779v2.147l17.52-3.863v-2.147l-2.62-1.304-8.083 2.05 1.926-3.629-.196-2.003-1.378-1.037z"/><path fill="#FFF" d="M7.166 10.078L23 1l14 7 3 3-13.767 11.78-5.534 2.502-13.533-7.387z"/><path stroke="#35444C" stroke-width=".99" d="M7.668 15.993L.5 25.778v2.147l17.564-3.862v-2.192"/><path fill="#CBCFD2" d="M39.45 9.924c-1.43 5.358-17.213 12.633-18.488 13.386-.722.426-.666 2.228.167 2.166.833-.063.09.118 1.92-.928 1.833-1.045 4.744-2.606 5.8-3.211 1.055-.605 4.98-2.596 5.982-3.389.835-.66 5.124-3.404 5.06-4.019-.064-.614-.441-4.004-.441-4.004"/><path stroke="#35444C" stroke-width=".99" d="M39.537 11.808c0-2.528-2.483-3.604-4.405-2.528-1.92 1.075-12.777 7.32-14.329 8.218v8.078M24.34 1.417c-.872-.496-2.015-.514-3.008.041C19.411 2.534 7.166 9.626 7.166 9.626v6.862"/><path fill="#FFF" d="M33.816 21.096c-.77 1.173-2.05 1.703-2.858 1.185-.806-.518-.835-1.888-.064-3.061.77-1.173 2.05-1.703 2.857-1.185.806.518.836 1.889.065 3.061"/><path stroke="#35444C" stroke-width=".99" d="M33.816 21.096c-.77 1.173-2.05 1.703-2.858 1.185-.806-.518-.835-1.888-.064-3.061.77-1.173 2.05-1.703 2.857-1.185.806.518.836 1.889.065 3.061z"/><path stroke="#35444C" stroke-width=".99" d="M34.32 17.543c.99.771.864 2.564-.285 4.003-1.147 1.44-2.783 1.893-3.871 1.21l-2.048-1.201"/><path fill="#35444C" d="M28.537 20.187l.088 1.436 1.893 1.131.969.174-.97-.979-.13-1.5 1.77-2.565 2.434.541.088-1.566-1.849-1.001-2.422 1.196z"/><path stroke="#35444C" stroke-width=".99" d="M17.699 23.879l3.126 1.79 7.686-4.345s-.4-2.853 3.183-4.788c2.187-1.181 3.28 1.185 3.28 1.185l4.564-2.692v-3.221M38.275 9.32L24.229 1.358m-3.53 16.476L7.036 10.003M.5 25.778l17.012-3.765m-4.635-.893l-3.6-2.087v-2.152"/><path stroke="#35444C" stroke-width=".99" d="M18.316 22.293l-2.934-1.678-10.438 2.487 4.102-6.072-1.83-1.037m2.173 3.04l-2.223 3.573M22.935 1.298V8.05m7.419 4.112l-7.42-4.245-9.74 5.513"/></g></svg>