<svg xmlns="http://www.w3.org/2000/svg" width="49" height="33" viewBox="0 0 49 33"><g fill="none" fill-rule="evenodd"><path fill="#FFF" d="M21 29c-.244.16-.61 2.736-1 3-.955.647-3.806-2.929-4 0-.71.419-5.5-.01-11-3-4.625-2.516-3.664-3.125-3.664-4.079v-2.447c0-1.636.75-3.993 2.664-5.474 1.914-1.482 5.018-3.053 6-4 .166-.16-.258-1.153 0-2 .117-.384.812-.856 1-1 .194-.149.713 1.622.933 1.458 1.876-1.4 4.582-3.288 6.34-4.424 2.728-1.765 4.796-2.753 5.714-3.127 1.063-.434 4.853-2.814 8.735-2.007 1.015-.597 3.757-1.51 5.833-.38 2.159 1.174 5.716 3.309 6.414 3.77.721.475 2.365 3.48 2.365 6.898 0 1.774-3.007 4.572-3.007 4.572C42.161 18.564 40.718 19.644 40 20c-.34.168-1.74-1.158-2-1-3.701 2.249-6.247 3.29-9 5-2.01 1.25-3.432 3.382-5 4a31.89 31.89 0 0 1-3 1z"/><path d="M19.172 25.923c-.853.547-2.55 1.995-2.826 6.07-.72.414-5.348.499-10.919-2.457-4.684-2.486-4.44-4.357-4.44-5.3v-2.418c0-1.618 1.678-3.863 3.617-5.328 1.939-1.465 5.176-2.939 6.17-3.874.995-.936 4.727-4.396 7.363-6.06 2.765-1.743 4.858-2.72 5.787-3.09 1.077-.429 4.916-2.78 8.847-1.983 1.029-.59 3.805-1.493 5.907-.376 2.185 1.16 5.79 3.271 6.496 3.726.73.47 2.395 3.44 2.395 6.817 0 1.756-3.045 4.52-3.045 4.52L22.754 27l-3.582-1.077z"/><path stroke="#35444C" stroke-width="1.01" d="M19.172 25.923c-.853.547-2.55 1.995-2.826 6.07-.72.414-5.348.499-10.919-2.457-4.684-2.486-4.44-4.357-4.44-5.3v-2.418c0-1.618 1.678-3.863 3.617-5.328 1.939-1.465 5.176-2.939 6.17-3.874.995-.936 4.727-4.396 7.363-6.06 2.765-1.743 4.858-2.72 5.787-3.09 1.077-.429 4.916-2.78 8.847-1.983 1.029-.59 3.805-1.493 5.907-.376 2.185 1.16 5.79 3.271 6.496 3.726.73.47 2.395 3.44 2.395 6.817 0 1.756-3.045 4.52-3.045 4.52"/><path fill="#35444C" d="M10.915 26.446c-.145.248-.48.775-.568.87-.088.093-.473.23-.981.083-.508-.146-2.414-.68-3.659-1.501a19.89 19.89 0 0 1-2.547-2.054c-.144-.152-.197-.333-.08-.698.118-.365.233-.645.308-.808.076-.163.18-.34.637 0 .505.375 2.129 1.445 3.174 1.993s3.157 1.514 3.385 1.614c.258.113.485.235.33.5"/><path stroke="#35444C" stroke-linejoin="round" stroke-width="1.01" d="M42.171 6.378c-1.257-.198-4.184-.502-5.546-.1-1.36.401-7.802 3.44-9.503 5.984-1.7 2.545-3.848 5.86-4.18 6.358-.331.498-1.518 1.712-3.205 1.173-1.687-.538-4.783-2.062-5.81-2.691-1.027-.63-2.728-1.707-3.024-1.977-.295-.27-1.192-1.252-.059-2.574"/><path fill="#35444C" d="M12.132 27.918c.235.017 2.929.069 3.647-.203.444-.589 1.71-2.083 1.71-2.083v-1.104s-.007-.661-.481-.39c-.474.273-3.34 1.884-3.562 1.987-.2.096-.5.233-.72.243-.222.184-.818 1.003-.876 1.115-.059.112-.118.407.282.435M3.501 16.953c.164-.07.737-.297.599-.08-.14.218-1.503 2.31-1.638 2.51-.135.2-.328.86.022 1.314-.092.451-.238 1.434-.295 1.592-.058.156-.13.286-.378-.036-.247-.323-.99-1.25-.452-2.624"/><path stroke="#35444C" stroke-width="1.01" d="M11.83 11.304c-.016-.214.016-.523-.166-.74-.183-.216-.72-.942-.916-.942-.196 0-.86.582-.877.76-.017.18-.216 1.236 0 1.5s.319.528.55.775"/><path fill="#CBCFD2" d="M32.544 20.336c-3.748 2.022-6.866 3.86-9.392 5.27-1.434.8-4.092 5.913-5.152 6.394-1.152.523-.672-3.619-1.401-3.582-.263.914-2.276 3.432-3.457 3.588-1.182.155 2.023.078 3.203-.013 1.181-.088 6.28-3.601 8.876-5.091 2.596-1.489 11.814-6.558 13.31-7.42.377-.218-.235-3.09.469-3.482.805-.449 1.883-1.916 3-2 .948-.071 2.24 1.758 3 2 .664.211.842-1.138 1.065-1.454 1.044-1.48 1.595-2.531 1.504-3.407-.092-.875-1.13-4.454-1.13-4.454-.801 3.585-5.712 9.236-13.895 13.651z"/><path d="M21.925 30.27c-1.14 1.746-3.033 2.535-4.227 1.764-1.194-.771-1.238-2.81-.097-4.555 1.14-1.744 3.034-2.533 4.227-1.763 1.195.771 1.238 2.81.097 4.555"/><path stroke="#000" stroke-width="1.01" d="M21.925 30.27c-1.14 1.746-3.033 2.535-4.227 1.764-1.194-.771-1.238-2.81-.097-4.555 1.14-1.744 3.034-2.533 4.227-1.763 1.195.771 1.238 2.81.097 4.555zm21.531-11.619c-1.2 1.705-3.118 2.43-4.286 1.62-1.167-.81-1.14-2.85.06-4.555 1.198-1.705 3.117-2.43 4.285-1.62 1.166.811 1.14 2.85-.06 4.555z"/><path stroke="#35444C" stroke-linejoin="round" stroke-width="1.01" d="M32.77 1.482c.553.118 2.376.363 4.742 1.636 2.367 1.273 3.994 2.43 4.66 3.26v.671a1.84 1.84 0 0 1-.83 1.524l-15.575 9.365"/><path stroke="#35444C" stroke-width="1.01" d="M16.073 8.028c.275-.207.739-1 2.065-.284 1.858 1.003 6.69 3.653 7.263 4.098.575.444 1.44.804.445 2.344"/><path d="M24.295 17.552c.132.013 2.172.613 2.368.682.195.07.588.084.574.543-.014.46 0 .801-.098.936-.098.136-.434.442-.875.429-.442-.015-3.084.066-3.303-.204-.22-.27-.417-.659-.165-1.09.253-.433 1.08-1.337 1.5-1.296"/><path stroke="#35444C" stroke-width="1.01" d="M24.295 17.552c.132.013 2.172.613 2.368.682.195.07.588.084.574.543-.014.46 0 .801-.098.936-.098.136-.434.442-.875.429-.442-.015-3.084.066-3.303-.204-.22-.27-.417-.659-.165-1.09.253-.433 1.08-1.337 1.5-1.296z"/><path fill="#35444C" d="M45.96 6.446c.002.19-.491 1.948-.706 2.498-.216.55-.085.627.107.703.192.076.646.226.646.226l.7-.715.067-.889"/><path stroke="#35444C" stroke-width="1.01" d="M19.172 25.923c-.853.547-2.55 1.995-2.826 6.07-.72.414-5.348.499-10.919-2.457m17.203-1.147l15.524-8.907m7.02-14.649c.73.47 2.395 3.44 2.395 6.817 0 1.756-3.045 4.519-3.045 4.519"/><path fill="#CBCFD2" d="M43.335 14.272c-.358-.249-.79-.341-1.25-.303.26.922.015 2.151-.753 3.244-.764 1.086-1.836 1.748-2.791 1.83.121.434.345.806.698 1.05 1.1.765 2.91.081 4.04-1.526 1.132-1.609 1.156-3.531.056-4.295"/><path fill="#B4B4B4" d="M21.756 25.963c-.358-.248-.79-.34-1.25-.302.26.921.015 2.151-.754 3.244-.764 1.085-1.836 1.747-2.79 1.83.122.433.346.805.698 1.05 1.1.764 2.91.08 4.04-1.527 1.131-1.608 1.156-3.531.056-4.295"/><path stroke="#35444C" stroke-width="1.01" d="M43.456 18.651c-1.2 1.705-3.118 2.43-4.286 1.62-1.167-.81-1.14-2.85.06-4.555 1.198-1.705 3.117-2.43 4.285-1.62 1.166.811 1.14 2.85-.06 4.555zM21.925 30.27c-1.14 1.746-3.033 2.535-4.227 1.764-1.194-.771-1.238-2.81-.097-4.555 1.14-1.744 3.034-2.533 4.227-1.763 1.195.771 1.238 2.81.097 4.555z"/></g></svg>