<svg xmlns="http://www.w3.org/2000/svg" width="51" height="38" viewBox="0 0 51 38"><g fill="none" fill-rule="evenodd"><path fill="#FFF" d="M16.037 17.033L13 13.906l-.525 2.538 1.555 1.65z"/><path fill="#FFF" d="M21.748 30.651c-.841.549-2.515 2.003-2.788 6.094-.711.415-5.276.5-10.773-2.467-4.622-2.496-4.382-4.374-4.382-5.32v-2.427c0-1.624 1.657-3.878 3.57-5.349 1.913-1.47 5.107-2.949 6.088-3.888.981-.939 4.663-4.412 7.265-6.082 2.727-1.75 4.792-2.731 5.709-3.102 1.063-.43 4.85-2.791 8.73-1.99 1.014-.593 3.753-1.499 5.827-.378 2.157 1.165 5.712 3.284 6.41 3.74.72.472 2.363 3.453 2.363 6.843 0 1.762-3.005 4.535-3.005 4.535L25.793 32.67l-4.045-2.018z"/><path fill="#35444C" d="M17.405 37.467c-2.057 0-5.526-.62-9.455-2.74-4.683-2.53-4.66-4.553-4.649-5.64V26.53c0-1.963 1.954-4.359 3.77-5.754.977-.751 2.28-1.505 3.43-2.17 1.115-.644 2.167-1.253 2.616-1.682 1.064-1.019 4.738-4.47 7.341-6.142 2.494-1.601 4.627-2.674 5.792-3.145.158-.064.379-.174.654-.309 1.57-.77 4.808-2.36 8.179-1.744 1.372-.73 4.095-1.4 6.148-.292 2.186 1.181 5.778 3.325 6.446 3.762.914.598 2.593 3.813 2.593 7.27 0 1.93-2.844 4.612-3.168 4.911l-.68-.75c1.1-1.016 2.842-3.043 2.842-4.161 0-3.293-1.586-6.057-2.134-6.416-.66-.431-4.207-2.549-6.373-3.718-1.846-.998-4.395-.182-5.339.369l-.165.097-.187-.04c-3.107-.64-6.225.891-7.722 1.627a12.53 12.53 0 0 1-.72.338c-.388.157-2.483 1.042-5.626 3.06-2.528 1.622-6.142 5.019-7.189 6.021-.537.514-1.59 1.123-2.808 1.827-1.123.65-2.396 1.385-3.322 2.097-1.921 1.477-3.37 3.603-3.37 4.944l-.001 2.567c-.01.871-.028 2.493 4.116 4.73 4.943 2.67 9.005 2.749 10.06 2.544.258-2.916 1.288-5.037 2.99-6.148l.547.855c-1.49.972-2.375 2.943-2.559 5.7l-.019.271-.232.135c-.279.163-.908.282-1.806.282"/><path fill="#CBCFD2" d="M48.652 11.341c-.79 3.599-5.636 9.271-13.71 13.703-8.074 4.43-13.185 7.981-15.732 8.112-.26.916-2.246 3.445-3.412 3.6-1.165.156 1.996.079 3.162-.011 1.164-.09 6.196-3.616 8.757-5.111 2.561-1.495 11.656-6.583 13.132-7.448 1.476-.866 6.403-3.47 7.434-4.955 1.03-1.484 1.574-2.54 1.484-3.419-.09-.878-1.115-4.471-1.115-4.471"/><path fill="#FFF" d="M24.465 35.015c-1.125 1.751-2.993 2.544-4.171 1.77-1.178-.774-1.221-2.82-.096-4.571 1.126-1.751 2.993-2.544 4.171-1.77 1.179.774 1.222 2.82.096 4.571"/><path fill="#000" d="M23.337 30.657c-.891 0-1.988.7-2.716 1.834-.956 1.487-.98 3.258-.053 3.867.928.608 2.519-.131 3.475-1.62.956-1.487.98-3.258.052-3.868a1.362 1.362 0 0 0-.758-.213m-1.998 6.939c-.472 0-.922-.124-1.32-.384-1.432-.942-1.54-3.259-.243-5.275 1.296-2.017 3.434-2.861 4.868-1.92 1.432.942 1.54 3.259.243 5.275-.937 1.46-2.315 2.304-3.548 2.304"/><path fill="#FFF" d="M45.708 23.352c-1.183 1.712-3.076 2.44-4.228 1.626-1.15-.813-1.125-2.86.058-4.572 1.183-1.711 3.076-2.44 4.228-1.626 1.151.814 1.126 2.861-.058 4.572"/><path fill="#000" d="M44.667 18.957c-.88 0-1.968.657-2.717 1.74-1.004 1.454-1.088 3.224-.181 3.864.906.64 2.521-.046 3.527-1.5.515-.745.804-1.575.813-2.338.01-.69-.216-1.232-.632-1.526a1.38 1.38 0 0 0-.81-.24m-2.076 6.869c-.505 0-.986-.14-1.399-.43-1.4-.99-1.43-3.31-.066-5.282 1.362-1.971 3.528-2.74 4.928-1.75.698.492 1.075 1.335 1.062 2.372-.013.964-.365 1.998-.996 2.908-.96 1.39-2.32 2.182-3.529 2.182"/><path fill="#35444C" d="M9.935 29.053c1.032.55 3.116 1.52 3.341 1.62.253.114.477.236.325.503-.142.25-.473.778-.56.872-.087.095-.466.233-.968.085-.409-.12-1.738-.499-2.88-1.082-.256-.132 1.185-.836.96-.988l-1.151-1.507m14.125-3.414c-.308 0-.634-.048-.975-.159-1.748-.567-4.836-2.125-5.843-2.753-.026-.016-2.62-1.635-3.059-2.042-.78-.722-1.217-1.966-.102-3.29l.767.66c-.73.866-.395 1.5.015 1.88.224.208 1.684 1.164 2.908 1.926.945.59 3.97 2.115 5.622 2.65 1.588.516 2.58-.959 2.59-.974l.692-1.076c.839-1.308 2.245-3.5 3.43-5.306 1.812-2.755 8.33-5.816 9.654-6.213 1.423-.428 4.346-.131 5.694.086l-.158 1.004c-1.419-.228-4.098-.461-5.25-.115-1.364.409-7.531 3.412-9.1 5.801-1.185 1.802-2.588 3.991-3.426 5.297-.35.545-.6.937-.698 1.084-.395.603-1.401 1.54-2.761 1.54"/><path fill="#35444C" d="M27.977 23.4l-.52-.87 15.906-9.73a1.34 1.34 0 0 0 .574-1.093v-.488c-.69-.785-2.252-1.872-4.332-3.01-2.012-1.102-3.624-1.413-4.311-1.546l-.233-.046.21-.995.212.042c.733.141 2.452.473 4.601 1.65 2.347 1.285 4.034 2.493 4.75 3.402.071.09.11.202.11.318v.673a2.37 2.37 0 0 1-1.038 1.95L27.977 23.4zm-13.175 9.254c.232.016 2.89.069 3.6-.204.437-.591 1.687-2.09 1.687-2.09v-1.108s-.008-.665-.476-.391c-.467.273-3.295 1.889-3.513 1.994-.199.095-.494.233-.711.243-.22.185-.807 1.007-.865 1.12-.058.111-.116.408.278.436"/><path fill="#000" d="M6.287 21.647c.162-.07.727-.297.59-.079-.137.219-1.483 2.317-1.616 2.519-.132.201-.323.862.022 1.318-.09.454-.235 1.44-.291 1.598-.057.157-.129.288-.373-.036-.244-.324-.978-1.254-.446-2.633"/><path fill="#35444C" d="M12.745 17.682a3.126 3.126 0 0 1-.359-.5c-.062-.1-.123-.202-.205-.303-.266-.33-.248-.893-.127-1.752l.017-.121c.04-.447.908-1.226 1.365-1.226.362 0 .649.314 1.173.98l.118.148c.257.31.268.677.275.92l.005.111-1.004.078a3.31 3.31 0 0 1-.007-.159c-.003-.096-.008-.256-.04-.296l-.134-.168c-.088-.111-.281-.357-.427-.513-.122.095-.267.23-.334.315-.002.023-.006.048-.01.075-.095.67-.081.913-.06 1.002.096.125.174.249.25.372.08.131.15.244.242.345l-.738.692zm16.013 1.463l-.848-.55c.622-.98.388-1.15-.125-1.527a6.58 6.58 0 0 1-.2-.149c-.495-.391-4.94-2.883-7.097-4.068-.79-.435-1.056-.173-1.311.08a2.117 2.117 0 0 1-.182.164l-.607-.812c.026-.02.054-.05.086-.081.315-.31 1.051-1.037 2.494-.245 1.365.75 6.592 3.652 7.236 4.16l.171.128c.53.388 1.517 1.111.383 2.9"/><path fill="#FFF" d="M26.804 22.25c.13.012 2.142.614 2.335.684.194.07.58.083.567.545-.014.46 0 .803-.096.94-.097.135-.429.443-.864.429-.436-.014-3.043.066-3.26-.204-.217-.271-.41-.662-.162-1.095.25-.434 1.065-1.341 1.48-1.3"/><path fill="#35444C" d="M25.819 24.244c.421.105 1.94.098 2.452.095.227-.002.401-.002.49 0a.552.552 0 0 0 .415-.19c.014-.089.018-.285.021-.445l.006-.222c-.028-.01-.062-.018-.086-.025a66.867 66.867 0 0 0-2.343-.694c-.234.09-.8.667-1.014 1.041-.04.069-.11.192.059.44zm2.058 1.113c-2.098 0-2.55-.105-2.782-.393-.59-.737-.382-1.362-.206-1.67.148-.258 1.135-1.634 1.965-1.55.243.025 2.436.704 2.454.71.02.008.044.013.068.02.569.153.849.496.833 1.02l-.006.23c-.009.436-.014.75-.185.99-.164.232-.651.67-1.289.642-.082-.002-.243-.001-.452 0h-.4zM48.178 11.1c.003.191-.483 1.956-.695 2.509-.213.552-.084.629.105.706.19.076.638.226.638.226l.69-.718.067-.891M25.412 33.567l-.503-.881 15.317-8.94.504.88z"/><path fill="#35444C" d="M47.102 21.236l-.68-.75c1.1-1.016 2.841-3.043 2.841-4.16 0-3.294-1.585-6.058-2.133-6.417l.547-.853c.914.598 2.593 3.812 2.593 7.27 0 1.93-2.844 4.61-3.168 4.91M17.405 37.467c-2.057 0-5.526-.62-9.455-2.74l.474-.898c4.943 2.668 9.005 2.748 10.06 2.543.258-2.916 1.288-5.037 2.99-6.148l.547.855c-1.49.972-2.375 2.943-2.559 5.7l-.019.271-.232.135c-.279.163-.908.282-1.806.282"/><path fill="#35444C" d="M44.667 18.957c-.88 0-1.968.657-2.717 1.74-1.004 1.454-1.088 3.224-.181 3.864.906.64 2.521-.046 3.527-1.5.515-.745.804-1.575.813-2.338.01-.69-.216-1.232-.632-1.526a1.38 1.38 0 0 0-.81-.24m-2.076 6.869c-.505 0-.986-.14-1.399-.43-1.4-.99-1.43-3.31-.066-5.282 1.362-1.971 3.528-2.74 4.928-1.75.698.492 1.075 1.335 1.062 2.372-.013.964-.365 1.998-.996 2.908-.96 1.39-2.32 2.182-3.529 2.182m-19.254 4.831c-.891 0-1.988.7-2.716 1.834-.956 1.487-.98 3.258-.053 3.867.928.608 2.519-.131 3.475-1.62.956-1.487.98-3.258.052-3.868a1.362 1.362 0 0 0-.758-.213m-1.998 6.939c-.472 0-.922-.124-1.32-.384-1.432-.942-1.54-3.259-.243-5.275 1.296-2.017 3.434-2.861 4.868-1.92 1.432.942 1.54 3.259.243 5.275-.937 1.46-2.315 2.304-3.548 2.304"/><path fill="#FFF" d="M.406 34.652C1.533 36.217 2.73 37 4 37c1.269 0 2.538-.45 3.808-1.348L7.611 2.591C6.476.864 5.275 0 4.01 0S1.476.864.209 2.59l.197 32.062z"/><path fill="#35444C" d="M4.216 37.66C1.852 37.66 0 36.444 0 34.89h1.007c0 .933 1.5 1.751 3.209 1.751 1.71 0 3.208-.818 3.208-1.75h1.007c0 1.552-1.851 2.768-4.215 2.768m0-36.642c-1.71 0-3.209.819-3.209 1.751 0 .933 1.5 1.751 3.209 1.751 1.71 0 3.208-.818 3.208-1.75 0-.933-1.499-1.752-3.208-1.752m0 4.52C1.852 5.537 0 4.32 0 2.768S1.852 0 4.216 0 8.43 1.216 8.43 2.768c0 1.553-1.851 2.769-4.215 2.769"/><path fill="#35444C" d="M0 34.888h1.007V2.59H0zm7.424 0h1.007V2.59H7.424z"/><path fill="#35444C" d="M8.258 34.312l-.28-.489 1.462-.854-1.816-1.15L9.85 30.1l-1.82-1.646 2.144-1.445-2.403-1.683 1.815-1.705-1.759-1.223.317-.466 2.335 1.622-1.818 1.708 2.508 1.756-2.229 1.501 1.787 1.615-2.123 1.64 1.92 1.215zm15.547-19.927l-2.425 1.543-.065.041-.078.003-2.617.058.273-.297.148 2.892.019.357-.322-.061-2.67-.509 2.717-.054-.303.296-.148-2.892-.015-.291.288-.006 2.618-.058-.143.042 2.425-1.543z"/><path fill="#FFF" d="M21.231 15.689l-.269 2.315 2.829.09-1.527 2.316"/><path fill="#35444C" d="M21.509 15.722l-.27 2.315-.268-.315 2.83.09.566.018-.344.421-1.759 2.158 1.294-2.471.224.44-2.829-.092-.304-.01.035-.305.27-2.315z"/></g></svg>