<svg xmlns="http://www.w3.org/2000/svg" xmlns:xlink="http://www.w3.org/1999/xlink" width="59" height="57" viewBox="0 0 59 57"><defs><path id="a" d="M0 56.581h58.021V.001H0z"/></defs><g fill="none" fill-rule="evenodd"><path fill="#FFF" d="M26.803 38.5c-.758.488-2.264 1.782-2.51 5.423-.638.37-4.747.446-9.692-2.195-4.158-2.222-3.943-3.893-3.943-4.735v-2.161c0-1.445 1.492-3.452 3.212-4.76 1.72-1.31 4.595-2.625 5.478-3.461.084-.08-.2-.003-.348-.611-.144-.587-.154-1.858 0-2 .088-.081 1.256 1.764 1.354 1.675 1.408-1.289 3.75-3.347 5.53-4.477 2.454-1.558 4.313-2.431 5.138-2.761.956-.383 4.363-2.485 7.853-1.772.913-.527 3.378-1.333 5.244-.336 1.94 1.037 5.139 2.922 5.767 3.329.648.42 2.126 3.073 2.126 6.09 0 1.568-2.703 4.038-2.703 4.038C45.32 31.68 42.55 33.084 41 34c-4.358 2.573-7.27 4.943-10 6-.813.315-2.212-.185-4.197-1.5z"/><path stroke="#35444C" d="M26.803 38.5c-.758.488-2.264 1.782-2.51 5.423-.638.37-4.747.446-9.692-2.195-4.158-2.222-3.943-3.893-3.943-4.735v-2.161c0-1.445 1.492-3.452 3.212-4.76 1.72-1.31 4.595-2.625 5.478-3.461.883-.836 4.196-3.927 6.537-5.413 2.453-1.558 4.312-2.431 5.137-2.761.956-.383 4.363-2.485 7.853-1.772.913-.527 3.378-1.333 5.244-.336 1.94 1.037 5.139 2.922 5.767 3.329.648.42 2.126 3.073 2.126 6.09 0 1.568-2.703 4.038-2.703 4.038"/><path fill="#CBCFD2" d="M51.009 21.312c-.711 3.203-5.071 8.252-12.336 12.196-7.264 3.944-11.862 7.104-14.154 7.221-.234.815-2.021 3.066-3.07 3.205-1.048.138 1.796.07 2.845-.01 1.048-.08 5.574-3.219 7.879-4.55 2.305-1.33 10.487-5.859 11.815-6.629 1.328-.77 5.76-3.088 6.689-4.41.927-1.322 1.416-2.26 1.335-3.043-.081-.782-1.003-3.98-1.003-3.98"/><path fill="#FFF" d="M29.247 42.384c-1.013 1.559-2.692 2.264-3.753 1.575-1.059-.689-1.099-2.511-.086-4.069 1.013-1.559 2.693-2.264 3.753-1.575 1.06.689 1.1 2.51.086 4.069"/><path stroke="#35444C" d="M29.247 42.384c-1.013 1.559-2.692 2.264-3.753 1.575-1.059-.689-1.099-2.511-.086-4.069 1.013-1.559 2.693-2.264 3.753-1.575 1.06.689 1.1 2.51.086 4.069z"/><path fill="#FFF" d="M48.36 32.003c-1.063 1.523-2.767 2.171-3.803 1.447-1.037-.724-1.014-2.547.051-4.07 1.065-1.523 2.769-2.17 3.805-1.447 1.036.725 1.012 2.547-.052 4.07"/><path stroke="#35444C" d="M48.36 32.003c-1.063 1.523-2.767 2.171-3.803 1.447-1.037-.724-1.014-2.547.051-4.07 1.065-1.523 2.769-2.17 3.805-1.447 1.036.725 1.012 2.547-.052 4.07z"/><path fill="#35444C" d="M19.473 38.967c-.13.221-.427.691-.505.776-.077.084-.42.206-.87.075-.451-.13-2.144-.606-3.248-1.34a17.813 17.813 0 0 1-2.262-1.836c-.128-.136-.174-.298-.07-.623a6.63 6.63 0 0 1 .273-.722c.067-.145.16-.303.566 0 .448.335 1.889 1.29 2.817 1.78.928.49 2.803 1.352 3.006 1.443.228.1.43.21.293.447"/><path stroke="#35444C" stroke-linejoin="round" d="M47.22 21.038c-1.115-.178-3.715-.449-4.923-.09-1.21.36-6.927 3.073-8.436 5.347-1.51 2.273-3.416 5.236-3.71 5.68-.294.444-1.35 1.53-2.847 1.048-1.497-.48-4.245-1.842-5.157-2.405-.912-.562-2.422-1.525-2.685-1.766-.263-.24-1.058-1.118-.052-2.3"/><path stroke="#35444C" stroke-linejoin="round" d="M38.875 16.664c.49.104 2.108.323 4.21 1.461 2.1 1.138 3.544 2.171 4.135 2.913v.6c0 .457-.208 1.002-.736 1.36l-14.31 8.66"/><path fill="#35444C" d="M20.553 40.282c.209.015 2.6.062 3.238-.182.394-.526 1.518-1.86 1.518-1.86v-.986s-.006-.592-.427-.348c-.421.243-2.966 1.682-3.162 1.775-.178.084-.444.207-.64.216-.197.164-.725.896-.777.996-.052.1-.104.364.25.389m-7.663-9.796c.147-.063.656-.265.532-.071a445.13 445.13 0 0 1-1.453 2.242c-.12.18-.291.768.02 1.174-.082.404-.212 1.28-.263 1.422-.051.14-.115.256-.335-.032-.22-.29-.88-1.116-.401-2.344"/><path stroke="#35444C" d="M20.285 25.44c-.015-.192.015-.469-.147-.662-.163-.193-.64-.842-.814-.842-.174 0-.764.52-.778.68-.015.16-.192 1.103 0 1.34.191.235.283.471.488.692m5.018-4.136c.244-.185.656-.893 1.833-.254 1.649.896 5.938 3.265 6.448 3.662.509.397 1.278.717.395 2.093"/><path fill="#FFF" d="M31.35 31.021c.119.012 1.929.547 2.103.61.174.061.522.074.51.484-.012.41 0 .715-.088.837-.086.121-.384.394-.776.382-.393-.013-2.737.06-2.933-.182-.195-.24-.37-.588-.145-.974.224-.386.957-1.194 1.33-1.157"/><path stroke="#35444C" d="M31.35 31.021c.119.012 1.929.547 2.103.61.174.061.522.074.51.484-.012.41 0 .715-.088.837-.086.121-.384.394-.776.382-.393-.013-2.737.06-2.933-.182-.195-.24-.37-.588-.145-.974.224-.386.957-1.194 1.33-1.157z"/><path fill="#35444C" d="M50.583 21.098c.002.17-.436 1.74-.627 2.232-.19.492-.074.56.096.628.171.07.574.202.574.202l.621-.639.06-.794"/><path stroke="#35444C" d="M29.872 40.702l13.782-7.958m6.232-13.086c.648.42 2.126 3.073 2.126 6.09 0 1.568-2.703 4.037-2.703 4.037M26.803 38.5c-.758.488-2.264 1.782-2.51 5.423-.638.37-4.747.446-9.692-2.195"/><path stroke="#35444C" d="M48.36 32.003c-1.063 1.523-2.767 2.171-3.803 1.447-1.037-.724-1.014-2.547.051-4.07 1.065-1.523 2.769-2.17 3.805-1.447 1.036.725 1.012 2.547-.052 4.07zM29.247 42.384c-1.013 1.559-2.692 2.264-3.753 1.575-1.059-.689-1.099-2.511-.086-4.069 1.013-1.559 2.693-2.264 3.753-1.575 1.06.689 1.1 2.51.086 4.069z"/><path fill="#35444C" d="M37.52 4.346l-5.527-3.192-5.472 3.16-1-.578L31.993 0l6.528 3.77z"/><mask id="b" fill="#fff"><use xlink:href="#a"/></mask><path fill="#35444C" d="M31.492 7.505h1V.577h-1z" mask="url(#b)"/><path fill="#35444C" d="M36.523 3.755L32.02 1.156l-4.49 2.6-1.001-.578 5.49-3.176 5.504 3.176z" mask="url(#b)"/><path fill="#35444C" d="M31.52 6.353h1V.58h-1zm21.498 12.125l-1-.578 5.253-3.032.5.866z" mask="url(#b)"/><path fill="#35444C" d="M58.02 21.364l-1-.576v-5.199l-5.002-2.917.999-.578 5.004 2.918zM26.023 56.581l-5.51-3.175 1-.578 4.51 2.6 4.495-2.6 1 .578z" mask="url(#b)"/><path fill="#35444C" d="M25.523 56.003h1V50.23h-1zm31.735-17.75l-5.265-3.03 1-.576 4.765 2.74z" mask="url(#b)"/><path fill="#35444C" d="M52.993 41.011l-1-.577 5.026-2.902V32.34l1-.579v6.346zM4.96 44.441L.021 41.572l-.02-6.343 1 .578.018 5.19 4.937 2.868z" mask="url(#b)"/><path fill="#35444C" d="M.77 41.717l-.5-.865 4.688-2.722 1 .576zm4.216-19.784L.269 19.198l.501-.865 5.213 3.024z" mask="url(#b)"/><path fill="#35444C" d="M1 24.835l-1-.577.02-5.781 4.964-2.854 1 .577-4.965 2.855z" mask="url(#b)"/></g></svg>