<svg width="43" height="48" xmlns="http://www.w3.org/2000/svg"><g fill="none" fill-rule="evenodd"><path fill="#FFF" d="M8.422 10.42v21.8l-1.06 2.02-1.098-2.02V9.936"/><path stroke="#35444C" stroke-linecap="round" stroke-linejoin="round" d="M8.422 10.42v21.8l-1.06 2.02-1.098-2.02V9.936"/><path d="M8.4 11.064c0 .204-.342.37-.763.37-.42 0-1.339-.166-1.339-.37" stroke="#35444C" stroke-linecap="round" stroke-linejoin="round"/><path d="M8.422 10.42s-.03-.836.702-1.074c1.525-.495 2.665 1.66 3.56 3.672 0-8.393-8.595-9.478-8.595-9.478S1.996 4.912.437 6.022c6.079 0 5.827 3.914 5.827 3.914v1.304s1.97.048 2.144-.159c.015-.238.014-.66.014-.66" fill="#35444C"/><path d="M8.422 10.42s-.03-.836.702-1.074c1.525-.495 2.665 1.66 3.56 3.672 0-8.393-8.595-9.478-8.595-9.478S1.996 4.912.437 6.022c6.079 0 5.827 3.914 5.827 3.914v1.304s1.97.048 2.144-.159c.015-.238.014-.66.014-.66z" stroke="#35444C" stroke-linejoin="round"/><path d="M8.35 29.102s-1.245 1.43-1.974 1.444c0 .637-.015 2.003-.015 2.003l1.087 1.243.973-1.573-.07-3.117z" fill="#CBCFD2"/><path stroke="#35444C" stroke-linecap="round" stroke-linejoin="round" d="M8.422 10.42v21.8l-1.06 2.02-1.098-2.02V9.936"/><path d="M37.016 7.063v23.41s-.504 2.485-3.843 2.485-9.698-2.863-11.017-4.92c-1.32-2.058-2.262-4.574-2.262-8.805 0-4.232 3.15-15.017 4.893-16.984C25.794 1.113 27.777.425 29.02.97c1.242.542 5.824 2.988 6.56 3.532.739.544 1.437 1.242 1.437 2.562" fill="#FFF"/><path d="M22.347 27.794c.978 2.702 7.479 5.197 10.818 5.197 3.339 0 3.844-2.484 3.844-2.484V7.097s-.505 20.936-2.814 23.245c-2.31 2.31-11.848-2.548-11.848-2.548" fill="#CBCFD2"/><path d="M37.009 7.097v23.41s-.505 2.484-3.844 2.484c-3.34 0-13.374-2.077-13.374-12.162 0-4.231 3.245-16.58 4.988-18.546 1.007-1.136 2.989-1.825 4.231-1.281 1.243.543 5.824 2.989 6.562 3.532.737.544 1.437 1.243 1.437 2.563z" stroke="#35444C"/><path d="M37.03 10.927c.506 1.786 3.045 8.36 4.171 10.38 1.126 2.017 1.786 5.783-4.077 8.384" stroke="#35444C" stroke-linecap="round"/><path d="M37.009 7.097c0 .505-.661 1.552-1.049 2.406-.388.855-3.727 7.881-3.727 14.714s4.776 6.29 4.776 6.29m-.544-24.963c-2.563.776-5.358 5.59-5.707 6.406-.35.814-1.56 1.082-2.679.504-1.204-.621-4.94-2.812-6.004-3.801" stroke="#35444C"/><path d="M21.39 11.827c.82.666 5.829 3.425 6.289 3.68.462.257.667.308.154 1.743-.512 1.434-1.173 4.644-.863 8.837.303 4.099 1.515 5.57 2.21 6.23M26.96 11.91c-.769 1.558-1.717 3.713-2.116 5.563m-.693-7.296c-.648 1.59-1.551 4.004-1.995 6.133" stroke="#35444C" stroke-linecap="round"/><path d="M25.679 41.21c-.362-.274-.719-.56-1.069-.853.157-.167.306-.345.447-.538.414.214.833.426 1.26.64a4.737 4.737 0 0 1-.638.752m-1.918.699a9.694 9.694 0 0 1-.484-.574c.085-.039.167-.06.252-.108a3.96 3.96 0 0 0 .422-.284c.318.27.649.538.997.806-.454.24-.877.294-1.187.16m-1.978-1.292c-.207-.12-.329-.32-.406-.53.376-.17.748-.42 1.1-.75-.135.457-.205.91-.2 1.336 0 .015.004.028.005.044a.894.894 0 0 1-.499-.1m-1.893-1.262c-.669-.386-.783-1.842.113-3.395.42-.728.976-1.31 1.567-1.642.3-.168.868-.413 1.317-.154.209.12.33.321.407.534-.788.358-1.572 1.08-2.154 2.087-.499.862-.766 1.793-.758 2.625.001.015.005.029.006.044a.922.922 0 0 1-.498-.099m-1.895-4.698c-1.366-.594-2.489-1.234-3.28-1.854a6.354 6.354 0 0 1-.437-.378 3.57 3.57 0 0 1-.616-.728 1.715 1.715 0 0 1-.182-.39c-.024-.076-.058-.153-.065-.225-.014-.151-.059-.61.738-1.158.622-.43 1.707-.4 3.057.082 2.07.74 3.984 2.242 4.597 3.273a3.047 3.047 0 0 0-.667.276 4.03 4.03 0 0 0-.483.326c-1.543-1.537-4.375-2.824-6.562-2.315.164.232.415.494.758.776 1.752-.11 3.933.924 5.165 2.134a5.875 5.875 0 0 0-.624.821c-.025-.017-.046-.04-.076-.053-.46-.208-.912-.409-1.323-.587m6.337.66c.168 0 .32.036.449.11.21.12.33.32.407.533-.377.17-.75.426-1.105.76a4.59 4.59 0 0 0 .204-1.348c0-.018-.005-.033-.006-.05.017 0 .035-.006.051-.006M36 40.667c.218.356.263.724.135 1.125a.876.876 0 0 1-.206.353.937.937 0 0 1-.327.218c-.022.009-.05.011-.072.02-.335.12-.77.14-1.268.091a8.184 8.184 0 0 1-1.092-.19c-1.748-.422-3.913-1.37-5.633-2.199.12-.248.218-.497.297-.743 2.165.775 4.09 1.667 5.521 2.537.825.194 1.385.224 1.764.162-1.737-1.354-4.542-2.63-7.085-3.546.044-.324.042-.63.01-.92 2.568.456 6.914 1.392 7.956 3.091m-8.813-2.464c-.405-.136-.794-.26-1.17-.373.052-.196.097-.391.123-.582.163.035.438.081.802.14l.197.033c.055.228.07.49.048.782m-3.395.285c.44-.762.982-1.3 1.498-1.605-.039.618-.249 1.295-.622 1.94-.403.699-.934 1.26-1.497 1.597.04-.616.25-1.29.62-1.932m-1.016-.927c-.44.762-.982 1.299-1.5 1.605.04-.618.251-1.296.623-1.942.44-.761.982-1.297 1.499-1.604-.04.618-.25 1.296-.622 1.941m2.744 1.515c.074-.14.149-.28.212-.421.434.131.86.268 1.282.408a5.081 5.081 0 0 1-.258.64 95.534 95.534 0 0 1-1.236-.627m9.168 4.294c.02 0 .044.005.062.005.19 0 .365-.018.537-.04.234-.033.456-.081.651-.163.088-.036.166-.084.245-.13a1.734 1.734 0 0 0 .788-.983 2.147 2.147 0 0 0-.225-1.85c-1.301-2.124-6.247-3.103-8.966-3.567a1.743 1.743 0 0 0-.666-.708c-.328-.19-.702-.248-1.091-.21-.156-.462-.42-.833-.802-1.054-.329-.188-.702-.247-1.092-.207-.156-.462-.42-.832-.803-1.054a1.722 1.722 0 0 0-.575-.196c-.603-1.51-3.131-3.274-5.245-4.028-1.147-.41-2.746-.74-3.848.02-1.01.695-1.16 1.451-1.112 1.963.019.183.07.363.138.54.053.134.117.267.195.4.141.238.32.47.532.695.098.106.204.209.315.31 1.11 1.019 2.769 1.848 3.922 2.349a99.6 99.6 0 0 1 1.313.582c.009.004.018.002.027.006a5.678 5.678 0 0 0-.348.956c-2.672-.58-4.243-1.144-5.136-1.641a3.618 3.618 0 0 1-.703-.49c-.218-.202-.33-.388-.373-.551-.09-.347.132-.767.64-1.246a4.64 4.64 0 0 1-.536-.698c-.81.74-1.135 1.47-.95 2.168.097.364.33.704.7 1.028.198.172.437.338.717.502 1.125.654 2.927 1.237 5.51 1.797-.02.339-.006.663.062.955-4.498.254-5.502-1.012-5.703-1.42-.151-.31-.135-.628-.043-.925a5.384 5.384 0 0 1-.747-.506c-.262.634-.267 1.262.005 1.817.624 1.273 2.507 1.946 5.371 1.946.48 0 .99-.021 1.524-.06.134.17.286.323.476.432.269.156.568.23.882.23.07 0 .14-.014.21-.02.156.461.419.832.802 1.052.268.155.565.232.884.232.048 0 .1-.018.15-.022.032.05.07.103.111.16.164.387.41.698.75.894l.006.002c1.717 1.868 5.162 4.783 8.042 5.03.133.011.265.016.392.016.993 0 1.814-.363 2.467-1.044a7.452 7.452 0 0 1-1.163-.182c-.46.27-.99.392-1.62.338-2.227-.191-4.996-2.314-6.737-3.998.357-.082.722-.25 1.077-.49 2.485 1.79 5.457 3.387 7.726 3.81.362.068.705.107 1.025.111.02 0 .042.004.062.004.778 0 1.418-.204 1.845-.671.405-.443.536-.974.38-1.536a2.398 2.398 0 0 0-.308-.632 2.35 2.35 0 0 1-.331.179 3.098 3.098 0 0 1-.495.141c.138.191.243.375.29.546.076.272.02.491-.181.71-1.071 1.176-5.37-.417-9.327-3.237.256-.259.499-.556.72-.89 2.77 1.341 5.633 2.5 7.575 2.523" fill="#35444C"/></g></svg>