<svg xmlns="http://www.w3.org/2000/svg" width="16" height="16" viewBox="0 0 16 16"><g fill="#35444C" transform="translate(0 2)"><rect width="2.042" height="2.613" x="6.969" y="5.113" rx="1.021"/><path d="M9.722 6.586v.54c0 .71-.597 1.285-1.332 1.285h-.8c-.735 0-1.33-.575-1.33-1.285v-.534C3.907 6.5 1.731 6.212 0 5.761v6.12c0 .413.348.75.777.75h14.427a.764.764 0 0 0 .777-.75V5.723l-.055.015c-1.71.456-3.868.749-6.204.848z"/><path d="M15.204 2.137h-4.688v-.745C10.515.624 9.869.001 9.072 0H6.908c-.796 0-1.442.624-1.443 1.392v.745H.777a.764.764 0 0 0-.777.75v2.118l.113.03c1.685.45 3.824.736 6.146.828v-.15c0-.71.596-1.285 1.332-1.285h.799c.735 0 1.332.575 1.332 1.285v.144c2.266-.098 4.353-.381 6.003-.821l.256-.071V2.886a.736.736 0 0 0-.228-.53.791.791 0 0 0-.55-.22zm-5.61 0H6.387v-.745c0-.277.234-.502.521-.502h2.164c.288 0 .521.225.522.502v.745z"/></g></svg>