<svg xmlns="http://www.w3.org/2000/svg" width="16" height="16" viewBox="0 0 16 16"><path fill="#35444C" fill-rule="evenodd" d="M2.64 6.776c.325-.651.63-1.32 1.035-2.065.223-.353.467-.67.913-.707h6.838c.446.038.69.354.913.707.406.744.71 1.414 1.035 2.065H2.64zm3.206 2.678h4.301c.264 0 .467.204.467.446 0 .223-.203.428-.467.428H5.846c-.243 0-.467-.205-.467-.428 0-.242.224-.446.467-.446zM4.588 3c-.73 0-1.177.242-1.786 1.023L1.788 6.125H.246c-.244 0-.69 1.153.933 1.19L.631 8.524c.02 1.544.02 3.069.02 4.594 0 .316.285.577.63.577h2.11c.345 0 .609-.26.609-.577v-1.265h7.994v1.265c0 .316.284.577.629.577h2.11c.345 0 .609-.26.609-.577 0-1.525.02-3.05.02-4.594l-.548-1.209c1.644-.037 1.177-1.19.954-1.19h-1.542L13.21 4.023C12.603 3.242 12.156 3 11.426 3H4.588zm8.481 5.636c-.548 0-1.014.409-1.014.93 0 .502.466.93 1.014.93.568 0 1.015-.428 1.015-.93 0-.521-.447-.93-1.015-.93zm-10.124 0c.547 0 1.014.409 1.014.93 0 .502-.467.93-1.014.93-.569 0-1.015-.428-1.015-.93 0-.521.446-.93 1.015-.93z"/></svg>