<svg xmlns="http://www.w3.org/2000/svg" width="63" height="58" viewBox="0 0 63 58"><g fill="none" fill-rule="evenodd"><path fill="#FFF" d="M28.172 38.923c-.853.547-2.55 1.995-2.826 6.07-.72.414-5.348.499-10.919-2.457-4.684-2.486-4.44-4.357-4.44-5.3v-2.418c0-1.618 1.678-3.863 3.617-5.328 1.939-1.465 5.176-2.939 6.17-3.874.995-.936 4.727-4.396 7.363-6.06 2.765-1.743 4.858-2.72 5.787-3.09 1.077-.429 4.916-2.78 8.847-1.983 1.029-.59 3.805-1.493 5.907-.376 2.185 1.16 5.79 3.271 6.496 3.726.73.47 2.395 3.44 2.395 6.817 0 1.756-3.045 4.52-3.045 4.52L31.754 40l-3.582-1.077z"/><path stroke="#35444C" stroke-width="1.01" d="M28.172 38.923c-.853.547-2.55 1.995-2.826 6.07-.72.414-5.348.499-10.919-2.457-4.684-2.486-4.44-4.357-4.44-5.3v-2.418c0-1.618 1.678-3.863 3.617-5.328 1.939-1.465 5.176-2.939 6.17-3.874.995-.936 4.727-4.396 7.363-6.06 2.765-1.743 4.858-2.72 5.787-3.09 1.077-.429 4.916-2.78 8.847-1.983 1.029-.59 3.805-1.493 5.907-.376 2.185 1.16 5.79 3.271 6.496 3.726.73.47 2.395 3.44 2.395 6.817 0 1.756-3.045 4.52-3.045 4.52"/><path fill="#35444C" d="M19.915 39.446c-.145.248-.48.775-.568.87-.088.093-.473.23-.981.083-.508-.146-2.414-.68-3.659-1.501a19.89 19.89 0 0 1-2.547-2.054c-.144-.152-.197-.333-.08-.698.118-.365.233-.645.308-.808.076-.163.18-.34.637 0 .505.375 2.129 1.445 3.174 1.993s3.157 1.514 3.385 1.614c.258.113.485.235.33.5"/><path stroke="#35444C" stroke-linejoin="round" stroke-width="1.01" d="M51.171 19.378c-1.257-.198-4.184-.502-5.546-.1-1.36.401-7.802 3.44-9.503 5.984-1.7 2.545-3.848 5.86-4.18 6.358-.331.498-1.518 1.712-3.205 1.173-1.687-.538-4.783-2.062-5.81-2.691-1.027-.63-2.728-1.707-3.024-1.977-.295-.27-1.192-1.252-.059-2.574"/><path fill="#35444C" d="M21.132 40.918c.235.017 2.929.069 3.647-.203.444-.589 1.71-2.083 1.71-2.083v-1.104s-.007-.661-.481-.39c-.474.273-3.34 1.884-3.562 1.987-.2.096-.5.233-.72.243-.222.184-.818 1.003-.876 1.115-.059.112-.118.407.282.435m-8.631-10.965c.164-.07.737-.297.599-.08-.14.218-1.503 2.31-1.638 2.51-.135.2-.328.86.022 1.314-.092.451-.238 1.434-.295 1.592-.058.156-.13.286-.378-.036-.247-.323-.99-1.25-.452-2.624"/><path stroke="#35444C" stroke-width="1.01" d="M20.83 24.304c-.016-.214.016-.523-.166-.74-.183-.216-.72-.942-.916-.942-.196 0-.86.582-.877.76-.017.18-.216 1.236 0 1.5s.319.528.55.775"/><path fill="#000" d="M31.054 33.388l-1.02-.585-4.028 2.314-4.025-2.31-1.02.585 4.52 2.595.02 4.914 1.02-.004-.02-4.893z"/><path fill="#35444C" d="M5.1 24.286l-4.27-2.45.51-.878L6.12 23.7zm.004 21.168L.566 42.856v-5.788l1.02.586v4.616l4.538 2.6z"/><path fill="#35444C" d="M1.587 26.886l-1.021-.585V21.1l1.02.293z"/><path fill="#35444C" d="M1.331 21.831L.566 21.1 5.1 18.5l1.02.585zm0 21.171l-.51-.878L5.1 39.67l1.021.584zm23.303-6.526l-5.372-3.085 2.719-1.56 4.025 2.31 4.028-2.313 2.72 1.56-5.4 3.102.021 5.248-2.72.012z"/><path fill="#FFF" d="M30.034 30.852l-.85.488-3.178 1.826-3.174-1.822-.85-.488-.851.488-1.02.585-2.55 1.462 2.55 1.463 3.674 2.11.016 3.944.007 1.69 1.7-.007 1.02-.005 1.7-.008-.006-1.688-.017-3.914 3.7-2.125 2.549-1.464-2.55-1.462-1.019-.585-.851-.488zm.001 1.951l1.02.585-4.553 2.616.02 4.893-1.02.004-.02-4.914-4.521-2.595 1.02-.585 4.025 2.31 4.029-2.314z"/><path fill="#35444C" d="M30.035 32.738l-.029.016-4 2.298-3.997-2.294-.028-.016-.028.016-1.02.585-.085.049.085.049 4.492 2.578.02 4.882v.057h.056l1.021-.005h.057v-.057l-.02-4.86 4.524-2.6.085-.048-.085-.049-1.02-.585-.028-.016zm0 .065l1.02.585-4.553 2.616.02 4.893-1.02.004-.02-4.914-4.521-2.595 1.02-.585 4.025 2.31 4.029-2.314z"/><path fill="#CBCFD2" d="M55.439 19.685c-.801 3.585-5.712 9.236-13.895 13.651-8.183 4.414-13.364 7.952-15.945 8.082-.263.914-2.276 3.432-3.457 3.588-1.182.155 2.023.078 3.203-.013 1.181-.088 6.28-3.601 8.876-5.091 2.596-1.489 11.814-6.558 13.31-7.42 1.495-.862 6.49-3.457 7.534-4.936 1.044-1.48 1.595-2.531 1.504-3.407-.092-.875-1.13-4.454-1.13-4.454"/><path fill="#FFF" d="M30.925 43.27c-1.14 1.746-3.033 2.535-4.227 1.764-1.194-.771-1.238-2.81-.097-4.555 1.14-1.744 3.034-2.533 4.227-1.763 1.195.771 1.238 2.81.097 4.555"/><path stroke="#000" stroke-width="1.01" d="M30.925 43.27c-1.14 1.746-3.033 2.535-4.227 1.764-1.194-.771-1.238-2.81-.097-4.555 1.14-1.744 3.034-2.533 4.227-1.763 1.195.771 1.238 2.81.097 4.555z"/><path fill="#FFF" d="M52.456 31.651c-1.2 1.705-3.118 2.43-4.286 1.62-1.167-.81-1.14-2.85.06-4.555 1.198-1.705 3.117-2.43 4.285-1.62 1.166.811 1.14 2.85-.06 4.555"/><path stroke="#000" stroke-width="1.01" d="M52.456 31.651c-1.2 1.705-3.118 2.43-4.286 1.62-1.167-.81-1.14-2.85.06-4.555 1.198-1.705 3.117-2.43 4.285-1.62 1.166.811 1.14 2.85-.06 4.555z"/><path stroke="#35444C" stroke-linejoin="round" stroke-width="1.01" d="M41.77 14.482c.553.118 2.376.363 4.742 1.636 2.367 1.273 3.994 2.43 4.66 3.26v.671a1.84 1.84 0 0 1-.83 1.524l-16.12 9.693"/><path stroke="#35444C" stroke-width="1.01" d="M25.073 21.028c.275-.207.739-1 2.065-.284 1.858 1.003 6.69 3.653 7.263 4.098.575.444 1.44.804.445 2.344"/><path fill="#FFF" d="M33.295 30.552c.132.013 2.172.613 2.368.682.195.07.588.084.574.543-.014.46 0 .801-.098.936-.098.136-.434.442-.875.429-.442-.015-3.084.066-3.303-.204-.22-.27-.417-.659-.165-1.09.253-.433 1.08-1.337 1.5-1.296"/><path stroke="#35444C" stroke-width="1.01" d="M33.295 30.552c.132.013 2.172.613 2.368.682.195.07.588.084.574.543-.014.46 0 .801-.098.936-.098.136-.434.442-.875.429-.442-.015-3.084.066-3.303-.204-.22-.27-.417-.659-.165-1.09.253-.433 1.08-1.337 1.5-1.296z"/><path fill="#35444C" d="M54.96 19.446c.002.19-.491 1.948-.706 2.498-.216.55-.085.627.107.703.192.076.646.226.646.226l.7-.715.067-.889"/><path stroke="#35444C" stroke-width="1.01" d="M28.172 38.923c-.853.547-2.55 1.995-2.826 6.07-.72.414-5.348.499-10.919-2.457m17.203-1.147l15.524-8.907m7.02-14.649c.73.47 2.395 3.44 2.395 6.817 0 1.756-3.045 4.519-3.045 4.519"/><path fill="#B4B4B4" d="M52.335 27.272c-.358-.249-.79-.341-1.25-.303.26.922.015 2.151-.753 3.244-.764 1.086-1.836 1.748-2.791 1.83.121.434.345.806.698 1.05 1.1.765 2.91.081 4.04-1.526 1.132-1.609 1.156-3.531.056-4.295M30.756 38.963c-.358-.248-.79-.34-1.25-.302.26.921.015 2.151-.754 3.244-.764 1.085-1.836 1.747-2.79 1.83.122.433.346.805.698 1.05 1.1.764 2.91.08 4.04-1.527 1.131-1.608 1.156-3.531.056-4.295"/><path stroke="#35444C" stroke-width="1.01" d="M52.456 31.651c-1.2 1.705-3.118 2.43-4.286 1.62-1.167-.81-1.14-2.85.06-4.555 1.198-1.705 3.117-2.43 4.285-1.62 1.166.811 1.14 2.85-.06 4.555zM30.925 43.27c-1.14 1.746-3.033 2.535-4.227 1.764-1.194-.771-1.238-2.81-.097-4.555 1.14-1.744 3.034-2.533 4.227-1.763 1.195.771 1.238 2.81.097 4.555z"/><path fill="#35444C" d="M62.79 19.798l-1.02.586V15.17l-4.535-2.587 1.022-.585 4.533 2.584zm-4.534 19.157l-1.02-.585 4.533-2.609v-4.61l1.021-.584v5.778z"/><path fill="#35444C" d="M58.256 17.783l-1.02-.585 4.789-2.743.51.877zm3.769 18.71l-4.788-2.74 1.02-.586 4.277 2.447zM37.345 0l5.044 2.894-1.02.585-4.024-2.309-4.023 2.309-1.02-.585zM25.5 56.859h1.022v-5.18H25.5z"/><path fill="#35444C" d="M26.011 57.452l-5.046-2.89 1.02-.586 4.026 2.306 4.024-2.307 1.02.585zM37.85 5.494l-1.02.588V.644h1.02z"/></g></svg>