<svg xmlns="http://www.w3.org/2000/svg" width="16" height="16" viewBox="0 0 16 16"><g fill="#35444C" fill-rule="evenodd"><path d="M12.73 3c.522 0 .841.193 1.276.818L14.73 5.5h1.102c.159 0 .492.922-.681.952l.39.967c0 1.235-.014 2.455-.014 3.675 0 .252-.188.46-.434.46h-1.507a.433.433 0 0 1-.166-.032V8.797c.13.122.3.198.484.198a.737.737 0 0 0 .725-.744.727.727 0 0 0-.725-.744.732.732 0 0 0-.704.57l-.142-.333c.757-.117.976-.502.656-1.157h-1.171l-.229-.567h1.808c-.232-.52-.45-1.056-.74-1.651-.159-.283-.332-.536-.651-.566h-1.474a527.04 527.04 0 0 1-4.644-.038C7.027 3.182 7.342 3 7.848 3z"/><path d="M10.445 4.173c.522 0 .84.194 1.275.819l.725 1.68h1.1c.16 0 .494.923-.68.953l.391.966c0 1.235-.014 2.455-.014 3.675 0 .253-.189.461-.435.461H11.3a.433.433 0 0 1-.166-.033V9.971c.13.122.3.197.485.197a.737.737 0 0 0 .724-.743.727.727 0 0 0-.724-.744.732.732 0 0 0-.705.57l-.141-.334c.756-.116.975-.502.656-1.156h-1.172c-.068-.17-.144-.36-.229-.567h1.808c-.232-.522-.45-1.057-.739-1.652-.16-.283-.333-.536-.652-.565H8.971a527.04 527.04 0 0 1-4.644-.038c.414-.584.73-.766 1.235-.766z"/><path d="M1.885 8.366c.232-.52.45-1.056.74-1.65.159-.283.333-.536.651-.566H8.16c.32.03.493.283.652.565.29.595.508 1.13.74 1.651H1.884zm2.29 2.143h3.072c.188 0 .333.163.333.357a.342.342 0 0 1-.333.342H4.175c-.174 0-.333-.164-.333-.342 0-.194.159-.357.333-.357zm-.899-5.162c-.521 0-.84.193-1.275.818l-.724 1.68H.176c-.174 0-.493.923.666.953l-.391.967c.014 1.235.014 2.454.014 3.674 0 .253.203.461.45.461h1.507c.246 0 .434-.208.434-.46v-1.012h5.71v1.011c0 .253.202.461.448.461h1.507c.247 0 .435-.208.435-.46 0-1.22.014-2.44.014-3.675l-.39-.967c1.173-.03.84-.952.68-.952h-1.1l-.725-1.681C9 5.54 8.681 5.347 8.16 5.347H3.276zm6.057 4.507a.736.736 0 0 0-.724.744c0 .402.333.744.724.744a.737.737 0 0 0 .725-.744.727.727 0 0 0-.725-.744zm-7.23 0c.391 0 .724.327.724.744 0 .402-.333.744-.724.744a.737.737 0 0 1-.725-.744c0-.417.32-.744.725-.744z"/></g></svg>