<svg xmlns="http://www.w3.org/2000/svg" viewBox="0 0 512 512"><g fill="#fff"><path d="M346 319a10 10 0 0 0-10 10v69a50.06 50.06 0 0 1-50 50H178a10 10 0 0 0-10 10v19.89L144.15 454a10 10 0 0 0-9.17-6H70a50.06 50.06 0 0 1-50-50V244a50.06 50.06 0 0 1 50-50h101a10 10 0 0 0 0-20H70a70.08 70.08 0 0 0-70 70v154a70.08 70.08 0 0 0 70 70h59.86l41.07 41.07A10 10 0 0 0 188 502v-34h98a70.08 70.08 0 0 0 70-70v-69a10 10 0 0 0-10-10z"/><path d="M366.66 0h-25.31C261.2 0 196 65.2 196 145.35s65.2 145.34 145.35 145.34h25.3a145.62 145.62 0 0 0 36.89-4.69l37.39 37.37a10 10 0 0 0 7.07 2.92 9.87 9.87 0 0 0 3.83-.76 10 10 0 0 0 6.17-9.24V258.4a146.76 146.76 0 0 0 38.21-47.1 143.81 143.81 0 0 0 15.79-66C512 65.2 446.8 0 366.66 0zM442 245.53a10 10 0 0 0-4 8v38.6l-24.47-24.46a10 10 0 0 0-10-2.48 125.27 125.27 0 0 1-36.87 5.51h-25.3a125.35 125.35 0 1 1 0-250.69h25.31A125.34 125.34 0 0 1 442 245.53z"/><path d="M359.78 70.17a42 42 0 0 0-31.87 11.28 42.48 42.48 0 0 0-13.45 31 10 10 0 1 0 20 0 22.34 22.34 0 0 1 23.94-22.33 22.34 22.34 0 0 1 3.31 44.08 18.92 18.92 0 0 0-14.91 18.55v24a10 10 0 1 0 20 0v-23.2a42.34 42.34 0 0 0-7-83.38zM356.8 206.33a10 10 0 1 0 7.07 2.93 10.08 10.08 0 0 0-7.07-2.93zM275 310H64a10 10 0 0 0 0 20h211a10 10 0 0 0 0-20zM275 366a10 10 0 1 0 7.07 2.93A10.08 10.08 0 0 0 275 366zM64 366a10 10 0 0 0 0 20h171.67a10 10 0 0 0 0-20zM210 254H64a10 10 0 0 0 0 20h146a10 10 0 0 0 0-20z"/></g></svg>