<svg width="148" height="84" viewBox="0 0 148 84" xmlns="http://www.w3.org/2000/svg"><defs><linearGradient x1="0%" y1="65.349%" y2="34.651%" id="a"><stop stop-color="#FBA308" offset="0%"/><stop stop-color="#FBB50C" offset="100%"/></linearGradient></defs><g fill="none" fill-rule="evenodd"><path d="M75.851 1.011l70.492 38.49a2.939 2.939 0 0 1 .031 5.143l-66.53 37.395a11.76 11.76 0 0 1-11.648-.071l-66.6-38.504a2.94 2.94 0 0 1 .095-5.143L72.137.987a3.918 3.918 0 0 1 3.714.023z" fill="url(#a)"/><path d="M69.916 43.513c.765 1.176 1.706 2.068 2.644 2.594 1.024.57 2.04.707 2.808.284 1.79-.986 2.242-1.998 4.924-5.078 0 0 6.097-7.414 17.327-14.921l9.254-6.509c1.446-1.07 1.296-3.954-.336-6.571l-.538-.774c-.788-1.267-1.777-2.231-2.76-2.782-1.046-.587-2.086-.708-2.874-.23l-4.893 2.702" fill="#CBCFD2"/><path d="M69.916 43.513c.765 1.176 1.706 2.068 2.644 2.594 1.024.57 2.04.707 2.808.284 1.79-.986 2.242-1.998 4.924-5.078 0 0 6.097-7.414 17.327-14.921l9.254-6.509c1.446-1.07 1.296-3.954-.336-6.571l-.538-.774c-.788-1.267-1.777-2.231-2.76-2.782-1.046-.587-2.086-.708-2.874-.23l-4.893 2.702" stroke="#35444C" stroke-width=".99"/><path d="M71.409 28.087L66.1 19.744c-.718-.982-1.544-1.725-2.362-2.184-1.027-.576-2.038-.7-2.802-.279l5.17-2.841c.763-.421 1.775-.297 2.802.279.817.459 1.644 1.202 2.362 2.185l4.999 7.89-4.861 3.292z" fill="#fff"/><path d="M71.409 28.087L66.1 19.744c-.718-.982-1.544-1.725-2.362-2.184-1.027-.576-2.038-.7-2.802-.279l5.17-2.841c.763-.421 1.775-.297 2.802.279.817.459 1.644 1.202 2.362 2.185l4.999 7.89-4.861 3.292z" stroke="#35444C" stroke-width=".99"/><path d="M101.647 16.735c1.632 2.618 1.782 5.501.336 6.571l-2.789 1.869c-8.842 5.923-13.049 8.962-23.61 21.078-.788.585-1.901.479-3.024-.145-.938-.526-1.879-1.419-2.644-2.594L59.185 25.938c-1.653-2.527-1.912-5.437-.589-6.623l1.98-1.779c.787-.704 1.965-.647 3.161.025.818.459 1.644 1.203 2.362 2.184l5.309 8.343 23.784-15.72c.789-.478 1.83-.357 2.875.23.983.551 1.971 1.515 2.76 2.782l.819 1.356z" fill="#fff"/><path d="M101.647 16.735c1.632 2.618 1.782 5.501.336 6.571l-2.789 1.869c-8.842 5.923-13.049 8.962-23.61 21.078-.788.585-1.901.479-3.024-.145-.938-.526-1.879-1.419-2.644-2.594L59.185 25.938c-1.653-2.527-1.912-5.437-.589-6.623l1.98-1.779c.787-.704 1.965-.647 3.161.025.818.459 1.644 1.203 2.362 2.184l5.309 8.343 23.784-15.72c.789-.478 1.83-.357 2.875.23.983.551 1.971 1.515 2.76 2.782l.819 1.356z" stroke="#35444C" stroke-width=".99"/></g></svg>