<svg xmlns="http://www.w3.org/2000/svg" width="35" height="27" viewBox="0 0 35 27"><g fill="none" fill-rule="evenodd"><path fill="#CBCFD2" d="M8.61 24.342c.51.784 1.138 1.379 1.764 1.73.683.38 1.36.47 1.871.189 1.194-.658 1.495-1.332 3.283-3.386 0 0 4.065-4.942 11.551-9.947l6.17-4.34c.963-.713.863-2.635-.225-4.38l-.359-.516c-.525-.844-1.184-1.487-1.84-1.854-.697-.392-1.39-.472-1.916-.154l-3.261 1.802"/><path stroke="#35444C" stroke-width=".99" d="M8.61 24.342c.51.784 1.138 1.379 1.764 1.73.683.38 1.36.47 1.871.189 1.194-.658 1.495-1.332 3.283-3.386 0 0 4.065-4.942 11.551-9.947l6.17-4.34c.963-.713.863-2.635-.225-4.38l-.359-.516c-.525-.844-1.184-1.487-1.84-1.854-.697-.392-1.39-.472-1.916-.154l-3.261 1.802"/><path fill="#FFF" d="M9.606 14.058l-3.54-5.562c-.478-.654-1.03-1.15-1.574-1.456-.685-.384-1.36-.467-1.868-.186L6.071 4.96c.509-.28 1.183-.198 1.868.186.545.306 1.096.802 1.575 1.457l3.332 5.26-3.24 2.195z"/><path stroke="#35444C" stroke-width=".99" d="M9.606 14.058l-3.54-5.562c-.478-.654-1.03-1.15-1.574-1.456-.685-.384-1.36-.467-1.868-.186L6.071 4.96c.509-.28 1.183-.198 1.868.186.545.306 1.096.802 1.575 1.457l3.332 5.26-3.24 2.195z"/><path fill="#FFF" d="M29.765 6.49c1.088 1.745 1.188 3.668.224 4.38l-1.86 1.246c-5.894 3.949-8.699 5.975-15.74 14.052-.524.39-1.267.32-2.015-.096-.626-.351-1.253-.946-1.763-1.73L1.457 12.625C.355 10.94.182 9 1.064 8.21l1.32-1.187c.525-.47 1.31-.43 2.108.017.545.306 1.096.802 1.574 1.456l3.54 5.562 15.856-10.48c.526-.319 1.22-.238 1.917.153.655.367 1.314 1.01 1.84 1.855l.546.904z"/><path stroke="#35444C" stroke-width=".99" d="M29.765 6.49c1.088 1.745 1.188 3.668.224 4.38l-1.86 1.246c-5.894 3.949-8.699 5.975-15.74 14.052-.524.39-1.267.32-2.015-.096-.626-.351-1.253-.946-1.763-1.73L1.457 12.625C.355 10.94.182 9 1.064 8.21l1.32-1.187c.525-.47 1.31-.43 2.108.017.545.306 1.096.802 1.574 1.456l3.54 5.562 15.856-10.48c.526-.319 1.22-.238 1.917.153.655.367 1.314 1.01 1.84 1.855l.546.904z"/></g></svg>