<svg xmlns="http://www.w3.org/2000/svg" xmlns:xlink="http://www.w3.org/1999/xlink" width="32" height="32" viewBox="0 0 32 32"><defs><path id="a" d="M21.691 9.63l-.931.995-6.49 6.934-1.947-1.96-.96-.967-1.919 1.932.96.967 2.935 2.956.987.994.96-1.022 7.449-7.959.932-.995z"/></defs><g fill="#00BF3B" fill-rule="evenodd"><path d="M16 0c8.837 0 16 7.163 16 16s-7.163 16-16 16S0 24.837 0 16 7.163 0 16 0zm0 3C8.82 3 3 8.82 3 16s5.82 13 13 13 13-5.82 13-13S23.18 3 16 3z"/><use xlink:href="#a"/></g></svg>