<svg xmlns="http://www.w3.org/2000/svg" width="64" height="64" viewBox="0 0 64 64"><path fill="#FFF" fill-rule="evenodd" d="M37.151 9a3 3 0 0 1 3 3v.052h6.806a3 3 0 0 1 2.995 2.825l.005.176v36a3 3 0 0 1-2.824 2.995l-.176.005H17a3 3 0 0 1-2.995-2.824L14 51.053v-36a3 3 0 0 1 2.824-2.995l.176-.005 6.805-.001V12a3 3 0 0 1 2.824-2.995L26.805 9zm-13.346 5.052H17a1 1 0 0 0-.993.884l-.007.117v36a1 1 0 0 0 .883.993l.117.007h29.957c.512 0 .935-.387.993-.884l.007-.116v-36a1 1 0 0 0-.883-.993l-.117-.007-6.806-.001v.054a3 3 0 0 1-2.824 2.995l-.176.005H26.805a3 3 0 0 1-3-3v-.054zm19.981 25.45v2H25.518v-2h18.268zm-20.617 0v2h-3v-2h3zm20.617-5.547v2H25.518v-2h18.268zm-20.617 0v2h-3v-2h3zm20.617-5.547v2H25.518v-2h18.268zm-20.617 0v2h-3v-2h3zm20.617-5.547v2H25.518v-2h18.268zm-20.617 0v2h-3v-2h3zM37.15 11H26.805a1 1 0 0 0-1 1v2.106a1 1 0 0 0 1 1h10.346a1 1 0 0 0 1-1V12a1 1 0 0 0-1-1z"/></svg>