<svg xmlns="http://www.w3.org/2000/svg" width="40" height="40" viewBox="0 0 40 40"><g fill="#fdd319" fill-rule="evenodd"><path d="M38 19.905C38 30.57 29.143 38 19.905 38 9.238 38 2 29.238 2 19.905 2 9.905 9.905 2 19.905 2 30.57 2 38 10.571 38 19.905zm1.905 0c0 11.428-9.334 20-20 20-6.667 0-16-4.095-18.857-13.048-.477-1.428-.953-3.81-.953-4.286v-5.047C2 6.095 11.048.095 19.905.095c11.428 0 20 9.048 20 19.81z"/><path d="M30.667 28c.38-.667-3.524-4.381-4.667-4.286-1.333.096-2 2.286-3.143 2.476-1.143.096-2.762-.666-5.143-4.666l-.19-.286c-2.286-3.81-2.19-5.619-1.524-6.38.762-.858 2.667-.572 3.333-1.62.667-.857-.952-5.81-1.619-5.81 0 0-3.428 0-5.238 1.43-2 1.523-.19 9.523 2 13.523l.19.286c2.477 4 9.334 10.38 11.905 9.428C28.952 31.238 30.667 28 30.667 28z"/></g></svg>