<svg xmlns="http://www.w3.org/2000/svg" xmlns:xlink="http://www.w3.org/1999/xlink" width="30" height="30" viewBox="0 0 30 30"><defs><path id="a" d="M0 .486h29.514V30H0z"/></defs><g fill="none" fill-rule="evenodd"><path fill="#97A0A5" d="M12.1 6.407a1.128 1.128 0 1 0-2.26 0 1.13 1.13 0 0 0 2.26 0m-5.966 6.332a1.356 1.356 0 1 0-.002 2.712 1.356 1.356 0 0 0 .002-2.712m7.648.541a1.807 1.807 0 1 0 0 3.614 1.807 1.807 0 0 0 0-3.614m5.221-.541a.903.903 0 1 0 0 1.806.903.903 0 0 0 0-1.806m3.167 2.713a1.582 1.582 0 1 0 0 3.163 1.582 1.582 0 0 0 0-3.163m-9.716 5.652a2.03 2.03 0 0 0-2.03 2.032 2.032 2.032 0 1 0 2.03-2.032M9.18 18.617a.79.79 0 1 0 0 1.58.79.79 0 0 0 0-1.58M23.564 3.316a1.658 1.658 0 1 0 0-3.316 1.658 1.658 0 0 0 0 3.316m3.738 3.335a.85.85 0 1 0 .002-1.698.85.85 0 0 0-.002 1.698m-5.246.711a1.083 1.083 0 1 0 2.165 0 1.083 1.083 0 0 0-2.165 0"/><g transform="translate(0 -.486)"><mask id="b" fill="#fff"><use xlink:href="#a"/></mask><path fill="#97A0A5" d="M14.757 28.5C7.446 28.5 1.5 22.553 1.5 15.243S7.446 1.986 14.757 1.986c.449 0 .902.024 1.356.072.025.881.33 1.712.857 2.388a6.4 6.4 0 0 0-.45 2.356c0 3.59 2.92 6.51 6.51 6.51.56 0 1.116-.075 1.66-.224A5.175 5.175 0 0 0 28 14.679c.01.193.015.38.015.564 0 7.31-5.946 13.257-13.257 13.257m14.58-15.429a3.647 3.647 0 0 1-.91.127c-1.387 0-2.58-.775-3.211-1.906a4.96 4.96 0 0 1-2.185.521 5.01 5.01 0 0 1-5.01-5.011c0-.989.296-1.905.79-2.681a2.577 2.577 0 0 1-1.2-2.175c0-.404.102-.781.267-1.122a14.789 14.789 0 0 0-3.121-.338C6.607.486 0 7.093 0 15.243 0 23.393 6.607 30 14.757 30c8.15 0 14.757-6.607 14.757-14.757 0-.74-.072-1.461-.177-2.172" mask="url(#b)"/></g></g></svg>