<svg xmlns="http://www.w3.org/2000/svg" width="46" height="56" viewBox="0 0 46 56"><g fill="none" fill-rule="evenodd"><path fill="#FFF" d="M19 10c-2.667-2-6.167-5-10.5-9L6 0l-.5 2 2 3 3 3h-2l-5-2h-2C.5 6.667.333 7.667 1 9s4.833 3.333 12.5 6l-5 2L1 21l.5 2H4l6.5-2 6-1 1 1-3 2-3.5 4 .5 3 4 6 9 4 6-5 6-10 6-4 2-5c-3.667-5.333-6.167-7.667-7.5-7-1.333.667-4.5 2.667-9.5 6-3-1.333-5.833-3-8.5-5z"/><path stroke="#35444C" stroke-width=".99" d="M13.545 15.161S1.722 9.733 1.398 9.568C.623 9.175.263 8.244.651 7.256c.37-.941 1.354-1.363 2.215-1.039l12.895 4.081 2.988 1.864m-1.277 9.198l-1.41-1.537-7.107 1.275L3.07 23.39c-.78.302-1.682-.162-2.015-1.038-.333-.877.029-1.832.809-2.135l6.062-3.145 7.473-2.448 6.107.703"/><path stroke="#35444C" stroke-width=".99" d="M10.656 8.682L5.622 3.104c-.464-.506-.487-1.606.156-2.208C6.42.293 7.43.438 7.95.923c0 0 10.401 8.88 11.978 10.038 1.577 1.16 6.498 3.794 7.052 3.74.555-.056 8.307-4.89 8.307-4.89 2.05-1.383 5.52.239 7.752 3.62 2.232 3.38 2.38 7.24.33 8.622l-6.792 4.522-4.93 7.81-3.05 3.847-3.859 2.488c-.962.519-2.198.076-2.76-.988-.563-1.064-.238-2.347.724-2.866l1.532-2.075 1.078-3.485-3.017-4.416-3.98-.03-2.99 3.547-1.154 5.272c0 .926-.786 1.677-1.758 1.677-.97 0-1.758-.751-1.758-1.677l.359-7.224s1.63-5.234 5.624-6.645c3.994-1.41 7.813-2.4 7.813-2.4"/><path fill="#CBCFD2" d="M21.956 39.922c.562 1.064 1.821 1.317 2.783.797l3.86-2.487 3.05-3.846 4.929-7.81 6.792-4.523c2.05-1.381 1.902-5.242-.33-8.622 0 0 2.755 5.623-6.607 11.165-4.123 2.44-7.046 12.352-12.187 14.195"/><path fill="#FFF" d="M11.22 34.557l-2.266 2.769v4.796l7.104 6.285 7.105-6.285v-4.796l-2.215-2.78"/><path stroke="#35444C" stroke-width=".99" d="M11.22 34.557l-2.266 2.769v4.796l7.104 6.285 7.105-6.285v-4.796l-2.215-2.78"/><path fill="#CBCFD2" d="M16.059 44.537l.11 3.67 5.81-5.404"/><path stroke="#35444C" stroke-width=".99" d="M16.059 44.537l7.104-2.415m-7.104-2.779l-4.78-1.62V34.58l4.78-1.72 4.78 1.72v3.142l-4.78 1.62m0 5.195l-7.104-2.415m11.883-4.4l2.325 4.4m-11.884-4.4l-2.324 4.4m7.104-2.779v8.864"/><path fill="#FFF" d="M11.015 28.455l-.358 7.224c0 .926.787 1.677 1.757 1.677.971 0 1.585-.756 1.758-1.677l1.153-5.272 1.938-2.298"/><path stroke="#35444C" stroke-width=".99" d="M11.015 28.455l-.358 7.224c0 .926.787 1.677 1.757 1.677.971 0 1.585-.756 1.758-1.677l1.153-5.272 1.938-2.298M43.04 13.43c2.232 3.382 2.38 7.242.33 8.623l-6.792 4.522-4.93 7.81-3.05 3.847-3.859 2.488c-.962.519-2.273.081-2.837-.983"/><path fill="#FFF" d="M16.059 48.407l7.104-6.285"/><path stroke="#35444C" stroke-width=".99" d="M16.059 48.407l7.104-6.285"/><path fill="#525252" d="M11.645 51.827l-.989-.572V48.73l.989.572zm4.503 3.922l-.988-.57v-3.82l.988.57zm4.494-2.495l-.989-.58v-4.267l.989.58z"/></g></svg>