<svg id="Layer_1" xmlns="http://www.w3.org/2000/svg" viewBox="0 0 24 24"><style>.st0{fill:#faa000}</style><title>atoms / icon / doc</title><path class="st0" d="M2.6 17h-1v-5.7h2c1.2 0 2 .7 2 1.8s-.8 1.8-2 1.8h-1V17zm0-3h.9c.7 0 1.1-.3 1.1-.9s-.4-.9-1.1-.9h-.9V14zm5.3-1.8v3.9h.8c1.1 0 1.8-.7 1.8-1.9s-.7-1.9-1.7-1.9h-.9zm-1 4.8v-5.7h1.8c1.7 0 2.7 1.1 2.7 2.8 0 1.8-1 2.8-2.7 2.8H6.9zm7 0h-1v-5.7h3.4v.9h-2.4v1.6h2.2v.8h-2.2V17z"/><path class="st0" d="M18 3l-3-3H3v9.5h2V2h8v6h6v13H5v-2.3H3V23h18V6z"/></svg>