<svg xmlns="http://www.w3.org/2000/svg" width="30" height="41" viewBox="0 0 30 41"><g fill="none" fill-rule="evenodd"><path fill="#FFF" d="M13.313 7.53l3.437.957 3.126 1.947 3.54 4.408-10.832-6.39.729-.922zm14.27 25.625s-4.722.171-7.95-2.289c-3.23-2.46-5-4.818-5.105-5.603-.104-.786 4.132 2.084 4.132 2.084l3.715-1.914.903-3.006-2.569-1.356 4.27-1.822.695-3.04-.868-.616-.868.479 4.444-5.297-2.916-4.988-3.438-2.835L18.73.935 14.355.594l-3.091.888-2.43 1.128L6.09 4.592 4.32 4.01.5 6.129l-.07 3.52 3.37 1.843-3.299 2.086v3.792l3.68 1.708s1.493 9.26 8.195 15.683c0 0 8.576 7.824 13.715 4.817l3.576-2.084-2.084-4.34z"/><path d="M21.61 7.598s4.967 2.324 3.89-1.708c0 0 3.646 3.588 4.097 5.33l-2.5 2.973-2.917 1.469 2.084-2.358-4.653-5.706zm.66 10.626l-.867 3.007 3.472-2.05.66-2.87zm1.042 4.544l-1.041 2.87-3.334 1.777.764-2.938zm4.375 10.319l-3.125 1.742 1.632 4.68 3.438-2.05zm-15.289-3.451s.14-1.982 1.412-2.46c1.273-.479 2.13.25 2.13.25s-1.528-1.526-1.505-2.482l-5.717-3.098s.856 4.373 3.68 7.79M8.417 17.837l3.078-1.845-3.356-1.777zm.602-7.244l3.541-1.958.348-1.094s-2.986.364-3.89 3.052" fill="#CBCFD2"/><path stroke="#35444C" stroke-width=".99" d="M24.227 35.011l3.078-1.845"/><g stroke-width=".99"><path stroke="#35444C" d="M24.065 15.764l1.655-1.8c.328-.357.375-.882.113-1.29-1.475-2.285-6.628-9.454-13.736-10.372 0 0-5.74-1.07-7.778 5.809L.547 6.038"/><path stroke="#35444C" d="M18.903 27.45l.73-2.381a.732.732 0 0 0-.34-.851L8.208 17.882v-3.758l12.33 6.804a.712.712 0 0 0 1.03-.428l.402-1.483a.977.977 0 0 0-.461-1.103L8.972 10.707c1.875-4.031 5-3.143 5-3.143 5.725 1.354 8.613 5.842 9.565 7.645a.813.813 0 0 0 1.128.317l2.588-1.504 1.81-2.047c.38-.43.42-1.053.114-1.536-4.243-6.706-9.65-9.042-9.65-9.042-5.6-2.83-11.873 1.883-11.873 1.883m5.433 4.233s-.451.512-.59 1.093"/><path stroke="#35444C" d="M24.61 15.576l.437.253c.42.244.62.736.487 1.197l-.499 1.729a1.346 1.346 0 0 1-.63.796l-3.115 1.77M12.52 8.567l10.804 6.263M.5 13.51l3.264 1.707v-3.69L.975 9.951A.93.93 0 0 1 .5 9.143v-2.65a.79.79 0 0 1 .399-.685l3.438-1.985 1.666.966m8.368 20.201s1.84 4.219 6.111 6.32c0 0 2.733 1.882 6.38 1.68.469-.027.905.236 1.085.662l1.292 3.045a.96.96 0 0 1-.392 1.197L25.64 39.68m3.17-27.47l-3.495 2.142m.445 1.89l-3.594 2.05"/><path stroke="#525252" d="M23.364 22.41l-3.559 2.1"/><path stroke="#35444C" d="M12.522 8.602l-3.504 1.991m2.654 5.321l-3.594 2.04m-4.314-6.427L.908 13.261a.843.843 0 0 0-.408.72v2.789c0 .306.173.587.448.73l3.232 1.68s1.598 10.387 9.792 16.81c0 0 6.473 5.442 11.408 3.855a.79.79 0 0 0 .497-1.013L24.72 35.51c-.14-.402-.568-.616-.989-.52-3.585.813-8.022-2.416-8.022-2.416-5.347-3.348-6.944-10.728-6.944-10.728l9.48 5.24c.409.225.906.22 1.31-.012l2.41-1.387c.265-.152.463-.395.556-.682l.597-1.835a.962.962 0 0 0-.464-1.144l-1.806-1.069"/></g></g></svg>