<svg xmlns="http://www.w3.org/2000/svg" width="51" height="57" viewBox="0 0 51 57"><g fill="none" fill-rule="evenodd"><path fill="#FFF" d="M40 28l11-6-10-5 5-10-6-3-3 2c-1.333 8-1 13 1 15 3 3 2 7 2 7zm-18 7h2l10 5-6 8-11-4 5-9zM7 35c6 3.333 10.667 0 14-10l-4-9-1 4-10 2c-1.333-.667-2-1.667-2-3-4 7.333-3 12.667 3 16z"/><path fill="#CBCFD2" d="M31.297 47.19l-4.078 9.57-2.535-8.103"/><path stroke="#35444C" stroke-width=".99" d="M31.297 47.19l-4.078 9.57-2.535-8.103"/><path fill="#FFF" d="M19.673 46.093l-9.735-2.115 8.672-3.614"/><path stroke="#35444C" stroke-width=".99" d="M19.673 46.093l-9.735-2.115 8.672-3.614"/><path fill="#FFF" d="M22.451 46.537a5.886 5.886 0 0 1-5.89-5.881 5.886 5.886 0 0 1 5.89-5.881"/><path stroke="#525252" stroke-width=".99" d="M22.451 46.537a5.886 5.886 0 0 1-5.89-5.881 5.886 5.886 0 0 1 5.89-5.881"/><path stroke="#35444C" stroke-width=".99" d="M19.89 45.954a5.881 5.881 0 0 1-3.33-5.298 5.886 5.886 0 0 1 5.891-5.881c.978 0 1.9.238 2.712.658"/><path fill="#FFF" d="M31.784 37.523c3.535 0 6.4 2.86 6.4 6.389 0 3.528-2.865 6.389-6.4 6.389a6.395 6.395 0 0 1-5.263-2.754"/><path stroke="#525252" stroke-width=".99" d="M31.784 37.523c3.535 0 6.4 2.86 6.4 6.389 0 3.528-2.865 6.389-6.4 6.389a6.395 6.395 0 0 1-5.263-2.754"/><path fill="#CBCFD2" d="M37.22 40.656c.307.987.462 1.436.243 2.52-.696 3.46-4.07 5.7-7.536 5.003-1.66-.334-3.124-.655-4.034-1.932.67 2.162 2.3 3.419 4.68 3.897 3.464.695 6.72-1.374 7.418-4.833.363-1.801.219-3.267-.77-4.655"/><path stroke="#35444C" stroke-width=".99" d="M29.14 38.091a6.387 6.387 0 0 1 2.644-.568c3.535 0 6.4 2.86 6.4 6.389 0 3.528-2.865 6.388-6.4 6.388a6.395 6.395 0 0 1-5.264-2.753"/><path fill="#FFF" d="M29.773 47.624a6.191 6.191 0 0 1-5.802 4.022c-3.418 0-6.19-2.767-6.19-6.179 0-1.744.724-3.32 1.887-4.443"/><path stroke="#525252" stroke-width=".99" d="M29.773 47.624a6.191 6.191 0 0 1-5.802 4.022c-3.418 0-6.19-2.767-6.19-6.179 0-1.744.724-3.32 1.887-4.443"/><path fill="#CBCFD2" d="M29.773 46.597c-.674 3.345-4.328 4.276-7.68 3.603a6.17 6.17 0 0 1-3.82-2.474c.65 2.09 2.226 3.306 4.526 3.768 3.352.673 6.85-1.276 7.524-4.621.352-1.742-.339-1.325-.55-.276"/><path stroke="#35444C" stroke-width=".99" d="M29.773 47.624a6.191 6.191 0 0 1-5.802 4.022c-3.418 0-6.19-2.767-6.19-6.179 0-1.66.657-3.168 1.724-4.278"/><path fill="#FFF" d="M33.884 41.189l13.914 5.237-14.748.341"/><path stroke="#35444C" stroke-width=".99" d="M33.884 41.189l13.914 5.237-14.748.341"/><path fill="#FFF" d="M33.617 42.45l8.802-10.223-11.164 5.296"/><path stroke="#35444C" stroke-width=".99" d="M33.617 42.45l8.802-10.223-11.164 5.296"/><path fill="#FFF" d="M25.893 47.813l-9.333 4.71 4.344-7.733"/><path stroke="#525252" stroke-width=".99" d="M25.893 47.813l-9.333 4.71 4.344-7.733"/><path fill="#FFF" d="M24.684 37.399l5.737-11.193.876 13.233"/><path stroke="#35444C" stroke-width=".99" d="M24.684 37.399l5.737-11.193.876 13.233"/><path fill="#FFF" d="M30.038 34.94L47.01 24.061l-9.499-5.475 4.547-9.393-5.669-3.084-5.527 14.12 8.406 4.844z"/><path stroke="#35444C" stroke-width=".99" d="M30.038 34.94L47.01 24.061l-9.499-5.475 4.547-9.393-5.669-3.084-5.527 14.12 8.406 4.844z"/><path stroke="#35444C" stroke-width=".99" d="M42.058 9.194l3.799-2.19-5.7-3.285-3.8 2.19m9.907.893l-4.953 9.595 9.5 5.475-3.8 2.19m-9.5-5.475l3.8-2.19"/><path fill="#CBCFD2" d="M19.455 20.664c.577 1.542.79 3.247.545 4.994-.777 5.576-5.903 9.47-11.449 8.7a10.067 10.067 0 0 1-6.485-3.69c1.263 3.376 3.958 5.22 7.765 5.749 5.545.77 10.5-2.84 11.278-8.416.405-2.903.04-5.224-1.654-7.337"/><path stroke="#35444C" stroke-width=".99" d="M7.688 23.642c-1.4-1.383-2.78-1.736-3.445-4.554-1.657 3.237-3.315 7.78-2.076 11.147 2.999 8.15 14.93 8.895 18.503.42 1.968-5.63-1.22-10.49-3.775-14.412-.422 4.339-2.415 4.605-4.452 6.613"/><path fill="#FFF" d="M8.18 26.912c-2.344-1.853-2.319-4.32-2.083-5.993.569-4.037 3.316-7.992 5.662-11.296 1.607 6.745 5.89 10.927 5.026 14.628"/><path stroke="#35444C" stroke-width=".99" d="M8.18 26.912c-2.344-1.853-2.319-4.32-2.083-5.993.569-4.037 3.316-7.992 5.662-11.296 1.607 6.745 5.89 10.927 5.026 14.628"/><path fill="#CBCFD2" d="M14.791 25.762c.041.618-.054 1.05-.23 1.397-.778-.939-1.972-1.994-2.753-3.515-.895 1.507-1.936 3.305-1.913 4.935a3.2 3.2 0 0 0 .046.505c-.405-.19-.773-.445-1.082-1.05-.564 1.416-1.033 3.344-.182 4.547 2.059 2.912 7.905 2.11 9.013-1.53.539-2.382-1.368-3.99-2.899-5.289"/><path d="M2.972 10.743C1.48 12.139.285 14.725.532 16.427M21.506 16.661c1.004-1.778 1.369-4.602.624-6.152M12.687 6.348c1.036-1.76 1.45-4.578.732-6.14" stroke="#35444C" stroke-width=".99"/><g><path fill="#FFF" d="M18.806 39.985l-4.871-8.939 8.516 5.404"/><path stroke="#35444C" stroke-width=".99" d="M18.806 39.985l-4.871-8.939 8.516 5.404"/></g></g></svg>