<svg viewBox="0 0 23 20" xmlns="http://www.w3.org/2000/svg"><path d="M5.405 14.272C1.905 12.2 0 9 0 9s3.766-7 11.5-7c1.94 0 3.632.44 5.076 1.101L19.678 0l1.414 1.414L3.414 19.092 2 17.678l3.405-3.406zm9.6-9.6A5.672 5.672 0 0 0 11.5 3.469C8.395 3.468 5.865 5.952 5.865 9c0 1.336.486 2.563 1.292 3.52l2.106-2.106A2.588 2.588 0 0 1 8.846 9c0-1.435 1.173-2.625 2.654-2.625.52 0 1.003.143 1.41.393l2.095-2.095zm-6.18 11.01l1.313-1.314c.436.107.892.164 1.362.164 3.105 0 5.635-2.484 5.635-5.532 0-.496-.067-.978-.193-1.436l2.596-2.596C21.858 6.876 23 9 23 9s-4.169 7-11.5 7c-.945 0-1.837-.116-2.675-.319z" fill="#000" fill-rule="nonzero"/></svg>