<svg xmlns="http://www.w3.org/2000/svg" width="34" height="54" viewBox="0 0 34 54"><g fill="none" fill-rule="evenodd"><path fill="#FFF" d="M8.063 9.34l.02 26.276c0 .944.939 1.872 2.121 1.872s1.983-.82 2.14-1.872V11.752s-.322-7.817 4.459-5.704c5.09 2.25 4.978 11.024 4.978 11.024L21.485 25c.06.938 1.044 2.686 2.258 2.686S25.94 26.938 26 26l.365-6.343S27.672 4.002 17.28.93C7.94-1.831 8.064 9.34 8.064 9.34zm13.794 23.727l.036 10.127c0 .962 1.001 1.742 2.235 1.742 1.235 0 2.236-.78 2.236-1.742v-.001l-.023-10.126h-4.484z"/><path fill="#FFF" d="M31.489 46.337S5.365 31.564 5.344 31.555c-1.412-.627-3.245-.297-4.202 1.327-.958 1.623-.925 3.615.733 4.552l27.127 15.378"/><path fill="#CBCFD2" d="M31.71 46.357c-1.642-.929-3.473-.76-4.455.818.306.005 2.327.295 3.1 1.954.773 1.66.063 2.757-.39 3.524-.014.024-.031.045-.046.069 1.222.015 2.414-.597 3.068-1.705.963-1.631.392-3.718-1.276-4.66m-5.347-3.164l-.023-10.126h-2.23v11.868l.017.001c1.235 0 2.236-.78 2.236-1.742v-.001M10.307 37.48c1.124-.048 1.885-.844 2.037-1.864V11.752s-.322-7.817 4.46-5.704c.4.177-.76-.86-2.804-.828-2.246.036-3.693 3.114-3.693 5.84v26.42z"/><path fill="#CBCFD2" d="M26.332 43.444c-.157.843-1.079 1.492-2.203 1.492-1.234 0-2.235-.78-2.235-1.742l-.008-2.244-9.542-5.352v.018c-.157 1.051-.958 1.873-2.14 1.873-.18 0-.35-.028-.515-.067l18.871 10.54 2.929-1.625-5.157-2.893z"/><path fill="#FFF" d="M32.92 51.068c-.966 1.637-2.756 2.395-3.998 1.693-1.242-.702-1.466-2.598-.5-4.234.966-1.638 2.755-2.396 3.998-1.695 1.242.702 1.466 2.599.5 4.236"/><path fill="#CBCFD2" d="M32.072 47.088c-1.146-.647-2.754-.051-3.755 1.328.718-.3 2.277.272 2.635 1 .537 1.092.537 2.137-.05 3.271-.067.132-.157.25-.242.367.729-.305 1.425-.906 1.912-1.73.966-1.638.742-3.534-.5-4.236"/><path stroke="#35444C" stroke-width=".99" d="M8.018 33.067s-2.655-1.5-2.674-1.512c-1.413-.809-3.418-.026-4.376 1.597-.957 1.624-.335 3.651.907 4.282.04.02 27.127 15.378 27.127 15.378m-7.194-11.949l-9.514-5.379m20.195 11.418l-6.125-3.463"/><path stroke="#35444C" stroke-width=".99" d="M17.279.93c-9.34-2.761-9.216 8.41-9.216 8.41l.02 26.276c0 .944.939 1.872 2.121 1.872s1.983-.82 2.14-1.872V11.752s-.322-7.817 4.459-5.704c5.09 2.25 4.978 11.024 4.978 11.024l.038 8.447c.06.938 1.077 1.705 2.292 1.705 1.214 0 2.143-.633 2.203-1.571l.051-5.996S27.672 4.002 17.28.93zm4.578 32.137l.036 10.127c0 .962 1.001 1.742 2.235 1.742 1.235 0 2.236-.78 2.236-1.742v-.001l-.023-10.126h-4.484z"/><path fill="#FFF" d="M26.346 32.614c0 .931-1.005 1.686-2.244 1.686-1.24 0-2.245-.755-2.245-1.686 0-.931 1.005-1.685 2.245-1.685 1.239 0 2.244.754 2.244 1.685"/><path stroke="#35444C" stroke-width=".99" d="M26.346 32.614c0 .931-1.005 1.686-2.244 1.686-1.24 0-2.245-.755-2.245-1.686 0-.931 1.005-1.685 2.245-1.685 1.239 0 2.244.754 2.244 1.685zm6.574 18.454c-.966 1.637-2.756 2.395-3.998 1.693-1.242-.702-1.466-2.598-.5-4.234.966-1.638 2.755-2.396 3.998-1.695 1.242.702 1.466 2.599.5 4.236z"/></g></svg>