<svg xmlns="http://www.w3.org/2000/svg" xmlns:xlink="http://www.w3.org/1999/xlink" width="32" height="55" viewBox="0 0 32 55"><defs><path id="a" d="M.265.288h23.933v49.186H.265z"/></defs><g fill="none" fill-rule="evenodd"><path fill="#FFF" d="M9 1l19 10.97a6 6 0 0 1 3 5.196v30.84a1 1 0 0 1-1.477.878L9 37.733V1z"/><path fill="#CBCFD2" d="M8.923 1.434L8.406 9.39l13.77 7.72z"/><g transform="translate(7.5 .212)"><mask id="b" fill="#fff"><use xlink:href="#a"/></mask><path fill="#35444C" d="M23.007 46.87l.09-31.484c.002-1.064-.748-2.36-1.671-2.894L3.136 1.933c-.925-.534-1.678-.105-1.68.958l-.09 31.485c-.003 1.064.745 2.359 1.67 2.893l18.29 10.56c.922.532 1.678.105 1.681-.959zM21.43 11.227c1.533.884 2.774 3.034 2.769 4.795l-.09 31.484c-.005 1.76-1.254 2.473-2.786 1.588l-18.29-10.56C1.501 37.65.26 35.502.265 33.74L.354 2.256C.359.495 1.608-.217 3.14.668l18.288 10.559z" mask="url(#b)"/></g><path fill="#FFF" d="M21.878 17.83c.53.305.96 1.05.958 1.658l-.094 33.128c-.001.61-.434.855-.964.55L2.058 41.78c-.529-.306-.959-1.05-.957-1.66l.094-33.127c.002-.61.434-.855.964-.55L21.88 17.83z"/><path fill="#35444C" d="M22.742 52.616l.094-33.128c.002-.609-.428-1.353-.958-1.66L2.16 6.445c-.53-.306-.962-.06-.964.55L1.102 40.12c-.002.61.427 1.353.957 1.66l19.72 11.384c.53.306.961.06.963-.55zm-.86-36.052c1.137.656 2.06 2.254 2.056 3.56l-.094 33.127c-.004 1.306-.933 1.836-2.07 1.18L2.056 43.045C.919 42.39-.004 40.79 0 39.486L.094 6.357c.004-1.306.932-1.836 2.07-1.18l19.718 11.386z"/><path fill="#FFF" d="M9.25 1.386l13.125 16.176"/><g fill="#35444C"><path d="M22.376 18.053a.493.493 0 0 1-.383-.181L8.867 1.696a.492.492 0 0 1 .764-.62l13.126 16.176a.492.492 0 0 1-.381.801m-10.601 9.175c1.48.855 2.417.384 2.423-1.383.004-1.742-.927-3.284-2.407-4.138l-1.58-.912-.015 5.522 1.58.911m.208-8.042c4.045 2.336 7.317 6.643 7.308 9.619-.008 2.976-3.293 3.494-7.34 1.158-4.042-2.335-7.314-6.639-7.306-9.614.01-2.975 3.294-3.497 7.338-1.163"/><path d="M11.793 22.712a2.96 2.96 0 0 1 1.465 2.56c-.003 1.12-.59 1.469-1.475.958l-.637-.368.01-3.518.637.368zm7.401 16.798c.505.29.915.998.913 1.581-.001.583-.415.819-.919.528L4.302 33.024c-.504-.291-.914-1.002-.913-1.585.002-.584.415-.815.92-.524l14.885 8.594zm-9.186-1.17c.507.294.918 1.005.916 1.588-.002.58-.415.815-.923.522l-5.758-3.325c-.508-.293-.915-1.002-.913-1.582 0-.583.411-.82.918-.527l5.76 3.325zm8.407 5.078c.507.293.918 1.004.916 1.587-.002.583-.415.815-.922.522l-5.14-2.967c-.508-.293-.915-.999-.914-1.582.002-.583.412-.82.92-.528l5.14 2.968z"/></g></g></svg>