<svg xmlns="http://www.w3.org/2000/svg" width="41" height="55" viewBox="0 0 41 55"><g fill="none" fill-rule="evenodd"><path fill="#FFF" d="M32.803 36.414c4.953 0 7.177 3.693 7.177 7.067v7.025l.02-.316c0 2.104-3.493 3.81-7.8 3.81-4.308 0-7.8-1.706-7.8-3.81l.007.137v-7.131c0-5.422 3.22-7.122 6.392-7.122"/><path stroke="#35444C" stroke-width="1.009" d="M32.803 36.414c4.953 0 7.177 3.693 7.177 7.067v7.025l.02-.316c0 2.104-3.493 3.81-7.8 3.81-4.308 0-7.8-1.706-7.8-3.81l.007.137v-7.131c0-5.422 3.22-7.122 6.392-7.122"/><path fill="#CBCFD2" d="M33.918 38.712c3.317 1.511 2.388 7.353 2.039 8.732-.578 2.284-2.319 3.935-6.51 3.935-1.925 0-3.684-.339-5.047-.898.291 1.967 3.665 3.519 7.795 3.519 4.191 0 7.602-1.599 7.805-3.607v-6.868c0-2.424-1.422-5.62-3.936-6.874.42.367-3.557 1.417-2.146 2.06z"/><path fill="#FFF" d="M38.44 32.176c0 3.444-2.968 6.236-6.63 6.236s-6.63-2.792-6.63-6.236 2.968-6.235 6.63-6.235 6.63 2.791 6.63 6.235"/><path stroke="#000" stroke-width="1.009" d="M38.44 32.176c0 3.444-2.968 6.236-6.63 6.236s-6.63-2.792-6.63-6.236 2.968-6.235 6.63-6.235 6.63 2.791 6.63 6.235z"/><path fill="#CBCFD2" d="M35.692 26.519c.442.867.697 1.842.697 2.878 0 3.564-2.95 6.454-6.588 6.454a6.644 6.644 0 0 1-3.841-1.218 6.596 6.596 0 0 0 5.892 3.577c3.639 0 6.588-2.89 6.588-6.454 0-2.16-1.086-4.066-2.748-5.237"/><path fill="#FFF" d="M18.16 3.692c0 1.315.564 2.817 1.465 4.17l9.937 9.506 3.482-1.957c.778-.577 1.496-1.207 1.496-2.537 0-2.573-2.15-5.865-4.8-7.352-1.323-.741-2.522-.893-3.39-.539-.868-1.327-2.066-2.519-3.39-3.26-1.568-.88-2.963-.93-3.838-.29"/><path stroke="#35444C" stroke-width="1.009" d="M18.16 3.692c0 1.315.564 2.817 1.465 4.17l9.937 9.506 3.482-1.957c.778-.577 1.496-1.207 1.496-2.537 0-2.573-2.15-5.865-4.8-7.352-1.323-.741-2.522-.893-3.39-.539-.868-1.327-2.066-2.519-3.39-3.26-1.568-.88-2.963-.93-3.838-.29"/><path fill="#FFF" d="M30.64 15.186c0-2.569-2.15-5.853-4.8-7.336-1.324-.74-2.521-.891-3.39-.538-.869-1.324-2.067-2.513-3.39-3.253-2.65-1.483-4.8-.604-4.8 1.965 0 1.312.558 2.961 1.27 4.382l5.557 10.08 8.057-2.769c.92-.333 1.496-1.205 1.496-2.531"/><path stroke="#35444C" stroke-width="1.009" d="M30.64 15.186c0-2.569-2.15-5.853-4.8-7.336-1.324-.74-2.521-.891-3.39-.538-.869-1.324-2.067-2.513-3.39-3.253-2.65-1.483-4.8-.604-4.8 1.965 0 1.312.558 2.961 1.27 4.382l5.557 10.08 8.057-2.769c.92-.333 1.496-1.205 1.496-2.531z"/><path stroke="#35444C" stroke-width=".897" d="M22.84 7.235l3.9-2.338"/><path stroke="#35444C" stroke-width="1.009" d="M36.329 36.853c2.497 1.287 3.651 3.936 3.651 6.415v7.168l.02-.323C40 52.26 36.507 54 32.2 54c-4.308 0-7.8-1.74-7.8-3.887l.007.14v-7.276"/><path stroke="#35444C" stroke-width="1.009" d="M38.44 32.176c0 3.444-2.968 6.236-6.63 6.236s-6.63-2.792-6.63-6.236 2.968-6.235 6.63-6.235 6.63 2.791 6.63 6.235z"/><path fill="#FFF" d="M9.403 25.502c4.953 0 7.177 3.694 7.177 7.067v7.025l.02-.315c0 2.104-3.493 3.81-7.8 3.81-4.308 0-7.8-1.706-7.8-3.81l.007.136v-7.131c0-5.421 3.22-7.122 6.392-7.122"/><path stroke="#35444C" stroke-width="1.009" d="M9.403 25.502c4.953 0 7.177 3.694 7.177 7.067v7.025l.02-.315c0 2.104-3.493 3.81-7.8 3.81-4.308 0-7.8-1.706-7.8-3.81l.007.136v-7.131c0-5.421 3.22-7.122 6.392-7.122"/><path fill="#CBCFD2" d="M10.518 27.8c3.317 1.511 2.388 7.354 2.039 8.733-.579 2.283-2.319 3.933-6.51 3.933-1.925 0-3.684-.338-5.047-.897.29 1.967 3.665 3.52 7.795 3.52 4.191 0 7.602-1.6 7.805-3.608v-6.868c0-2.424-1.422-5.62-3.936-6.874.42.368-3.557 1.418-2.146 2.06z"/><path fill="#FFF" d="M15.04 21.265c0 3.444-2.968 6.235-6.63 6.235s-6.63-2.791-6.63-6.235c0-3.444 2.968-6.236 6.63-6.236s6.63 2.792 6.63 6.236"/><path stroke="#000" stroke-width="1.009" d="M15.04 21.265c0 3.444-2.968 6.235-6.63 6.235s-6.63-2.791-6.63-6.235c0-3.444 2.968-6.236 6.63-6.236s6.63 2.792 6.63 6.236z"/><path fill="#CBCFD2" d="M12.292 15.607c.442.867.697 1.842.697 2.877 0 3.565-2.95 6.455-6.588 6.455a6.644 6.644 0 0 1-3.841-1.217 6.596 6.596 0 0 0 5.892 3.576c3.639 0 6.588-2.89 6.588-6.455 0-2.158-1.086-4.064-2.748-5.236"/><path stroke="#35444C" stroke-width="1.009" d="M12.928 25.941c2.498 1.287 3.652 3.936 3.652 6.415v7.168l.02-.323c0 2.147-3.493 3.887-7.8 3.887-4.308 0-7.8-1.74-7.8-3.887l.007.14v-7.276"/><path stroke="#35444C" stroke-width="1.009" d="M15.04 21.265c0 3.444-2.968 6.235-6.63 6.235s-6.63-2.791-6.63-6.235c0-3.444 2.968-6.236 6.63-6.236s6.63 2.792 6.63 6.236z"/><path fill="#FFF" d="M15.102 41.002c3.714 0 5.383 2.73 5.383 5.223v5.193l.015-.234c0 1.555-2.62 2.816-5.85 2.816-3.231 0-5.85-1.26-5.85-2.816l.006.101v-5.271c0-4.007 2.415-5.264 4.794-5.264"/><path stroke="#35444C" stroke-width="1.009" d="M15.102 41.002c3.714 0 5.383 2.73 5.383 5.223v5.193l.015-.234c0 1.555-2.62 2.816-5.85 2.816-3.231 0-5.85-1.26-5.85-2.816l.006.101v-5.271c0-4.007 2.415-5.264 4.794-5.264"/><path fill="#CBCFD2" d="M15.939 43.08c2.487 1.08 1.79 5.252 1.528 6.238-.433 1.63-1.738 2.81-4.881 2.81-1.444 0-2.764-.243-3.786-.642C9.018 52.891 11.55 54 14.646 54c3.144 0 5.702-1.142 5.854-2.577v-4.905c0-1.732-1.066-4.295-2.952-5.19.315.262-2.668 1.292-1.61 1.752z"/><path fill="#FFF" d="M18.94 38.412a4.678 4.678 0 0 1-4.68 4.676 4.679 4.679 0 0 1-4.68-4.676 4.679 4.679 0 0 1 4.68-4.677 4.678 4.678 0 0 1 4.68 4.677"/><path stroke="#000" stroke-width="1.009" d="M18.94 38.412a4.678 4.678 0 0 1-4.68 4.676 4.679 4.679 0 0 1-4.68-4.676 4.679 4.679 0 0 1 4.68-4.677 4.678 4.678 0 0 1 4.68 4.677z"/><path fill="#CBCFD2" d="M17.05 34.515c.305.635.48 1.35.48 2.11 0 2.614-2.028 4.733-4.53 4.733a4.373 4.373 0 0 1-2.64-.892c.743 1.553 2.275 2.622 4.05 2.622 2.502 0 4.53-2.119 4.53-4.733a4.791 4.791 0 0 0-1.89-3.84"/><path stroke="#35444C" stroke-width="1.009" d="M17.746 41.53c1.874.936 2.74 2.862 2.74 4.665v5.213l.014-.235c0 1.561-2.62 2.827-5.85 2.827-3.231 0-5.85-1.266-5.85-2.827l.005.102v-5.291"/><path stroke="#35444C" stroke-width="1.009" d="M18.94 38.412a4.678 4.678 0 0 1-4.68 4.676 4.679 4.679 0 0 1-4.68-4.676 4.679 4.679 0 0 1 4.68-4.677 4.678 4.678 0 0 1 4.68 4.677zM15.82 3.338L19.72 1"/></g></svg>