<svg width="63" height="57" xmlns="http://www.w3.org/2000/svg"><g fill="none" fill-rule="evenodd"><path d="M38.504 11.206c4.615 0 6.688 3.485 6.688 6.669v6.63l.018-.299c0 1.986-3.254 3.596-7.268 3.596-4.014 0-7.268-1.61-7.268-3.596l.007.129v-6.73c0-5.115 3-6.72 5.956-6.72" fill="#FFF"/><path d="M38.504 11.206c4.615 0 6.688 3.485 6.688 6.669v6.63l.018-.299c0 1.986-3.254 3.596-7.268 3.596-4.014 0-7.268-1.61-7.268-3.596l.007.129v-6.73c0-5.115 3-6.72 5.956-6.72" stroke="#FFF"/><path d="M38.504 11.206c4.615 0 6.688 3.485 6.688 6.669v6.63l.018-.299c0 1.986-3.254 3.596-7.268 3.596-4.014 0-7.268-1.61-7.268-3.596l.007.129v-6.73c0-5.115 3-6.72 5.956-6.72" stroke="#35444C"/><path d="M41.554 12.29c.39.35-3.304.413-1.993 1.023 3.08 1.432 2.218 6.97 1.893 8.276-.537 2.163-2.153 3.728-6.046 3.728-1.79 0-3.423-.32-4.69-.85.27 1.863 3.405 3.334 7.242 3.334 3.894 0 7.063-1.515 7.25-3.418v-6.509c0-2.297-1.32-4.396-3.656-5.584" fill="#CBCFD2"/><path d="M43.892 7.528a6.027 6.027 0 1 1-12.055 0 6.027 6.027 0 0 1 12.055 0" fill="#FFF"/><path d="M43.892 7.528a6.027 6.027 0 1 1-12.055 0 6.027 6.027 0 0 1 12.055 0z" stroke="#35444C"/><path d="M41.379 2.637c.404.81.638 1.72.638 2.688a6.027 6.027 0 0 1-6.028 6.027 5.995 5.995 0 0 1-3.513-1.136 6.02 6.02 0 0 0 5.389 3.339 6.027 6.027 0 0 0 6.028-6.027 6.014 6.014 0 0 0-2.514-4.891" fill="#CBCFD2"/><path d="M41.789 11.94c2.327 1.19 3.403 3.642 3.403 5.935v6.63l.018-.298c0 1.985-3.254 3.595-7.269 3.595-4.013 0-7.267-1.61-7.267-3.595l.007.129v-6.73" stroke="#35444C"/><path d="M43.892 7.528a6.027 6.027 0 1 1-12.055 0 6.027 6.027 0 0 1 12.055 0z" stroke="#35444C"/><path d="M24.814 23.972c3.352 0 4.856 2.53 4.856 4.842v4.814l.014-.217c0 1.442-2.363 2.61-5.278 2.61-2.914 0-5.278-1.168-5.278-2.61l.006.095v-4.887c0-3.715 2.18-4.88 4.325-4.88" fill="#FFF"/><path d="M24.814 23.972c3.352 0 4.856 2.53 4.856 4.842v4.814l.014-.217c0 1.442-2.363 2.61-5.278 2.61-2.914 0-5.278-1.168-5.278-2.61l.006.095v-4.887c0-3.715 2.18-4.88 4.325-4.88" stroke="#35444C"/><path d="M27.03 24.76c.282.252-2.4.3-1.448.741 2.237 1.041 1.61 5.061 1.375 6.01-.39 1.571-1.564 2.706-4.39 2.706-1.3 0-2.486-.232-3.406-.617.196 1.353 2.472 2.422 5.26 2.422 2.826 0 5.127-1.1 5.263-2.482v-4.726c0-1.668-.959-3.192-2.655-4.055" fill="#CBCFD2"/><path d="M28.727 21.3a4.376 4.376 0 1 1-8.751 0 4.376 4.376 0 0 1 8.752 0" fill="#FFF"/><path d="M28.727 21.3a4.376 4.376 0 1 1-8.751 0 4.376 4.376 0 0 1 8.752 0z" stroke="#35444C"/><path d="M26.902 17.75c.294.587.464 1.248.464 1.95a4.377 4.377 0 0 1-4.377 4.377 4.35 4.35 0 0 1-2.552-.826 4.372 4.372 0 0 0 3.913 2.426 4.377 4.377 0 0 0 4.377-4.377 4.365 4.365 0 0 0-1.825-3.55" fill="#CBCFD2"/><path d="M27.2 24.505c1.69.865 2.471 2.644 2.471 4.309v4.814l.013-.217c0 1.442-2.363 2.61-5.278 2.61-2.914 0-5.277-1.168-5.277-2.61l.006.094v-4.886" stroke="#35444C"/><path d="M28.727 21.3a4.376 4.376 0 1 1-8.751 0 4.376 4.376 0 0 1 8.752 0z" stroke="#35444C"/><path d="M40.187 31.806c3.352 0 4.856 2.531 4.856 4.843v4.815l.014-.217c0 1.442-2.364 2.61-5.279 2.61-2.913 0-5.277-1.168-5.277-2.61l.006.094v-4.887c0-3.715 2.179-4.88 4.325-4.88" fill="#FFF"/><path d="M40.187 31.806c3.352 0 4.856 2.531 4.856 4.843v4.815l.014-.217c0 1.442-2.364 2.61-5.279 2.61-2.913 0-5.277-1.168-5.277-2.61l.006.094v-4.887c0-3.715 2.179-4.88 4.325-4.88" stroke="#35444C"/><path d="M42.401 32.594c.283.253-2.399.3-1.447.743 2.237 1.04 1.61 5.06 1.375 6.01-.39 1.57-1.564 2.706-4.39 2.706-1.3 0-2.486-.233-3.406-.618.196 1.354 2.472 2.422 5.26 2.422 2.826 0 5.127-1.1 5.263-2.482V36.65c0-1.668-.959-3.192-2.655-4.055" fill="#CBCFD2"/><path d="M44.1 29.136a4.377 4.377 0 1 1-8.754 0 4.377 4.377 0 0 1 8.754 0" fill="#FFF"/><path d="M44.1 29.136a4.377 4.377 0 1 1-8.754 0 4.377 4.377 0 0 1 8.754 0z" stroke="#35444C"/><path d="M42.274 25.584c.294.588.464 1.25.464 1.952a4.377 4.377 0 0 1-4.377 4.377 4.35 4.35 0 0 1-2.552-.826 4.373 4.373 0 0 0 8.29-1.952 4.367 4.367 0 0 0-1.825-3.55" fill="#CBCFD2"/><path d="M42.572 32.34c1.69.865 2.471 2.644 2.471 4.31v4.813l.013-.217c0 1.442-2.363 2.611-5.278 2.611-2.914 0-5.277-1.169-5.277-2.61l.006.093v-4.887" stroke="#35444C"/><path d="M44.1 29.136a4.377 4.377 0 1 1-8.754 0 4.377 4.377 0 0 1 8.754 0z" stroke="#35444C"/><path d="M55.281 20.034c4.615 0 6.688 3.485 6.688 6.669v6.63l.02-.3c0 1.987-3.256 3.597-7.27 3.597-4.014 0-7.268-1.61-7.268-3.596l.008.129v-6.73c0-5.115 3-6.72 5.956-6.72" fill="#FFF"/><path d="M55.281 20.034c4.615 0 6.688 3.485 6.688 6.669v6.63l.02-.3c0 1.987-3.256 3.597-7.27 3.597-4.014 0-7.268-1.61-7.268-3.596l.008.129v-6.73c0-5.115 3-6.72 5.956-6.72" stroke="#FFF"/><path d="M55.281 20.034c4.615 0 6.688 3.485 6.688 6.669v6.63l.02-.3c0 1.987-3.256 3.597-7.27 3.597-4.014 0-7.268-1.61-7.268-3.596l.008.129v-6.73c0-5.115 3-6.72 5.956-6.72" stroke="#35444C"/><path d="M58.332 21.118c.39.35-3.305.414-1.994 1.023 3.081 1.432 2.219 6.97 1.893 8.276-.536 2.163-2.153 3.728-6.046 3.728-1.789 0-3.423-.32-4.689-.85.271 1.863 3.405 3.334 7.241 3.334 3.894 0 7.063-1.515 7.251-3.418v-6.509c0-2.297-1.321-4.396-3.656-5.584" fill="#CBCFD2"/><path d="M60.67 16.355a6.028 6.028 0 1 1-12.056 0 6.028 6.028 0 0 1 12.057 0" fill="#FFF"/><path d="M60.67 16.355a6.028 6.028 0 1 1-12.056 0 6.028 6.028 0 0 1 12.057 0z" stroke="#35444C"/><path d="M58.157 11.465c.404.81.638 1.72.638 2.688a6.028 6.028 0 0 1-6.028 6.027 5.985 5.985 0 0 1-3.513-1.137 6.02 6.02 0 0 0 5.39 3.34 6.028 6.028 0 0 0 6.027-6.027 6.016 6.016 0 0 0-2.514-4.891" fill="#CBCFD2"/><path d="M58.566 20.768c2.327 1.19 3.403 3.642 3.403 5.934v6.63l.02-.297c0 1.985-3.256 3.595-7.27 3.595-4.014 0-7.268-1.61-7.268-3.596l.008.13v-6.73" stroke="#35444C"/><path d="M60.67 16.355a6.028 6.028 0 1 1-12.056 0 6.028 6.028 0 0 1 12.057 0z" stroke="#35444C"/><path d="M15.153 35.316c0 2.585 7.07 5.531 7.07 11.771 0 6.24-4.863 8.825-10.86 8.825-6 0-10.863-2.586-10.863-8.825 0-6.24 7.31-9.703 7.31-11.976" fill="#FFF"/><path d="M15.153 35.316c0 2.585 7.07 5.531 7.07 11.771 0 6.24-4.863 8.825-10.86 8.825-6 0-10.863-2.586-10.863-8.825 0-6.24 7.31-9.703 7.31-11.976" stroke="#35444C"/><path d="M19.686 41.118a8.794 8.794 0 0 1 1.075 4.226c0 4.883-3.837 8.13-8.402 8.71-3.645.464-8.812-.887-10.393-2.371 1.5 2.75 5.91 4.522 11.306 4.12 4.87-.364 8.728-3.695 8.728-8.58 0-2.542-.595-4.492-2.314-6.105" fill="#CBCFD2"/><path d="M15.153 35.316c0 2.585 7.07 5.531 7.07 11.771 0 6.24-4.863 8.825-10.86 8.825-6 0-10.863-2.586-10.863-8.825 0-6.24 7.31-9.703 7.31-11.976" stroke="#35444C"/><path d="M16.241 31.958l-1.286 3.534s-1.954.589-3.593.473c-1.64-.116-3.285-.404-3.485-.712-.2-.306-1.159-2.946-1.159-2.946l9.523-.35z" fill="#FFF"/><path d="M11.575 27.887l1.423 1.005a.468.468 0 0 0 .27.086h2.067c.331 0 .557.336.432.643l-.247.61a.47.47 0 0 0 .164.558l.7.494a.468.468 0 0 1-.148.833l-1.438.39a.471.471 0 0 0-.31.276l-.405.998a.47.47 0 0 1-.557.276l-2.098-.569a.467.467 0 0 0-.246 0l-2.097.57a.47.47 0 0 1-.557-.277l-.404-.998a.47.47 0 0 0-.312-.276l-1.437-.39a.468.468 0 0 1-.148-.833l.7-.494a.468.468 0 0 0 .163-.558l-.247-.61a.467.467 0 0 1 .433-.643h2.067c.096 0 .191-.03.27-.086l1.423-1.005a.467.467 0 0 1 .54 0" fill="#FFF"/><path d="M11.575 27.887l1.423 1.005a.468.468 0 0 0 .27.086h2.067c.331 0 .557.336.432.643l-.247.61a.47.47 0 0 0 .164.558l.7.494a.468.468 0 0 1-.148.833l-1.438.39a.471.471 0 0 0-.31.276l-.405.998a.47.47 0 0 1-.557.276l-2.098-.569a.467.467 0 0 0-.246 0l-2.097.57a.47.47 0 0 1-.557-.277l-.404-.998a.47.47 0 0 0-.312-.276l-1.437-.39a.468.468 0 0 1-.148-.833l.7-.494a.468.468 0 0 0 .163-.558l-.247-.61a.467.467 0 0 1 .433-.643h2.067c.096 0 .191-.03.27-.086l1.423-1.005a.467.467 0 0 1 .54 0z" stroke="#35444C" stroke-linecap="round" stroke-linejoin="round"/><path d="M16.548 31.806l-1.395 3.551M6.096 31.85l1.78 3.49m7.318-.195c0 .54-1.652.978-3.69.978-2.04 0-3.694-.438-3.694-.978" stroke="#35444C"/><path d="M15.495 36.516c0 .77-1.85 1.397-4.13 1.397-2.282 0-4.13-.627-4.13-1.397" stroke="#35444C" stroke-linecap="round" stroke-linejoin="round"/><path d="M12.543 37.865c2.144-.195 2.327 3.793 3.953 4.778m-3.01.294c.77-1.866-1.54-2.974-1.085-4.929" stroke="#35444C" stroke-linecap="round"/><path d="M8.07 51.623c-.818 2.186-5.57 1.542-5.61-3.615-.145-.156-.5-.522-.697-.76l.115-.792c.18.21.421.49.617.685.071-.617.174-.983.326-1.407-.185-.195-.43-.454-.6-.662l.272-.774c.19.22.446.508.652.712.952-1.6 2.157-2.12 3.581-1.544 1.302.648 1.951 1.781 1.988 3.465-.299-.016-.699-.034-.997-.059-.053-2.45-2.719-3.634-3.869-1.282.865.563 1.133.702 1.985 1.13l-.179.842c-.699-.335-1.359-.652-2.13-1.227a5.7 5.7 0 0 0-.299 1.427c.6.416 1.165.81 2.206 1.275l-.067.82c-.869-.308-1.534-.649-2.146-1.22.173 3.198 3.004 3.885 3.74 2.893a2.39 2.39 0 0 0 .32-.584c.32.157.548.27.873.416-.024.078-.054.184-.082.261" fill="#35444C"/></g></svg>