<svg width="148" height="84" viewBox="0 0 148 84" xmlns="http://www.w3.org/2000/svg"><defs><linearGradient x1="0%" y1="65.349%" y2="34.651%" id="a"><stop stop-color="#FBA308" offset="0%"/><stop stop-color="#FBB50C" offset="100%"/></linearGradient></defs><g fill="none" fill-rule="evenodd"><path d="M75.851 1.011l70.492 38.49a2.939 2.939 0 0 1 .031 5.143l-66.53 37.395a11.76 11.76 0 0 1-11.648-.071l-66.6-38.504a2.94 2.94 0 0 1 .095-5.143L72.137.987a3.918 3.918 0 0 1 3.714.023z" fill="url(#a)"/><path d="M84.977 18.427c7.694 0 11.148 5.808 11.148 11.115v11.049l.03-.498c0 3.31-5.424 5.992-12.114 5.992s-12.114-2.682-12.114-5.992l.013.216V29.092c0-8.526 5.001-11.2 9.927-11.2" fill="#fff"/><path d="M84.977 18.427c7.694 0 11.148 5.808 11.148 11.115v11.049l.03-.498c0 3.31-5.424 5.992-12.114 5.992s-12.114-2.682-12.114-5.992l.013.216V29.092c0-8.526 5.001-11.2 9.927-11.2" stroke="#fff"/><path d="M84.977 18.427c7.694 0 11.148 5.808 11.148 11.115v11.049l.03-.498c0 3.31-5.424 5.992-12.114 5.992s-12.114-2.682-12.114-5.992l.014.216V29.092c0-8.526 5.001-11.2 9.927-11.2" stroke="#35444C"/><path d="M90.062 20.234c.651.58-5.507.688-3.323 1.704 5.135 2.388 3.696 11.616 3.156 13.794-.894 3.606-3.589 6.213-10.078 6.213-2.979 0-5.704-.534-7.815-1.417.451 3.106 5.676 5.559 12.07 5.559 6.488 0 11.771-2.526 12.083-5.697V29.542c0-3.829-2.2-7.326-6.093-9.307" fill="#CBCFD2"/><path d="M93.96 12.296c0 5.549-4.497 10.046-10.046 10.046-5.548 0-10.047-4.497-10.047-10.046 0-5.548 4.498-10.045 10.047-10.045S93.96 6.748 93.96 12.296" fill="#fff"/><path d="M93.96 12.296c0 5.549-4.497 10.046-10.046 10.046-5.548 0-10.047-4.497-10.047-10.046 0-5.548 4.498-10.045 10.047-10.045S93.96 6.748 93.96 12.296z" stroke="#35444C"/><path d="M89.77 4.145a9.984 9.984 0 0 1 1.063 4.479c0 5.549-4.497 10.047-10.045 10.047a9.986 9.986 0 0 1-5.857-1.896c1.648 3.297 5.047 5.566 8.983 5.566 5.549 0 10.046-4.497 10.046-10.045 0-3.36-1.656-6.327-4.19-8.151" fill="#CBCFD2"/><path d="M90.454 19.651c3.877 1.984 5.67 6.067 5.67 9.891v11.049l.031-.498c0 3.311-5.424 5.994-12.114 5.994s-12.114-2.683-12.114-5.994l.012.216V29.092" stroke="#35444C"/><path d="M93.96 12.296c0 5.549-4.497 10.046-10.046 10.046-5.548 0-10.047-4.497-10.047-10.046 0-5.548 4.498-10.045 10.047-10.045S93.96 6.748 93.96 12.296z" stroke="#35444C"/><path d="M59.226 30.083c5.586 0 8.094 4.218 8.094 8.07v8.024l.023-.361c0 2.403-3.939 4.351-8.798 4.351-4.857 0-8.794-1.948-8.794-4.351l.007.157v-8.145c0-6.192 3.631-8.133 7.209-8.133" fill="#fff"/><path d="M59.226 30.083c5.586 0 8.094 4.218 8.094 8.07v8.024l.023-.361c0 2.403-3.939 4.351-8.798 4.351-4.857 0-8.794-1.948-8.794-4.351l.007.157v-8.145c0-6.192 3.631-8.133 7.209-8.133" stroke="#35444C"/><path d="M62.918 31.395c.471.421-3.999.5-2.412 1.238 3.728 1.733 2.684 8.433 2.29 10.015-.649 2.619-2.605 4.512-7.317 4.512-2.164 0-4.143-.389-5.675-1.03.327 2.256 4.12 4.036 8.763 4.036 4.711 0 8.547-1.833 8.775-4.137v-7.877c0-2.779-1.599-5.32-4.425-6.757" fill="#CBCFD2"/><path d="M65.748 25.631c0 4.029-3.265 7.294-7.294 7.294a7.295 7.295 0 1 1 7.294-7.294" fill="#fff"/><path d="M65.748 25.631c0 4.029-3.265 7.294-7.294 7.294a7.295 7.295 0 1 1 7.294-7.294z" stroke="#35444C"/><path d="M62.706 19.713c.491.979.773 2.082.773 3.252a7.295 7.295 0 0 1-7.295 7.294 7.248 7.248 0 0 1-4.252-1.375 7.287 7.287 0 0 0 6.522 4.043 7.295 7.295 0 0 0 7.295-7.294 7.276 7.276 0 0 0-3.042-5.919" fill="#CBCFD2"/><path d="M63.202 30.972c2.817 1.44 4.119 4.406 4.119 7.182v8.022l.021-.36c0 2.403-3.938 4.35-8.796 4.35-4.857 0-8.796-1.947-8.796-4.35l.009.156v-8.145" stroke="#35444C"/><path d="M65.748 25.631c0 4.029-3.265 7.294-7.294 7.294a7.295 7.295 0 1 1 7.294-7.294z" stroke="#35444C"/><path d="M84.462 42.172c5.587 0 8.094 4.218 8.094 8.07v8.023l.023-.361c0 2.403-3.938 4.352-8.796 4.352-4.857 0-8.796-1.948-8.796-4.352l.009.158v-8.145c0-6.192 3.631-8.133 7.208-8.133" fill="#fff"/><path d="M84.462 42.172c5.587 0 8.094 4.218 8.094 8.07v8.023l.023-.361c0 2.403-3.938 4.352-8.796 4.352-4.857 0-8.796-1.948-8.796-4.352l.009.158v-8.145c0-6.192 3.631-8.133 7.208-8.133" stroke="#35444C"/><path d="M88.155 43.485c.471.422-3.999.499-2.412 1.237 3.727 1.733 2.684 8.434 2.291 10.016-.649 2.619-2.605 4.512-7.319 4.512-2.163 0-4.143-.389-5.674-1.029.328 2.255 4.122 4.035 8.765 4.035 4.712 0 8.547-1.833 8.773-4.137v-7.877c0-2.779-1.598-5.321-4.424-6.758" fill="#CBCFD2"/><path d="M90.985 37.721a7.295 7.295 0 1 1-14.59-.002 7.295 7.295 0 0 1 14.59.002" fill="#fff"/><path d="M90.985 37.721a7.295 7.295 0 1 1-14.59-.002 7.295 7.295 0 0 1 14.59.002z" stroke="#35444C"/><path d="M87.942 31.802c.489.979.773 2.082.773 3.252a7.294 7.294 0 0 1-7.296 7.294 7.256 7.256 0 0 1-4.253-1.376 7.292 7.292 0 0 0 6.523 4.043 7.295 7.295 0 0 0 7.295-7.294 7.276 7.276 0 0 0-3.042-5.919" fill="#CBCFD2"/><path d="M88.439 43.061c2.816 1.44 4.117 4.406 4.117 7.182v8.022l.023-.36c0 2.403-3.938 4.35-8.796 4.35-4.858 0-8.796-1.947-8.796-4.35l.009.156v-8.145" stroke="#35444C"/><path d="M90.985 37.721a7.295 7.295 0 1 1-14.59-.002 7.295 7.295 0 0 1 14.59.002z" stroke="#35444C"/></g></svg>