<svg xmlns="http://www.w3.org/2000/svg" width="35" height="38" viewBox="0 0 35 38"><g fill="none" fill-rule="evenodd"><path fill="#FFF" d="M14.14 1.043s.41 2.649-1.716 5.338c-2.127 2.689-10.93 6.411-10.93 15.705 0 9.295 6.53 15.082 16.072 15.082 9.544 0 15.482-4.56 16.31-14.848.826-10.288-6.028-10.756-6.028-10.756 0 3.8-.16 6.65-3.36 6.65-3.199 0-3.748-2.032-3.748-5.071 0-3.04.274-4.957-1.38-7.997-1.655-3.04-5.22-4.103-5.22-4.103"/><path fill="#CBCFD2" d="M8.739 35.092s7.233 2.098 16.24-2.992c9.006-5.09 2.869-20.43 2.869-20.43s5.793.536 6.096 9.242c.131 3.763-1.229 9.565-5.26 13.052-8.46 7.321-19.945 1.128-19.945 1.128"/><path fill="#CBCFD2" d="M33.919 19.849c-.413-7.79-6.07-8.178-6.07-8.178 0 3.8-.16 6.649-3.36 6.649-2.222 0-3.164-.981-3.534-2.598 0 0-.17 5.984 5.1 6.8 5.262.814 7.854-2.66 7.864-2.673"/><path fill="#CBCFD2" d="M26.056 22.522c-5.27-.816-5.1-6.8-5.1-6.8.368 1.616 1.31 2.598 3.533 2.598 3.2 0 3.36-2.85 3.36-6.65 0 0 5.657.389 6.07 8.178-.01.014-2.602 3.488-7.863 2.674m1.792-10.958c0 3.8-.16 6.65-3.36 6.65-3.198 0-3.748-2.032-3.748-5.071 0-3.04.274-4.957-1.38-7.997-1.439-2.642-4.317-3.79-5.047-4.046l-.001.05s1.981 2.056 1.592 6.046c-.39 3.99-3.857 12.632 2.743 17.081s15.143-.985 15.272-4.429l.003-.002c-.369-7.888-6.074-8.282-6.074-8.282"/><path stroke="#35444C" stroke-width=".99" d="M18.45 8.738a.51.51 0 0 1-.513.509.51.51 0 0 1-.514-.509c0-.28.23-.508.514-.508a.51.51 0 0 1 .513.508z"/><path stroke="#35444C" stroke-width=".99" d="M14.14 1.149s.41 2.65-1.716 5.339c-2.127 2.688-10.93 6.41-10.93 15.705 0 9.294 6.988 15.081 16.072 15.081 9.085 0 15.482-4.56 16.31-14.847.826-10.289-6.028-10.756-6.028-10.756 0 3.8-.16 6.65-3.36 6.65-3.199 0-3.748-2.033-3.748-5.072 0-3.04.274-4.957-1.38-7.996-1.655-3.04-5.22-4.104-5.22-4.104z"/><path stroke="#35444C" stroke-width=".99" d="M20.954 15.722s-.17 5.984 5.102 6.8c5.27.816 7.864-2.674 7.864-2.674"/><path stroke="#35444C" stroke-width=".99" d="M14.311 1.149s1.983 2.057 1.593 6.047c-.39 3.99-3.857 12.632 2.743 17.081 6.6 4.448 15.144-.985 15.272-4.428"/></g></svg>