<svg width="57" height="42" xmlns="http://www.w3.org/2000/svg"><g fill="none" fill-rule="evenodd"><path d="M9.11 32.538l-.503-.302c-.577-.374-1.49.009-2.04.857-.552.848-.53 1.838.046 2.213l.555.331" fill="#FFF"/><path d="M9.11 32.538l-.503-.302c-.577-.374-1.49.009-2.04.857-.552.848-.53 1.838.046 2.213l.555.331" stroke="#35444C"/><path d="M9.209 34.781c-.55.848-1.464 1.231-2.042.857-.576-.375-.597-1.366-.046-2.214.551-.848 1.464-1.23 2.041-.856.576.374.597 1.365.046 2.213" fill="#CBCFD2"/><path d="M9.209 34.781c-.55.848-1.464 1.231-2.042.857-.576-.375-.597-1.366-.046-2.214.551-.848 1.464-1.23 2.041-.856.576.374.597 1.365.046 2.213z" stroke="#35444C"/><path fill="#FFF" d="M4.339 4.25l18.315 15.11 26.863 9.767-3.84 2.017-37.903-3.663-6.461-21.47z"/><path stroke="#35444C" stroke-linecap="round" stroke-linejoin="round" d="M4.339 4.25l18.315 15.11 26.863 9.767-3.84 2.017-37.903-3.663-6.461-21.47z"/><path stroke="#35444C" stroke-linecap="round" stroke-linejoin="round" d="M1.923 5.808l13.09 17.416 31.477 7.259M8.373 34.111l8.11 4.682-1.96-10.574m-5.131-.405l-1.05 4.506m11.051-3.616l-1.05 2.413 3.966 2.175-.86-4.485"/><path d="M17.668 37.348l-.502-.303c-.576-.373-1.49.009-2.04.857-.552.848-.531 1.838.046 2.213l.554.331" fill="#FFF"/><path d="M17.668 37.348l-.502-.303c-.576-.373-1.49.009-2.04.857-.552.848-.531 1.838.046 2.213l.554.331" stroke="#35444C"/><path d="M17.767 39.59c-.55.848-1.464 1.231-2.04.857-.578-.375-.599-1.365-.047-2.213.55-.848 1.464-1.231 2.04-.857.577.375.598 1.365.047 2.213" fill="#CBCFD2"/><path d="M17.767 39.59c-.55.848-1.464 1.231-2.04.857-.578-.375-.599-1.365-.047-2.213.55-.848 1.464-1.231 2.04-.857.577.375.598 1.365.047 2.213z" stroke="#35444C"/><path d="M15.098 23.258l7.556-3.899" fill="#FFF"/><path d="M15.098 23.258l7.556-3.899" stroke="#35444C" stroke-linecap="round" stroke-linejoin="round"/><path d="M20.388 24.474l6.743-3.487" fill="#FFF"/><path d="M20.388 24.474l6.743-3.487" stroke="#35444C" stroke-linecap="round" stroke-linejoin="round"/><path d="M25.677 25.69l5.93-3.075" fill="#FFF"/><path d="M25.677 25.69l5.93-3.075" stroke="#35444C" stroke-linecap="round" stroke-linejoin="round"/><path d="M30.966 26.905l5.117-2.662" fill="#FFF"/><path d="M30.966 26.905l5.117-2.662" stroke="#35444C" stroke-linecap="round" stroke-linejoin="round"/><path d="M36.256 28.121l4.303-2.25" fill="#FFF"/><path d="M36.256 28.121l4.303-2.25" stroke="#35444C" stroke-linecap="round" stroke-linejoin="round"/><path d="M41.545 29.337l3.49-1.838" fill="#FFF"/><path d="M41.545 29.337l3.49-1.838" stroke="#35444C" stroke-linecap="round" stroke-linejoin="round"/><path d="M46.835 30.553l2.677-1.426" fill="#FFF"/><path d="M46.835 30.553l2.677-1.426" stroke="#35444C" stroke-linecap="round" stroke-linejoin="round"/><path d="M15.098 23.258l7.556-3.899" fill="#FFF"/><path d="M15.098 23.258l7.556-3.899" stroke="#35444C" stroke-linecap="round" stroke-linejoin="round"/><path d="M12.911 20.315l6.68-3.469" fill="#FFF"/><path d="M12.911 20.315l6.68-3.469" stroke="#35444C" stroke-linecap="round" stroke-linejoin="round"/><path d="M10.724 17.373l5.802-3.04" fill="#FFF"/><path d="M10.724 17.373l5.802-3.04" stroke="#35444C" stroke-linecap="round" stroke-linejoin="round"/><path d="M8.536 14.43l4.927-2.608" fill="#FFF"/><path d="M8.536 14.43l4.927-2.608" stroke="#35444C" stroke-linecap="round" stroke-linejoin="round"/><path d="M6.35 11.487l4.049-2.178" fill="#FFF"/><path d="M6.35 11.487l4.049-2.178" stroke="#35444C" stroke-linecap="round" stroke-linejoin="round"/><g><path d="M4.162 8.544l3.173-1.747" fill="#FFF"/><path d="M4.162 8.544l3.173-1.747" stroke="#35444C" stroke-linecap="round" stroke-linejoin="round"/></g><g><path d="M1.975 5.601L4.27 4.284" fill="#FFF"/><path d="M1.975 5.601L4.27 4.284" stroke="#35444C" stroke-linecap="round" stroke-linejoin="round"/></g><path fill="#35444C" d="M7.572 2.9l-1.028-.594L10.55 0l1.03.594zm3.444 2.063l-1.03-.594 2.947-1.696 1.029.594zm41.513 23.226l-1.03-.594 4.008-2.306 1.03.593zm-3.722-1.929l-1.029-.594 2.946-1.696 1.029.594z"/></g></svg>