<svg xmlns="http://www.w3.org/2000/svg" width="30" height="46" viewBox="0 0 30 46"><g fill="none" fill-rule="evenodd"><path stroke="#35444C" stroke-width=".99" d="M7.012 16.225l5.137-2.953"/><path fill="#FFF" d="M9.293 35.498l2.917-1.624 4.222.06c1.969 1.384 3.515 4.18 3.533 6.507.01 1.28-.442 2.176-1.176 2.585l-4.052 2.216c.734-.409 1.186-1.306 1.175-2.585-.02-2.51-1.815-5.565-4.003-6.805"/><path stroke="#35444C" stroke-width=".99" d="M9.293 35.498l2.917-1.624 4.222.06c1.969 1.384 3.515 4.18 3.533 6.507.01 1.28-.442 2.176-1.176 2.585l-4.052 2.216c.734-.409 1.186-1.306 1.175-2.585-.02-2.51-1.815-5.565-4.003-6.805"/><path fill="#FFF" d="M11.91 35.852c2.187 1.24 3.983 4.294 4.003 6.805.02 2.514-1.744 3.55-3.931 2.31-2.184-1.237-3.98-4.292-4-6.806-.02-2.51 1.744-3.547 3.928-2.309"/><path stroke="#35444C" stroke-width=".99" d="M11.91 35.852c2.187 1.24 3.983 4.294 4.003 6.805.02 2.514-1.744 3.55-3.931 2.31-2.184-1.237-3.98-4.292-4-6.806-.02-2.51 1.744-3.547 3.928-2.309z"/><path fill="#CBCFD2" d="M19.388 30.178c-.25.37-.375.847-.404 1.562-.02.54-.199.905-.49 1.068l-3.657 2.045c.292-.162.472-.528.49-1.068.055-1.33.437-1.84 1.359-2.353"/><path stroke="#35444C" stroke-width=".99" d="M19.388 30.178c-.25.37-.375.847-.404 1.562-.02.54-.199.905-.49 1.068l-3.657 2.045c.292-.162.472-.528.49-1.068.055-1.33.437-1.84 1.359-2.353M4.305 3.95l4.347-2.33c1.944-1.083 5.156-.662 8.78 1.393 3.084 1.748 11.125 8.48 11.125 17.636 0 3.185-1.058 5.17-2.95 6.222l-4.338 2.18"/><path fill="#FFF" d="M20.761 12.483c2.376 3.35 3.648 6.989 3.676 10.522.035 4.43-2.842 6.089-5.764 7.47-.3.144-.576.27-.83.39-1.776.825-2.442 1.131-2.515 2.92-.038 1.07-.707 1.456-1.628.933l-3.316-1.88c-.475-.27-.909-.717-1.222-1.264-.323-.57-.492-1.197-.475-1.762.127-3.707 1.05-4.898 5.205-6.7 1.409-.625 2.031-1.58 2.02-3.108-.024-2.991-1.522-5.478-4.219-7.007-2.525-1.432-4.205-.529-4.183 2.244.008.97-.721 1.346-1.629.831l-3.685-2.089C1.222 13.431.512 12.147.502 10.93.448 4.095 5.934 1.357 12.754 5.223c3.084 1.748 5.929 4.327 8.007 7.26"/><path stroke="#35444C" stroke-width=".99" d="M20.761 12.483c2.376 3.35 3.648 6.989 3.676 10.522.035 4.43-2.842 6.089-5.764 7.47-.3.144-.576.27-.83.39-1.776.825-2.442 1.131-2.515 2.92-.038 1.07-.707 1.456-1.628.933l-3.316-1.88c-.475-.27-.909-.717-1.222-1.264-.323-.57-.492-1.197-.475-1.762.127-3.707 1.05-4.898 5.205-6.7 1.409-.625 2.031-1.58 2.02-3.108-.024-2.991-1.522-5.478-4.219-7.007-2.525-1.432-4.205-.529-4.183 2.244.008.97-.721 1.346-1.629.831l-3.685-2.089C1.222 13.431.512 12.147.502 10.93.448 4.095 5.934 1.357 12.754 5.223c3.084 1.748 5.929 4.327 8.007 7.26z"/><path fill="#CBCFD2" d="M19.123 37.208l-1.187-1.94c.073.25.344.808.344 1.08 0 1.567-1.513 2.534-3.108 2.534-.186 0-.367-.02-.543-.054 2.328 3.804.614 6.004.614 6.004l3.95-2.115s.61-.275.75-2.03c.153-1.887-.82-3.48-.82-3.48"/><path stroke="#35444C" stroke-width=".99" d="M16.432 33.935c1.969 1.382 3.515 4.178 3.533 6.506.01 1.28-.442 2.177-1.176 2.586l-4.052 2.215c.734-.41 1.186-1.306 1.175-2.585-.02-2.51-1.815-5.565-4.002-6.805"/><path fill="#CBCFD2" d="M25.263 10.636c-.018.949-.388 1.801-1.109 2.336-.722.535-1.662.65-2.598.404.876 1.32 1.872 3.213 2.533 5.706 1.414 5.327-1.58 9.346-1.58 9.346s1.959-.984 3.634-1.897c1.675-.912 2.312-3.048 2.312-7.677 0-2.861-1.81-6.134-3.192-8.218"/><path stroke="#35444C" stroke-width=".99" d="M17.432 3.012c3.084 1.749 11.125 8.48 11.125 17.637 0 3.184-1.058 5.17-2.95 6.222l-4.338 2.18"/><path stroke="#35444C" stroke-width=".99" d="M20.761 12.483c2.376 3.35 3.648 6.989 3.676 10.522.035 4.43-2.842 6.089-5.764 7.47"/></g></svg>