<svg xmlns="http://www.w3.org/2000/svg" width="54" height="63" viewBox="0 0 54 63"><g fill="none" fill-rule="evenodd"><path fill="#FFF" d="M1 14L0 49l2 2 15-8 31 19 5-28V19L22 1l-5 3v1L1 14z"/><g stroke="#35444C" stroke-width=".99"><path d="M52.91 18.468l-4.984 2.917v40.352M17.055 3.434l30.87 17.951v40.352"/><path d="M18.79 42.232l27.204 15.82V22.567L17.054 5.503V3.516l.038-.023L22.077.576l30.834 17.892V58.82l-4.985 2.917L16.5 43.465"/></g><path stroke="#35444C" stroke-width=".99" d="M31.303 43.977L20.754 37.91m12.519-22.786v35.572m-1.97-36.738v35.571m1.871-22.919l12.82 7.455m-12.721-5.497l12.721 7.397M18.73 9.865L4.671 17.11l-.011 30.6 14.057-7.855z"/><path fill="#35444C" d="M5.841 34.459l2.357-.161-.337.332c-.054-.623-.086-1.247-.13-1.871l-.026-.362.367-.007 2.586-.054-.325.248c.372-1.267.773-2.525 1.162-3.786l.101-.326.308.124c1.041.42 2.09.824 3.126 1.259l-.342.182c.185-.723.38-1.444.592-2.16.203-.72.42-1.434.661-2.144-.094.743-.21 1.482-.342 2.218a63.05 63.05 0 0 1-.412 2.201l-.057.281-.283-.099c-1.061-.37-2.11-.773-3.165-1.157l.408-.202c-.363 1.27-.714 2.543-1.093 3.807l-.073.243-.251.005-2.585.061.34-.369c.022.625.054 1.25.064 1.875l.006.402-.342-.07-2.315-.47z"/><path fill="#FFF" d="M10.72 32.465l3.978 1.456-.007 3.29 2.364.586"/><path fill="#35444C" d="M10.815 32.205l3.978 1.456.181.066v.194l-.006 3.29-.21-.27 2.297.856-2.43-.318-.21-.027v-.242l.007-3.29.181.26-3.977-1.455z"/><path fill="#35444C" d="M10.541 32.675l-2.19-1.884-.212-.182.183-.21 1.095-1.26-.06.24-.276-2.56.814 2.442.04.123-.101.118-1.096 1.26-.028-.392 2.19 1.885z"/><path stroke="#35444C" stroke-width=".99" d="M.526 14.262l2.003 1.496"/><path fill="#35444C" d="M10.74 32.778l1.221 2.237.117.213-.196.144-2.819 2.062.1-.309.968 3.91-1.493-3.74-.073-.182.172-.126 2.82-2.063-.08.357-1.221-2.238z"/><path fill="#35444C" d="M10.954 33.977l.644-.874-.52-.637-.035-.723h-.947l-.697.916z"/><path stroke="#35444C" stroke-width=".55" d="M10.954 33.977l.644-.874-.52-.637-.035-.723h-.947l-.697.916z"/><path stroke="#35444C" stroke-width=".99" d="M18.955 21.395L4.897 28.859m14.029-9.504L4.867 26.82m32.915-7.168l-3.053 1.847m5.669-.436l-5.506 3.331m8.65 25.486l-3.054 1.847m2.897-4.838l-5.506 3.33m-35.35.764V15.758l16.65-9.002"/><path stroke="#35444C" stroke-width=".99" d="M17.094 5.503L.597 14.261l-.1 35.209 2.032 1.513 18.225-9.807V7.684"/><path fill="#CBCFD2" d="M52.91 58.82l-4.805 2.415s-.324-20.002-.001-21.779c2.98-2.725 4.807-9.843 4.807-9.843V58.82z"/><path stroke="#35444C" stroke-width=".99" d="M47.926 21.385v40.353m4.984-43.27v40.353l-4.984 2.916L16.5 43.464"/></g></svg>