<svg xmlns="http://www.w3.org/2000/svg" width="46" height="39" viewBox="0 0 46 39"><g fill="none" fill-rule="evenodd"><path fill="#FFF" d="M41.468 19.38c0 10.15-8.154 18.378-18.211 18.378-10.058 0-18.211-8.228-18.211-18.379C5.046 9.23 13.199 1 23.256 1c10.059 0 18.212 8.228 18.212 18.38"/><path stroke="#000" stroke-width=".978" d="M41.468 19.38c0 10.15-8.154 18.378-18.211 18.378-10.058 0-18.211-8.228-18.211-18.379C5.046 9.23 13.199 1 23.256 1c10.059 0 18.212 8.228 18.212 18.38z"/><path fill="#CBCFD2" d="M35.714 5.979a18.427 18.427 0 0 1 2.21 8.783c0 10.15-8.153 18.38-18.21 18.38-4.82 0-9.2-1.894-12.457-4.98 3.087 5.717 9.095 9.596 16 9.596 10.057 0 18.211-8.228 18.211-18.379a18.403 18.403 0 0 0-5.754-13.4"/><path stroke="#35444C" stroke-width=".978" d="M41.468 19.38c0 10.15-8.154 18.378-18.211 18.378-10.058 0-18.211-8.228-18.211-18.379C5.046 9.23 13.199 1 23.256 1c10.059 0 18.212 8.228 18.212 18.38z"/><path stroke="#35444C" stroke-width=".978" d="M5.473 15.426C8.59 9.096 15.325 4.574 23.291 4.574c7.955 0 14.645 4.562 17.768 10.878M23.082 1c.064 1.021.885 14.168 0 36.758"/><path stroke="#35444C" stroke-width=".978" d="M12.191 34.057C7.45 25.378 13.203 9.807 23.257 4.574c5.58-2.904 8.341-1.543 8.341-1.543"/><path stroke="#35444C" stroke-width=".978" d="M14.837 3.08c1.265-.318 5.147-.248 8.42 1.494 6.955 3.7 16.883 18.762 10.623 29.674"/><path stroke="#35444C" stroke-width=".978" d="M34.035 23.967c-2.978 1.565-6.717 2.497-10.778 2.497-4.744 0-9.049-1.272-12.212-3.339"/><path fill="#FFF" d="M20.826 26.384l-6.684 5.247.072-3.296-7.702-2.751-4.679-5.28L1 18.297l1.643-8.193.617 5.58 3.941 4.478 5.682 2.686 1.572.28.207-4.079z"/><path stroke="#35444C" stroke-width=".978" d="M6.434 7.529c-2.016.395-3.6 2.19-3.799 4.032-.508 4.719 4.676 10.088 12.01 11.593l.166-3.96 6.204 7.129-6.684 4.964.071-2.696C3.533 26.214 1.16 19.617 1.154 17.524c-.007-2.573.989-5.488 1.884-7.338"/><path fill="#FFF" d="M45.317 16.05c.969 5.968-5.747 11.07-13.345 12.588v-5.497c7.768-1.731 12.223-7.09 11.952-11.57"/><path stroke="#35444C" stroke-width=".978" d="M45.317 16.05c.969 5.968-5.747 11.07-13.345 12.588v-5.497c7.768-1.731 12.223-7.09 11.952-11.57m1.487 5.979c.007-2.572-.989-5.487-1.884-7.337M40.13 7.556c2.017.394 3.602 2.19 3.8 4.032"/></g></svg>