<svg xmlns="http://www.w3.org/2000/svg" width="63" height="58" viewBox="0 0 63 58"><g fill="none" fill-rule="evenodd"><path fill="#FFF" d="M42.148 27.628c4.525 0 6.557 3.382 6.557 6.471v6.434l.017-.289c0 1.926-3.19 3.489-7.124 3.489-3.935 0-7.126-1.563-7.126-3.489l.008.125v-6.53c0-4.966 2.941-6.523 5.839-6.523"/><path stroke="#FFF" stroke-width="1.134" d="M42.148 27.628c4.525 0 6.557 3.382 6.557 6.471v6.434l.017-.289c0 1.926-3.19 3.489-7.124 3.489-3.935 0-7.126-1.563-7.126-3.489l.008.125v-6.53c0-4.966 2.941-6.523 5.839-6.523"/><path stroke="#35444C" stroke-width="1.134" d="M42.148 27.628c4.525 0 6.557 3.382 6.557 6.471v6.434l.017-.289c0 1.926-3.19 3.489-7.124 3.489-3.935 0-7.126-1.563-7.126-3.489l.008.125v-6.53c0-4.966 2.941-6.523 5.839-6.523"/><path fill="#CBCFD2" d="M45.138 28.68c.382.338-3.24.401-1.954.993 3.02 1.39 2.175 6.763 1.857 8.031-.526 2.1-2.112 3.618-5.928 3.618-1.753 0-3.356-.312-4.596-.826.265 1.809 3.337 3.236 7.098 3.236 3.817 0 6.923-1.47 7.107-3.317V34.1c0-2.229-1.294-4.265-3.584-5.419"/><path fill="#FFF" d="M47.431 24.058c0 3.23-2.645 5.85-5.908 5.85-3.264 0-5.91-2.62-5.91-5.85 0-3.23 2.646-5.849 5.91-5.849 3.263 0 5.908 2.619 5.908 5.85"/><path stroke="#000" stroke-width="1.134" d="M47.431 24.058c0 3.23-2.645 5.85-5.908 5.85-3.264 0-5.91-2.62-5.91-5.85 0-3.23 2.646-5.849 5.91-5.849 3.263 0 5.908 2.619 5.908 5.85z"/><path fill="#CBCFD2" d="M44.967 19.313a5.76 5.76 0 0 1 .625 2.608c0 3.23-2.645 5.849-5.908 5.849a5.92 5.92 0 0 1-3.445-1.103 5.91 5.91 0 0 0 5.283 3.24c3.264 0 5.91-2.618 5.91-5.848 0-1.957-.975-3.684-2.465-4.746"/><path stroke="#35444C" stroke-width="1.134" d="M45.37 28.34c2.28 1.156 3.335 3.534 3.335 5.76v6.433l.017-.29c0 1.927-3.19 3.49-7.124 3.49-3.935 0-7.125-1.563-7.125-3.49l.007.126v-6.531"/><path stroke="#35444C" stroke-width="1.134" d="M47.431 24.058c0 3.23-2.645 5.85-5.908 5.85-3.264 0-5.91-2.62-5.91-5.85 0-3.23 2.646-5.849 5.91-5.849 3.263 0 5.908 2.619 5.908 5.85z"/><path fill="#FFF" d="M24.032 19.875c4.525 0 6.557 3.382 6.557 6.472v6.434l.018-.29c0 1.927-3.19 3.489-7.126 3.489-3.934 0-7.124-1.562-7.124-3.489l.007.125v-6.53c0-4.965 2.941-6.523 5.839-6.523"/><path stroke="#FFF" stroke-width="1.134" d="M24.032 19.875c4.525 0 6.557 3.382 6.557 6.472v6.434l.018-.29c0 1.927-3.19 3.489-7.126 3.489-3.934 0-7.124-1.562-7.124-3.489l.007.125v-6.53c0-4.965 2.941-6.523 5.839-6.523"/><path stroke="#35444C" stroke-width="1.134" d="M24.032 19.875c4.525 0 6.557 3.382 6.557 6.472v6.434l.018-.29c0 1.927-3.19 3.489-7.126 3.489-3.934 0-7.124-1.562-7.124-3.489l.007.125v-6.53c0-4.965 2.941-6.523 5.839-6.523"/><path fill="#CBCFD2" d="M27.023 20.928c.382.338-3.24.4-1.955.992 3.02 1.39 2.175 6.763 1.857 8.031-.527 2.1-2.112 3.618-5.928 3.618-1.753 0-3.356-.311-4.596-.826.265 1.809 3.337 3.237 7.098 3.237 3.817 0 6.923-1.471 7.107-3.318v-6.315c0-2.23-1.294-4.266-3.583-5.42"/><path fill="#FFF" d="M29.316 16.306c0 3.23-2.646 5.849-5.91 5.849-3.263 0-5.908-2.619-5.908-5.85 0-3.23 2.645-5.849 5.908-5.849 3.264 0 5.91 2.62 5.91 5.85"/><path stroke="#000" stroke-width="1.134" d="M29.316 16.306c0 3.23-2.646 5.849-5.91 5.849-3.263 0-5.908-2.619-5.908-5.85 0-3.23 2.645-5.849 5.908-5.849 3.264 0 5.91 2.62 5.91 5.85z"/><path fill="#CBCFD2" d="M26.851 11.56c.397.786.626 1.67.626 2.608 0 3.23-2.646 5.85-5.91 5.85a5.92 5.92 0 0 1-3.444-1.104 5.91 5.91 0 0 0 5.283 3.241c3.264 0 5.91-2.619 5.91-5.85 0-1.956-.974-3.683-2.465-4.745"/><path stroke="#35444C" stroke-width="1.134" d="M27.253 20.588c2.281 1.156 3.336 3.533 3.336 5.759v6.434l.017-.29c0 1.927-3.19 3.489-7.124 3.489-3.935 0-7.125-1.562-7.125-3.49l.007.126v-6.531"/><path stroke="#35444C" stroke-width="1.134" d="M29.316 16.306c0 3.23-2.646 5.849-5.91 5.849-3.263 0-5.908-2.619-5.908-5.85 0-3.23 2.645-5.849 5.908-5.849 3.264 0 5.91 2.62 5.91 5.85z"/><path fill="#FFF" d="M27.772 33.064c3.286 0 4.761 2.456 4.761 4.699v4.671l.013-.21c0 1.4-2.316 2.533-5.174 2.533-2.857 0-5.174-1.134-5.174-2.533l.006.091v-4.742c0-3.605 2.136-4.736 4.24-4.736"/><path stroke="#35444C" stroke-width="1.134" d="M27.772 33.064c3.286 0 4.761 2.456 4.761 4.699v4.671l.013-.21c0 1.4-2.316 2.533-5.174 2.533-2.857 0-5.174-1.134-5.174-2.533l.006.091v-4.742c0-3.605 2.136-4.736 4.24-4.736"/><path fill="#CBCFD2" d="M29.944 33.828c.277.246-2.352.291-1.42.72 2.194 1.01 1.58 4.911 1.349 5.832-.383 1.524-1.534 2.627-4.304 2.627-1.274 0-2.437-.226-3.338-.6.192 1.313 2.423 2.35 5.154 2.35 2.772 0 5.027-1.067 5.16-2.408v-4.586c0-1.619-.94-3.097-2.601-3.935"/><path fill="#FFF" d="M31.609 30.472c0 2.345-1.922 4.247-4.291 4.247-2.37 0-4.29-1.902-4.29-4.247 0-2.346 1.92-4.248 4.29-4.248s4.29 1.902 4.29 4.248"/><path stroke="#000" stroke-width="1.134" d="M31.609 30.472c0 2.345-1.922 4.247-4.291 4.247-2.37 0-4.29-1.902-4.29-4.247 0-2.346 1.92-4.248 4.29-4.248s4.29 1.902 4.29 4.248z"/><path fill="#CBCFD2" d="M29.819 27.026a4.19 4.19 0 0 1 .454 1.894c0 2.345-1.92 4.247-4.29 4.247-.934 0-1.796-.3-2.502-.8a4.293 4.293 0 0 0 3.837 2.352c2.37 0 4.29-1.901 4.29-4.247 0-1.42-.707-2.675-1.789-3.446"/><path stroke="#35444C" stroke-width="1.134" d="M30.11 33.581c1.657.84 2.423 2.565 2.423 4.182v4.671l.013-.21c0 1.4-2.316 2.533-5.174 2.533-2.857 0-5.174-1.134-5.174-2.533l.006.091v-4.742"/><path stroke="#35444C" stroke-width="1.134" d="M31.609 30.472c0 2.345-1.922 4.247-4.291 4.247-2.37 0-4.29-1.902-4.29-4.247 0-2.346 1.92-4.248 4.29-4.248s4.29 1.902 4.29 4.248z"/><path d="M28.88 0h11.214v3.853H28.88z"/><path fill="#35444C" d="M38.96 3.853l-4.473-2.557-4.473 2.557-1.134-.648L34.487 0l5.607 3.205zm23.814 18.075l-1.135.648V16.8l-5.04-2.865 1.136-.648 5.039 2.862zm-5.04 21.216l-1.134-.648 5.04-2.889V34.5l1.134-.646v6.4z"/><path fill="#35444C" d="M57.733 19.696l-1.133-.649 5.324-3.038.566.972zm-52.693.866L.293 17.847l.567-.972 5.313 3.038zm22.68 36.075h1.135v-5.735H27.72zM5.045 44.006L0 41.13v-6.41l1.134.648v5.113l5.045 2.878z"/><path fill="#35444C" d="M1.134 23.441L0 22.794v-5.761l1.134.324zm27.153 33.854l-5.61-3.202 1.134-.648L28.287 56l4.474-2.556 1.133.648z"/><path fill="#35444C" d="M.85 17.843l-.85-.81 5.04-2.88 1.134.647zm0 23.447l-.566-.972L5.04 37.6l1.134.648zm61.074-.873L56.6 37.382l1.136-.649 4.754 2.71zM35.05 6.085l-1.136.651V.713h1.135z"/></g></svg>