<svg xmlns="http://www.w3.org/2000/svg" width="21" height="52" viewBox="0 0 21 52"><g fill="none" fill-rule="evenodd"><path fill="#FFF" d="M15 9.96l4.22-2.776L15 2 8.895 1 5 4v1.864L7 5h4zm-.928 41.162L20 48V18L7 9.96 1 13v30z"/><path fill="#CBCFD2" d="M19.65 47.627l-3.04 1.863.686-22.201s1.475-3.661 2.571-9.783c.272 6.308.618 21.18.477 28.496-.032 1.633-.694 1.625-.694 1.625"/><path stroke="#35444C" stroke-width="1.002" d="M16.74 48.445V20.639a2.36 2.36 0 0 0-1.177-2.041L4.626 12.162c-1.578-.915-3.558.22-3.558 2.041l-.018 27.9a2.36 2.36 0 0 0 1.183 2.045l10.956 6.341c1.578.91 3.552-.227 3.552-2.044z"/><path stroke="#35444C" stroke-width="1.002" d="M18.969 48.511a2.335 2.335 0 0 0 1.122-2.008V18.697a2.36 2.36 0 0 0-1.179-2.04l-10.88-6.373a2.352 2.352 0 0 0-2.427.029m-3.131 1.74l3.451-1.906"/><path fill="#FFF" d="M9.578 41.542c.773 1.308.802 2.679-.005 3.153-.808.475-2.16-.151-2.934-1.46-.773-1.309-.785-2.729.023-3.203.807-.475 2.143.201 2.916 1.51"/><path stroke="#35444C" stroke-width=".891" d="M9.578 41.542c.773 1.308.802 2.679-.005 3.153-.808.475-2.16-.151-2.934-1.46-.773-1.309-.785-2.729.023-3.203.807-.475 2.143.201 2.916 1.51z"/><path fill="#FFF" d="M5.553 3.448c3.128-1.837 8.194.597 11.057 5.444"/><path stroke="#35444C" stroke-width="1.002" d="M5.553 3.448c3.128-1.837 8.194.597 11.057 5.444M4.492 4.1l.853 1.411c2.302-1.599 6.384-.517 9.556 3.981l.093.146 4.226-2.454C16.412 2.43 11.569-.116 8.443 1.72L4.493 4.1zm9.58 33.61V21.989c0-.647-.303-1.246-.796-1.571l-7.402-4.274c-1.068-.705-2.407.169-2.407 1.571v15.727c0 .65.306 1.25.802 1.575l7.402 4.27c1.067.699 2.401-.176 2.401-1.575zm1.231 12.89l3.666-2.089"/></g></svg>