<svg width="49" height="55" viewBox="0 0 49 55" xmlns="http://www.w3.org/2000/svg" xmlns:xlink="http://www.w3.org/1999/xlink"><defs><path id="a" d="M1.093 11.844l-.558-7.71L6.662.001l.558 7.71"/></defs><g fill="none" fill-rule="evenodd"><path fill="#fff" d="M18.769 24.99l-15.2-.51 7.878-6.302z"/><path fill="#fff" d="M4.391 44.195l16.79 9.821 22.228-12.873V27.425L4.391 23.83z"/><path stroke="#35444C" stroke-linejoin="round" d="M4.391 23.83v20.365l16.791 9.821 22.227-12.873V27.425"/><path d="M10.921 42.125c-.323.134-.708-.058-.861-.427-.154-.369-.016-.777.306-.911.323-.134.708.058.861.427.153.369.016.777-.306.911" fill="#35444C"/><path fill="#fff" d="M43.441 41.251L21.507 54.183l-.322-19.408 1.026-.614 2.021 4.031 19.209-10.118z"/><path d="M21.183 33.192v20.8" stroke="#35444C"/><path stroke="#35444C" stroke-linejoin="round" d="M8.97 46.743V33.971l6.106 3.525v12.771"/><path stroke="#35444C" d="M11.81 18.755l12.098 19.258.774.462 23.123-13.133.026-.632"/><path fill="#fff" d="M11.714 17.246l12.833 20.509 23.069-13.211L34.92 3.783z"/><path stroke="#35444C" d="M11.714 17.246l12.833 20.509 23.069-13.211L34.92 3.783zM12.056 18.062l-10.35 8.232-.824-.481 10.497-8.381"/><path fill="#35444C" d="M36.47 20.049l-9.833 5.631-2.006-3.199 9.834-5.632z"/><path stroke="#35444C" stroke-linejoin="round" d="M36.47 20.049l-9.833 5.631-2.006-3.199 9.834-5.632z"/><path d="M34.114 2.826l-3.191-1.748c-2.321-1.508-6 .036-8.217 3.449-2.217 3.412-2.095 7.265.226 8.773l3.153 1.885" fill="#fff"/><path d="M34.114 2.826l-3.191-1.748c-2.321-1.508-6 .036-8.217 3.449-2.217 3.412-2.095 7.265.226 8.773l3.153 1.885" stroke="#35444C"/><path d="M34.303 11.736c-2.217 3.413-5.896 4.957-8.218 3.449-2.321-1.509-2.406-5.498-.188-8.91 2.217-3.414 5.896-4.957 8.218-3.449 2.321 1.508 2.405 5.497.188 8.91" fill="#fff"/><path d="M34.303 11.736c-2.217 3.413-5.896 4.957-8.218 3.449-2.321-1.509-2.406-5.498-.188-8.91 2.217-3.414 5.896-4.957 8.218-3.449 2.321 1.508 2.405 5.497.188 8.91z" stroke="#35444C"/><path d="M29.814 2.662L26.623.914" fill="#fff"/><path d="M29.814 2.662L26.623.914" stroke="#35444C"/><path d="M27.364 4.262l-3.19-1.748" fill="#fff"/><path d="M27.364 4.262l-3.19-1.748" stroke="#35444C"/><path d="M25.615 6.511l-3.19-1.748" fill="#fff"/><path d="M25.615 6.511l-3.19-1.748" stroke="#35444C"/><path d="M24.441 9.01l-3.19-1.748" fill="#fff"/><path d="M24.441 9.01l-3.19-1.748" stroke="#35444C"/><path d="M24.109 11.714l-3.19-1.749" fill="#fff"/><path d="M24.109 11.714l-3.19-1.749" stroke="#35444C"/><g transform="translate(26 3.516)"><mask id="b"><use xlink:href="#a"/></mask><path d="M4.192 1.668C3.091 2.41 2.28 3.785 1.934 5.444l-.965.481-.025.715.875-.427a7.358 7.358 0 0 0-.053 1.271l-.874.434-.031.72.96-.476c.241 1.584 1.137 2.145 2.487 1.475a3.78 3.78 0 0 0 .421-.245c.951-.641 1.661-1.754 1.948-3.069l-.731.143c-.206.955-.632 1.617-1.259 2.039l-.339.196c-.917.456-1.49.143-1.683-.953l1.87-.928.024-.715-1.956.962-.007-.609c.01-.224.032-.448.054-.658l1.962-.973.03-.72-1.864.924c.256-1.167.779-2.053 1.508-2.545l.302-.175c.868-.43 1.417-.195 1.505.678l.748-.52C6.718 1.216 5.853.805 4.625 1.417a3.685 3.685 0 0 0-.433.251" fill="#35444C" mask="url(#b)"/></g><path stroke="#35444C" stroke-linejoin="round" d="M21.182 54.016l22.227-12.873V27.425"/><path d="M21.287 53.666v-3.238s16.171-9.677 22.036-17.88v8.595L21.287 53.666z" fill="#CBCFD2"/><path stroke="#35444C" stroke-linejoin="round" d="M21.182 54.016l22.227-12.873V27.425"/><path stroke="#35444C" stroke-linecap="round" stroke-linejoin="round" d="M43.409 27.425v13.718L21.182 54.016v-4.259"/><path fill="#fff" d="M39.798 33.483v5.287l-4.579 2.645v-5.288z"/><path stroke="#35444C" stroke-linejoin="round" d="M39.798 33.483v5.287l-4.579 2.645v-5.288zM30.639 38.749v5.288l-4.579 2.645v-5.288z"/></g></svg>