<svg width="71" height="52" viewBox="0 0 71 52" xmlns="http://www.w3.org/2000/svg" xmlns:xlink="http://www.w3.org/1999/xlink"><defs><linearGradient x1="0%" y1="65.349%" y2="34.651%" id="a"><stop stop-color="#FBA308" offset="0%"/><stop stop-color="#FBB50C" offset="100%"/></linearGradient><path id="b" d="M.82 8.883L.402 3.101l4.595-3.1.418 5.782"/></defs><g fill="none" fill-rule="evenodd"><path d="M37.016 12.385L68.673 29.67a2.939 2.939 0 0 1 .031 5.143L41.009 50.38a11.76 11.76 0 0 1-11.648-.071L1.596 34.257a2.94 2.94 0 0 1 .095-5.143l31.611-16.753a3.918 3.918 0 0 1 3.714.023z" fill="url(#a)"/><path fill="#fff" d="M31.451 19.492l-11.4-.383 5.909-4.726z"/><path fill="#fff" d="M20.667 33.896l12.593 7.366 16.671-9.655V21.319l-29.264-2.696z"/><path stroke="#35444C" stroke-linejoin="round" d="M20.667 18.622v15.274l12.593 7.366 16.67-9.655V21.319"/><path d="M25.564 32.344c-.242.101-.531-.043-.646-.32-.115-.277-.012-.583.23-.683.242-.101.531.044.646.32.115.277.012.583-.229.683" fill="#35444C"/><path fill="#fff" d="M49.954 31.689l-16.45 9.699-.242-14.556.769-.46 1.516 3.023 14.407-7.588z"/><path d="M33.261 25.644v15.6" stroke="#35444C"/><path stroke="#35444C" stroke-linejoin="round" d="M24.102 35.807v-9.579l4.579 2.644v9.578"/><path stroke="#35444C" d="M26.231 14.816l9.073 14.443.581.347 17.342-9.85.02-.474"/><path fill="#fff" d="M26.159 13.685l9.625 15.382 17.302-9.908-9.522-15.571z"/><path stroke="#35444C" d="M26.159 13.685l9.625 15.382 17.302-9.908-9.522-15.571zM26.416 14.296l-7.762 6.174-.618-.361 7.873-6.286"/><path fill="#35444C" d="M44.726 15.787l-7.375 4.223-1.505-2.399 7.375-4.224z"/><path stroke="#35444C" stroke-linejoin="round" d="M44.726 15.787l-7.375 4.223-1.505-2.399 7.375-4.224z"/><path d="M42.96 2.87l-2.393-1.311c-1.741-1.131-4.5.027-6.163 2.587-1.663 2.559-1.571 5.449.169 6.58l2.365 1.414" fill="#fff"/><path d="M42.96 2.87l-2.393-1.311c-1.741-1.131-4.5.027-6.163 2.587-1.663 2.559-1.571 5.449.169 6.58l2.365 1.414" stroke="#35444C"/><path d="M43.101 9.552c-1.663 2.56-4.422 3.718-6.163 2.587-1.741-1.132-1.805-4.123-.141-6.682 1.663-2.56 4.422-3.718 6.163-2.587 1.741 1.131 1.804 4.123.141 6.683" fill="#fff"/><path d="M43.101 9.552c-1.663 2.56-4.422 3.718-6.163 2.587-1.741-1.132-1.805-4.123-.141-6.682 1.663-2.56 4.422-3.718 6.163-2.587 1.741 1.131 1.804 4.123.141 6.683z" stroke="#35444C"/><path d="M39.734 2.747l-2.393-1.311" fill="#fff"/><path d="M39.734 2.747l-2.393-1.311" stroke="#35444C"/><path d="M37.897 3.946l-2.393-1.311" fill="#fff"/><path d="M37.897 3.946l-2.393-1.311" stroke="#35444C"/><path d="M36.585 5.633l-2.393-1.311" fill="#fff"/><path d="M36.585 5.633l-2.393-1.311" stroke="#35444C"/><path d="M35.704 7.507l-2.393-1.311" fill="#fff"/><path d="M35.704 7.507l-2.393-1.311" stroke="#35444C"/><path d="M35.456 9.536l-2.393-1.312" fill="#fff"/><path d="M35.456 9.536l-2.393-1.312" stroke="#35444C"/><g transform="translate(36.874 3.387)"><mask id="c"><use xlink:href="#b"/></mask><path d="M3.144 1.251c-.826.557-1.434 1.588-1.694 2.832l-.724.361-.019.536.656-.32c-.022.16-.033.325-.04.494l.001.46-.656.325-.023.54.72-.357c.181 1.188.853 1.609 1.865 1.106l.316-.184c.713-.481 1.246-1.315 1.461-2.302l-.548.107c-.154.716-.474 1.213-.944 1.529l-.254.147c-.688.342-1.117.107-1.262-.715l1.402-.696.018-.536-1.467.721-.005-.457.04-.494 1.471-.73.022-.54-1.398.693c.192-.875.584-1.54 1.131-1.909l.227-.131c.651-.323 1.063-.146 1.129.509l.561-.39C5.038.91 4.389.602 3.468 1.061l-.325.188" fill="#35444C" mask="url(#c)"/></g><path stroke="#35444C" stroke-linejoin="round" d="M33.26 41.262l16.67-9.655V21.319"/><path d="M33.339 41v-2.428s12.128-7.258 16.527-13.41v6.446L33.339 41z" fill="#CBCFD2"/><path stroke="#35444C" stroke-linejoin="round" d="M33.26 41.262l16.67-9.655V21.319"/><path stroke="#35444C" stroke-linecap="round" stroke-linejoin="round" d="M49.931 21.319v10.288l-16.67 9.655v-3.194"/><path fill="#fff" d="M47.222 25.862v3.965l-3.434 1.984v-3.966z"/><path stroke="#35444C" stroke-linejoin="round" d="M47.222 25.862v3.965l-3.434 1.984v-3.966zM40.353 29.812v3.966l-3.434 1.984v-3.966z"/></g></svg>