<svg xmlns="http://www.w3.org/2000/svg" width="49" height="53" viewBox="0 0 49 53"><g fill="none" fill-rule="evenodd"><path fill="#FFF" d="M48 22.44L35.368 1 10.877 14.926l-6.23 6.432v20.549L21.35 52l22.18-26z"/><path fill="#CBCFD2" d="M43.562 38.937L21.704 51.986l-.321-19.583 1.022-.62 2.013 4.068 19.144-10.21zm-9.186-19.228l-4.388 2.619-.194-8.937 4.6-2.741z"/><path fill="#CBCFD2" d="M47.777 21.761L24.709 34.807s10.223-6.823 19.073-19.58c1.3 2.334 3.995 6.534 3.995 6.534"/><path stroke="#35444C" stroke-width="1.08" d="M4.647 21.358v20.549l16.733 9.91 22.15-12.99v-13.84m-22.179 5.818v20.987"/><path stroke="#35444C" stroke-width="1.08" d="M9.21 44.477V31.59l6.085 3.558v12.886m24.637-16.936v5.335l-4.564 2.669v-5.336zm-9.128 5.315v5.335l-4.563 2.668v-5.335zM12.04 16.238l12.095 19.401.733.497L47.91 22.884l.026-.638"/><path stroke="#35444C" stroke-width="1.08" d="M12.366 15.718L1.97 23.845l-.92-.392 10.894-8.737 12.79 20.694 22.989-13.33L35.07 1.13 12.38 14.395"/><path fill="#35444C" d="M10.854 39.874a.726.726 0 0 1-.698-.753.725.725 0 0 1 .743-.707c.399.012.711.35.699.753a.725.725 0 0 1-.744.707"/><path stroke="#35444C" stroke-width="1.08" d="M29.794 22.44v-9.05l4.758-2.741"/><path stroke="#35444C" stroke-width="1.08" d="M25.024 14.542l4.77 7.897 4.758-2.726V10.61l-4.733-2.761-4.795 2.761zm0-3.932l4.77 2.781"/></g></svg>