<svg xmlns="http://www.w3.org/2000/svg" width="36" height="52" viewBox="0 0 36 52"><g fill="none"><path d="M17.958 51.635l-.45-.274c-1.077-.547-4.848-2.554-8.53-5.93C4.939 41.875.18 36.036.18 28.738V4.835l.449-.274C7.183 1.004 16.88.091 17.958.091c1.796 0 11.134 1.186 17.15 4.38l.538.273v23.993c0 7.48-4.759 13.228-8.8 16.786-3.68 3.284-7.452 5.291-8.53 5.838l-.358.274z"/><path d="M3.502 22.716l-.808-.091v-1.46h4.04v1.368h-.449c-.27 0-.359.092-.359.456v2.007H9.07v-2.463l-.719-.09v-1.46h4.04v1.368h-.448c-.27 0-.36.091-.36.456v6.386l.72.091v1.46H8.35v-1.46h.45c.269 0 .358-.091.358-.456V26.73H6.016v2.554l.718.091v1.46h-3.95v-1.368h.448c.27 0 .36-.092.36-.456v-6.295h-.09zm18.676 5.2c0 2.007-1.706 3.193-3.95 3.193-2.515 0-4.041-1.004-4.041-3.376v-5.017l-.808-.091v-1.46h4.04v1.368h-.449c-.27 0-.36.092-.36.456v4.744c0 1.186.809 1.551 1.707 1.551s1.526-.456 1.526-1.46v-5.2l-.718-.09v-1.46h3.771v1.368h-.449c-.27 0-.359.091-.359.456v5.018h.09zm7.902-2.828l1.885-2.099c.18-.09.359-.273.539-.364l.359-.092v-1.368H29.18v1.368h.54l-2.784 3.102V22.99c0-.273.09-.364.359-.364h.359v-1.369h-3.95v1.46l.807.091v6.386c0 .274-.09.365-.359.365l-.449.091v1.369h3.771v-1.46h-.538V28.28l1.436-1.46 1.167 2.28c.09.183.09.366-.09.366l-.448.09v1.37h4.4v-1.46l-1.078-.092-2.245-4.287zM30.438 8.667l-1.975 4.926v1.642c-.808-.274-1.796-.639-2.334-.821l-.629-3.01-7.452-1.643-1.527 3.467c-.988.091-2.694.365-2.783.365v-2.646l-.629-.456s.36-.365.45-.547c.179-.365.179-.821.179-1.004 0-1.55-1.796-2.28-1.796-2.28l-.27-.821v-.183c.36-.274.809-.456 1.527-.456 1.347 0 1.347.274 2.334.456 1.886.365 2.963-1.186 2.963-1.186s-1.885.73-2.963.091c-.808-.456-1.436-1.003-2.693-1.003-1.078 0-1.616.547-1.616.547V5.93l-.27.82s-1.796.73-1.796 2.282c0 .182 0 .547.18 1.003.09.183.449.547.449.547l-.629.457v3.831c-.718.274-1.526.73-2.154 1.004v-1.278l.448-.82v-2.372l-.808-.092-1.257-3.831-1.526 3.923-.808.09v2.373l.449.82v5.2h.987v-5.473l-.449-.821v-1.186h.54l.807-2.098.808 2.098h.54v1.186l-.45.821v3.193c.09-.091 2.155-1.186 4.13-2.007v-4.105s.45-.274.54-.456c.089-.092.089-.183.089-.457 0-.273-.09-.364-.36-.638-.269-.274-.358-.548-.358-.912 0-.913 1.257-1.551 1.257-1.551s1.257.638 1.257 1.55c0 .365-.09.64-.36.913-.179.182-.359.365-.359.638 0 .183 0 .274.09.457.09.182.539.456.539.456v3.466s1.975-.456 4.4-.638l1.436-3.284 6.016 1.368.629 2.92c1.077.273 3.142 1.003 4.22 1.55v-2.92l.987-2.462.988 2.463v6.02h.988v-6.203l-1.976-5.108zm-.358 23.719c-2.245 6.295-8.98 10.947-12.122 12.954-3.143-1.915-9.877-6.66-12.122-12.954H4.49C6.824 40.414 17.868 46.8 17.958 46.8c.09 0 11.134-6.386 13.468-14.414H30.08z" fill="#35444C"/><path fill="#35444C" d="M34.658 28.737c0 7.024-4.579 12.59-8.44 15.965-3.591 3.193-7.273 5.2-8.26 5.656-.988-.456-4.67-2.554-8.35-5.747-3.862-3.467-8.44-8.94-8.44-15.965V5.29c6.284-3.375 15.712-4.287 16.79-4.287 1.526 0 10.774 1.094 16.7 4.287v23.446zM17.958 0C13.288.091 4.579 2.098 0 4.744v23.993c0 3.284.898 6.568 2.783 9.67 1.437 2.463 3.502 4.926 6.106 7.207 4.31 3.832 8.62 5.93 8.8 6.021l.269.091.27-.09c.179-.092 4.399-2.1 8.798-5.93 2.514-2.281 4.58-4.653 6.016-7.117 1.886-3.101 2.784-6.385 2.784-9.76V4.834C31.066 1.915 21.998.091 17.958 0z"/></g></svg>