<svg xmlns="http://www.w3.org/2000/svg" xmlns:xlink="http://www.w3.org/1999/xlink" width="44" height="47" viewBox="0 0 44 47"><defs><path id="a" d="M0 .009h43.894V46.87H0z"/></defs><g fill="none" fill-rule="evenodd"><path fill="#FFF" d="M20.31 16.023c-2.261 1.144-4.045 1.144-5.35 0-1.307-1.144-1.627-2.164-.96-3.06l-1.704-2.84L9 9.14H7.003l-2.998.981L3 13l-.883 3v2L1.08 19.733V21l1.036 1.793h4.886V25c0 .667.343 2 1.027 4l2.123 13h2.143L13 32.97 14.96 34 17 45.959h3.31l.69-12.99L24 30l7.139-7.206L36 30l1 5h1.992V19.733L37 14.068l1.992-1.057L42.859 10 43 6l-1-3.902L38.992 1 39 5l-1 4.141-3 2.93-3.861-.85L28 11l-6 4-1.69 1.023z"/><path fill="#CBCFD2" d="M7.652 9.082S6.04 7.159 4.395 8.084L3 9.498l.835.952 2.536-1.383 1.28.015zM42.2 3.223s.784 7.262-5.6 10.404c0 0 4.597-.376 5.988-3.959S42.2 3.223 42.2 3.223m-9.226 28.792l.604-6.114-2.285-3.108-2.593 2.86 1.427 2.521.305 3.508.415.64 1.363.066zM6.829 22.793s-.21 12.138 5.915 13.727l.361-3.85 2.166.88s-8.947-1.162-8.442-10.757"/><path fill="#35444C" d="M5.705 16.896c.153-.268.555-.38.897-.248.343.132.495.456.342.724-.153.268-.555.38-.898.248-.342-.132-.495-.455-.341-.724M2.406 15.63c.209-.157.559-.109.78.108.222.218.231.52.022.678-.21.157-.559.108-.78-.11-.222-.216-.232-.519-.022-.676"/><g transform="translate(0 .12)"><mask id="b" fill="#fff"><use xlink:href="#a"/></mask><path fill="#35444C" d="M42.45 8.469l-.01.023a6.835 6.835 0 0 1-5.688 4.48 8.932 8.932 0 0 0-1.155-.986l-.027-.02a3.768 3.768 0 0 0-.059-.043l-.108-.074C38.217 9.662 40 6.214 40 2.862c0-.42-.024-.841-.072-1.26A5.404 5.404 0 0 1 42.45 8.47zm-3.458 13.116l-.254 12.604c-.133.09-.415.222-.933.222-.542 0-.82-.144-.939-.232l-.511-4.618-5.065-7.741-3.267 3.68s-4.853 5.926-6.992 6.706l-.282.124-1.077 13.285a3.844 3.844 0 0 1-1.279.223c-.519 0-.865-.11-1.05-.19l-1.467-11.535-.114-1.064-.006-.067h-.002l-.243-2.272-.085-.093c-.047-.052-4.674-5.179-4.694-8.032-.012-1.7-.37-2.792-1.091-3.34-.59-.447-1.394-.525-2.461-.238a95.348 95.348 0 0 1-2.554.664 5.98 5.98 0 0 1-1.501.118c-.162-.186-.429-.408-.87-.597-.257-.11-.46-.18-.626-.225l.556-.637c.663-.696.612-1.71.591-1.94l.041-1.837c0-.88.245-1.768.77-2.794.742-1.446 2.57-2.232 2.588-2.239a5.47 5.47 0 0 1 7.123 2.863c.005.012.544 1.213 1.214 3.359.144.459.74.751 1.082.885.503.196 2.305.744 4.364-.442 1.679-.967 4.42-2.564 5.904-3.43l.032-.02a7.981 7.981 0 0 1 1.14-.65 7.98 7.98 0 0 1 2.177-.686c.108-.013 1.078-.121 1.938-.074 1.234.069 2.535.566 3.76 1.439l.08.059a7.938 7.938 0 0 1 2.043 2.132c2.006 2.967 1.96 6.594 1.96 6.63zM32.48 31.64c-.115.064-.364.159-.827.159-.436 0-.664-.083-.77-.141l-.247-3.755-1.31-2.313 1.85-2.084 1.87 2.778-.566 5.356zm-19.842.482c-2.19-.857-3.776-2.536-4.714-4.998-.747-1.962-.787-3.717-.788-3.78 0-.11.002-.22.006-.328l.018-.534-3.676-.002c-.522 0-.994-.087-1.102-.15-.59-.34-1.105-1.098-1.282-1.819l.075.072c.543.501 1.378.592 1.865.204.1-.08.173-.146.225-.217a6.703 6.703 0 0 0 1.537-.144c.027-.006.676-.158 2.58-.67.819-.22 1.404-.186 1.789.106.51.388.774 1.306.784 2.73.021 2.952 4.14 7.699 4.81 8.451l.194 1.807c-.567-.112-2.321-.728-2.321-.728zm-.83 9.224a1.744 1.744 0 0 1-.764.159c-.35 0-.558-.082-.664-.143L8.21 29.878a8.848 8.848 0 0 0 4.33 3.308l-.733 8.159zM43.86 5.742A6.442 6.442 0 0 0 39.435.28l-.84-.272.173.864c.13.655.196 1.324.196 1.99 0 3.161-1.758 6.425-4.505 8.403-1.071-.58-2.179-.913-3.253-.972-.997-.055-2.085.075-2.13.08l-.021.003a9.037 9.037 0 0 0-2.47.776 8.988 8.988 0 0 0-1.261.72 1491.31 1491.31 0 0 1-5.883 3.417c-1.991 1.147-3.72.35-3.953.102-.686-2.186-1.224-3.383-1.244-3.427a6.502 6.502 0 0 0-5.961-3.899c-.868 0-1.712.169-2.508.502-.09.037-2.193.934-3.109 2.72v.001c-.603 1.177-.884 2.214-.884 3.253l-.042 1.897.005.039c0 .007.077.74-.315 1.146l-.973 1.115a2.146 2.146 0 0 0-.304.465l-.022.049A2.094 2.094 0 0 0 0 20c-.003 1.204.815 2.62 1.864 3.224.476.274 1.433.288 1.62.288l2.62.001c.015.506.09 1.237.094 1.271l.01.07c.046.318.107.641.182.96l3.032 16.054.083.102c.048.058.494.566 1.54.566.998 0 1.54-.454 1.599-.506l.154-.136.75-8.345c.413.134.832.241 1.253.323l1.575 12.373.168.131c.065.051.67.495 1.85.495 1.15 0 1.975-.427 2.01-.445l.252-.132 1.076-13.274c1.35-.653 2.453-1.61 3.633-3.144l3.232-3.475 1.021 1.804.253 3.836.053.1c.063.115.44.69 1.73.69 1.262 0 1.682-.545 1.753-.654l.069-.104.462-4.379 1.414 2.219.518 4.678.067.102c.05.077.525.75 1.868.75 1.338 0 1.825-.667 1.876-.743l.084-.126.262-12.968c.003-.16.058-3.983-2.132-7.221a9.004 9.004 0 0 0-.347-.49 7.874 7.874 0 0 0 5.864-5.043 6.393 6.393 0 0 0 .448-3.11z" mask="url(#b)"/></g><path fill="#CBCFD2" d="M9.748 10.698s-2.383.3-1.386 2.148c0 0 .95 1.209 2.312 1.813.446.198-.926-3.96-.926-3.96"/><path fill="#37444C" d="M13.62 14.722c-.022.273-.205.546-.542.812a.537.537 0 0 0-.036.032l-1.802 1.72c.034-1.341.025-3.477-.27-5.215l2.423 1.989c.058.073.254.342.227.662m-5.012-2.236a.263.263 0 0 1 .048-.24c.503-.67.86-.927 1.062-1.026.238.786.368 1.813.435 2.848-.733-.502-1.445-1.128-1.545-1.582m5.524.848a.517.517 0 0 0-.047-.044l-3.68-3.02a.514.514 0 0 0-.177-.094c-.315-.116-1.163-.196-2.4 1.45a1.29 1.29 0 0 0-.231 1.082c.135.614.668 1.257 1.628 1.967.374.276.735.503.982.65a41.18 41.18 0 0 1-.054 3.187.516.516 0 0 0 .874.407l2.714-2.59c.565-.453.872-.971.913-1.542.058-.816-.463-1.39-.522-1.453"/><path fill="#FFF" d="M1.845 10.983s-.752-.937.375-1.593a256.908 256.908 0 0 1 1.785-1.031l-.208 3.666a.464.464 0 0 1-.726.338l-1.226-1.38z"/><path fill="#37444C" d="M3.29 11.83l-1.043-1.172c-.029-.042-.161-.246-.124-.434.027-.135.148-.265.358-.388l.953-.553-.145 2.548zm1.283-4.329s-1.497.793-2.613 1.443c-.604.35-.798.79-.855 1.095-.125.67.288 1.208.335 1.267l1.285 1.447.052.035a.977.977 0 0 0 .974.082.97.97 0 0 0 .561-.799l.194-3.406c1.47-.834 2.47.267 2.582.399l.397-.332.399-.329c-.504-.608-1.767-1.45-3.311-.902z"/></g></svg>