<svg xmlns="http://www.w3.org/2000/svg" width="32" height="32" viewBox="0 0 32 32"><g fill="#FFF" fill-rule="evenodd"><path fill-rule="nonzero" d="M15.556 31.111C6.964 31.111 0 24.147 0 15.556 0 6.964 6.964 0 15.556 0c8.59 0 15.555 6.964 15.555 15.556 0 8.59-6.964 15.555-15.555 15.555zm0-2.667c7.118 0 12.888-5.77 12.888-12.888 0-7.119-5.77-12.89-12.888-12.89-7.119 0-12.89 5.771-12.89 12.89 0 7.118 5.771 12.888 12.89 12.888z"/><circle cx="15.632" cy="8.698" r="2.032"/><path d="M14.133 13.778h3.048v10.159h-3.048z"/></g></svg>