<svg width="40" height="43" xmlns="http://www.w3.org/2000/svg" xmlns:xlink="http://www.w3.org/1999/xlink"><defs><path id="a" d="M.598.844h.908V5.25H.598z"/></defs><g fill="none" fill-rule="evenodd"><path d="M17.895 16.59c0 .68-.821 2.863-.868 3.638-.048.775-.095 3.798-.095 4.268-.025 1.515-4.367 4.24-8.51 2.168-.257-.714-.411-2.846-.72-4.856-2.064-.798-6.148-1.329-6.496-5.415-.213-2.484 1.546-4.871 1.972-5.529.424-.657-.824-2.989 1.823-6.037 2.584-2.976 7.357-3.473 8.521-3.515l.25.001A8.198 8.198 0 1 1 5.865 11.68S4.162 7.622 3.2 7.81" fill="#FFF"/><path d="M17.895 16.59c0 .68-.821 2.863-.868 3.638-.048.775-.095 3.798-.095 4.268-.025 1.515-4.367 4.24-8.51 2.168-.257-.714-.411-2.846-.72-4.856-2.064-.798-6.148-1.329-6.496-5.415-.213-2.484 1.546-4.871 1.972-5.529.424-.657-.824-2.989 1.823-6.037 2.584-2.976 7.357-3.473 8.521-3.515l.25.001A8.198 8.198 0 1 1 5.865 11.68S4.162 7.622 3.2 7.81" stroke="#35444C"/><path d="M17.866 16.646c-1.708.854-2.933 1.699-6.084.96-2.162-.506-5.31-3.282-5.898-5.738-.104.346-.381-.72-.336-.393.427 3.043 1.034 6.9 4.979 7.733 2.402.506 5.07.08 7.045-1.095.027-.374.027-.613.294-1.467" fill="#CBCFD2"/><path d="M5.922 12.036c-.421-.282-1.83-1.712-2.91-.846m7.29 11.79c.106-.714-.06-1.632-.435-1.96-.377-.329-3.422-1.303-3.61-2.218-.187-.915 1.192-5.166-1.19-7.473" stroke="#35444C" stroke-linecap="round"/><path d="M17.033 20.145c-1.143 2.848-6.377 4.335-9.224 2.375" stroke="#35444C" stroke-linecap="round" stroke-linejoin="round"/><path d="M6.232 15.586c-.22-.183-1.664-.598-2.506-.123m2.561-1.528c-.22-.183-1.773-.574-2.615-.098m2.615 3.523c-.22-.183-1.573-.61-2.414-.136" stroke="#35444C" stroke-linecap="round"/><path d="M14.483 22.336c.047-.352.407-2.884.336-3.542-.07-.658-.829-.857-.876.105-.048.963.595 2.856.595 2.856" stroke="#35444C" stroke-linecap="round" stroke-linejoin="round"/><path d="M23.233 18.648c.117-4.243 2.22-7.62 7.995-7.62a7.998 7.998 0 0 1 7.999 7.999c0 3.864-3.408 9.667-4.264 10.694 0 .742-.648 4.4-.648 4.4s-.069 1.457-3.578 1.706c-2.67.19-3.43-.707-3.43-1.644-.048-1.803-.048-3.26-.048-3.26s-6.454-6.436-6.17-8.917c.286-2.48 2.111-3.736 2.853-3.393.741.342 3.058 2.136 3.058 2.136" fill="#FFF"/><path d="M23.233 18.648c.117-4.243 2.22-7.62 7.995-7.62a7.998 7.998 0 0 1 7.999 7.999c0 3.864-3.408 9.667-4.264 10.694 0 .742-.648 4.4-.648 4.4s-.069 1.457-3.578 1.706c-2.67.19-3.43-.707-3.43-1.644-.048-1.803-.048-3.26-.048-3.26s-6.454-6.436-6.17-8.917c.286-2.48 2.111-3.736 2.853-3.393.741.342 3.058 2.136 3.058 2.136m-1.703-3.663c-.129-.36-.025-1.323.314-1.883m1.182 2.142c.284-.387 1.057-1.497 1.444-1.832m-.588 3.784c.897-.148 3.09.163 3.477.317M27 20.75c.457.37 2.497 1.579 2.935 1.733" stroke="#35444C" stroke-linecap="round" stroke-linejoin="round"/><path d="M37.8 23.99c-1.642 3.52-6.413 7.158-12.396 4.772 1.134 2.464 2.84 2.828 6.159 2.253 4.42-.765 5.428-3.805 6.238-7.024" fill="#CBCFD2"/><path d="M34.963 29.721c-1.128 1.293-4.867 2.644-7.704 1.202" stroke="#35444C" stroke-linecap="round" stroke-linejoin="round"/><path d="M34.725 31.136c-1.017 2.18-3.681 3.803-7.387 2.325 0 1.772 1.608 2.739 4.064 2.281 3.032-.567 3.413-3.715 3.323-4.606m-18.019-8.338c-1.145 2.397-4.209 4.15-8.53 2.455.406 1.489 1.903 2.555 4.743 2.086 3.507-.578 4.107-3.125 3.787-4.541" fill="#CBCFD2"/><path d="M17.895 16.59c0 .68-.821 2.812-.868 3.587" stroke="#35444C" stroke-linecap="round" stroke-linejoin="round"/><path fill="#35444C" d="M12.158 32.04l-.907-.52v-2.296l.907.521zm21.709 7.61l-.908-.52v-2.296l.908.521zm-17.6-7.138l-.908-.529v-3.878l.908.528z"/><g transform="translate(27.875 36.925)"><mask id="b" fill="#fff"><use xlink:href="#a"/></mask><path fill="#35444C" mask="url(#b)" d="M1.506 5.25l-.908-.528V.844l.908.527z"/></g><path d="M23.982 18.64c.71-1.133 2.003-1.601 2.888-1.047.884.555 1.024 1.922.314 3.055m7.779 9.073c0 .742-.647 4.4-.647 4.4s-.07 1.456-3.58 1.707c-2.67.189-3.43-.707-3.43-1.644-.047-1.804-.047-3.26-.047-3.26m0-.001s-6.454-6.435-6.17-8.917c.286-2.48 2.11-3.736 2.853-3.393M31.228 11.027a8 8 0 0 1 8 8c0 3.864-3.409 9.667-4.265 10.694m-17.937-9.493c-.047.776-.093 3.798-.093 4.268-.026 1.514-4.368 4.24-8.511 2.167-.257-.713-.412-2.844-.72-4.855m-6.496-5.415c-.213-2.485 1.547-4.87 1.972-5.529.424-.657-.824-2.989 1.823-6.037" stroke="#35444C" stroke-linecap="round" stroke-linejoin="round"/><path d="M5.865 11.68S4.162 7.622 3.2 7.81" stroke="#35444C"/><path d="M5.922 12.036c-.421-.282-1.83-1.712-2.91-.846" stroke="#35444C" stroke-linecap="round"/><path d="M21.97 9.51a8.198 8.198 0 0 1-16.105 2.17" stroke="#35444C"/></g></svg>