<svg xmlns="http://www.w3.org/2000/svg" width="48" height="41" viewBox="0 0 48 41"><g fill="none" fill-rule="evenodd"><path fill="#FFF" d="M19 10l-6 3-4 5-1 3-1-2c-.538.408-.87.742-1 1s-.13.592 0 1l1 1-4 4-2 3-1 3 1 3c1.273 1.367 2.607 2.367 4 3 1.393.633 3.727 1.3 7 2h4v-1l2 1 2-1 2-3 15-8 2 1 2-1 1-2 1-2 4-4-1-9-2-6-9-5-16 10z"/><path d="M18.243 34.025c-.832.53-2.487 1.937-2.757 5.894-.703.4-5.218.483-10.653-2.387C.262 35.118.5 33.302.5 32.388V30.04c0-1.57 1.638-3.75 3.53-5.173 1.891-1.423 2.897-2.781 3.647-3.875 1.086-1.585 4.1-7.181 6.671-8.796C17.046 10.504 34.095.88 35.002.521c1.051-.415 8.239 3.753 9.366 5.004 1.128 1.251 2.34 8.844 2.395 14.423.023 2.392-3.815 4.155-3.815 4.155"/><path stroke="#35444C" stroke-width=".99" d="M18.243 34.025c-.832.53-2.487 1.937-2.757 5.894-.703.4-5.218.483-10.653-2.387C.262 35.118.5 33.302.5 32.388V30.04c0-1.57 1.638-3.75 3.53-5.173 1.891-1.423 2.897-2.781 3.647-3.875 1.086-1.585 4.1-7.181 6.671-8.796C17.046 10.504 34.095.88 35.002.521c1.051-.415 8.239 3.753 9.366 5.004 1.128 1.251 2.34 8.844 2.395 14.423.023 2.392-3.815 4.155-3.815 4.155"/><path fill="#CBCFD2" d="M31.474 28.37C25.596 31.524 20.86 33.748 18 35c-1.025.449-1.42 1.182-2.084 1.216-.257.886-2.221 3.332-3.374 3.482-1.153.15 1.975.075 3.126-.011.431-.032.16-3.002 1.332-3.687.78-.456 1.898-1.93 3-2 .913-.059 1.196 1.723 2 2 .668.23 1.894-1.008 2.328-1.256 2.533-1.446 11.527-6.367 12.986-7.204.42-.24-.098-2.064.686-2.54.655-.397 1.105-1.76 2-2 1.117-.3 2.02.953 3 1 .565.027 1.441-1.046 1.666-1.251 1.382-1.265 2.127-2.29 2.038-3.14-.09-.85-.401-4.756-.401-4.756-1.367 5.323-6.846 9.231-14.83 13.517z"/><path d="M20.667 38.185c-.95 1.444-2.524 2.098-3.519 1.46-.993-.64-1.03-2.327-.08-3.772.95-1.445 2.524-2.098 3.518-1.46.994.639 1.03 2.327.08 3.772"/><path stroke="#35444C" stroke-width=".99" d="M20.667 38.185c-.95 1.444-2.524 2.098-3.519 1.46-.993-.64-1.03-2.327-.08-3.772.95-1.445 2.524-2.098 3.518-1.46.994.639 1.03 2.327.08 3.772z"/><path d="M41.81 26.751c-.949 1.445-2.524 2.098-3.517 1.46-.994-.639-1.03-2.327-.081-3.771.949-1.445 2.524-2.098 3.518-1.46.993.638 1.03 2.327.08 3.771"/><path stroke="#35444C" stroke-width=".99" d="M41.81 26.751c-.949 1.445-2.524 2.098-3.517 1.46-.994-.639-1.03-2.327-.081-3.771.949-1.445 2.524-2.098 3.518-1.46.993.638 1.03 2.327.08 3.771z"/><path fill="#35444C" d="M10.187 34.532c-.141.242-.468.753-.554.844-.086.091-.461.225-.957.082-.496-.142-2.355-.66-3.57-1.457a19.458 19.458 0 0 1-2.486-1.994c-.14-.147-.19-.323-.076-.678.114-.353.226-.627.3-.785.073-.158.175-.329.62 0 .493.365 2.078 1.403 3.097 1.935 1.02.531 3.082 1.47 3.304 1.567.25.11.472.229.322.486"/><path stroke="#35444C" stroke-linejoin="round" stroke-width=".99" d="M43.942 5.405c-6.06 3.587-15.406 9.058-20.19 11.965-.96.583-1.078 1.175-1.386 1.832-1.26 2.692-3.74 8.683-4.063 9.165-.324.483-1.483 1.662-3.128 1.14-1.647-.524-4.667-2.003-5.67-2.614-1.002-.611-2.661-1.657-2.95-1.919-.289-.261-1.164-1.216-.057-2.5"/><path fill="#35444C" d="M11.375 35.962c.229.016 2.857.067 3.559-.198.433-.571 1.668-2.021 1.668-2.021V32.67s-.007-.642-.47-.378c-.461.264-3.259 1.827-3.474 1.929-.197.092-.489.225-.703.235-.217.178-.799.974-.856 1.083-.056.108-.115.395.276.422M2.953 25.317c.161-.069.72-.288.584-.077a566.31 566.31 0 0 1-1.597 2.436c-.132.195-.11 1.097.233 1.538-.091.438-.233 1.392-.29 1.545-.055.152-.126.278-.368-.035-.241-.314-1.178-1.475-.652-2.81"/><path stroke="#35444C" stroke-width=".99" d="M7.822 20.907c-.016-.208.016-.508-.162-.719-.178-.21-.704-.914-.895-.914-.19 0-.839.564-.855.738-.016.175-.21 1.2 0 1.456s.312.512.537.752"/><path stroke="#35444C" stroke-linecap="round" stroke-width=".99" d="M21.61 21.036c-.165.346-.836 1.13-2.195.464-1.904-.932-6.856-3.398-7.446-3.814-.59-.417-1.483-.656-.63-2.281m1.558-2.006c.236-.257.687-.96 1.967-.302 1.795.922 6.437 3.392 7.014 3.766.568.37 1.289.625.536 2.218"/><path d="M19.396 27.76c.129.013 2.119.595 2.31.662.19.068.574.082.56.527-.014.446 0 .778-.095.909-.096.132-.424.43-.854.416-.432-.014-3.01.064-3.223-.198-.215-.262-.407-.64-.16-1.058.246-.42 1.052-1.298 1.462-1.258"/><path stroke="#35444C" stroke-width=".99" d="M19.396 27.76c.129.013 2.119.595 2.31.662.19.068.574.082.56.527-.014.446 0 .778-.095.909-.096.132-.424.43-.854.416-.432-.014-3.01.064-3.223-.198-.215-.262-.407-.64-.16-1.058.246-.42 1.052-1.298 1.462-1.258z"/><path fill="#35444C" d="M46.674 15.01s-.544.547-.958.948c-.345.333-.325.622-.307.82.01.108.04 2.287.062 2.714.014.268.312.256.428.211.116-.043.622-.407.622-.407"/><path stroke="#35444C" stroke-width=".99" d="M21.618 36.419l15.148-8.647m-18.523 6.253c-.832.53-2.487 1.937-2.757 5.894-.703.4-5.218.483-10.653-2.387m37.105-10.566c-1.17 1.655-3.042 2.359-4.181 1.572-1.138-.787-1.113-2.767.057-4.422 1.17-1.655 3.042-2.36 4.181-1.572 1.139.787 1.113 2.766-.057 4.422z"/><path stroke="#35444C" stroke-width=".99" d="M20.93 38.246c-1.113 1.694-2.96 2.46-4.125 1.711-1.164-.748-1.207-2.727-.094-4.421 1.113-1.693 2.96-2.46 4.125-1.711 1.165.748 1.207 2.727.094 4.421z"/><path stroke="#35444C" stroke-linecap="round" stroke-linejoin="round" stroke-width=".99" d="M21.687 28.3l3.622-2.183v-7.051l-3.707 2.282"/><path stroke="#35444C" stroke-width=".99" d="M44.368 5.525c1.128 1.252 2.34 8.845 2.395 14.423.023 2.391-3.815 4.155-3.815 4.155"/></g></svg>