<svg xmlns="http://www.w3.org/2000/svg" width="40" height="40" viewBox="0 0 40 40"><g fill="#fdd319" fill-rule="evenodd"><path d="M12.381 15.238c0 .762.095 1.429.286 2.095-.19-.762-.286-1.523-.286-2.095zm14.857 2.381c.286-.762.381-1.619.381-2.38 0 .666-.19 1.523-.38 2.38zM20 7.619c-4.19 0-7.619 3.429-7.619 7.62 0 .57.095 1.332.286 2.094 1.238 5.524 6.285 15.048 7.333 15.048.952 0 5.81-9.238 7.238-14.762.286-.952.381-1.714.381-2.38 0-4.191-3.429-7.62-7.619-7.62zm-2.857 6.667c0-1.62 1.238-2.857 2.857-2.857 1.619 0 2.857 1.238 2.857 2.857 0 1.619-1.238 2.857-2.857 2.857-1.619 0-2.857-1.238-2.857-2.857z"/><path d="M38 19.905C38 30.57 29.143 38 19.905 38 9.238 38 2 29.238 2 19.905 2 9.905 9.905 2 19.905 2 30.57 2 38 10.571 38 19.905zm1.905 0c0 11.428-9.334 20-20 20-6.667 0-16-4.095-18.857-13.048-.477-1.428-.953-3.81-.953-4.286v-5.047C2 6.095 11.048.095 19.905.095c11.428 0 20 9.048 20 19.81z"/></g></svg>