<svg width="9" height="10" viewBox="0 0 9 10" xmlns="http://www.w3.org/2000/svg"><title>Fill 1</title><path d="M7.51 4.244h1.145c.095 0 .175.032.24.095.07.067.105.148.105.244v5.073a.309.309 0 0 1-.104.238.318.318 0 0 1-.241.106H.334a.3.3 0 0 1-.236-.105.316.316 0 0 1-.098-.24V4.584c0-.096.033-.177.098-.244a.317.317 0 0 1 .236-.095h1.03V3.117c0-.86.301-1.593.904-2.2A2.926 2.926 0 0 1 4.437 0c.847 0 1.57.306 2.17.917a3.01 3.01 0 0 1 .903 2.2v1.127zM5.702 3.106a1.227 1.227 0 0 0-.377-.895 1.201 1.201 0 0 0-.888-.372c-.35 0-.648.124-.893.372a1.266 1.266 0 0 0-.367.906v1.127h2.525V3.106z" fill="#717683" fill-rule="evenodd"/></svg>