<svg xmlns="http://www.w3.org/2000/svg" viewBox="0 0 346.69 64.11"><path d="M241.46 33.81a25.24 25.24 0 0 0 5.42-15.4 18.38 18.38 0 0 0-5-13.08Q236.81 0 226 0a26.43 26.43 0 0 0-11.35 2.41 19.56 19.56 0 0 0-8.42 7.59q-3.22 5.16-3.49 13.16h18.5a14.72 14.72 0 0 1 .73-5.63 2.53 2.53 0 0 1 2.46-1.53c2 0 3 1.44 3 4.3q0 5.25-6.58 11.88A171.55 171.55 0 0 1 203 47.32v14.37h44.48v-15.4h-19.7a51.07 51.07 0 0 0 13.68-12.48zm61.4 2.3h-6.1V.69H276.5l-25.25 36v15.7h26.53v9.32h19v-9.32h6.1zm-23.56 0h-9.15l9.15-14z" fill="#F49B08"/><path d="M325.24.53h-24.29l23.09 30.32-22.22 30.86h24.44l20.43-30.86L325.24.53zM106.92 35a11 11 0 0 1-2.11 7.13c-1.42 1.75-3.59 2.63-6.54 2.63s-5.07-.88-6.39-2.63a11.54 11.54 0 0 1-2-7.13V.53H69.57V35q0 9.39 3.59 15.92a23.5 23.5 0 0 0 10 9.84 31.4 31.4 0 0 0 14.67 3.32 33.45 33.45 0 0 0 15-3.32 24.67 24.67 0 0 0 10.58-9.89q3.87-6.57 3.86-15.87V.53h-20.35zM40.81 23.06H20.42V.53H0v61.18h20.42V39.33h20.39v22.38h20.43V.53H40.81v22.53zm159.53 38.65l-23.09-30.32L199.47.53h-24.44l-19.02 28.73V.53h-20.42v61.18h20.42V33.39l20.04 28.32h24.29z" fill="#35444C"/></svg>