<svg xmlns="http://www.w3.org/2000/svg" viewBox="0 0 192.09 61.71"><path d="M86.86 33.81a25.24 25.24 0 0 0 5.42-15.4 18.38 18.38 0 0 0-5-13.08Q82.21 0 71.37 0A26.43 26.43 0 0 0 60 2.41 19.56 19.56 0 0 0 51.63 10q-3.23 5.16-3.48 13.16h18.49a14.72 14.72 0 0 1 .73-5.63A2.53 2.53 0 0 1 69.83 16c2 0 3 1.44 3 4.3q0 5.25-6.58 11.88A171.55 171.55 0 0 1 48.4 47.32v14.37h44.48v-15.4h-19.7a51.07 51.07 0 0 0 13.68-12.48zm61.4 2.3h-6.1V.69H121.9l-25.25 36v15.7h26.53v9.32h19v-9.32h6.1zm-23.56 0h-9.15l9.15-14z" fill="#f59c00"/><path d="M170.64.53h-24.29l23.09 30.32-22.22 30.86h24.44l20.43-30.86L170.64.53zM21.45 61.71h24.29L22.65 31.39 44.87.53H20.43L0 31.39l21.45 30.32z"/></svg>