<svg xmlns="http://www.w3.org/2000/svg" viewBox="0 0 346.83 86.68"><path d="M241.6 33.81a25.24 25.24 0 0 0 5.4-15.4 18.38 18.38 0 0 0-5-13.08Q237 0 226.11 0a26.43 26.43 0 0 0-11.35 2.41 19.5 19.5 0 0 0-8.39 7.59q-3.23 5.16-3.49 13.16h18.5q0-4.12.73-5.63a2.52 2.52 0 0 1 2.45-1.53c2 0 3 1.44 3 4.3q0 5.25-6.59 11.88a170.24 170.24 0 0 1-17.85 15.14v14.37h44.48v-15.4h-19.7a51.07 51.07 0 0 0 13.7-12.48zm61.4 2.3h-6.1V.69h-20.26l-25.25 36v15.7h26.52v9.32h19v-9.32H303zm-23.56 0h-9.15l9.15-14z" fill="#F49B08"/><path d="M325.38.53h-24.29l23.09 30.32-22.22 30.86h24.44l20.43-30.86L325.38.53zM107.06 35a11 11 0 0 1-2.06 7.16c-1.42 1.75-3.59 2.63-6.54 2.63s-5.07-.88-6.39-2.63A11.54 11.54 0 0 1 90 35V.53H69.71V35q0 9.39 3.59 15.92a23.5 23.5 0 0 0 10 9.84A31.4 31.4 0 0 0 98 64.11a33.45 33.45 0 0 0 15-3.32 24.67 24.67 0 0 0 10.58-9.89q3.87-6.57 3.86-15.87V.53h-20.38zM40.95 23.06H20.56V.53H.14v61.18h20.42V39.33h20.39v22.38h20.43V.53H40.95v22.53zm159.53 38.65l-23.09-30.32L199.6.53h-24.44l-19.01 28.73V.53h-20.43v61.18h20.43V33.39l20.04 28.32h24.29zM13.74 79.14c0 4.18-2.94 7.37-7.63 7.37H0V71.84h6.11c4.69 0 7.63 3.07 7.63 7.3zm-8 3.27a3.28 3.28 0 1 0 0-6.55H4.6v6.55zM15 71.84h4.6v14.67H15zm20.08 5.02h-4.85a2.18 2.18 0 0 0-2-.91c-1.78 0-2.77 1.26-2.77 3.21 0 2.28 1 3.42 3.29 3.42a3 3 0 0 0 2.57-1.29h-3.64V78h7.49v4.6a7.65 7.65 0 0 1-6.88 4c-4.63 0-7.46-3.09-7.46-7.46s2.81-7.46 7.41-7.46c3.9.02 6.41 2.05 6.84 5.18zm2.57-5.02h4.6v14.67h-4.6zm6.26 0h12.35v3.65h-3.89v11h-4.61v-11h-3.85zM65.67 84.3h-4.89l-.73 2.21h-4.82l5.36-14.67h5.31l5.34 14.67h-4.85zm-2.45-7.55l-1.32 4.09h2.65zm14.49-4.91V83h4.43v3.48h-9V71.84zm8.99 14.84a2.3 2.3 0 1 1 2.63-2.26 2.37 2.37 0 0 1-2.63 2.26zm18.05-11.17h-5.18v1.8h4.56v3.46h-4.56v2.08h5.18v3.66H95V71.84h9.78zm2.57-3.67h4.6v14.67h-4.6zm21.57 0v14.67h-4.6l-4.87-7.37v7.37h-4.6V71.84h4.6l4.87 7.5v-7.5zm2.9 0h10.36v3.65h-5.76v2h4.15V81h-4.15v5.53h-4.6zm19.67 12.46h-4.89l-.73 2.21H141l5.36-14.67h5.31L157 86.51h-4.85zM149 76.75l-1.32 4.09h2.65zm14.66-5.05a6.77 6.77 0 0 1 7.11 5.78h-4.85a2.49 2.49 0 0 0-2.34-1.48c-1.55 0-2.51 1.26-2.51 3.21s1 3.21 2.51 3.21a2.49 2.49 0 0 0 2.34-1.53h4.85a6.77 6.77 0 0 1-7.11 5.78c-4.49 0-7.25-3.09-7.25-7.46s2.76-7.51 7.25-7.51zm17.74 9.1H177v5.71h-4.6V71.84h4.6v5.29h4.37v-5.29H186v14.67h-4.6zm9.78 5.88a2.3 2.3 0 1 1 2.64-2.26 2.37 2.37 0 0 1-2.64 2.26zm20.46-9.82h-4.85a2.19 2.19 0 0 0-2-.91C203 76 202 77.21 202 79.16c0 2.28 1 3.42 3.3 3.42a3 3 0 0 0 2.57-1.29h-3.67V78h7.48v4.6a7.65 7.65 0 0 1-6.88 4c-4.62 0-7.46-3.09-7.46-7.46s2.82-7.46 7.42-7.46c3.93.02 6.44 2.05 6.88 5.18zm2.07-5.02h4.58v8.27c0 1.27.5 2.2 1.88 2.2s2-.93 2-2.2v-8.27h4.58v8.27c0 4.33-3 6.55-6.63 6.55s-6.36-2.22-6.36-6.55zm2.38-3a1.79 1.79 0 1 1 1.76 1.76 1.74 1.74 0 0 1-1.76-1.74zm4.66 0a1.79 1.79 0 1 1 1.77 1.76 1.74 1.74 0 0 1-1.77-1.74zm22.43 3v14.67h-4.6l-4.87-7.37v7.37h-4.6V71.84h4.6l4.87 7.5v-7.5zm8.22 14.82c-3.35 0-6-1.55-6.19-4.85h4.89c.08 1.08.66 1.26 1.12 1.26s.89-.2.89-.72c0-2-6.94-1.27-6.86-6.28 0-2.94 2.49-4.48 5.61-4.48 3.55 0 5.83 1.7 5.95 4.75h-4.95c0-.89-.52-1.16-1-1.16a.66.66 0 0 0-.66.75c0 1.84 6.82 1.53 6.82 6-.02 2.74-2.02 4.73-5.62 4.73zm6.39-14.82h12.35v3.65h-3.9v11h-4.6v-11h-3.85zm14.42 0h4.6v14.67h-4.6zm20.1 5.02h-4.85a2.19 2.19 0 0 0-2-.91c-1.78 0-2.78 1.26-2.78 3.21 0 2.28 1 3.42 3.3 3.42a3 3 0 0 0 2.57-1.29h-3.67V78h7.48v4.6a7.64 7.64 0 0 1-6.88 4c-4.62 0-7.46-3.09-7.46-7.46s2.82-7.46 7.42-7.46c3.93.02 6.43 2.05 6.87 5.18zm11.93-1.35h-5.18v1.8h4.56v3.46h-4.56v2.08h5.18v3.66h-9.78V71.84h9.78zm9.41-3.67c3.69 0 5.58 2.12 5.58 4.81a4.32 4.32 0 0 1-3.17 4.25l3.19 5.61h-5.06l-2.75-5.26v5.26h-4.61V71.84zm-.41 3.86h-1.82v2.48h1.82c.87 0 1.32-.37 1.32-1.24a1.17 1.17 0 0 0-1.32-1.24zm10.57 10.98a2.3 2.3 0 1 1 2.63-2.26 2.37 2.37 0 0 1-2.63 2.26z" fill="#35444C"/></svg>