<svg xmlns="http://www.w3.org/2000/svg" xmlns:xlink="http://www.w3.org/1999/xlink" width="32" height="32" viewBox="0 0 32 32"><defs><path id="a" d="M20.691 9.63l-.931.995-6.49 6.934-1.947-1.96-.96-.967-1.919 1.932.96.967 2.935 2.956.987.994.96-1.022 7.449-7.959.932-.995z"/></defs><g fill="#12E64E" fill-rule="evenodd"><path fill-rule="nonzero" d="M15.556 31.111C6.964 31.111 0 24.147 0 15.556 0 6.964 6.964 0 15.556 0c8.59 0 15.555 6.964 15.555 15.556 0 8.59-6.964 15.555-15.555 15.555zm0-2.667c7.118 0 12.888-5.77 12.888-12.888 0-7.119-5.77-12.89-12.888-12.89-7.119 0-12.89 5.771-12.89 12.89 0 7.118 5.771 12.888 12.89 12.888z"/><use xlink:href="#a"/></g></svg>