<svg xmlns="http://www.w3.org/2000/svg" width="43" height="41" viewBox="0 0 43 41"><g fill="none" fill-rule="evenodd"><path fill="#FFF" d="M4 6L3 8l2 1 1-2zm5 4l-3 3-2 4v4l1 2h3l-5 3 1 2-1 8 2 3h4l3-7h5l11-5 4-2c.667 1.333 1.333 2 2 2s1.667-.333 3-1l3-3 2-4-1-4-4-1h-2l1-4 3-2 1-6-12 5-2 4-4-1-3-1h-2l-2 2-3 1-2-1v-1H9z"/><path fill="#CBCFD2" d="M13.624 31.842l1.939-2.981s.178-2.174-.508-2.641c-.685-.467-1.672-1.583-1.894-1.583-.222 0-1.37 3.206-1.149 3.572.221.365 1.612 3.633 1.612 3.633"/><path stroke="#525252" stroke-linecap="round" stroke-linejoin="round" stroke-width=".99" d="M29.459 24.84l7.07-2.159c.635-.186 1.34-.561 1.776-1.404.559-1.082.444-2.256-.256-2.623-.154-.08-.44-.134-.804-.03-.252.073-3.868 1.215-3.868 1.215"/><path stroke="#35444C" stroke-linecap="round" stroke-linejoin="round" stroke-width=".99" d="M13.668 17.34s-.772 2.404-.491 2.545c.28.141 8.21-.318 8.21-.318l2.457.53M10.304 8.581c-.178.278-.674 2.43.239 2.995.912.566 5.476.04 5.476.04s-2.21 1.52-2.842 2.58c-.08.132-.33.994-.36 1.152"/><path fill="#35444C" d="M9.312 22.011l-2.877-.106-.422-.459.526-1.343 5.44-1.908zM5.023 20.82l.21-1.66-.037-5.23-.868 3.555v2.085z"/><path stroke="#525252" stroke-linecap="round" stroke-linejoin="round" stroke-width=".99" d="M13.09 32.003l.543.32s6.456-.6 10.246-2.332c1.091-.557 5.947-2.23 6.81-3.427.863-1.198 2.398-5.967 2.952-7.756 1.08-3.492 2.78-8.537 2.78-8.537"/><path stroke="#35444C" stroke-linecap="round" stroke-linejoin="round" stroke-width=".99" d="M23.94 20.126l2.851 1.007 5.083-4.75 2.364-4.645 4.326-2.907 2.053-7.336S27.984 6.913 27.802 7.097c-.255.256-.804 2.144-1.85 3.119-1.048.975-3.42-.226-3.42-.226M11.47 16.249l3.308-.781 1.632-1.88 2.522.318-1.059 2.223s-1.951-.343-3.086-.66m3.871 5.973l-1.656 1.138 3.18 4.191"/><path fill="#35444C" d="M24.717 15.913c.018-.003 3.386-.101 3.81-.67l3.861-4.652a.94.94 0 0 0-.327-1.46 142.127 142.127 0 0 1-3.449-1.607.927.927 0 0 0-1.238.418L26.371 9.92a.932.932 0 0 1-.828.513l-1.289.39 1.336 1.715a.945.945 0 0 1 .118.96l.05 1.058c-.236.534-1.04 1.357-1.04 1.357"/><path fill="#CBCFD2" d="M14.76 31.778l-.646.452s6.457-.601 10.248-2.332c.07 0 2.526-1.414 2.526-1.414l3.987-2.038 2.977-8.97s-1.54 3.884-4.512 6.108c-4.578 3.425-14.58 8.194-14.58 8.194"/><path stroke="#525252" stroke-linecap="round" stroke-linejoin="round" stroke-width=".99" d="M20.37 26.705l-4.105 4.418-2.632 1.2s1.368-2.296 1.93-3.462"/><path stroke="#35444C" stroke-linecap="round" stroke-linejoin="round" stroke-width=".99" d="M8.334 23.348c-1.988.333-4.07 1.77-4.44 2.063-.708.56-1.09 1.168-.348 1.637 1.885 1.192 3.822.341 4.42.114.596-.228 1.99-.533 5.682 1.145-.256-.595-.674-1.194-1.088-1.702"/><path stroke="#525252" stroke-linecap="round" stroke-linejoin="round" stroke-width=".99" d="M7.562 11.722c.883-.593 2.738-3.14 2.738-3.14"/><path stroke="#35444C" stroke-linecap="round" stroke-linejoin="round" stroke-width=".99" d="M7.562 11.722c.883-.593 2.738-3.14 2.738-3.14"/><path stroke="#525252" stroke-linecap="round" stroke-linejoin="round" stroke-width=".99" d="M23.809 20.52l-3.44 6.185-4.104 4.417-2.632 1.202s1.487-2.247 1.93-3.463c.621-1.707-1.838-4.732-4.281-5.336-.78-.193-2.948-.177-2.948-.177l-3.553.043-.834-2.411c-.14-2.686.598-7.554 2.143-8.653"/><path stroke="#35444C" stroke-linecap="round" stroke-linejoin="round" stroke-width=".99" d="M23.809 20.52l-3.44 6.185-4.104 4.417-2.632 1.202s1.487-2.247 1.93-3.463c.621-1.707-1.838-4.732-4.281-5.336-.78-.193-2.948-.177-2.948-.177l-3.553.043-.834-2.411c-.14-2.686.598-7.554 2.143-8.653m9.247-2.091c.557-.61 1.3-1.208 2.146-1.347 1.852-.302 5.37.56 7.27 2.938 1.35 1.693.64 3.13-.502 4.134-.476.42-2.463 1.22-4.24 1.1"/><path stroke="#35444C" stroke-linecap="round" stroke-linejoin="round" stroke-width=".99" d="M6.96 13.647l-2.32-4.27-2.083-1.652 1.284-2.073 2.01 1.439-1.199 2.275m8.263 15.11l-3.392 9.48s-.464.404-1.13.087c-.5-.239-.467-.613-.467-.613l3.638-9.586"/><path stroke="#525252" stroke-linecap="round" stroke-linejoin="round" stroke-width=".99" d="M15.563 28.86c.621-1.706-1.838-4.73-4.281-5.335"/><path stroke="#35444C" stroke-linecap="round" stroke-linejoin="round" stroke-width=".99" d="M15.563 28.86c.621-1.706-1.838-4.73-4.281-5.335"/><path fill="#CBCFD2" d="M32.407 22.771l-.201.73s2.015-.188 3.197-.729c.022 0 .789-.44.789-.44l2.129-.818.018-2.53s-.683 1.152-1.61 1.845c-1.428 1.07-4.322 1.942-4.322 1.942"/><path stroke="#35444C" stroke-linecap="round" stroke-linejoin="round" stroke-width=".99" d="M13.633 32.324s6.456-.601 10.246-2.332c1.091-.558 5.947-2.231 6.81-3.429.863-1.197 2.398-5.966 2.952-7.755 1.08-3.492 3.192-8.813 3.192-8.813"/><path stroke="#35444C" stroke-linecap="round" stroke-linejoin="round" stroke-width=".99" d="M31.889 24.093l4.64-1.412c.635-.186 1.34-.561 1.776-1.404.559-1.082.444-2.256-.256-2.623-.154-.08-.44-.134-.804-.03a868.59 868.59 0 0 0-3.868 1.215"/><path fill="#35444C" d="M39.307 13.126c-.988-.517-2.104-.615-3.226-.372a296.114 296.114 0 0 1-1.764 4.258c1.57-1.82 3.628-2.629 5.146-1.833 1.946 1.02 2.264 4.284.71 7.29-1.554 3.007-4.391 4.618-6.337 3.598-.903-.473-1.45-1.43-1.628-2.619-.554 1.7-1.042 3.025-1.042 3.025.273.25.576.467.911.643 2.846 1.492 6.772-.43 8.768-4.294 1.997-3.863 1.308-8.204-1.538-9.696"/><path stroke="#35444C" stroke-linecap="round" stroke-linejoin="round" stroke-width=".99" d="M39.307 13.126c-.988-.517-2.104-.615-3.226-.372a296.114 296.114 0 0 1-1.764 4.258c1.57-1.82 3.628-2.629 5.146-1.833 1.946 1.02 2.264 4.284.71 7.29-1.554 3.007-4.391 4.618-6.337 3.598-.903-.473-1.45-1.43-1.628-2.619-.554 1.7-1.042 3.025-1.042 3.025.273.25.576.467.911.643 2.846 1.492 6.772-.43 8.768-4.294 1.997-3.863 1.308-8.204-1.538-9.696z"/><path fill="#35444C" d="M11.267 34.682C9.713 37.69 6.875 39.3 4.93 38.28c-1.946-1.02-2.264-4.284-.71-7.291 1.554-3.007 4.391-4.618 6.337-3.597 1.946 1.019 2.264 4.283.71 7.29m-3.302-7.52c-.597.227-2.534 1.078-4.419-.114l-.012-.01a10.212 10.212 0 0 0-1.901 2.595C-.363 33.496.325 37.837 3.171 39.33c2.846 1.492 6.772-.43 8.768-4.294 1.29-2.494 1.453-5.184.646-7.181-2.902-1.158-4.084-.896-4.62-.692"/><path stroke="#35444C" stroke-linecap="round" stroke-linejoin="round" stroke-width=".99" d="M11.267 34.682C9.713 37.69 6.875 39.3 4.93 38.28c-1.946-1.02-2.264-4.284-.71-7.291 1.554-3.007 4.391-4.618 6.337-3.597 1.946 1.019 2.264 4.283.71 7.29zm-3.302-7.52c-.597.227-2.534 1.078-4.419-.114l-.012-.01a10.212 10.212 0 0 0-1.901 2.595C-.363 33.496.325 37.837 3.171 39.33c2.846 1.492 6.772-.43 8.768-4.294 1.29-2.494 1.453-5.184.646-7.181-2.902-1.158-4.084-.896-4.62-.692z"/></g></svg>