<svg width="41" height="37" xmlns="http://www.w3.org/2000/svg" xmlns:xlink="http://www.w3.org/1999/xlink"><defs><path id="a" d="M0 .392h.875v.875H0z"/></defs><g fill="none" fill-rule="evenodd"><path fill="#FFF" d="M31.793 18.718L28.9 24.074l-5.419 2.458-4.75-2.828 2.434-5.89-2.247-1.393-.587-6.214-2.027-2.684 3.877-2.049 4.798 4.946z"/><path fill="#FFF" d="M18.506 16.107l-2.582 6.206 2.72 1.522 2.875-6.183"/><path stroke="#35444C" stroke-linecap="round" stroke-linejoin="round" d="M18.506 16.107l-2.582 6.206 2.72 1.522 2.875-6.183"/><path fill="#FFF" d="M19.595 3.45l-9.618 10.1 1.128.73 8.104-8.334"/><path stroke="#35444C" stroke-linecap="round" stroke-linejoin="round" d="M19.595 3.45l-9.618 10.1 1.128.73 8.104-8.334m6.057 19.655l-1.983 1.035-4.586-2.774"/><path d="M36.593 31.638c.101-.155.215-.302.306-.465l.46.28c-.096.17-.216.327-.323.492l-.443-.307zm-.694.892c.13-.132.235-.287.354-.43l.423.333c-.126.15-.237.314-.375.454l-.402-.357zm-.802.793l.41-.375.38.384-.436.398zm-.899.674c.155-.1.311-.198.454-.316l.324.43c-.153.126-.32.232-.486.339l-.292-.453zm-.984.533c.173-.062.33-.16.494-.242l.256.474c-.177.089-.346.192-.533.261l-.217-.492zm-1.053.36c.178-.038.35-.103.526-.153l.172.51c-.19.056-.378.126-.573.168l-.125-.524zm-1.095.144c.182-.007.362-.029.542-.042l.07.535c-.2.015-.4.038-.601.046l-.01-.539zm-1.09-.108c.176.035.356.056.532.086l-.053.537c-.2-.033-.4-.058-.598-.098l.12-.525zm-1.023-.377l.492.218-.188.505-.555-.246zm-.892-.629l.42.338-.312.44-.473-.382zm-.708-.836l.324.433-.413.348-.361-.484zm-.503-.984l.221.498-.48.246-.243-.548zM26.001 31.051l.128.582.52-.14-.118-.538zM26.424 29.84c.012.184.003.37.031.553l-.536.051c-.03-.196-.021-.393-.034-.59l.54-.013zm.055-1.122c-.03.183-.04.367-.046.552l-.538-.026c.007-.198.018-.395.049-.588l.535.062zm.199-1.11l-.115.543-.53-.098.122-.577zm.348-1.075c-.063.174-.141.344-.187.524l-.513-.164c.048-.19.13-.37.197-.555l.503.195zm.462-1.033l-.24.502-.49-.223.253-.53zm.589-.967c-.101.157-.218.302-.304.467l-.461-.278c.09-.174.214-.328.32-.493l.445.304zm.69-.894c-.127.135-.235.287-.352.43l-.426-.33c.125-.153.24-.312.373-.457l.405.357zm.799-.796c-.136.126-.276.247-.408.377l-.38-.382c.14-.138.289-.267.433-.4l.355.405zm.895-.679c-.157.096-.31.2-.452.318l-.325-.429c.153-.125.315-.236.483-.34l.294.45zm.981-.54c-.172.063-.328.166-.493.246l-.258-.472c.178-.088.344-.196.531-.266l.22.492zm1.051-.367c-.177.046-.35.105-.525.158l-.175-.51c.19-.057.379-.121.572-.171l.128.523zm1.168-.149c-.181-.003-.361.026-.542.037l-.065-.534c.2-.014.4-.044.6-.042l.007.539zm1.089.117c-.175-.044-.355-.059-.532-.091l.058-.536c.2.034.402.054.598.102l-.125.525zm1.019.385c-.158-.085-.328-.146-.49-.222l.192-.503c.185.084.375.155.553.25l-.255.476zm.886.637c-.132-.121-.279-.227-.416-.342l.315-.437c.157.129.32.25.47.386l-.37.393zm.701.841c-.101-.148-.215-.29-.32-.435l.414-.344c.12.162.246.32.358.486l-.452.293zm.5.986l-.22-.498.48-.243.243.549zm.295 1.074l-.12-.536.519-.143c.05.191.087.386.13.58l-.529.1zm.114 1.114c-.011-.184-.003-.37-.034-.551l.535-.055c.033.195.027.394.038.591l-.539.015zm-.049 1.124c.031-.184.034-.369.043-.553l.54.024c-.01.197-.016.395-.047.588l-.536-.06zm-.196 1.11l.115-.544.53.095-.121.578zm-.342 1.077c.066-.174.137-.346.184-.526l.514.162c-.05.19-.126.372-.195.556l-.503-.192zm-.458 1.035l.239-.504.492.221-.252.531z" fill="#35444C"/><path d="M35.835 23.539c-1.797-.936-4.418.541-5.853 3.3-1.436 2.758-1.143 5.752.655 6.688 1.798.935 4.419-.542 5.855-3.3 1.435-2.759 1.141-5.753-.657-6.688m1.278 7.012c-1.845 3.543-5.47 5.307-8.1 3.94-2.63-1.37-3.266-5.352-1.422-8.896 1.845-3.544 5.471-5.308 8.1-3.939 2.63 1.368 3.266 5.351 1.422 8.895" fill="#35444C"/><path d="M35.835 23.539c-1.797-.936-4.418.541-5.853 3.3-1.436 2.758-1.143 5.752.655 6.688 1.798.935 4.419-.542 5.855-3.3 1.435-2.759 1.141-5.753-.657-6.688zm1.278 7.012c-1.845 3.543-5.47 5.307-8.1 3.94-2.63-1.37-3.266-5.352-1.422-8.896 1.845-3.544 5.471-5.308 8.1-3.939 2.63 1.368 3.266 5.351 1.422 8.895z" stroke="#35444C" stroke-linecap="round" stroke-linejoin="round"/><path d="M12.973 23.697c.093-.128.167-.266.245-.403l.465.273c-.082.143-.16.288-.256.422l-.454-.292zm-.555.778c.098-.123.199-.242.283-.376l.44.312c-.09.14-.195.266-.297.396l-.426-.332zm-.621.725l.32-.346.408.352-.336.363zm-.685.663l.346-.316.374.388-.366.334zm-.746.591l.372-.284.332.423-.394.302zm-.809.496c.14-.07.275-.145.404-.235l.284.459a3.754 3.754 0 0 1-.43.25l-.258-.473zm-.857.403l.43-.178.229.488-.461.19zm-.896.288c.15-.031.297-.087.446-.129l.161.513c-.16.047-.317.105-.48.14l-.127-.524zm-.926.144c.153-.019.307-.014.458-.052l.086.533c-.164.04-.335.036-.502.056l-.042-.537zm-.932.003l.458.016-.003.539-.506-.019zm-.91-.183c.147.039.29.096.443.11l-.101.529c-.17-.016-.33-.079-.493-.122l.151-.517zm-.863-.335l.42.183-.203.5-.466-.205zm-.818-.554c.122.091.23.202.363.276l-.301.447c-.148-.084-.269-.205-.404-.306l.342-.417zm-.662-.65c.097.118.21.222.312.334l-.38.381c-.115-.123-.24-.24-.346-.37l.414-.345zm-.525-.771c.082.13.144.273.242.392l-.444.306c-.107-.132-.176-.286-.265-.429l.467-.269zm-.408-.843l.188.422-.488.23-.203-.46zm-.266-.905c.032.152.065.305.118.45l-.515.155a3.402 3.402 0 0 1-.128-.482l.525-.123zm-.156-.933l.057.463-.532.087-.06-.494z" fill="#35444C"/><g transform="translate(.75 21.27)"><mask id="b" fill="#fff"><use xlink:href="#a"/></mask><path fill="#35444C" mask="url(#b)" d="M.539.397l.015.468-.539.024L0 .392z"/></g><path d="M1.353 20.716a3.32 3.32 0 0 0-.041.467l-.539-.034c.005-.165.019-.33.044-.493l.536.06zm.155-.941c-.03.154-.07.307-.093.46l-.532-.087c.025-.163.066-.323.098-.485l.527.112zm.242-.923l-.133.451-.522-.138.141-.474zm.323-.9l-.168.44-.506-.184.177-.462zm.402-.868l-.2.426-.49-.228.212-.447zm.517-.88c-.093.127-.166.266-.245.402l-.465-.273c.083-.143.16-.288.257-.422l.453.293zm.555-.779c-.098.124-.199.243-.283.376l-.44-.312c.09-.139.195-.265.298-.395l.425.331zm.621-.725l-.32.346-.408-.35.336-.365zm.685-.663l-.346.317-.374-.388.367-.335zm.747-.591l-.373.285-.332-.424.394-.301zm.808-.496c-.139.07-.274.146-.403.235l-.284-.458a3.52 3.52 0 0 1 .43-.25l.257.473zm.857-.402l-.43.179-.228-.489.46-.191zm.896-.288c-.15.03-.296.087-.445.128l-.162-.513c.16-.046.318-.105.481-.14l.126.524zm.926-.144c-.152.018-.308.013-.457.051l-.086-.533c.163-.04.334-.035.5-.055l.043.537zm.933-.004l-.46-.015.004-.54.506.019zm.909.183c-.147-.037-.29-.096-.443-.11l.102-.529c.169.017.328.08.491.122l-.15.517zm.863.336l-.418-.184.201-.498.466.203zm.818.554c-.121-.091-.23-.202-.363-.277l.301-.447c.148.084.27.206.404.307l-.342.417zm.662.649c-.096-.118-.21-.222-.312-.334l.38-.38c.115.123.24.24.347.37l-.415.344zm.525.771c-.082-.129-.143-.273-.241-.391l.443-.306c.107.132.176.287.265.428l-.467.269zm.408.845l-.187-.424.487-.23.203.46zm.266.903a3.178 3.178 0 0 0-.118-.45l.516-.154c.057.156.093.32.127.483l-.525.121zm.156.933l-.058-.463.532-.087.063.495zm.049.949l-.014-.468.538-.024.015.496zm-.064.949a3.32 3.32 0 0 0 .041-.466l.539.033a3.72 3.72 0 0 1-.044.494l-.536-.06zm-.155.941c.03-.153.07-.306.093-.46l.532.087c-.025.164-.066.323-.098.486l-.527-.113zm-.242.924l.133-.452.522.138-.14.475zm-.323.899l.167-.44.507.185-.176.461zm-.402.869l.202-.426.488.228-.212.446z" fill="#35444C"/><path d="M11.904 14.859c-2.02-1.051-4.965.608-6.578 3.707-1.613 3.1-1.283 6.465.737 7.515 2.02 1.051 4.965-.609 6.578-3.707 1.613-3.1 1.283-6.464-.737-7.515m1.436 7.878c-2.073 3.982-6.148 5.963-9.102 4.426-2.955-1.537-3.67-6.012-1.597-9.993 2.072-3.983 6.147-5.964 9.101-4.427 2.955 1.538 3.67 6.012 1.598 9.994" fill="#35444C"/><path d="M11.904 14.859c-2.02-1.051-4.965.608-6.578 3.707-1.613 3.1-1.283 6.465.737 7.515 2.02 1.051 4.965-.609 6.578-3.707 1.613-3.1 1.283-6.464-.737-7.515zm1.436 7.878c-2.073 3.982-6.148 5.963-9.102 4.426-2.955-1.537-3.67-6.012-1.597-9.993 2.072-3.983 6.147-5.964 9.101-4.427 2.955 1.538 3.67 6.012 1.598 9.994z" stroke="#35444C" stroke-linecap="round" stroke-linejoin="round"/><path d="M23.864 17.874c.78.125 4.09 1.568 7.603 1.98 2.281.266 4.35-1.466 4.734-1.406.975.154 2.847 1.02 3.822.25-1.592-1.078-4.826-3.234-7.547-3.799s-4.043-1.813-5.056-3.397C26.333 9.8 24.048 8.38 23.182 8.441" fill="#FFF"/><path d="M23.864 17.874c.78.125 4.09 1.568 7.603 1.98 2.281.266 4.35-1.466 4.734-1.406.975.154 2.847 1.02 3.822.25-1.592-1.078-4.826-3.234-7.547-3.799s-4.043-1.813-5.056-3.397C26.333 9.8 24.048 8.38 23.182 8.441" stroke="#35444C" stroke-linecap="round" stroke-linejoin="round"/><path d="M18.512 16.49c.976-.153 1.95-.41 2.105-.461-.051-.822-.051-4.98-2.67-7.394-2.618-2.412-4.364-3.285-8.42-2.566-.615.513-1.488 1.13-1.231 1.232.256.103 5.903.975 7.957 3.85 2.054 2.876 2.208 4.672 2.26 5.34" fill="#FFF"/><path d="M18.512 16.49c.976-.153 1.95-.41 2.105-.461-.051-.822-.051-4.98-2.67-7.394-2.618-2.412-4.364-3.285-8.42-2.566-.615.513-1.488 1.13-1.231 1.232.256.103 5.903.975 7.957 3.85 2.054 2.876 2.208 4.672 2.26 5.34z" stroke="#35444C" stroke-linecap="round" stroke-linejoin="round"/><path d="M17.947 14.129l7.846-9.056s-.052-.405-.344-.651c-.293-.245-.793-.202-.793-.202l-8.351 9.447" fill="#FFF"/><path d="M17.947 14.129l7.846-9.056s-.052-.405-.344-.651c-.293-.245-.793-.202-.793-.202l-8.351 9.447" stroke="#35444C" stroke-linecap="round" stroke-linejoin="round"/><path d="M10.606 21.88l7.341-7.75-2.105-.566-6.878 7.085s.204.873 1.642 1.232" fill="#FFF"/><path d="M10.606 21.88l7.341-7.75-2.105-.566-6.878 7.085s.204.873 1.642 1.232z" stroke="#35444C" stroke-linecap="round" stroke-linejoin="round"/><path d="M27.753 15.207c-.77.566-2.978 3.44-6.315 2.568.655-1.724 2.516-4.879.206-7.856 1.796-1.847 2.923-1.092 3.793-.452.147.109 1.129.903 1.495 1.378" fill="#FFF"/><path d="M27.753 15.207c-.77.566-2.978 3.44-6.315 2.568.655-1.724 2.516-4.879.206-7.856 1.796-1.847 2.923-1.092 3.793-.452.147.109 1.129.903 1.495 1.378" stroke="#35444C" stroke-linecap="round" stroke-linejoin="round"/><path d="M33.462 15.169s-3.181-.126-4.332-1.256c-1.15-1.13-2.804-3.705-2.804-3.705.822.77.451 3.716 1.427 5 .976 1.283 3.655.372 5.709-.04" fill="#35444C"/><path d="M33.462 15.169s-3.181-.126-4.332-1.256c-1.15-1.13-2.804-3.705-2.804-3.705.822.77.451 3.716 1.427 5 .976 1.283 3.655.372 5.709-.04" stroke="#35444C" stroke-linecap="round" stroke-linejoin="round"/><path fill="#FFF" d="M19.517 3.436l5.104.888-2.492 2.66-3.761 1.057-.511-2.29z"/><path stroke="#35444C" stroke-linecap="round" stroke-linejoin="round" d="M19.517 3.436l5.104.888-2.492 2.66-3.761 1.057-.511-2.29z"/><path stroke="#35444C" stroke-linejoin="round" d="M33.743 4.87l-6.396-1.925-2.099 1.324-5.682-1.019.45-1.865L18.33.922"/><path fill="#FFF" d="M25.266 25.603l3.477-1.554 2.477-4.116"/><path stroke="#35444C" stroke-linecap="round" stroke-linejoin="round" d="M25.266 25.603l3.477-1.554 2.477-4.116"/><path d="M29.4 23.033s4.443 4.49 4.67 4.73c.357.378.788 1.114.231 1.707-.594.631-1.453.223-1.913-.18a2309.18 2309.18 0 0 1-5.071-4.583" fill="#FFF"/><path d="M29.4 23.033s4.443 4.49 4.67 4.73c.357.378.788 1.114.231 1.707-.594.631-1.453.223-1.913-.18a2309.18 2309.18 0 0 1-5.071-4.583" stroke="#35444C" stroke-linecap="round" stroke-linejoin="round"/><path d="M21.165 17.814l-2.444 5.427c-.187.325-.931-.002-1.565-.366-.633-.364-.996-.922-.808-1.247 0 0 1.392-.763 2.283-1.369 1.121-.762 2.534-2.445 2.534-2.445" fill="#CBCFD2"/><path stroke="#35444C" stroke-linecap="round" stroke-linejoin="round" d="M18.506 16.107l-2.582 6.206 2.72 1.522 2.875-6.183"/><path fill="#35444C" d="M3.104 32.535l-.92-.527v-2.324l.92.527zm4.187 3.609l-.919-.526v-3.515l.919.524zm4.179-2.296l-.92-.535v-3.927l.92.535z"/><path fill="#FFF" d="M27.805 24.659l-.77-.676 1.491-1.33 1.04 1.045"/><path stroke="#35444C" stroke-linecap="round" stroke-linejoin="round" d="M23.314 18.277l-2.164 4.811 2.58 1.44 3.676-1.931 2.001-3.06"/><path d="M29.503 23.063l5.16 5.672-1.076 1.166-6.088-4.967s-1.168-.393-.093-.466c1.353-.091 2.097-1.405 2.097-1.405" fill="#CBCFD2"/><path d="M29.4 23.033s4.443 4.49 4.67 4.73c.357.378.788 1.114.231 1.707-.594.631-1.453.223-1.913-.18a2309.18 2309.18 0 0 1-5.071-4.583m-.075.036l-3.959 1.892-4.587-2.774" stroke="#35444C" stroke-linecap="round" stroke-linejoin="round"/><path stroke="#35444C" stroke-linecap="round" stroke-linejoin="round" d="M21.15 23.088l2.58 1.44 3.676-1.931"/><path d="M27.384 25.283c0 .076-.07.137-.155.137-.086 0-.155-.061-.155-.137 0-.077.069-.139.155-.139.085 0 .155.062.155.139" fill="#35444C"/></g></svg>