<svg xmlns="http://www.w3.org/2000/svg" width="38" height="39" viewBox="0 0 38 39"><g fill="none" fill-rule="evenodd"><path fill="#FFF" d="M29.442 19.953c5.054 0 7.324 3.806 7.324 7.282v7.24l.02-.326c0 2.168-3.564 3.926-7.959 3.926s-7.959-1.758-7.959-3.926l.009.14v-7.348c0-5.586 3.285-7.338 6.522-7.338"/><path fill="#FFF" d="M28.827 38.706c-4.818 0-8.592-2.002-8.592-4.557h.008V26.94c0-4.99 2.676-7.97 7.156-7.97v1.263c-2.2 0-5.888.871-5.888 6.707l-.001 7.349c.174 1.52 3.13 3.153 7.317 3.153 4.117 0 7.043-1.579 7.305-3.077v-7.13c0-3.204-2.093-6.651-6.69-6.651v-1.263c5.467 0 7.958 4.102 7.958 7.913l.019 6.914c0 .095-.006.19-.016.284l-.01.078c-.338 2.38-3.978 4.195-8.566 4.195"/><path fill="#35444C" d="M28.827 38.706c-4.818 0-8.592-2.002-8.592-4.557h.008V26.94c0-4.99 2.676-7.97 7.156-7.97v1.263c-2.2 0-5.888.871-5.888 6.707l-.001 7.349c.174 1.52 3.13 3.153 7.317 3.153 4.117 0 7.043-1.579 7.305-3.077v-7.13c0-3.204-2.093-6.651-6.69-6.651v-1.263c5.467 0 7.958 4.102 7.958 7.913l.019 6.914c0 .095-.006.19-.016.284l-.01.078c-.338 2.38-3.978 4.195-8.566 4.195"/><path fill="#CBCFD2" d="M32.782 21.138c.426.38-3.618.45-2.183 1.116 3.374 1.564 2.43 7.61 2.074 9.037-.588 2.362-2.359 4.071-6.621 4.071-1.959 0-3.749-.35-5.134-.929.296 2.035 3.727 3.641 7.928 3.641 4.264 0 7.733-1.654 7.939-3.732v-7.107c0-2.508-1.446-4.8-4.003-6.097"/><path fill="#FFF" d="M35.343 15.937c0 3.635-2.955 6.582-6.6 6.582-3.646 0-6.6-2.947-6.6-6.582s2.954-6.582 6.6-6.582c3.645 0 6.6 2.947 6.6 6.582"/><path fill="#000" d="M28.743 9.987c-3.29 0-5.966 2.67-5.966 5.95 0 3.28 2.676 5.95 5.966 5.95s5.967-2.67 5.967-5.95c0-3.28-2.677-5.95-5.967-5.95m0 13.163c-3.988 0-7.233-3.236-7.233-7.213 0-3.978 3.245-7.213 7.233-7.213 3.989 0 7.234 3.235 7.234 7.213 0 3.977-3.245 7.213-7.234 7.213"/><path fill="#CBCFD2" d="M32.59 10.597c.444.884.7 1.878.7 2.934 0 3.635-2.956 6.582-6.601 6.582a6.58 6.58 0 0 1-3.848-1.241 6.597 6.597 0 0 0 5.902 3.647c3.645 0 6.6-2.947 6.6-6.582a6.562 6.562 0 0 0-2.753-5.34"/><path fill="#35444C" d="M28.827 38.706c-4.818 0-8.592-2.002-8.592-4.557h.008V26.94h1.268l-.001 7.349c.174 1.52 3.13 3.153 7.317 3.153 4.117 0 7.043-1.579 7.305-3.077v-7.13c0-2.027-.888-4.646-3.381-5.918l.577-1.125c3.001 1.531 4.072 4.642 4.072 7.042l.019 6.914c0 .095-.006.19-.016.285l-.01.077c-.338 2.38-3.978 4.195-8.566 4.195"/><path fill="#35444C" d="M28.743 9.987c-3.29 0-5.966 2.67-5.966 5.95 0 3.28 2.676 5.95 5.966 5.95s5.967-2.67 5.967-5.95c0-3.28-2.677-5.95-5.967-5.95m0 13.163c-3.988 0-7.233-3.236-7.233-7.213 0-3.978 3.245-7.213 7.233-7.213 3.989 0 7.234 3.235 7.234 7.213 0 3.977-3.245 7.213-7.234 7.213"/><path fill="#FFF" d="M9.207 11.23c5.054 0 7.323 3.805 7.323 7.282v7.24l.02-.326c0 2.167-3.563 3.925-7.958 3.925-4.396 0-7.959-1.758-7.959-3.925l.008.14v-7.348c0-5.587 3.286-7.34 6.522-7.34"/><path fill="#FFF" d="M8.592 29.983C3.774 29.983 0 27.98 0 25.425h.008v-7.207c0-4.991 2.675-7.97 7.155-7.97v1.262c-2.2 0-5.888.872-5.888 6.708v7.343c.168 1.522 3.125 3.158 7.317 3.158 4.113 0 7.038-1.576 7.305-3.072v-7.135c0-3.203-2.094-6.65-6.69-6.65v-1.264c5.467 0 7.957 4.102 7.957 7.914l.02 6.913c0 .1-.007.198-.017.294l-.01.07c-.338 2.38-3.979 4.194-8.565 4.194"/><path fill="#35444C" d="M8.592 29.983C3.774 29.983 0 27.98 0 25.425h.008v-7.207c0-4.991 2.675-7.97 7.155-7.97v1.262c-2.2 0-5.888.872-5.888 6.708v7.343c.168 1.522 3.125 3.158 7.317 3.158 4.113 0 7.038-1.576 7.305-3.072v-7.135c0-3.203-2.094-6.65-6.69-6.65v-1.264c5.467 0 7.957 4.102 7.957 7.914l.02 6.913c0 .1-.007.198-.017.294l-.01.07c-.338 2.38-3.979 4.194-8.565 4.194"/><path fill="#CBCFD2" d="M12.547 12.414c.427.38-3.618.451-2.183 1.116 3.374 1.565 2.429 7.61 2.074 9.038-.588 2.362-2.359 4.07-6.621 4.07-1.959 0-3.749-.35-5.134-.929.296 2.035 3.727 3.642 7.928 3.642 4.263 0 7.733-1.655 7.939-3.733v-7.106c0-2.509-1.446-4.8-4.003-6.098"/><path fill="#FFF" d="M15.108 7.213c0 3.635-2.955 6.582-6.6 6.582-3.646 0-6.6-2.947-6.6-6.582S4.862.631 8.508.631c3.645 0 6.6 2.947 6.6 6.582"/><path fill="#000" d="M8.508 1.263c-3.29 0-5.967 2.67-5.967 5.95 0 3.28 2.677 5.95 5.967 5.95 3.29 0 5.966-2.67 5.966-5.95 0-3.28-2.676-5.95-5.966-5.95m0 13.164c-3.989 0-7.234-3.236-7.234-7.214C1.274 3.236 4.52 0 8.508 0s7.234 3.236 7.234 7.213c0 3.978-3.246 7.214-7.234 7.214"/><path fill="#CBCFD2" d="M12.355 1.873c.444.884.7 1.879.7 2.935 0 3.635-2.956 6.581-6.6 6.581a6.58 6.58 0 0 1-3.849-1.241 6.596 6.596 0 0 0 5.901 3.647c3.646 0 6.601-2.947 6.601-6.582a6.562 6.562 0 0 0-2.753-5.34"/><path fill="#35444C" d="M8.592 29.983C3.774 29.983 0 27.98 0 25.425h.008v-7.207h1.267v7.343c.168 1.522 3.125 3.158 7.317 3.158 4.113 0 7.038-1.576 7.305-3.072v-7.135c0-2.027-.888-4.645-3.382-5.918l.577-1.124c3.002 1.531 4.072 4.642 4.072 7.042l.02 6.913c0 .1-.007.198-.017.294l-.01.07c-.338 2.38-3.979 4.194-8.565 4.194"/><path fill="#35444C" d="M8.508 1.263c-3.29 0-5.967 2.67-5.967 5.95 0 3.28 2.677 5.95 5.967 5.95 3.29 0 5.966-2.67 5.966-5.95 0-3.28-2.676-5.95-5.966-5.95m0 13.164c-3.989 0-7.234-3.236-7.234-7.214C1.274 3.236 4.52 0 8.508 0s7.234 3.236 7.234 7.213c0 3.978-3.246 7.214-7.234 7.214"/></g></svg>