<svg xmlns="http://www.w3.org/2000/svg" width="34" height="43" viewBox="0 0 34 43"><g fill="none" fill-rule="evenodd"><path fill="#FFF" d="M25.246 12.447c5.18 0 7.506 3.922 7.506 7.504v7.46l.021-.335c0 2.234-3.652 4.045-8.157 4.045s-8.157-1.811-8.157-4.045l.008.145v-7.573c0-5.757 3.367-7.563 6.684-7.563"/><path stroke="#FFF" stroke-width="1.044" d="M25.246 12.447c5.18 0 7.506 3.922 7.506 7.504v7.46l.021-.335c0 2.234-3.652 4.045-8.157 4.045s-8.157-1.811-8.157-4.045l.008.145v-7.573c0-5.757 3.367-7.563 6.684-7.563"/><path stroke="#35444C" stroke-width="1.2" d="M25.246 12.447c5.18 0 7.506 3.922 7.506 7.504v7.46l.021-.335c0 2.234-3.652 4.045-8.157 4.045s-8.157-1.811-8.157-4.045l.008.145v-7.573c0-5.757 3.367-7.563 6.684-7.563"/><path fill="#CBCFD2" d="M28.67 13.667c.438.392-3.709.465-2.238 1.151 3.458 1.612 2.49 7.842 2.126 9.312-.603 2.435-2.418 4.195-6.787 4.195-2.007 0-3.842-.36-5.263-.957.304 2.098 3.822 3.753 8.128 3.753 4.37 0 7.926-1.705 8.137-3.846V19.95c0-2.585-1.482-4.947-4.103-6.284"/><path fill="#FFF" d="M31.295 8.308c0 3.745-3.029 6.782-6.765 6.782-3.737 0-6.766-3.037-6.766-6.782 0-3.746 3.03-6.783 6.766-6.783s6.765 3.037 6.765 6.783"/><path stroke="#525252" stroke-width="1.044" d="M31.295 8.308c0 3.745-3.029 6.782-6.765 6.782-3.737 0-6.766-3.037-6.766-6.782 0-3.746 3.03-6.783 6.766-6.783s6.765 3.037 6.765 6.783z"/><path fill="#CBCFD2" d="M28.474 2.804c.453.911.715 1.936.715 3.025 0 3.745-3.029 6.782-6.764 6.782a6.715 6.715 0 0 1-3.944-1.279 6.757 6.757 0 0 0 6.049 3.758c3.736 0 6.765-3.036 6.765-6.782a6.773 6.773 0 0 0-2.821-5.504"/><path stroke="#35444C" stroke-width="1.2" d="M28.934 13.274c2.611 1.34 3.818 4.096 3.818 6.677v7.46l.021-.335c0 2.234-3.652 4.045-8.157 4.045s-8.158-1.811-8.158-4.045l.009.145v-7.573"/><path stroke="#35444C" stroke-width="1.2" d="M31.295 8.308c0 3.745-3.029 6.782-6.765 6.782-3.737 0-6.766-3.037-6.766-6.782 0-3.746 3.03-6.783 6.766-6.783s6.765 3.037 6.765 6.783z"/><path fill="#FFF" d="M7.905 20.316c3.761 0 5.45 2.848 5.45 5.45v5.416l.015-.244c0 1.623-2.652 2.938-5.923 2.938s-5.924-1.315-5.924-2.938l.007.106v-5.5c0-4.18 2.445-5.49 4.854-5.49"/><path stroke="#35444C" stroke-width="1.2" d="M7.905 20.316c3.761 0 5.45 2.848 5.45 5.45v5.416l.015-.244c0 1.623-2.652 2.938-5.923 2.938s-5.924-1.315-5.924-2.938l.007.106v-5.5c0-4.18 2.445-5.49 4.854-5.49"/><path fill="#CBCFD2" d="M10.39 21.202c.318.285-2.692.338-1.624.836 2.51 1.17 1.807 5.694 1.543 6.762-.437 1.768-1.755 3.046-4.928 3.046-1.457 0-2.79-.262-3.821-.695.22 1.523 2.775 2.725 5.902 2.725 3.172 0 5.755-1.238 5.908-2.793v-5.318c0-1.877-1.076-3.591-2.98-4.563"/><path fill="#FFF" d="M12.297 17.31a4.92 4.92 0 0 1-4.912 4.926 4.919 4.919 0 0 1-4.913-4.925 4.92 4.92 0 0 1 4.913-4.925 4.919 4.919 0 0 1 4.912 4.925"/><path stroke="#525252" stroke-width="1.044" d="M12.297 17.31a4.92 4.92 0 0 1-4.912 4.926 4.919 4.919 0 0 1-4.913-4.925 4.92 4.92 0 0 1 4.913-4.925 4.919 4.919 0 0 1 4.912 4.925z"/><path fill="#CBCFD2" d="M10.248 13.315a4.919 4.919 0 0 1-4.392 7.12 4.876 4.876 0 0 1-2.864-.928 4.907 4.907 0 0 0 4.392 2.729 4.919 4.919 0 0 0 4.913-4.925c0-1.648-.81-3.102-2.049-3.996"/><path stroke="#35444C" stroke-width="1.2" d="M10.582 20.917c1.897.973 2.774 2.975 2.774 4.848v5.417l.014-.244c0 1.623-2.652 2.938-5.923 2.938s-5.923-1.315-5.923-2.938l.006.106v-5.499"/><path stroke="#35444C" stroke-width="1.2" d="M12.297 17.31a4.92 4.92 0 0 1-4.912 4.926 4.919 4.919 0 0 1-4.913-4.925 4.92 4.92 0 0 1 4.913-4.925 4.919 4.919 0 0 1 4.912 4.925z"/><path fill="#FFF" d="M24.9 28.479c3.76 0 5.45 2.847 5.45 5.449v5.416l.015-.243c0 1.622-2.653 2.938-5.924 2.938-3.271 0-5.923-1.316-5.923-2.938l.006.105v-5.498c0-4.18 2.446-5.492 4.854-5.492"/><path stroke="#35444C" stroke-width="1.2" d="M24.9 28.479c3.76 0 5.45 2.847 5.45 5.449v5.416l.015-.243c0 1.622-2.653 2.938-5.924 2.938-3.271 0-5.923-1.316-5.923-2.938l.006.105v-5.498c0-4.18 2.446-5.492 4.854-5.492"/><path fill="#CBCFD2" d="M27.385 29.365c.318.284-2.693.338-1.625.835 2.511 1.17 1.808 5.695 1.543 6.763-.437 1.767-1.754 3.045-4.928 3.045-1.456 0-2.789-.262-3.82-.694.22 1.523 2.774 2.725 5.901 2.725 3.173 0 5.755-1.239 5.908-2.794v-5.317c0-1.878-1.076-3.592-2.98-4.563"/><path fill="#FFF" d="M29.291 25.473c0 2.72-2.2 4.925-4.912 4.925a4.919 4.919 0 0 1-4.912-4.925 4.918 4.918 0 0 1 4.912-4.925 4.919 4.919 0 0 1 4.912 4.925"/><path stroke="#525252" stroke-width="1.044" d="M29.291 25.473c0 2.72-2.2 4.925-4.912 4.925a4.919 4.919 0 0 1-4.912-4.925 4.918 4.918 0 0 1 4.912-4.925 4.919 4.919 0 0 1 4.912 4.925z"/><path fill="#CBCFD2" d="M27.242 21.477a4.92 4.92 0 0 1-4.392 7.121 4.876 4.876 0 0 1-2.864-.929 4.907 4.907 0 0 0 4.393 2.729 4.918 4.918 0 0 0 4.912-4.925c0-1.648-.81-3.102-2.049-3.996"/><path stroke="#35444C" stroke-width="1.2" d="M27.576 29.079c1.897.973 2.774 2.975 2.774 4.848v5.418l.014-.244c0 1.622-2.652 2.938-5.923 2.938-3.272 0-5.923-1.316-5.923-2.938l.006.105v-5.498"/><path stroke="#35444C" stroke-width="1.2" d="M29.291 25.473c0 2.72-2.2 4.925-4.912 4.925a4.919 4.919 0 0 1-4.912-4.925 4.918 4.918 0 0 1 4.912-4.925 4.919 4.919 0 0 1 4.912 4.925z"/></g></svg>