<svg width="115" height="142" xmlns="http://www.w3.org/2000/svg" xmlns:xlink="http://www.w3.org/1999/xlink"><defs><path id="a" d="M.392.041h24.983v37.873H.392z"/></defs><g fill="none" fill-rule="evenodd"><path fill="#FFF" d="M1.227 117.717l.007 8.586 26.03 15.033 7.422-4.334v-8.455L8.68 113.425z"/><path stroke="#35444C" d="M34.687 128.547v8.455l-7.421 4.332-26.033-15.033-.007-8.584 7.451-4.292"/><path fill="#FFF" d="M42.122 115.671v8.455l-7.422 4.332-26.032-15.033-.007-8.584 7.45-4.293"/><path stroke="#35444C" d="M42.122 115.671v8.455l-7.422 4.332-26.032-15.033-.007-8.584 7.45-4.293"/><path fill="#FFF" d="M49.556 102.794v8.455l-7.42 4.331-26.034-15.033-.007-8.583 7.451-4.29"/><path stroke="#35444C" d="M49.556 102.794v8.455l-7.42 4.331-26.034-15.033-.007-8.583 7.451-4.29"/><path fill="#FFF" d="M56.99 89.917v8.455l-7.42 4.332-26.033-15.033-.007-8.583 7.451-4.293"/><path stroke="#35444C" d="M56.99 89.917v8.455l-7.42 4.332-26.033-15.033-.007-8.583 7.451-4.293"/><path fill="#FFF" d="M64.419 77.041v8.455l-7.422 4.332-26.032-15.033-.005-8.583 7.451-4.293"/><path stroke="#35444C" d="M64.419 77.041v8.455l-7.422 4.332-26.032-15.033-.005-8.583 7.451-4.293"/><path fill="#FFF" d="M38.41 61.965l-.013-8.63 48.326-27.9 26.044 15.21v8.398l-48.349 27.9z"/><path stroke="#35444C" d="M38.41 61.965l-.013-8.63 48.326-27.9 26.044 15.21v8.398l-48.349 27.9L38.41 61.965"/><path fill="#CBCFD2" d="M27.485 132.692l-.218 8.643 7.42-4.334v-8.455zm7.345-4.445l7.42-4.332v-8.455l-7.2 4.143zm7.538-12.749l7.422-4.332v-8.454l-7.201 4.145z"/><path fill="#CBCFD2" d="M49.619 102.855l7.421-4.332V90.07l-7.2 4.145zm7.565-12.931l7.42-4.332v-8.454l-7.2 4.146zm55.582-49.279v8.397l-48.347 27.9V68.64"/><path stroke="#35444C" d="M112.766 40.645L64.38 68.363l-26.044-15.21M64.355 77.11l.025-8.746m.039 8.578l-7.433 4.295L30.96 66.233m26.03 23.586l-7.434 4.295L23.53 79.111M49.556 94.11l.012 8.595m-.012-.01l-7.435 4.295-26.026-15.003m26.027 14.999l.011 8.595m-.011-.01l-7.435 4.295L8.66 104.863m26.027 15l.011 8.595M34.687 128.448l-7.435 4.296L1.226 117.74m26.026 15l.012 8.594"/><path d="M61.29 39.403c4.847 0 7.022 3.648 7.022 6.98v6.94l.018-.313c0 2.079-3.415 3.762-7.627 3.762-4.215 0-7.63-1.683-7.63-3.762l.006.135v-7.042c0-5.356 3.152-7.035 6.252-7.035" fill="#FFF"/><path d="M64.493 40.538c.408.365-3.469.432-2.093 1.07 3.234 1.5 2.33 7.295 1.99 8.664-.566 2.263-2.263 3.903-6.35 3.903-1.876 0-3.592-.336-4.92-.892.283 1.95 3.572 3.49 7.601 3.49 4.086 0 7.412-1.585 7.607-3.577v-6.812c0-2.405-1.385-4.601-3.835-5.846" fill="#CBCFD2"/><path d="M61.29 39.403c4.847 0 7.022 3.648 7.022 6.98v6.94l.018-.313c0 2.079-3.415 3.762-7.627 3.762-4.215 0-7.63-1.683-7.63-3.762l.006.135v-7.042c0-5.356 3.152-7.035 6.252-7.035" stroke="#35444C"/><path d="M66.948 35.553c0 3.484-2.833 6.31-6.326 6.31-3.496 0-6.328-2.826-6.328-6.31 0-3.484 2.832-6.31 6.328-6.31 3.493 0 6.326 2.826 6.326 6.31" fill="#FFF"/><path d="M64.31 30.434c.425.848.67 1.801.67 2.814 0 3.484-2.834 6.31-6.327 6.31a6.318 6.318 0 0 1-3.69-1.19 6.324 6.324 0 0 0 5.658 3.496c3.496 0 6.326-2.826 6.326-6.31a6.29 6.29 0 0 0-2.637-5.12" fill="#CBCFD2"/><path d="M66.948 35.553c0 3.484-2.833 6.31-6.326 6.31-3.496 0-6.328-2.826-6.328-6.31 0-3.484 2.832-6.31 6.328-6.31 3.493 0 6.326 2.826 6.326 6.31m45.818 5.092v8.397l-48.347 27.9m0 .099v8.455l-7.422 4.332m-.012-8.594l.012 8.595m-22.31 38.718v8.455l-7.421 4.332m14.856-25.663v8.455l-7.422 4.332m14.856-25.664v8.455l-7.42 4.331M56.99 89.917v8.455l-7.42 4.332" stroke="#35444C"/><path fill="#FFF" d="M91.197 36.6l.104-34.29 20.382 12.093-20.224 3.09"/><g transform="translate(89.656 .256)"><mask id="b" fill="#fff"><use xlink:href="#a"/></mask><path d="M2.788 4.067L2.75 15.93l15.929-2.434L2.788 4.067zm-.099 33.847L.392 36.34.502.04l24.873 14.758-22.63 3.457-.056 19.659z" fill="#35444C" mask="url(#b)"/></g></g></svg>