<svg xmlns="http://www.w3.org/2000/svg" width="36" height="56" viewBox="0 0 36 56"><g fill="none" fill-rule="evenodd"><path fill="#FFF" d="M10.26 36.457c5.166 0 7.484 3.89 7.484 7.441v7.398l.02-.333c0 2.215-3.64 4.012-8.131 4.012-4.492 0-8.133-1.797-8.133-4.012l.009.143v-7.508c0-5.709 3.356-7.499 6.664-7.499"/><path fill="#CBCFD2" d="M13.674 37.668c.436.389-3.698.46-2.23 1.14 3.447 1.599 2.481 7.777 2.12 9.235-.602 2.414-2.412 4.16-6.767 4.16-2 0-3.83-.358-5.247-.95.303 2.08 3.81 3.722 8.102 3.722 4.356 0 7.902-1.691 8.112-3.814v-7.263c0-2.562-1.477-4.904-4.09-6.23"/><path stroke="#35444C" d="M10.26 36.457c5.166 0 7.484 3.89 7.484 7.441v7.398l.02-.333c0 2.215-3.64 4.012-8.131 4.012-4.492 0-8.133-1.797-8.133-4.012l.009.143v-7.508c0-5.709 3.356-7.499 6.664-7.499"/><path fill="#FFF" d="M16.291 32.353c0 3.714-3.02 6.726-6.745 6.726s-6.744-3.012-6.744-6.726c0-3.715 3.02-6.726 6.744-6.726 3.725 0 6.745 3.011 6.745 6.726"/><path fill="#CBCFD2" d="M13.478 26.896a6.67 6.67 0 0 1 .714 3c0 3.713-3.02 6.725-6.744 6.725a6.725 6.725 0 0 1-3.932-1.269 6.74 6.74 0 0 0 6.03 3.727c3.725 0 6.745-3.012 6.745-6.726a6.706 6.706 0 0 0-2.813-5.457"/><path stroke="#35444C" d="M16.291 32.353c0 3.714-3.02 6.726-6.745 6.726s-6.744-3.012-6.744-6.726c0-3.715 3.02-6.726 6.744-6.726 3.725 0 6.745 3.011 6.745 6.726"/><path fill="#FFF" d="M13.423 1.995l2.48-1.42-.127.063c.357-.198.836-.21 1.445.142 1.556.9 15.062 8.648 16.05 9.317.987.67 2.19 1.826 2.19 4.073v13.008s.143 1.424-.53 1.94l-.05.035-2.48 1.42"/><path stroke="#35444C" d="M13.423 1.995l2.48-1.42-.127.063c.357-.198.836-.21 1.445.142 1.556.9 15.062 8.648 16.05 9.317.987.67 2.19 1.826 2.19 4.073v13.008s.143 1.424-.53 1.94l-.05.035-2.48 1.42"/><path fill="#FFF" d="M33.114 15.518v13.008s.312 3.09-2.132 1.816c-2.444-1.273-8.315-4.758-8.315-4.758l-5.323 2.799v-5.696s-2-1.165-2.673-1.562c-.674-.397-2.06-1.851-2.06-3.744V3.579c0-.871.708-2.351 2.264-1.451 1.557.9 15.062 8.648 16.05 9.317.987.669 2.19 1.826 2.19 4.073"/><path stroke="#35444C" d="M33.114 15.518v13.008s.312 3.09-2.132 1.816c-2.444-1.273-8.315-4.758-8.315-4.758l-5.323 2.799v-5.696s-2-1.165-2.673-1.562c-.674-.397-2.06-1.851-2.06-3.744V3.579c0-.871.708-2.351 2.264-1.451 1.557.9 15.062 8.648 16.05 9.317.987.669 2.19 1.826 2.19 4.073z"/><path fill="#35444C" d="M25.632 20.971l-9.538-5.509v-1.155l9.538 5.51zm3.178-3.661L16.095 9.984V8.822l12.717 7.323z"/><path fill="#CBCFD2" d="M35.375 28.61l-2.31 1.203s-.188-11.215 0-12.174c1.735-1.47 2.31-4.73 2.31-4.73V28.61z"/><path stroke="#35444C" d="M34.88 29.153l-2.48 1.42m.87-20.476c.988.668 2.19 1.826 2.19 4.073v13.008s.144 1.424-.53 1.94l-.05.035m-1.766-13.635v13.008s.312 3.09-2.132 1.816c-2.444-1.273-8.315-4.758-8.315-4.758"/></g></svg>