<svg xmlns="http://www.w3.org/2000/svg" width="58" height="55" viewBox="0 0 58 55"><g fill="none" fill-rule="evenodd"><path fill="#FFF" d="M5 8c.444 2.64.055 4.973-1.167 7S2 18.027 2 18c-1.278 1.472-1.306 2.756-.083 3.852 1.222 1.096 2.84.747 4.855-1.049v-.527L13.818 17l2.446 3.803-.337 2.693L17.917 28l1.892 8v13.99c.804.12 1.42.18 1.848.18.43 0 .99-.06 1.682-.18V31.459L26.801 38v15c.744.606 1.36.91 1.849.91.488 0 1.049-.304 1.681-.91V33l2.207-4 10.792-8.197 1.152 4.682-.243 9.12c.811.334 1.4.465 1.765.395s.828-.404 1.388-1l.293-13.724 3.042 7.206L50.534 38l3.446-.282v-13.81L53 22l.98-5.796 1.937-7.106 1-1.098-1-3.554L53.98 2h-1.765l-1.045.79L45 1l-5.114 1.79-9.97 6.308h-4L22.092 5.91l-4.174-3.122H11.75L9.842 4.446V2.79L8.917 2 7.844 3.827l1.073 2.084L5 8z"/><path fill="#CBCFD2" d="M19.996 38.094s.33 2.602 3.33 4.435l.097-11.07-1.927-.696-3.11-2.053-1.28-1.228 2.963 7.643-.073 2.969zm24.486-12.609s1.368 1.135 3.008 1.997l-.338-7.263-1.39-.708-1.7.708-.649 1.234 1.215 3.299-.146.733zM56.34 9.497s.403-6.297-4.94-6.708c-.929-.071 2.875 2.024 2.875 8.738 0 0-.58 4.947-.493 5.105.087.157 1.28 1.05 1.353 1.064.072.015 1.361 0 1.361 0l.47-.934-.625-7.265z"/><path fill="#CBCFD2" d="M32.538 28.722s7.968-3.937 11.7-15.029c0 0 3.365 1.319 3.154 7.119-.031.848-2.221-1.526-3.33-.593-1.11.933-2.21 3.617-4.54 5.101-2.584 1.647-4.672 3.202-6.984 3.402m-25.682-9.01s6.587-3.097 7.245-9.401c0 0 .608 3.134-.472 6.193 0 0-4.733 3.272-6.773 3.208m9.695 1.091s2.383 6.203 11.533 10.125c0 0-2.565.956-5.525.302-3.499-.771-7.393-4.08-6.008-10.427"/><path stroke="#35444C" stroke-width=".775" d="M19.892 46.364s1.101.673 3.53.178m3.463 3.268s1.1.673 3.53.178m13.824-18.465s1.1.672 3.53.178m2.765 2.905s1.1.673 3.53.178"/><path stroke="#35444C" stroke-linecap="round" stroke-linejoin="round" stroke-width=".997" d="M10.363 4.135C10.246 2.746 9.67 2.08 8.705 1.19a5.392 5.392 0 0 0-.778 2.637 1.479 1.479 0 0 1 .343 2.069L6.312 7.25c-.097.057-.19.12-.276.19l-.008.006a2.362 2.362 0 0 0-.816 2.338c.07 1.253.301 4.352-3.36 8.101-.29.23-.795.863-.797 1.422-.004 1.266.666 2.588 1.766 3.225.382.22 1.402.202 1.463.173.618-.243 2.031-.677 2.892-2.8 0 0 5.207-1.604 6.54-3.427a8.1 8.1 0 0 1 .234.218l.116.114.12.125c.166.174.324.355.475.542l.06.076a8.44 8.44 0 0 1 .343.47l.029.043a8.363 8.363 0 0 1 .726 1.334l.002.004a8.306 8.306 0 0 1 .488 1.518 7.55 7.55 0 0 0-.334 2.213c-.005 1.841.617 3.036.617 3.036l3.495 8.917-.256 14.844s.329.588 1.96.624c1.632.035 1.851-.55 1.851-.55l-.22-18.483 3.253 7.27v14.481s.305.635 1.977.635c1.671 0 2-.635 2-.635l-.209-20.371 2.205-3.851c5.886-2.083 8.206-4.348 10.765-7.727l1.054 3.665-.315 9.598s.687.573 1.867.573 1.62-.573 1.62-.573l-.247-13.776 3.208 6.416-.051 10.49s.521.486 1.692.486c1.172 0 1.739-.486 1.739-.486l-.165-13.772-.533-1.265v-4.869a44.37 44.37 0 0 0 .346-1.608c.207.882.995 1.54 1.938 1.54.546 0 1.04-.221 1.4-.577l-.118-2.946-.294-7.137-.072-1.737A3.65 3.65 0 0 0 52.857 2.1a3.62 3.62 0 0 0-2.13.69 8.843 8.843 0 0 0-5.272-1.735 8.844 8.844 0 0 0-5.427 1.853L29.447 8.964c-5.187 1.072-9.535-2.512-10.602-3.11a8.238 8.238 0 0 0-.225-.13h-.002a7.406 7.406 0 0 0-3.54-.896c-.495 0-.978.05-1.446.142-.302-.992-.955-2.333-1.817-2.87v3.48a117.43 117.43 0 0 0-3.322 2.36c-.147-2.345 2.267-4.016 3.084-4.42"/><path stroke="#35444C" stroke-width=".997" d="M12.773 3.108a11.19 11.19 0 0 1 2.867-.384c3.55 0 6.597 3.288 6.597 3.288s2.572 3.086 6.372 3.086M50.727 2.79s2.878 2.16 3.4 5.432c.52 3.27-.499 7.982-.499 7.982m-10.215 5.121s1.33-2.301 2.533-1.9c.915.305 1.446 1.387 1.446 1.387"/><path stroke="#35444C" stroke-linecap="round" stroke-linejoin="round" stroke-width=".997" d="M16.01 23.909s.392 5.477 7.413 7.614"/><path fill="#35444C" d="M9.926 12.382c-.012-.332.308-.698.715-.817.409-.12.75.054.761.386.012.332-.308.697-.717.817-.407.119-.747-.054-.76-.386m-5.677 6.863s-.275.55-1.4 1.622c0 0 .796.99 1.647 0s-.247-1.622-.247-1.622"/><path stroke="#35444C" stroke-linecap="round" stroke-linejoin="round" stroke-width=".997" d="M13.452 4.45s.395.894.45 1.7c0 0 0 1.645-2.068 1.064V4.446"/></g></svg>