<svg xmlns="http://www.w3.org/2000/svg" xmlns:xlink="http://www.w3.org/1999/xlink" width="32" height="32" viewBox="0 0 32 32"><defs><path id="a" d="M8.611 0l-.655.695-4.563 4.84-1.37-1.368-.674-.675L0 4.842l.675.674 2.063 2.063.694.695.675-.714 5.238-5.556L10 1.31z"/></defs><g fill="none" fill-rule="evenodd"><use fill="#FFF" transform="translate(11 12)" xlink:href="#a"/><g transform="translate(4 4)"><circle cx="12" cy="12" r="11.25" fill="#FBA308" stroke="#FBA308" stroke-width="1.5"/><path fill="#FFF" fill-rule="nonzero" d="M17.72 15.622c-.835-.697-2.511-2.033-2.64-2.096-.538-.296-1.29 1.122-1.512 1.485-.523.743-1.116.295-1.33.087v-.011c-.921-.898-2.13-2.5-2.781-3.4-.652-.902-.148-1.39-.01-1.5l.032-.024c.124-.088.244-.184.36-.286a3.76 3.76 0 0 0 1-1.576.784.784 0 0 0-.098-.72L9.127 5.312a.718.718 0 0 0-1.039-.158c-.642.503-1.57 1.382-1.893 2.463a5.647 5.647 0 0 0-.17.837 5.729 5.729 0 0 0 .17 2.022c.2.799.498 1.567.888 2.287a12.295 12.295 0 0 0 1.875 2.646s.806.934 1.445 1.54c.553.524 1.474 1.376 2.85 1.803.552.17 1.158.353 1.913.176a3.435 3.435 0 0 0 1.446-.791 5.465 5.465 0 0 0 1.29-1.535.78.78 0 0 0-.183-.98z"/></g></g></svg>