<svg xmlns="http://www.w3.org/2000/svg" width="64" height="64" viewBox="0 0 64 64"><path fill="#FFF" fill-rule="evenodd" d="M53.6 14c1.846 0 3.4 1.335 3.4 3.062v30.877C57 49.666 55.446 51 53.6 51H10.4C8.554 51 7 49.666 7 47.94V17.061C7 15.335 8.554 14 10.4 14zm0 2H10.4c-.804 0-1.4.512-1.4 1.062v30.877C9 48.488 9.597 49 10.4 49h43.2c.803 0 1.4-.512 1.4-1.06V17.061c0-.55-.596-1.062-1.4-1.062zM22 36c3.423 0 6.578 1.557 8.607 4.146l.199.262-1.612 1.184C27.552 39.358 24.897 38 22 38c-2.795 0-5.363 1.262-7.014 3.356l-.18.236-1.612-1.184C15.21 37.663 18.462 36 22 36zm26-.5v2H34v-2h14zM21.5 25a4.5 4.5 0 1 1 0 9 4.5 4.5 0 0 1 0-9zM51 31.5v2H34v-2h17zM21.5 27a2.5 2.5 0 1 0 0 5 2.5 2.5 0 0 0 0-5zm26.5.5v2H34v-2h14z"/></svg>