<svg xmlns="http://www.w3.org/2000/svg" width="22" height="25" viewBox="0 0 22 25"><path fill="#FBA308" fill-rule="evenodd" d="M11 14.737c3.485 0 6.32-2.864 6.32-6.384 0-3.52-2.835-6.382-6.32-6.382-3.485 0-6.32 2.862-6.32 6.382 0 3.52 2.835 6.384 6.32 6.384zM11 0c4.56 0 8.271 3.747 8.271 8.353 0 4.607-3.71 8.354-8.27 8.354-4.561 0-8.272-3.747-8.272-8.354C2.729 3.747 6.439 0 11.001 0zm9.843 25c-2.695-1.722-6.19-2.67-9.842-2.67-3.653 0-7.148.948-9.844 2.67L0 23.149c3.036-1.94 6.944-3.009 11-3.009 4.058 0 7.965 1.069 11 3.009L20.843 25z"/></svg>