<svg xmlns="http://www.w3.org/2000/svg" width="22" height="26" viewBox="0 0 22 26"><path fill="#FBA308" fill-rule="evenodd" d="M11.004 19.791c-1.114 0-2.018-.87-2.018-1.94 0-1.071.904-1.94 2.018-1.94 1.113 0 2.017.869 2.017 1.94 0 1.07-.904 1.94-2.017 1.94zm-9.187 4.463l.005-11.874 18.358.036.004 11.838H1.817zM5.87 6.706c0-2.735 2.307-4.96 5.145-4.96 2.837 0 5.144 2.225 5.144 4.96v3.956l-10.29-.02V6.706zm16.124 3.968l-4.018-.008v-3.96C17.977 3.008 14.853 0 11.016 0 7.177 0 4.054 3.008 4.054 6.706v3.932L.008 10.63 0 26h22l-.005-15.326z"/></svg>