<svg xmlns="http://www.w3.org/2000/svg" width="64" height="64" viewBox="0 0 64 64"><defs><linearGradient id="a" x1="0%" y1="65.534%" y2="34.466%"><stop offset="0%" stop-color="#FBA308"/><stop offset="100%" stop-color="#FBB50C"/></linearGradient></defs><g fill="none" fill-rule="evenodd"><path fill="url(#a)" d="M35.36 25.677l27.017 14.84a2.94 2.94 0 0 1 .031 5.136L39.371 58.68a11.76 11.76 0 0 1-11.701-.07L4.562 45.168a2.94 2.94 0 0 1 .095-5.136l26.97-14.38a3.92 3.92 0 0 1 3.732.024z"/><g fill-rule="nonzero"><path fill="#35444C" d="M21.907 17.243l5.015-2.014c-.255.437-.595 1.05-.935 1.663-1.445 2.628-3.655 6.569-4.165 8.32-.255.876-.51 2.014-.51 3.59 0 4.993 2.89 9.021 5.695 10.422l-5.015 2.102c-2.805-1.314-5.695-5.342-5.695-10.421 0-1.577.255-2.715.51-3.591.425-1.752 2.635-5.692 4.165-8.32.34-.7.68-1.226.935-1.751z"/><path fill="#FFF" d="M24.542 32.218c.17.613.51 1.226.765 1.664-1.7.7-3.315 1.314-5.015 2.014-.34-.437-.595-1.05-.765-1.664.17-.087.34-.087.425-.175.17-.087.34-.087.425-.175.17-.087.34-.175.51-.175.17-.088.34-.175.51-.175.17 0 .34-.175.51-.175.17-.088.34-.175.51-.175.17-.088.34-.088.425-.176.17-.087.34-.087.425-.175.085 0 .085-.087.17-.087s.085-.088.17-.088.085-.087.17-.087.085-.088.17-.088.085-.088.17-.088.085-.087.17-.087.085-.088.17-.088c0 .088.085.088.085 0z"/><path fill="#FFF" d="M24.542 32.218c-1.7.7-3.315 1.314-5.015 2.014-.17-.525-.255-1.226-.255-1.839.17-.087.425-.175.595-.262.17-.088.425-.176.595-.263.17-.088.425-.175.68-.263a5.75 5.75 0 0 1 .68-.263 5.76 5.76 0 0 1 .68-.262c.17-.088.425-.175.68-.263.17-.088.425-.175.595-.263.17-.087.425-.175.595-.262-.085.788 0 1.4.17 1.926zm1.445 2.452c-1.7.7-3.315 1.314-5.015 2.015-.255-.176-.425-.438-.595-.701.17-.088.425-.175.595-.263.17-.087.425-.175.595-.262.17-.088.425-.176.68-.263a5.75 5.75 0 0 1 .68-.263c.17-.088.425-.175.68-.263a5.76 5.76 0 0 1 .68-.262c.17-.088.425-.176.595-.263.17-.088.425-.175.595-.263.085.35.34.526.51.788z"/><path fill="#FFF" d="M25.987 34.67c-1.7.7-3.315 1.402-5.015 2.015.17-.088.34-.176.51-.176.17-.087.425-.175.595-.262.17-.088.425-.175.595-.263.17-.088.425-.175.595-.263.17-.087.425-.175.595-.262.17-.088.425-.176.595-.263.17-.088.425-.175.595-.263.17-.088.34-.175.51-.175h.51c-.17-.088-.17-.088-.085-.088z"/><path fill="#FFF" d="M25.987 34.67c.34.263.68.526.935.7l-5.015 2.015c-.34-.175-.68-.35-.935-.7.17-.088.425-.176.595-.263.17-.088.425-.175.595-.263a5.75 5.75 0 0 1 .68-.263 5.76 5.76 0 0 1 .68-.262c.17-.088.425-.175.68-.263a5.75 5.75 0 0 1 .68-.263c.17-.087.425-.175.595-.263.17 0 .34-.087.51-.175zm-1.36-6.13a4.51 4.51 0 0 0-.34 1.752c-1.7.7-3.315 1.313-5.015 2.014 0-.788.17-1.401.34-1.752.17-.087.425-.175.595-.262.17-.088.425-.176.595-.263a5.75 5.75 0 0 1 .68-.263c.17-.087.425-.175.68-.263a5.75 5.75 0 0 1 .68-.262c.17-.088.425-.176.68-.263.17-.088.425-.175.595-.263.085 0 .34-.087.51-.175z"/><path fill="#FFF" d="M24.712 28.54c-.085 0-.085 0 0 0-1.7.7-3.4 1.401-5.015 2.102.085-.088.255-.088.34-.175.085-.088.255-.088.425-.175.085-.088.255-.088.425-.176.17-.087.34-.087.425-.175.17-.087.34-.087.425-.175.085-.087.255-.087.425-.175.085-.088.255-.088.425-.175.085-.088.255-.088.34-.175.085 0 .17-.088.17-.088.085 0 .17-.088.255-.088.085 0 .17-.087.255-.087.085 0 .17-.088.255-.088.085 0 .17-.087.255-.087.085 0 .17-.088.255-.088.085 0 .17-.087.255-.087-.085 0 0-.088.085-.088zm2.295 6.83l.765.264c-1.7.7-3.315 1.313-5.015 2.014-.255 0-.51-.088-.765-.263 1.445-.613 3.485-1.401 5.015-2.014z"/><path fill="#FFF" d="M27.772 35.546h.255c-1.7.7-3.315 1.314-5.015 2.014h-.255c.17-.087.425-.175.595-.262.17-.088.425-.176.595-.263.17-.088.425-.175.68-.263.17-.087.425-.175.68-.263a5.75 5.75 0 0 1 .68-.262c.085 0 .255-.088.34-.088.17-.087.425-.175.595-.263.17-.087.425-.175.595-.262 0 0 .17 0 .255-.088z"/><path fill="#FFF" d="M27.942 35.634c-1.7.7-3.315 1.313-5.015 2.014.17-.088.425-.175.595-.263.17-.087.425-.175.595-.263a5.75 5.75 0 0 1 .68-.262c.17-.088.425-.175.68-.263.17-.088.425-.175.68-.263a5.75 5.75 0 0 1 .68-.262c.17-.088.425-.176.595-.263.17-.088.34-.175.51-.175zm-3.23-7.094h-.085c-.085 0-.17.088-.17.088-.17.087-.34.175-.595.262-.255.088-.595.263-.85.35-1.105.439-2.21.876-3.23 1.314.17-.35.425-.613.765-.7l5.015-2.015c-.425.088-.68.35-.85.701z"/><path fill="#35444C" d="M20.717 30.578l5.015-2.172c-.425.189-.85.756-.85 2.078 0 2.361 1.105 3.683 2.125 4.25l-5.015 2.172c-.935-.472-2.125-1.889-2.125-4.25 0-1.322.425-1.889.85-2.078z"/><path fill="#35444C" d="M28.197 34.835l-5.015 2.014c-.34.176-.85.088-1.275-.087l5.015-2.014c.51.175.935.262 1.275.087z"/><path fill="#35444C" d="M28.537 35.459l-5.015 2.014c.68-.263 1.105-1.051 1.105-2.54 0-2.89-1.7-4.466-2.635-4.904l5.015-2.014c1.02.437 2.635 2.014 2.635 4.904 0 1.489-.425 2.277-1.105 2.54z"/><path fill="#FFF" d="M27.942 35.634c.17 0 .425 0 .595-.088l-5.015 2.014c-.17.088-.34.088-.595.088 1.275-.526 2.465-.963 3.74-1.489.085 0 .085 0 .17-.087.085 0 .085-.088.17-.088s.085-.088.17-.088.085-.087.17-.087.085-.088.17-.088.085-.087.17-.087h.255z"/><path fill="#35444C" d="M30.237 39.6l-5.015 2.015c-.935.35-2.125.262-3.23-.263l5.015-2.014c1.105.525 2.295.613 3.23.262zm-9.86-9.746l5.015-2.015c.51-.175 1.105-.087 1.615.176l-5.015 2.014c-.51-.263-1.105-.35-1.615-.175z"/><path fill="#FFF" d="M25.222 18.907l5.015-2.015-3.74 7.182-5.015 2.014z"/><path fill="#35444C" d="M26.242 18.556l5.015-2.014-3.74 7.181-5.015 2.015zm-4.25 11.473c1.02.438 2.635 2.014 2.635 4.904 0 2.54-1.36 3.065-2.635 2.452-1.275-.613-2.635-2.452-2.72-4.992 0-2.89 1.7-2.89 2.72-2.364zm0 6.568c.935.438 2.125.263 2.125-1.927 0-2.802-1.87-3.765-2.125-3.853-.255-.088-2.125-.963-2.125 1.84 0 2.188 1.105 3.415 2.125 3.94z"/><path fill="#FFF" d="M32.702 34.408c0 2.977-1.02 4.641-2.38 5.167l-5.015 2.014c1.445-.526 2.38-2.19 2.38-5.167.17-.088.425-.175.595-.263.17-.087.425-.175.595-.263a5.76 5.76 0 0 1 .68-.262c.17-.088.425-.175.68-.263a5.75 5.75 0 0 1 .68-.263c.17-.087.425-.175.68-.263.17-.087.425-.175.595-.262.085 0 .255-.175.51-.175zm-5.695-10.159c3.315 1.576 5.61 5.78 5.695 10.071-1.7.7-3.315 1.314-5.015 2.014 0-4.379-2.295-8.495-5.695-10.07 1.53-.614 3.485-1.402 5.015-2.015z"/><path fill="#35444C" d="M30.577 40.363l-5.015 2.014c1.53-.613 2.635-2.384 2.635-5.624 0-4.642-2.295-9.089-5.695-11.015l5.015-2.015c3.4 1.927 5.695 6.306 5.78 10.947-.085 3.24-1.19 5.08-2.72 5.693z"/><path fill="#FFF" d="M21.992 26.263c3.315 1.576 5.61 5.78 5.695 10.071 0 4.992-2.805 6.218-5.695 4.905-2.805-1.314-5.695-5.343-5.695-10.422 0-1.576.255-2.715.51-3.59.425-1.752 2.635-5.693 4.165-8.32.34-.613.68-1.226.935-1.664l3.4 1.576L21.567 26l.425.263zm0 11.122c1.36.613 2.635.175 2.635-2.452 0-2.89-1.7-4.466-2.635-4.904-1.02-.438-2.635-.526-2.635 2.364-.085 2.54 1.275 4.292 2.635 4.992z"/><path fill="#FFF" d="M21.907 17.243l5.015-2.014 3.315 1.663-5.015 2.015z"/><path fill="#35444C" d="M21.567 16.367l5.015-2.014 4.675 2.19-5.015 2.013zm.935 9.371c3.4 1.926 5.695 6.305 5.78 10.947 0 5.43-3.23 6.83-6.205 5.43-3.145-1.49-6.29-5.868-6.29-11.473 0-1.664.255-2.89.51-3.853.51-1.84 2.635-5.693 4.165-8.495.283-.467.651-1.11 1.105-1.927l4.675 2.19-3.74 7.18zm-.51 15.588c2.805 1.314 5.695.088 5.695-4.904 0-4.379-2.295-8.495-5.695-10.071l-.51-.263 3.74-7.181-3.4-1.577c-.255.438-.595 1.051-.935 1.664-1.445 2.628-3.655 6.568-4.165 8.32-.255.876-.51 2.014-.51 3.59.085 4.992 2.975 9.02 5.78 10.422zM32.532 23.19l5.015-2.012c-2.04.787-3.06 4.025-3.06 9.362 0 7.788 2.295 13.213 6.46 15.225l-5.015 2.013c-4.165-2.013-6.46-7.35-6.46-15.225-.085-5.338 1.02-8.488 3.06-9.363z"/><path fill="#FFF" d="M37.802 32.203c0 5.162 1.02 8.225 3.06 9.187l-5.015 2.013c-2.04-.963-3.06-4.025-3.06-9.188.17-.087.425-.175.595-.262.17-.088.425-.175.595-.263a5.76 5.76 0 0 1 .68-.262c.17-.088.425-.175.68-.263a5.76 5.76 0 0 1 .68-.262c.17-.088.425-.175.68-.263.17-.087.425-.175.595-.262.085 0 .34-.088.51-.175z"/><path fill="#35444C" d="M41.967 40.778l-5.015 2.012c-.34.088-.68.088-1.02-.087l5.015-2.013c.34.175.68.175 1.02.088z"/><path fill="#FFF" d="M40.862 41.478c.51.262 1.02.262 1.36.175l-5.015 2.012c-.425.175-.85.088-1.36-.175 1.53-.612 3.485-1.487 5.015-2.012z"/><path fill="#35444C" d="M44.177 46.115l-5.015 2.013c-.935.35-2.04.262-3.315-.35l5.015-2.013c1.36.613 2.465.7 3.315.35z"/><path fill="#FFF" d="M39.502 25.728c-.935.35-1.7 2.012-1.7 6.475-1.7.7-3.315 1.312-5.015 2.012 0-4.462.765-6.037 1.7-6.475 1.53-.612 3.485-1.4 5.015-2.012z"/><path fill="#35444C" d="M34.69 28.278l5.128-2.125c-.956.37-1.477 2.494-1.477 6.282 0 4.897.869 7.761 2.52 8.593l-5.128 2.125c-1.652-.832-2.521-3.696-2.521-8.593 0-3.788.434-5.913 1.477-6.282z"/><path fill="#35444C" d="M34.487 27.74l5.015-2.012c.425-.175.85-.088 1.36.087l-5.015 2.013c-.425-.175-.935-.263-1.36-.088z"/><path fill="#FFF" d="M37.547 21.178c.935-.35 2.04-.263 3.315.35l-5.015 2.1c-1.275-.613-2.38-.7-3.315-.35 1.445-.613 3.485-1.488 5.015-2.1z"/><path fill="#35444C" d="M32.192 22.51l5.015-2.012c1.02-.437 2.21-.262 3.57.35l-5.015 2.013c-1.36-.613-2.55-.7-3.57-.35zm10.03 19.055l-5.015 2.013c1.105-.438 1.7-2.625 1.7-6.388 0-6.475-1.7-8.662-3.06-9.275l5.015-2.012c1.445.7 3.06 2.8 3.06 9.275 0 3.85-.51 5.95-1.7 6.387z"/><path fill="#35444C" d="M35.847 27.915c1.445.7 3.06 2.8 3.06 9.275 0 5.075-1.02 7.175-3.06 6.213-2.04-.963-3.06-4.025-3.06-9.188 0-6.387 1.615-7 3.06-6.3zm0 14.788c1.7.787 2.465-1.138 2.465-5.688 0-4.637-.85-7.437-2.55-8.225-1.615-.787-2.465 1.138-2.465 5.775.085 4.55.935 7.263 2.55 8.138z"/><path fill="#FFF" d="M47.322 36.753c0 5.337-1.105 8.575-3.06 9.362l-5.1 2.013c2.04-.788 3.06-4.025 3.06-9.363.17-.087.425-.175.595-.262.17-.088.425-.175.595-.263a5.76 5.76 0 0 1 .68-.262c.17-.088.425-.175.68-.263a5.76 5.76 0 0 1 .68-.262c.17-.088.425-.175.68-.263.17-.087.425-.175.595-.262.17 0 .34-.088.595-.175z"/><path fill="#FFF" d="M40.862 21.615c4.165 2.013 6.46 7.35 6.46 15.138-1.7.7-3.315 1.312-5.015 2.012 0-7.787-2.295-13.212-6.46-15.137 1.445-.613 3.485-1.4 5.015-2.013z"/><path fill="#35444C" d="M44.517 46.99l-5.015 2.013c2.21-.875 3.315-4.2 3.315-9.888 0-8.225-2.55-14.087-7.055-16.275l5.015-2.012c4.42 2.1 6.97 8.05 7.055 16.275 0 5.6-1.105 9.012-3.315 9.887z"/><path fill="#35444C" d="M35.847 22.84c4.42 2.1 6.97 8.05 7.055 16.275 0 8.313-2.465 11.638-6.97 9.538-4.42-2.1-7.055-8.05-7.055-16.275-.085-8.225 2.465-11.725 6.97-9.538zm0 24.938c4.08 2.012 6.375-1.225 6.375-9.013 0-7.787-2.295-13.212-6.46-15.137-4.165-2.013-6.375 1.225-6.375 9.012 0 7.7 2.295 13.125 6.46 15.138z"/><path fill="#FFF" d="M35.847 23.628c4.165 2.012 6.46 7.35 6.46 15.137 0 7.788-2.21 10.938-6.375 9.013-4.165-2.013-6.46-7.35-6.46-15.225-.085-7.788 2.21-10.938 6.375-8.925zm0 19.862c2.04.963 3.06-1.137 3.06-6.212 0-6.475-1.7-8.663-3.06-9.275-1.36-.7-3.06-.088-3.06 6.3 0 5.075 1.02 8.137 3.06 9.187z"/></g></g></svg>