<svg xmlns="http://www.w3.org/2000/svg" xmlns:xlink="http://www.w3.org/1999/xlink" width="43" height="46" viewBox="0 0 43 46"><defs><path id="a" d="M.018.02h9.047V23H.018z"/><path id="c" d="M0 .242h42.707V23.97H0z"/><path id="e" d="M0 .413h42.707v27.39H0z"/><path id="g" d="M0 45.92h42.707V0H0z"/></defs><g fill="none" fill-rule="evenodd"><path fill="#FFF" d="M14.296 40.612c0-.589.48-1.065 1.072-1.065.592 0 1.072.413 1.072 1.065v.541c0 1.411.852 2.138 1.823 2.138.604 0 1.955-.298 1.955-2.054V23.434h2.133v17.643c0 2.524-1.462 4.35-4.027 4.35-2.266 0-4.028-1.753-4.028-4.274v-.541z"/><g transform="translate(13.782 22.92)"><mask id="b" fill="#fff"><use xlink:href="#a"/></mask><path fill="#35444C" d="M1.586 17.12a.574.574 0 0 0-.576.57v.543c0 2.191 1.485 3.781 3.531 3.781 2.18 0 3.532-1.478 3.532-3.857V1.007h-1.14v17.31c0 2.01-1.541 2.546-2.452 2.546-1.117 0-2.32-.823-2.32-2.63v-.542c0-.422-.31-.572-.575-.572M4.541 23C1.963 23 .018 20.95.018 18.233v-.542c0-.859.704-1.557 1.568-1.557.894 0 1.568.67 1.568 1.557v.542c0 .999.52 1.645 1.327 1.645.343 0 1.459-.113 1.459-1.562V.513c0-.272.222-.493.496-.493H8.57c.274 0 .496.221.496.493v17.644C9.065 21.099 7.29 23 4.541 23" mask="url(#b)"/></g><path fill="#FFF" d="M5.252 8.32c2.344-1.524 8.87-5.78 10.463-5.85 1.593-.071 9.633-.071 11.227 0 1.593.07 8.119 4.326 10.463 5.85"/><path fill="#35444C" d="M5.523 8.732l-.542-.825.116-.075c4.397-2.858 9.095-5.788 10.596-5.855 1.632-.073 9.639-.073 11.271 0 1.502.067 6.204 3 10.605 5.86l.108.07-.544.825-.107-.07c-5.755-3.74-9.156-5.658-10.106-5.7-1.568-.07-9.615-.07-11.183 0-.95.042-4.347 1.958-10.097 5.694l-.117.076z"/><path fill="#FFF" d="M20.801 6.415S10.583 5.029 4.994 8.473C.783 11.068.496 12.122.496 12.122v10.046l11.625 6.706h18.465l11.625-6.706V12.122s-.287-1.054-4.498-3.649c-5.589-3.444-15.807-2.058-15.807-2.058"/><g transform="translate(0 5.397)"><mask id="d" fill="#fff"><use xlink:href="#c"/></mask><path fill="#35444C" d="M30.72 23.97H11.986L0 17.056l.017-10.46c.057-.206.55-1.37 4.716-3.938C10.408-.84 20.443.472 20.869.53l-.135.976c-.1-.013-10.108-1.32-15.478 1.99-3.374 2.077-4.123 3.1-4.263 3.338v9.653l11.262 6.497h18.198l11.261-6.497V6.824c-.109-.183-.816-1.205-4.263-3.329C32.076.183 22.072 1.493 21.973 1.506L21.84.53C22.265.473 32.3-.84 37.975 2.658c4.167 2.567 4.66 3.732 4.716 3.939l.017.128v10.33L30.719 23.97z" mask="url(#d)"/></g><path fill="#FFF" d="M42.21 22.168C40.766 18.244 30.6 9.11 21.663 6.674"/><path fill="#35444C" d="M41.745 22.338C40.405 18.702 30.423 9.573 21.531 7.15l.263-.951c8.917 2.43 19.323 11.567 20.882 15.8l-.93.339z"/><path fill="#FFF" d="M21.377 6.627c3.971 5.575 8.921 19.718 9.135 22.246"/><path fill="#35444C" d="M30.018 28.914c-.218-2.57-5.227-16.642-9.046-22.002l.81-.57c3.988 5.599 8.995 19.779 9.224 22.49l-.988.082z"/><path fill="#FFF" d="M21.496 6.202c.404-.544 3.548-2.779 5.592-3.677"/><path fill="#35444C" d="M21.895 6.495l-.798-.586c.496-.667 3.739-2.934 5.79-3.835l.402.902c-2.027.89-5.067 3.079-5.394 3.519"/><path fill="#FFF" d="M.496 22.168C1.942 18.244 12.107 9.11 21.045 6.674"/><path fill="#35444C" d="M.962 22.338l-.931-.339c1.56-4.233 11.965-13.37 20.882-15.8l.263.95C12.284 9.573 2.302 18.702.962 22.338"/><path fill="#FFF" d="M21.33 6.627c-3.971 5.575-8.921 19.718-9.135 22.246"/><path fill="#35444C" d="M12.69 28.914l-.99-.082c.23-2.711 5.237-16.891 9.225-22.49l.81.57c-3.819 5.36-8.828 19.431-9.046 22.002"/><path fill="#FFF" d="M21.16 6.202c-.403-.544-3.547-2.779-5.592-3.677"/><path fill="#35444C" d="M20.762 6.495c-.328-.44-3.368-2.63-5.394-3.52l.4-.9c2.052.9 5.295 3.166 5.792 3.834l-.798.586z"/><path fill="#CBCFD2" d="M.496 22.168l11.625 6.707h18.465l11.625-6.707V12.122s-.287-1.054-4.498-3.649a10.23 10.23 0 0 0-.584-.332 173.512 173.512 0 0 0-4.667-2.949c-1.016-.146-.892-.523-1.95-.6 6.042 2.05 8.417 4.954 8.417 9.25 0 6.489-9.24 11.75-20.637 11.75-7.968 0-14.357-.404-17.796-4.17v.746z"/><g transform="translate(0 1.563)"><mask id="f" fill="#fff"><use xlink:href="#e"/></mask><path fill="#35444C" d="M30.72 27.804H11.986L0 20.889.017 10.43c.057-.207.55-1.371 4.716-3.939l.523.838C1.882 9.408 1.133 10.43.993 10.669v9.653l11.262 6.496h18.198l11.261-6.496v-9.665c-.109-.183-.816-1.205-4.263-3.328-8.144-5.292-10.077-5.91-10.532-5.93l.045-.986c.44.02 1.781.08 11.02 6.084 4.157 2.562 4.65 3.726 4.706 3.933l.017.129v10.33l-11.988 6.915z" mask="url(#f)"/></g><path fill="#FFF" d="M24.414 6.55c0 .865-1.364 1.566-3.045 1.566-1.682 0-3.045-.701-3.045-1.566 0-.865 1.363-1.566 3.045-1.566 1.681 0 3.045.701 3.045 1.566"/><path fill="#35444C" d="M21.369 5.477c-1.556 0-2.549.636-2.549 1.073 0 .438.993 1.073 2.549 1.073s2.549-.635 2.549-1.073c0-.437-.993-1.073-2.55-1.073m0 3.132c-2.018 0-3.54-.885-3.54-2.059 0-1.173 1.522-2.058 3.54-2.058 2.02 0 3.543.885 3.543 2.058 0 1.174-1.524 2.059-3.542 2.059"/><mask id="h" fill="#fff"><use xlink:href="#g"/></mask><path fill="#FFF" d="M19.889 6.406h2.977V0h-2.977z" mask="url(#h)"/><path fill="#35444C" d="M20.88 6.406h.993V0h-.993zm20.865 15.932c-.745-2.02-3.91-5.452-7.876-8.538l.611-.776c4.164 3.24 7.381 6.763 8.196 8.975l-.93.339zm-11.727 6.576c-.112-1.313-1.653-6.233-3.769-11.465l.921-.367c1.981 4.898 3.702 10.169 3.836 11.75l-.988.082zm-17.328 0l-.99-.082c.125-1.46 1.654-6.233 3.483-10.866l.924.36c-1.982 5.02-3.317 9.406-3.418 10.588" mask="url(#h)"/></g></svg>