<svg xmlns="http://www.w3.org/2000/svg" viewBox="0 0 442 442"><path d="M434.735 40.381l-140.669-40c-.049-.014-.1-.018-.15-.032a9.893 9.893 0 0 0-1.024-.216c-.104-.016-.208-.034-.312-.048a10.086 10.086 0 0 0-1.236-.086h-.026c-.42.001-.83.035-1.236.086-.105.013-.208.031-.312.048a9.893 9.893 0 0 0-1.024.216c-.049.013-.101.018-.15.032L150.663 39.604 12.735.381A10.003 10.003 0 0 0 0 10v382c0 4.469 2.966 8.396 7.265 9.619l140.663 40c.049.014.1.018.149.031.337.09.68.162 1.029.217.101.016.202.033.304.046.411.052.828.087 1.253.087s.842-.035 1.253-.087c.102-.013.202-.03.304-.046a9.99 9.99 0 0 0 1.029-.217c.049-.013.1-.017.149-.031l137.933-39.222 137.934 39.222a9.991 9.991 0 0 0 8.762-1.64A10 10 0 0 0 442 432V50c0-4.469-2.966-8.396-7.265-9.619zM160.663 57.553L281.331 23.24v361.207L160.663 418.76V57.553zM20 23.24l120.663 34.313V418.76L20 384.447V23.24zm402 395.52l-120.669-34.313V23.24L422 57.553V418.76z"/><path d="M113.397 361.006l-60.662-17.25c-5.315-1.512-10.844 1.572-12.354 6.883-1.511 5.313 1.571 10.843 6.883 12.354l60.662 17.25c.915.26 1.835.384 2.74.384 4.356 0 8.363-2.869 9.614-7.267 1.512-5.312-1.571-10.843-6.883-12.354zM113.397 311.006l-60.662-17.25c-5.315-1.512-10.844 1.572-12.354 6.883-1.511 5.313 1.571 10.843 6.883 12.354l60.662 17.25c.915.26 1.835.384 2.74.384 4.356 0 8.363-2.869 9.614-7.267 1.512-5.312-1.571-10.843-6.883-12.354zM113.397 261.006l-60.662-17.25c-5.315-1.51-10.844 1.571-12.354 6.883-1.511 5.313 1.571 10.843 6.883 12.354l60.662 17.25c.915.26 1.835.384 2.74.384 4.356 0 8.363-2.869 9.614-7.267 1.512-5.312-1.571-10.843-6.883-12.354zM113.397 79.006l-60.662-17.25A10 10 0 0 0 40 71.375v132c0 4.469 2.966 8.396 7.265 9.619l60.662 17.25a9.991 9.991 0 0 0 8.762-1.64 10 10 0 0 0 3.973-7.979v-132c0-4.469-2.966-8.396-7.265-9.619zm-12.735 128.379L60 195.822V84.615l40.662 11.563v111.207zM190.657 98.628c.905 0 1.826-.124 2.74-.384l60.669-17.251c5.312-1.511 8.394-7.042 6.883-12.354-1.511-5.312-7.044-8.394-12.354-6.883l-60.669 17.251c-5.312 1.511-8.394 7.042-6.883 12.354 1.251 4.398 5.257 7.267 9.614 7.267zM248.596 343.756l-60.669 17.251c-5.312 1.511-8.394 7.042-6.883 12.354 1.25 4.398 5.257 7.267 9.614 7.267.905 0 1.826-.124 2.74-.384l60.669-17.251c5.312-1.511 8.394-7.042 6.883-12.354-1.511-5.312-7.044-8.394-12.354-6.883zM248.596 293.756l-60.669 17.251c-5.312 1.511-8.394 7.042-6.883 12.354 1.25 4.398 5.257 7.267 9.614 7.267.905 0 1.826-.124 2.74-.384l60.669-17.251c5.312-1.511 8.394-7.042 6.883-12.354-1.511-5.312-7.044-8.394-12.354-6.883zM248.596 243.756l-60.669 17.251c-5.312 1.511-8.394 7.042-6.883 12.354 1.25 4.398 5.257 7.267 9.614 7.267.905 0 1.826-.124 2.74-.384l60.669-17.251c5.312-1.511 8.394-7.042 6.883-12.354-1.511-5.311-7.044-8.393-12.354-6.883zM248.596 193.756l-60.669 17.251c-5.312 1.511-8.394 7.042-6.883 12.354 1.25 4.398 5.257 7.267 9.614 7.267.905 0 1.826-.124 2.74-.384l60.669-17.251c5.312-1.511 8.394-7.042 6.883-12.354-1.511-5.312-7.044-8.393-12.354-6.883zM328.596 80.993l60.669 17.252c.915.26 1.835.384 2.74.384 4.356 0 8.363-2.869 9.614-7.267 1.511-5.313-1.571-10.843-6.883-12.354l-60.669-17.252c-5.314-1.509-10.843 1.572-12.354 6.883-1.511 5.312 1.571 10.843 6.883 12.354zM328.596 130.993l60.669 17.252c.915.26 1.835.384 2.74.384 4.356 0 8.363-2.869 9.614-7.267 1.511-5.313-1.571-10.843-6.883-12.354l-60.669-17.252c-5.314-1.509-10.843 1.572-12.354 6.883-1.511 5.312 1.571 10.843 6.883 12.354zM328.596 180.993l60.669 17.252c.915.26 1.835.384 2.74.384 4.356 0 8.363-2.869 9.614-7.267 1.511-5.313-1.571-10.843-6.883-12.354l-60.669-17.252c-5.314-1.508-10.843 1.572-12.354 6.883-1.511 5.312 1.571 10.843 6.883 12.354zM328.596 362.993l60.669 17.252a9.991 9.991 0 0 0 8.762-1.64 10 10 0 0 0 3.973-7.979v-132c0-4.469-2.966-8.396-7.265-9.619l-60.669-17.252a10 10 0 0 0-12.735 9.618v132c0 4.47 2.966 8.397 7.265 9.62zm12.735-128.379L382 246.179v111.207l-40.669-11.564V234.614z"/></svg>