<svg xmlns="http://www.w3.org/2000/svg" width="55" height="54" viewBox="0 0 55 54"><g fill="none" fill-rule="evenodd"><path fill="#CBCFD2" d="M50.365 44.709l.056 3.263-4.118 2.448-.08 2.738 8.388-5.001-.315-5.814z"/><path fill="#FFF" d="M5 21v20l17 10 21-13c-.667-6.667-1.333-10-2-10s-9-2.333-25-7l-4-5-7 5z"/><path fill="#CBCFD2" d="M30.69 41l-4.043 2.224s-.408-4.488-.482-4.71l4.525-2.67v5.155zm12.572-5.601l-3.782.482-3.635 2.188-.482-4.97-1.187-1.78-2.967.26-5.934 3.671-1.929-1.928-1.483-2.485-.26 19.471 22.252-12.61-.593-2.3zM9.364 31.134l.074 6.935 6.046-3.449z"/><path fill="#CBCFD2" d="M43.337 24.458l-15.948-9.68-10.978 6.38 5.637 9.802 4.574-2.596 16.789 9.619z"/><path stroke="#35444C" stroke-linejoin="round" stroke-width="1.068" d="M4.84 20.65v20.242l16.69 9.763 22.094-12.796V24.223"/><path stroke="#35444C" stroke-width="1.068" d="M21.502 29.956V50.63"/><path stroke="#35444C" stroke-linejoin="round" stroke-width="1.068" d="M9.392 43.424V30.73l6.07 3.504v12.695m24.573-16.685V35.5l-4.552 2.629v-5.257zM30.93 35.48v5.256l-4.55 2.629v-5.257z"/><path stroke="#35444C" stroke-width="1.068" d="M12.215 15.605l12.024 19.143.77.46 22.984-13.056.027-.629"/><path stroke="#35444C" stroke-width="1.068" d="M12.555 13.789L35.186.723l12.62 20.637-22.93 13.131-12.757-20.386-10.767 8.516.82.478 10.369-8.007"/><path stroke="#35444C" stroke-linejoin="round" stroke-width="1.068" d="M21.53 50.655l22.094-12.796V24.223"/><path stroke="#35444C" stroke-width="1.068" d="M27.382 32.634L14.763 11.997M30.25 31.052L17.63 10.415M33.119 29.47L20.499 8.833m15.488 19.054L23.367 7.25m15.488 19.055L26.235 5.668m15.488 19.054L29.103 4.086M44.591 23.14L31.971 2.503"/><path stroke="#35444C" stroke-linejoin="round" stroke-width="1.068" d="M43.585 24.594l-16.01-10.039-11.164 6.602"/><path stroke="#35444C" stroke-width="1.068" d="M35.186.723l-7.797 14.055"/><path stroke="#35444C" stroke-width=".979" d="M38 45.769l8.222 4.437 8.107-4.747m-8.336-.327l4.453 2.382"/><path stroke="#35444C" stroke-width=".979" d="M47.934 41.756l-1.952-1.078-7.981 4.862v2.904l8.22 4.714 8.107-4.796-.032-3.637v-2.382L50.3 40.06l-4.306 2.725v2.348l.098.262-4.279 2.63-.082 2.578"/><path stroke="#35444C" stroke-width=".979" d="M54.28 42.31l-3.916 2.398-3.947-2.126m-.114 7.558v3.018m4.241-8.433l-.049 5.872"/></g></svg>