<svg version="1" xmlns="http://www.w3.org/2000/svg" width="666.667" height="666.667" viewBox="0 0 500.000000 500.000000"><path d="M178.7 181.6c-21.5 5.2-35.5 21.7-37.4 44.1l-.6 7.3H183v-3.8c0-4.7 1.6-10.3 3.2-11.4.7-.4 2.7-.8 4.5-.8 4.1 0 5.7 2.7 5.6 9.6-.2 6.9-4.4 15.1-12.3 23.7-6.8 7.4-24.3 22.8-35.7 31.5l-7.3 5.4V320h102v-35l-22-.2-22.1-.3 6.2-4.5c3.3-2.4 10.6-9.1 16-14.8 14.4-15.1 19.9-27.3 19.9-44.3 0-15.2-8.3-29.4-21-35.9-9.4-4.8-28.9-6.4-41.3-3.4zM55.2 215.2c-12.4 18.9-22.6 35-22.6 35.8 0 .9 10.7 16.7 23.8 35.3L80.2 320h28c22.3 0 27.8-.3 27.1-1.3-.5-.6-9-11.8-18.8-24.7-9.8-12.9-21.2-27.9-25.2-33.2l-7.4-9.7 24.4-33.9c13.4-18.7 24.7-34.5 25.1-35.1.5-.8-7-1.1-27.4-1.1H77.9l-22.7 34.2zm224.5 6.7L251 262.8V299h60v21h44v-21h13v-37h-13l-.2-40.3-.3-40.2-23-.3-23-.2-28.8 40.9zM314 247v15h-19.9l9.7-15c5.3-8.2 9.8-15 10-15 .1 0 .2 6.7.2 15z"/><path d="M364.7 182.2c.5.7 9 11.9 18.8 24.8s21.2 27.9 25.2 33.2l7.4 9.7-24.4 33.9c-13.4 18.7-24.7 34.5-25.1 35.1-.5.8 7 1.1 27.4 1.1h28.1l22.7-34.3c12.4-18.8 22.6-34.9 22.6-35.7 0-.9-10.7-16.7-23.8-35.3L419.8 181h-28c-22.3 0-27.8.3-27.1 1.2z"/></svg>