<svg xmlns="http://www.w3.org/2000/svg" width="46" height="51" viewBox="0 0 46 51"><g fill="none" fill-rule="evenodd"><path fill="#FFF" d="M2 19v25l10 6 3-2 2-1V22L6 16c-2.667.667-4 1.667-4 3zm43.475-5.972c0 6.919-5.54 12.528-12.375 12.528-6.834 0-12.375-5.61-12.375-12.528C20.725 6.108 26.265.5 33.1.5s12.375 5.609 12.375 12.528"/><path stroke="#525252" stroke-width=".99" d="M45.475 13.028c0 6.919-5.54 12.528-12.375 12.528-6.834 0-12.375-5.61-12.375-12.528C20.725 6.108 26.265.5 33.1.5s12.375 5.609 12.375 12.528z"/><path fill="#CBCFD2" d="M43.613 6.643c.592 1.935 1.72 4.384 1.297 6.51-1.348 6.784-8.863 10.835-15.563 9.47-3.212-.653-5.878-2.513-7.638-5.016 1.298 4.239 4.448 6.704 9.049 7.64 6.7 1.365 12.996-2.692 14.344-9.475.702-3.533.424-6.408-1.49-9.129"/><path stroke="#35444C" stroke-width=".99" d="M45.475 13.028c0 6.919-5.54 12.528-12.375 12.528-6.834 0-12.375-5.61-12.375-12.528C20.725 6.108 26.265.5 33.1.5s12.375 5.609 12.375 12.528z"/><path stroke="#35444C" stroke-width=".825" d="M21.015 10.333c2.118-4.314 6.695-7.397 12.108-7.397 5.406 0 9.952 3.11 12.074 7.415M32.981.5c.044.696.602 9.657 0 25.056m.119-22.62c3.792-1.98 5.668-1.051 5.668-1.051M25.58 23.033c-3.222-5.916.688-16.53 7.52-20.097m0 0c4.726 2.523 11.473 12.789 7.219 20.227M27.379 1.918c.859-.217 3.497-.17 5.721 1.018"/><path stroke="#35444C" stroke-width=".99" d="M45.45 12.082c0 4.195-5.526 7.596-12.344 7.596s-12.345-3.4-12.345-7.596"/><path fill="#CBCFD2" d="M16.627 47.199l-2.475 1.539.56-18.34s1.199-3.025 2.09-8.082c.222 5.21.503 17.496.388 23.54-.025 1.35-.563 1.343-.563 1.343"/><path stroke="#35444C" stroke-width=".99" d="M14.26 47.874v-22.97c0-.694-.366-1.337-.96-1.686l-8.897-5.316c-1.284-.756-2.894.182-2.894 1.686l-.015 23.048c0 .696.367 1.34.963 1.689l8.912 5.238c1.285.751 2.89-.187 2.89-1.689z"/><path stroke="#35444C" stroke-width=".99" d="M16.072 47.929c.536-.335.913-.93.913-1.659V23.3c0-.694-.365-1.336-.959-1.686L7.175 16.35a1.89 1.89 0 0 0-1.975.024m-2.548 1.438l2.808-1.575m7.63 33.417l2.983-1.724"/><path stroke="#35444C" stroke-width=".88" d="M8.432 42.172c.629 1.08.652 2.212-.004 2.605-.657.391-1.758-.125-2.387-1.206-.629-1.082-.639-2.255.018-2.647.657-.392 1.744.167 2.373 1.248z"/><path stroke="#35444C" stroke-width=".99" d="M5.157 10.703c2.545-1.517 6.666.493 8.997 4.498M1.501 1.886C5.837-.699 12.796 2.62 16.69 9.313m-4.602 29.694V26.02c0-.535-.246-1.03-.648-1.298L5.42 21.19c-.87-.582-1.959.14-1.959 1.298V35.48c0 .538.249 1.034.653 1.301l6.021 3.528c.869.577 1.954-.145 1.954-1.3z"/></g></svg>