<svg xmlns="http://www.w3.org/2000/svg" width="37" height="48" viewBox="0 0 37 48"><g fill="none" fill-rule="evenodd"><path fill="#FFF" d="M36 18L6 1H3L1 3l33 26 2-6z"/><path d="M32.593 44.204V22.291c0-1.695-.312-2.716-1.717-3.575L3.312 2.842C1.742 1.93.498 2.444.498 4.257v24.205c0 .84.449 1.616 1.178 2.036L29.06 46.24c1.57.905 3.533-.226 3.533-2.036"/><path fill="#FFF" stroke="#35444C" stroke-width=".99" d="M32.593 44.204V22.291c0-1.695-.312-2.716-1.717-3.575L3.312 2.842C1.742 1.93.498 2.444.498 4.257v24.205c0 .84.449 1.616 1.178 2.036L29.06 46.24c1.57.905 3.533-.226 3.533-2.036z"/><path fill="#CBCFD2" d="M35.924 43.169l-3.409 1.906s-.278-17.776 0-19.295c2.56-2.331 3.409-7.498 3.409-7.498V43.17z"/><path stroke="#35444C" stroke-width=".99" d="M1.118 2.645L4.18.843M31.163 46.35l3.634-2.073.022-.012a2.309 2.309 0 0 0 1.106-1.994V19.746c0-1.195-.213-2.066-1.68-2.938L6.59.819a2.34 2.34 0 0 0-2.415.029"/><path stroke="#35444C" stroke-width=".99" d="M29.06 46.24c1.57.905 3.533-.226 3.533-2.036V23.99m-27.654-.3l5.034 2.891v5.482l-5.034-2.84zM9.973 19v3.748L4.94 19.91v-5.533l3.877 2.227"/><path fill="#35444C" d="M22.9 36.362l-10.033-5.795v-1.153l10.034 5.795zm4.431-6.514l-14.464-8.351v-1.153l14.464 8.351zM10.276 16.474c.058 0 .12.02.18.055a.83.83 0 0 1 .282.292l.083.142c.167.273.182.576.035.688l-.285.195c-.9.62-1.329.939-2.406 2.207a.203.203 0 0 1-.125.04.369.369 0 0 1-.183-.055.814.814 0 0 1-.27-.272l-1.093-1.84c-.169-.265-.195-.57-.06-.693l.202-.187a.203.203 0 0 1 .14-.052c.057 0 .12.019.183.055a.78.78 0 0 1 .24.229l.541.873 2.424-1.646a.209.209 0 0 1 .112-.03z"/><path fill="#FFF" d="M32.615 26.382L.498 7.782"/><path stroke="#35444C" stroke-width=".99" d="M32.615 26.382L.498 7.782"/><path fill="#35444C" d="M4.715 6.018c.416.704.43 1.442-.003 1.697-.434.255-1.161-.082-1.577-.786-.416-.704-.422-1.469.012-1.724.434-.256 1.153.108 1.568.813m2.794 1.673c.415.705.43 1.442-.003 1.698-.435.255-1.162-.082-1.577-.787-.416-.704-.422-1.468.011-1.724.435-.255 1.153.109 1.569.813m2.943 1.748c.415.704.43 1.442-.003 1.698-.435.255-1.162-.082-1.577-.787-.416-.704-.422-1.468.011-1.724.435-.255 1.153.109 1.569.813"/></g></svg>