<svg xmlns="http://www.w3.org/2000/svg" width="50" height="60" viewBox="0 0 50 60"><g fill="none" fill-rule="evenodd"><path fill="#FFF" d="M1 29v24l10 6 3-1 2-1V32L5 26c-2.667.667-4 1.667-4 3zM32 0l-5 2 3 7 9 6 4-3V7l-2 1h-3l1-1-1-2h-1l-2-3-3-2z"/><path fill="#CBCFD2" d="M15.677 56.362l-2.482 1.514.56-18.035s1.204-2.974 2.099-7.947c.222 5.124.504 17.204.39 23.148-.027 1.327-.567 1.32-.567 1.32"/><path stroke="#35444C" stroke-width=".99" d="M13.302 57.026V34.44c0-.684-.366-1.315-.96-1.658l-8.928-5.228c-1.288-.744-2.903.179-2.903 1.658L.495 51.875c0 .685.369 1.318.967 1.661l8.941 5.151c1.289.739 2.9-.184 2.9-1.66z"/><path stroke="#35444C" stroke-width=".99" d="M15.121 57.08c.537-.33.916-.915.916-1.63V32.861c0-.683-.367-1.314-.962-1.658l-8.88-5.176a1.928 1.928 0 0 0-1.981.023m-2.557 1.415l2.818-1.549m7.655 32.861l2.992-1.696"/><path stroke="#35444C" stroke-width=".88" d="M7.456 51.419c.631 1.063.655 2.176-.004 2.562-.66.385-1.763-.123-2.394-1.186-.631-1.064-.642-2.217.018-2.603.659-.385 1.75.164 2.38 1.227z"/><path stroke="#35444C" stroke-width=".99" d="M4.17 20.475c2.554-1.492 6.689.485 9.026 4.422M.503 11.805c4.35-2.542 11.331.72 15.238 7.303m-4.617 29.199V35.536c0-.526-.247-1.012-.65-1.277l-6.041-3.472c-.871-.573-1.965.138-1.965 1.277v12.774c0 .528.25 1.016.655 1.28l6.041 3.469c.871.567 1.96-.143 1.96-1.28z"/><path fill="#CBCFD2" d="M41.918 30.077c.637-.07 5.647-1.778 6.082-2.077.559-.384.914-1.816 1-2 .498 1.072-.996-.991-1-1-.18-.344.089-.615 0-1-.099-.433.05-.56 0-1-.101-.886.204-2.13 0-3-.19-.81-.855-1.196-1-2-.067-.367-.054-1.643 0-2 .066-.431-.913-1.576-1-2-.34-1.654-.295-2.469-1-4-.477-1.037-1.944-1.996-3.088-2.468C41.958 10.098 39.94 11.287 39 11l2 3c.46 2.963.794 4.963 1 6 .384 1.931.764 2.939 1 4 .426 1.915.426 3.582 0 5"/><path stroke="#35444C" stroke-linecap="round" stroke-linejoin="round" stroke-width=".99" d="M42.918 30.077c.637-.07 4.976-1.586 5.411-1.886.559-.384.087-3.08.173-3.263.003-.008.004-.014 0-.023-.18-.344-.412-.64-.5-1.024-.099-.433-.095-.887-.145-1.327-.101-.886-.193-1.789-.397-2.659-.19-.81-.72-1.556-.866-2.36-.067-.367.113-.708.167-1.066.066-.43.011-.863-.076-1.287-.34-1.654-.939-3.294-1.644-4.825-.477-1.037-.985-2.353-2.13-2.825-.844-.35-1.847-.132-2.63.272-.374.192-.756.549-1.191.572-.445.025-.745-.316-1.046-.588.315-.258.78-.398.977-.778.255-.49-.128-1.006-.42-1.382-.312-.402-.588-.625-1.107-.465-.453.14-.665.113-.997-.252-.664-.727-.735-1.772-1.3-2.56-.595-.831-1.562-1.268-2.427-1.763"/><path fill="#CBCFD2" d="M38.983 43.59c.814.035 4.356-1.37 4.995-1.742.714-.416.792-.713.71-1.177-.12-.694-.464-1.23-.701-1.876-.423-1.146 1.012-1.173 1.764-1.005.802.18.902-.466.768-1.113-.191-.93-.807-1.694-1.338-2.458-.333-.48-.625-.988-.981-1.45-.334-.434-.762-.803-1.007-1.298-.538-1.085-.566-1.408-1.193-2.471l-5.059.819L39 35c1.044.755 1.71 1.422 2 2 .29.578.29 1.245 0 2l-2 1c0 2.667.667 3.667 2 3"/><path stroke="#35444C" stroke-linecap="round" stroke-linejoin="round" stroke-width=".99" d="M38.986 43.643c.815.035 4.357-1.37 4.996-1.743.714-.415.79-.713.71-1.177-.12-.693-.464-1.229-.702-1.876-.423-1.145 1.013-1.172 1.764-1.004.803.179.902-.467.768-1.114-.191-.93-.807-1.693-1.337-2.457-.333-.48-.625-.988-.982-1.451-.334-.433-.76-.802-1.006-1.297-.359-.724-.424-1.232-.197-1.524"/><path d="M27.585 2.321c-.741-.424-.7.68-.66 1.11.116 1.273.43 2.53.78 3.757-.48-.496-1.278-.498-1.558.2-.355-.78-1.72-1.958-2.64-1.465-.683.367-.521 1.092-.246 1.656.423.873.13 1.657-.194 2.514-.214-.217-.613-.47-.87-.162-.181.217-.099.576-.027.82.157.535.785 1.164.556 1.75-.308.787-1.094.212-1.554-.045-.518-.29-1.332-.295-1.131.519.085.34.362.598.43.946.084.435-.143.771-.349 1.132-.44.773-.347 1.434-.072 2.247.232.686.853 1.747.504 2.452-.172.347-.385.576-.345.992.044.436.93 1.745.81 2.117-.105.322-.31.53-.283.89.055.733 1.248 2.577 1.524 2.696.308.133.452.006.754.243.651.512 1.24 1.14 1.848 1.703.728.673.059 1.105-.36 1.753-.397.616-.577 1.298-.661 2.018-.136 1.162-.095 2.71 1.008 3.422.83.537 1.88.66 2.776 1.058.436.194 1.583 1.549 1.947 1.775.29.179.646.191.881.458.288.326.356.817.583 1.184.435.708 1.253.731 1.322-.219.818.589 1.538 1.406 2.508 1.756.824.296 1.817.097 2.572.592.547.36.732 1.194 1.359 1.444.767.306.79-.713.71-1.177-.12-.694-.464-1.23-.702-1.875-.423-1.147 1.012-1.174 1.764-1.006.802.18.902-.466.768-1.113-.191-.93-.807-1.693-1.338-2.458-.333-.48-1.742-2.253-1.988-2.748-.538-1.085-.443-2.375-1.07-3.439 1.28-.372 2.642-.216 3.924-.563.482-.13 1.073-.38 1.413.1.201.284.43.87.866.57.545-.375.175-3.282.166-3.3-.18-.338-.407-.63-.494-1.01-.098-.434-.337-3.116-.541-3.986-.19-.81-.721-1.556-.867-2.361-.066-.366.113-.708.168-1.065.066-.43-1.016-4.581-1.72-6.112-.478-1.038-.985-2.353-2.13-2.826-.845-.35-1.848-.13-2.63.272-.374.192-.756.55-1.192.573-.445.024-.744-.316-1.045-.588.313-.259.78-.398.977-.778.255-.49-.128-1.006-.42-1.382-.313-.403-.589-.626-1.107-.465-.453.14-.665.113-.998-.252-.664-.728-.734-1.772-1.299-2.56-.595-.832-1.563-1.268-2.427-1.764"/><path fill="#FFF" stroke="#35444C" stroke-linecap="round" stroke-linejoin="round" stroke-width=".99" d="M27.585 2.321c-.741-.424-.7.68-.66 1.11.116 1.273.43 2.53.78 3.757-.48-.496-1.278-.498-1.558.2-.355-.78-1.72-1.958-2.64-1.465-.683.367-.521 1.092-.246 1.656.423.873.13 1.657-.194 2.514-.214-.217-.613-.47-.87-.162-.181.217-.099.576-.027.82.157.535.785 1.164.556 1.75-.308.787-1.094.212-1.554-.045-.518-.29-1.332-.295-1.131.519.085.34.362.598.43.946.084.435-.143.771-.349 1.132-.44.773-.347 1.434-.072 2.247.232.686.853 1.747.504 2.452-.172.347-.385.576-.345.992.044.436.93 1.745.81 2.117-.105.322-.31.53-.283.89.055.733 1.248 2.577 1.524 2.696.308.133.452.006.754.243.651.512 1.24 1.14 1.848 1.703.728.673.059 1.105-.36 1.753-.397.616-.577 1.298-.661 2.018-.136 1.162-.095 2.71 1.008 3.422.83.537 1.88.66 2.776 1.058.436.194 1.583 1.549 1.947 1.775.29.179.646.191.881.458.288.326.356.817.583 1.184.435.708 1.253.731 1.322-.219.818.589 1.538 1.406 2.508 1.756.824.296 1.817.097 2.572.592.547.36.732 1.194 1.359 1.444.767.306.79-.713.71-1.177-.12-.694-.464-1.23-.702-1.875-.423-1.147 1.012-1.174 1.764-1.006.802.18.902-.466.768-1.113-.191-.93-.807-1.693-1.338-2.458-.333-.48-1.742-2.253-1.988-2.748-.538-1.085-.443-2.375-1.07-3.439 1.28-.372 2.642-.216 3.924-.563.482-.13 1.073-.38 1.413.1.201.284.43.87.866.57.545-.375.175-3.282.166-3.3-.18-.338-.407-.63-.494-1.01-.098-.434-.337-3.116-.541-3.986-.19-.81-.721-1.556-.867-2.361-.066-.366.113-.708.168-1.065.066-.43-1.016-4.581-1.72-6.112-.478-1.038-.985-2.353-2.13-2.826-.845-.35-1.848-.13-2.63.272-.374.192-.756.55-1.192.573-.445.024-.744-.316-1.045-.588.313-.259.78-.398.977-.778.255-.49-.128-1.006-.42-1.382-.313-.403-.589-.626-1.107-.465-.453.14-.665.113-.998-.252-.664-.728-.734-1.772-1.299-2.56-.595-.832-1.563-1.268-2.427-1.764"/><path stroke="#35444C" stroke-linecap="round" stroke-linejoin="round" stroke-width=".99" d="M32.77.588c-.741-.425-4.41.634-5.614 1.688"/></g></svg>