<svg xmlns="http://www.w3.org/2000/svg" width="35" height="41" viewBox="0 0 35 41"><g fill="none" fill-rule="evenodd"><path fill="#FFF" d="M18.983 38.78s10.664-3.344 10.664-11.168V17.199c0-3.347-1.692-6.123-5.006-6.858-3.807-.845-6.66-1.812-9.524-3.531-2.755-1.653-4.962-4.34-6.541-5.298C7.024.571 4.034.832 1.974 3.104"/><path stroke="#35444C" stroke-width=".975" d="M18.983 38.78s10.664-3.344 10.664-11.168V17.199c0-3.347-1.692-6.123-5.006-6.858-3.807-.845-6.66-1.812-9.524-3.531-2.755-1.653-4.962-4.34-6.541-5.298C7.024.571 4.034.832 1.974 3.104"/><path fill="#FFF" d="M1 5.19c0 .286.092 2.578 0 10.147 0 5.248.78 6.62 1.459 8.454 4.58 12.36 13.977 15.928 13.977 15.928s10.186-2.663 10.186-10.488V18.82c0-3.347-1.796-5.563-5.093-6.373-2.132-.523-5.614-1.81-8.912-3.77-4.104-2.438-6.543-5.2-7.639-6.061C4.047 1.883 1 2.662 1 5.19"/><path stroke="#35444C" stroke-width=".975" d="M1 5.19c0 .286.092 2.578 0 10.147 0 5.248.78 6.62 1.459 8.454 4.58 12.36 13.977 15.928 13.977 15.928s10.186-2.663 10.186-10.488V18.82c0-3.347-1.796-5.563-5.093-6.373-2.132-.523-5.614-1.81-8.912-3.77-4.104-2.438-6.543-5.2-7.639-6.061C4.047 1.883 1 2.662 1 5.19z"/><path fill="#CBCFD2" d="M16.709 39.5c-.908-.209-7.275-3.2-4.765-2.985 14.678 1.258 13.045-19.177 10.818-23.258 3.603 1.164-.617-.754.485.164 1.103.918 3.15 1.945 3.15 6.158s.21 9.776 0 10.479c-.21.702-.337 4.589-3.876 6.656-3.538 2.067-5.812 2.786-5.812 2.786"/><path fill="#CBCFD2" d="M29.154 31.26l-4.196 4.12.512-20.63s2.986.624 2.686-2.042c1.44.807.998 1.17.998 1.17V31.26z"/><path stroke="#35444C" stroke-width=".975" d="M2.46 23.79c4.58 12.363 13.975 15.93 13.975 15.93s10.186-2.663 10.186-10.488V18.819c0-3.348-1.796-5.563-5.093-6.372-2.132-.524-5.615-1.812-8.912-3.77-4.105-2.44-6.542-5.201-7.639-6.062"/><path stroke="#35444C" stroke-width=".975" d="M24.43 36.052c2.627-1.816 5.217-4.584 5.217-8.44V17.199c0-3.347-1.692-6.122-5.006-6.858"/><path fill="#FFF" d="M22.306 37.93l4.043 2.4 3.263-1.83v-1.236l.945.573 3.237-1.821v-4.883l-4.182-2.63-.02-4.904-4.204-2.563-3.082 1.831v1.248l-1.12-.582-2.994 1.872-.085 4.95 4.13 2.54z"/><path fill="#CBCFD2" d="M26.44 40.28l3.172-1.78v-1.236l-3.173-1.751zm4.248-2.618l3.172-1.78v-4.827l-3.172 1.84zm-4.248-7.319l3.172-1.917v-4.828l-3.173 1.84z"/><path stroke="#35444C" stroke-width=".975" d="M29.612 28.503l-3.04 1.807m7.222.745l-3.04 1.807m-1.274-9.263l-3.04 1.806m3.172 11.859V38.5l-3.166 1.882-.008.002-4.202-2.495v-4.994l-4.203-2.497v-4.993l3.153-1.872 1.05.624m0-1.249l4.203 2.497v4.993l4.203 2.497v4.993"/><path stroke="#35444C" stroke-width=".975" d="M18.033 25.405l4.203 2.497v-4.994l3.152-1.872 4.203 2.497v4.993l4.203 2.497v4.993l-3.152 1.872-4.203-2.496v4.993"/></g></svg>