<svg xmlns="http://www.w3.org/2000/svg" xmlns:xlink="http://www.w3.org/1999/xlink" width="34" height="50" viewBox="0 0 34 50"><defs><path id="a" d="M15.68 43.264l.216-10.654 7.633 2.177-.216 10.654"/></defs><g fill="none" fill-rule="evenodd" transform="translate(1 1)"><path fill="#FFF" d="M18.33 37.227S29.203 33.93 29.203 26.22V15.96c0-3.298-1.726-6.032-5.103-6.756-3.881-.833-6.79-1.786-9.71-3.48-2.807-1.629-5.057-4.276-6.667-5.22C6.14-.424 3.092-.168.992 2.072"/><path stroke="#35444C" stroke-width=".963" d="M18.33 37.227S29.203 33.93 29.203 26.22V15.96c0-3.298-1.726-6.032-5.103-6.756-3.881-.833-6.79-1.786-9.71-3.48-2.807-1.629-5.057-4.276-6.667-5.22C6.14-.424 3.092-.168.992 2.072"/><path fill="#FFF" d="M0 4.13c0 .28.094 2.539 0 9.997 0 5.171.795 6.524 1.487 8.33C6.156 34.637 15.735 38.15 15.735 38.15s10.382-2.624 10.382-10.334v-10.26c0-3.298-1.83-5.48-5.191-6.278-2.173-.516-5.723-1.785-9.085-3.715C7.658 5.16 5.172 2.44 4.055 1.59 3.105.871 0 1.638 0 4.13"/><path stroke="#35444C" stroke-width=".963" d="M0 4.13c0 .28.094 2.539 0 9.997 0 5.171.795 6.524 1.487 8.33C6.156 34.637 15.735 38.15 15.735 38.15s10.382-2.624 10.382-10.334v-10.26c0-3.298-1.83-5.48-5.191-6.278-2.173-.516-5.723-1.785-9.085-3.715C7.658 5.16 5.172 2.44 4.055 1.59 3.105.871 0 1.638 0 4.13z"/><path fill="#CBCFD2" d="M16.012 37.935c-.925-.205-7.415-3.152-4.856-2.94 14.96 1.238 13.297-18.897 11.027-22.917 3.673 1.146-.63-.744.494.16 1.124.905 3.21 1.917 3.21 6.068 0 4.152.215 9.633 0 10.325-.213.692-.343 4.522-3.95 6.56-3.607 2.036-5.925 2.744-5.925 2.744"/><path fill="#CBCFD2" d="M28.698 29.816l-4.277 4.06.522-20.327s3.045.615 2.739-2.013c1.467.795 1.016 1.153 1.016 1.153v17.127z"/><path stroke="#35444C" stroke-width=".963" d="M1.487 22.456c4.669 12.18 14.248 15.695 14.248 15.695s10.382-2.623 10.382-10.334v-10.26c0-3.298-1.83-5.48-5.19-6.278-2.175-.516-5.724-1.785-9.085-3.715-4.184-2.402-6.67-5.125-7.787-5.972"/><path stroke="#35444C" stroke-width=".963" d="M23.883 34.538c2.678-1.79 5.319-4.517 5.319-8.317v-10.26c0-3.298-1.726-6.032-5.104-6.756"/><path fill="#FFF" d="M15.32 30.082l2.984-1.785c3.234-1.894 8.426.538 11.33 5.443 2.905 4.905 2.871 10.124-.363 12.019l-3.58 2.076"/><path stroke="#35444C" stroke-width=".963" d="M15.32 30.082l2.984-1.785c3.234-1.894 8.426.538 11.33 5.443 2.905 4.905 2.871 10.124-.363 12.019l-3.58 2.076"/><path fill="#FFF" d="M26.054 35.816c2.904 4.906 2.87 10.125-.363 12.02-3.235 1.894-8.495-.346-11.4-5.251-2.905-4.905-2.802-10.317.433-12.211 3.234-1.895 8.425.537 11.33 5.442"/><path stroke="#35444C" stroke-width=".963" d="M26.054 35.816c2.904 4.906 2.87 10.125-.363 12.02-3.235 1.894-8.495-.346-11.4-5.251-2.905-4.905-2.802-10.317.433-12.211 3.234-1.895 8.425.537 11.33 5.442z"/><path fill="#CBCFD2" d="M27.322 46.785L29.92 45.3s2.162-2.635 1.635-6.652a191.715 191.715 0 0 0-3.618 1.886s.753 3.91-.615 6.252"/><path stroke="#35444C" stroke-width=".963" d="M29.634 33.74c2.905 4.905 2.87 10.124-.363 12.019l-3.58 2.076m.363-12.019c2.904 4.906 2.87 10.125-.363 12.02"/><mask id="b" fill="#fff"><use xlink:href="#a"/></mask><path fill="#35444C" d="M20.5 33.923c-1.623-.463-2.833.47-3.334 2.475l-1.236-.418-.047.926 1.121.375a9.901 9.901 0 0 0-.077.815c-.012.278-.014.55-.006.817l-1.118-.375-.046.926 1.23.41c.286 2.361 1.422 4.077 3.158 4.66.051.017.102.033.152.047 1.414.403 2.49-.292 2.916-1.867l-.94-.606c-.306 1.162-.958 1.542-1.93 1.266a3.425 3.425 0 0 1-.138-.044c-1.17-.389-1.906-1.426-2.135-3.096l2.396.803.046-.92-2.515-.842a10.43 10.43 0 0 1 .003-.818c.016-.29.043-.56.077-.815l2.514.842.047-.925-2.393-.803c.38-1.387 1.158-1.984 2.244-1.674l.107.033c1.11.373 1.81 1.288 1.911 2.538l.961.126c-.136-1.796-1.242-3.28-2.813-3.808a3.18 3.18 0 0 0-.155-.048" mask="url(#b)"/><path fill="#FFF" d="M20.444 30.227l2.984-1.784" mask="url(#b)"/><path stroke="#000" stroke-width=".963" d="M20.444 30.227l2.984-1.784" mask="url(#b)"/><path fill="#FFF" d="M23.34 32.187l3.415-2.041" mask="url(#b)"/><path stroke="#000" stroke-width=".963" d="M23.34 32.187l3.415-2.041" mask="url(#b)"/><path fill="#FFF" d="M25.482 34.671l3.414-2.041" mask="url(#b)"/><path stroke="#000" stroke-width=".963" d="M25.482 34.671l3.414-2.041" mask="url(#b)"/><path fill="#FFF" d="M26.834 37.56l3.456-2.005" mask="url(#b)"/><path stroke="#000" stroke-width=".963" d="M26.834 37.56l3.456-2.005" mask="url(#b)"/><path fill="#FFF" d="M27.78 40.717l3.457-2.004" mask="url(#b)"/><path stroke="#000" stroke-width=".963" d="M27.78 40.717l3.457-2.004" mask="url(#b)"/><path fill="#FFF" d="M28.009 44.247l3.528-2.01" mask="url(#b)"/><path stroke="#000" stroke-width=".963" d="M28.009 44.247l3.528-2.01" mask="url(#b)"/></g></svg>