<svg xmlns="http://www.w3.org/2000/svg" width="61" height="57" viewBox="0 0 61 57"><defs><linearGradient id="a" x1="0%" y1="65.534%" y2="34.466%"><stop offset="0%" stop-color="#FBA308"/><stop offset="100%" stop-color="#FBB50C"/></linearGradient></defs><g fill="none" fill-rule="evenodd"><path fill="url(#a)" d="M35.36 20.677l27.017 14.84a2.94 2.94 0 0 1 .031 5.136L39.371 53.68a11.76 11.76 0 0 1-11.701-.07L4.562 40.168a2.94 2.94 0 0 1 .095-5.136l26.97-14.38a3.92 3.92 0 0 1 3.732.024z" transform="translate(-3 1)"/><path fill="#FFF" d="M32.005 39.058s10.826-3.37 10.826-11.251v-10.49c0-3.371-1.717-6.167-5.082-6.907-3.865-.851-6.761-1.825-9.669-3.557-2.796-1.666-5.036-4.372-6.64-5.337-1.575-.949-4.61-.686-6.702 1.603"/><path stroke="#35444C" stroke-width=".975" d="M32.005 39.058s10.826-3.37 10.826-11.251v-10.49c0-3.371-1.717-6.167-5.082-6.907-3.865-.851-6.761-1.825-9.669-3.557-2.796-1.666-5.036-4.372-6.64-5.337-1.575-.949-4.61-.686-6.702 1.603"/><path fill="#FFF" d="M13.75 5.221c0 .287.093 2.597 0 10.221 0 5.287.791 6.67 1.481 8.516 4.65 12.451 14.19 16.045 14.19 16.045s10.34-2.683 10.34-10.565V18.95c0-3.371-1.824-5.603-5.171-6.419-2.164-.527-5.7-1.824-9.047-3.798-4.167-2.456-6.642-5.238-7.755-6.106-.945-.736-4.038.048-4.038 2.595"/><path stroke="#35444C" stroke-width=".975" d="M13.75 5.221c0 .287.093 2.597 0 10.221 0 5.287.791 6.67 1.481 8.516 4.65 12.451 14.19 16.045 14.19 16.045s10.34-2.683 10.34-10.565V18.95c0-3.371-1.824-5.603-5.171-6.419-2.164-.527-5.7-1.824-9.047-3.798-4.167-2.456-6.642-5.238-7.755-6.106-.945-.736-4.038.048-4.038 2.595z"/><path fill="#CBCFD2" d="M29.697 39.782c-.922-.21-7.386-3.223-4.837-3.006 14.9 1.266 13.242-19.318 10.982-23.43 3.657 1.173-.627-.759.492.166 1.12.925 3.197 1.959 3.197 6.203s.214 9.848 0 10.556c-.213.707-.342 4.622-3.934 6.705-3.592 2.082-5.9 2.806-5.9 2.806"/><path fill="#CBCFD2" d="M42.33 31.481l-4.26 4.151.521-20.78s3.031.628 2.727-2.058c1.46.813 1.013 1.178 1.013 1.178v17.51z"/><path stroke="#35444C" stroke-width=".975" d="M15.231 23.958C19.881 36.41 29.42 40.003 29.42 40.003s10.34-2.683 10.34-10.565V18.95c0-3.373-1.823-5.604-5.17-6.42-2.165-.527-5.7-1.824-9.047-3.797-4.167-2.457-6.642-5.24-7.755-6.107"/><path stroke="#35444C" stroke-width=".975" d="M37.535 36.309c2.667-1.83 5.296-4.617 5.296-8.502V17.318c0-3.372-1.717-6.168-5.082-6.908"/><path fill="#FFF" d="M35.379 38.201l4.104 2.418 3.312-1.844V37.53l.96.577 3.286-1.835v-4.919l-4.246-2.648-.02-4.94-4.267-2.582-3.13 1.844v1.257l-1.137-.586-3.039 1.886-.086 4.986 4.192 2.559z"/><path fill="#CBCFD2" d="M39.575 40.568l3.22-1.793V37.53l-3.22-1.764zm4.312-2.638l3.221-1.792v-4.863l-3.22 1.854zm-4.312-7.372l3.22-1.932v-4.862l-3.22 1.854z"/><path stroke="#35444C" stroke-width=".975" d="M42.795 28.705l-3.086 1.82m7.332.751l-3.086 1.82m-1.295-9.332l-3.085 1.82m3.22 11.946v1.245l-3.213 1.895-.008.003-4.266-2.514v-5.03l-4.266-2.515v-5.03l3.2-1.886 1.066.628m0-1.257l4.267 2.515v5.03l4.266 2.515v5.029"/><path stroke="#35444C" stroke-width=".975" d="M31.042 25.584l4.266 2.515v-5.03l3.2-1.886 4.266 2.515v5.03l4.267 2.515v5.03l-3.2 1.885-4.267-2.514v5.03"/></g></svg>