<svg xmlns="http://www.w3.org/2000/svg" width="35" height="47" viewBox="0 0 35 47"><g fill="none" fill-rule="evenodd"><path fill="#FFF" d="M4.666.56L1.478 2.029v26.546l29.452 17.43L34.414 18 4.666.56z"/><path fill="#CBCFD2" d="M31.228 19.78v26.214l3.27-1.858V18.318z"/><path stroke="#35444C" stroke-width=".967" d="M30.93 20.064l3.484-2.08M1.478 2.428l29.75 17.352v26.14"/><path stroke="#35444C" stroke-width=".967" d="M1.478 2.428L4.666.56l29.749 17.423v26.153l-3.187 1.868-29.75-17.43z"/><path stroke="#35444C" stroke-width=".967" d="M19.49 18l6.475 3.794v6.166l-6.476-3.735z"/><path fill="#35444C" d="M28.031 33.577l-8.782-5.131v-1.124l8.782 5.131zm.009 2.977l-8.791-5.148v-1.124l8.792 5.148zm-3.477 1.101l-5.314-3.113v-1.124l5.314 3.113z"/><path stroke="#35444C" stroke-width=".967" d="M4.085 20.94l2.55 5.491s1.655-.902 1.844-.968c1.91-.674 4.246 2.23 6.357 1.368 2.217-.906 1.805-4.185.891-6.093l-3.488 1.827-1.909-3.72 3.497-1.93s-3.09-3.783-5.819-2.535c-2.453 1.122-.538 4.804-2.507 5.83-.26.137-1.416.73-1.416.73z"/></g></svg>