<svg xmlns="http://www.w3.org/2000/svg" width="26" height="40" viewBox="0 0 26 40"><g fill="none" fill-rule="evenodd"><path fill="#FFF" d="M9.207 11.23c5.054 0 7.323 3.805 7.323 7.282v7.24l.02-.326c0 2.167-3.563 3.925-7.958 3.925-4.396 0-7.959-1.758-7.959-3.925l.008.14v-7.348c0-5.587 3.286-7.34 6.522-7.34"/><path fill="#FFF" d="M8.592 29.983C3.774 29.983 0 27.98 0 25.425h.008v-7.207c0-4.991 2.675-7.97 7.155-7.97v1.262c-2.2 0-5.888.872-5.888 6.708v7.343c.168 1.522 3.125 3.158 7.317 3.158 4.113 0 7.038-1.576 7.305-3.072v-7.135c0-3.203-2.094-6.65-6.69-6.65v-1.264c5.467 0 7.957 4.102 7.957 7.914l.02 6.913c0 .1-.007.198-.017.294l-.01.07c-.338 2.38-3.979 4.194-8.565 4.194"/><path fill="#35444C" d="M8.592 29.983C3.774 29.983 0 27.98 0 25.425h.008v-7.207c0-4.991 2.675-7.97 7.155-7.97v1.262c-2.2 0-5.888.872-5.888 6.708v7.343c.168 1.522 3.125 3.158 7.317 3.158 4.113 0 7.038-1.576 7.305-3.072v-7.135c0-3.203-2.094-6.65-6.69-6.65v-1.264c5.467 0 7.957 4.102 7.957 7.914l.02 6.913c0 .1-.007.198-.017.294l-.01.07c-.338 2.38-3.979 4.194-8.565 4.194"/><path fill="#CBCFD2" d="M12.547 12.414c.427.38-3.618.451-2.183 1.116 3.374 1.565 2.429 7.61 2.074 9.038-.588 2.362-2.359 4.07-6.621 4.07-1.959 0-3.749-.35-5.134-.929.296 2.035 3.727 3.642 7.928 3.642 4.263 0 7.733-1.655 7.939-3.733v-7.106c0-2.509-1.446-4.8-4.003-6.098"/><path fill="#FFF" d="M15.108 7.213c0 3.635-2.955 6.582-6.6 6.582-3.646 0-6.6-2.947-6.6-6.582S4.862.631 8.508.631c3.645 0 6.6 2.947 6.6 6.582"/><path fill="#000" d="M8.508 1.263c-3.29 0-5.967 2.67-5.967 5.95 0 3.28 2.677 5.95 5.967 5.95 3.29 0 5.966-2.67 5.966-5.95 0-3.28-2.676-5.95-5.966-5.95m0 13.164c-3.989 0-7.234-3.236-7.234-7.214C1.274 3.236 4.52 0 8.508 0s7.234 3.236 7.234 7.213c0 3.978-3.246 7.214-7.234 7.214"/><path fill="#CBCFD2" d="M12.355 1.873c.444.884.7 1.879.7 2.935 0 3.635-2.956 6.581-6.6 6.581a6.58 6.58 0 0 1-3.849-1.241 6.596 6.596 0 0 0 5.901 3.647c3.646 0 6.601-2.947 6.601-6.582a6.562 6.562 0 0 0-2.753-5.34"/><path fill="#35444C" d="M8.592 29.983C3.774 29.983 0 27.98 0 25.425h.008v-7.207h1.267v7.343c.168 1.522 3.125 3.158 7.317 3.158 4.113 0 7.038-1.576 7.305-3.072v-7.135c0-2.027-.888-4.645-3.382-5.918l.577-1.124c3.002 1.531 4.072 4.642 4.072 7.042l.02 6.913c0 .1-.007.198-.017.294l-.01.07c-.338 2.38-3.979 4.194-8.565 4.194"/><path fill="#35444C" d="M8.508 1.263c-3.29 0-5.967 2.67-5.967 5.95 0 3.28 2.677 5.95 5.967 5.95 3.29 0 5.966-2.67 5.966-5.95 0-3.28-2.676-5.95-5.966-5.95m0 13.164c-3.989 0-7.234-3.236-7.234-7.214C1.274 3.236 4.52 0 8.508 0s7.234 3.236 7.234 7.213c0 3.978-3.246 7.214-7.234 7.214"/><path fill="#FFF" d="M19.384 26.07c3.67 0 5.318 2.763 5.318 5.287v5.257l.014-.237c0 1.575-2.587 2.85-5.779 2.85-3.191 0-5.779-1.275-5.779-2.85l.007.103v-5.337c0-4.056 2.386-5.328 4.736-5.328"/><path fill="#CBCFD2" d="M21.81 26.93c.31.276-2.627.328-1.585.81 2.45 1.136 1.763 5.526 1.505 6.562-.427 1.716-1.712 2.956-4.807 2.956-1.422 0-2.722-.254-3.728-.674.214 1.477 2.707 2.644 5.757 2.644 3.096 0 5.615-1.201 5.764-2.71v-5.16c0-1.822-1.05-3.486-2.906-4.428"/><path fill="#35444C" d="M18.937 39.86c-3.595 0-6.412-1.53-6.412-3.483h.006v-5.233c0-3.732 2.008-5.961 5.37-5.961v1.263c-1.532 0-4.103.61-4.103 4.698v5.332c.127 1.024 2.202 2.12 5.14 2.12 2.887 0 4.94-1.06 5.13-2.067v-5.172c0-2.242-1.466-4.655-4.684-4.655v-1.264c4.089 0 5.952 3.069 5.952 5.92l.014 5.02c0 .08-.005.159-.014.237l-.004.037c-.242 1.848-2.91 3.208-6.395 3.208"/><path fill="#FFF" d="M23.67 23.153a4.786 4.786 0 0 1-4.793 4.78 4.786 4.786 0 0 1-4.793-4.78 4.787 4.787 0 0 1 4.793-4.78 4.787 4.787 0 0 1 4.793 4.78"/><path fill="#CBCFD2" d="M21.67 19.276c.322.642.508 1.364.508 2.13a4.786 4.786 0 0 1-4.792 4.78 4.784 4.784 0 0 1-2.795-.901 4.792 4.792 0 0 0 4.286 2.647 4.786 4.786 0 0 0 4.793-4.778c0-1.6-.79-3.011-2-3.878"/><path fill="#35444C" d="M18.877 19.006a4.158 4.158 0 0 0-4.159 4.148 4.158 4.158 0 0 0 4.159 4.147 4.158 4.158 0 0 0 4.159-4.147 4.158 4.158 0 0 0-4.16-4.148m0 9.558c-2.991 0-5.425-2.427-5.425-5.41 0-2.984 2.434-5.412 5.426-5.412s5.426 2.428 5.426 5.412c0 2.983-2.434 5.41-5.426 5.41"/></g></svg>