<svg xmlns="http://www.w3.org/2000/svg" width="18" height="30" viewBox="0 0 18 30"><g fill="none" fill-rule="evenodd"><path fill="#FFF" d="M9.207 11.23c5.054 0 7.323 3.805 7.323 7.282v7.24l.02-.326c0 2.167-3.563 3.925-7.958 3.925-4.396 0-7.959-1.758-7.959-3.925l.008.14v-7.348c0-5.587 3.286-7.34 6.522-7.34"/><path fill="#FFF" d="M8.592 29.983C3.774 29.983 0 27.98 0 25.425h.008v-7.207c0-4.991 2.675-7.97 7.155-7.97v1.262c-2.2 0-5.888.872-5.888 6.708v7.343c.168 1.522 3.125 3.158 7.317 3.158 4.113 0 7.038-1.576 7.305-3.072v-7.135c0-3.203-2.094-6.65-6.69-6.65v-1.264c5.467 0 7.957 4.102 7.957 7.914l.02 6.913c0 .1-.007.198-.017.294l-.01.07c-.338 2.38-3.979 4.194-8.565 4.194"/><path fill="#35444C" d="M8.592 29.983C3.774 29.983 0 27.98 0 25.425h.008v-7.207c0-4.991 2.675-7.97 7.155-7.97v1.262c-2.2 0-5.888.872-5.888 6.708v7.343c.168 1.522 3.125 3.158 7.317 3.158 4.113 0 7.038-1.576 7.305-3.072v-7.135c0-3.203-2.094-6.65-6.69-6.65v-1.264c5.467 0 7.957 4.102 7.957 7.914l.02 6.913c0 .1-.007.198-.017.294l-.01.07c-.338 2.38-3.979 4.194-8.565 4.194"/><path fill="#CBCFD2" d="M12.547 12.414c.427.38-3.618.451-2.183 1.116 3.374 1.565 2.429 7.61 2.074 9.038-.588 2.362-2.359 4.07-6.621 4.07-1.959 0-3.749-.35-5.134-.929.296 2.035 3.727 3.642 7.928 3.642 4.263 0 7.733-1.655 7.939-3.733v-7.106c0-2.509-1.446-4.8-4.003-6.098"/><path fill="#FFF" d="M15.108 7.213c0 3.635-2.955 6.582-6.6 6.582-3.646 0-6.6-2.947-6.6-6.582S4.862.631 8.508.631c3.645 0 6.6 2.947 6.6 6.582"/><path fill="#000" d="M8.508 1.263c-3.29 0-5.967 2.67-5.967 5.95 0 3.28 2.677 5.95 5.967 5.95 3.29 0 5.966-2.67 5.966-5.95 0-3.28-2.676-5.95-5.966-5.95m0 13.164c-3.989 0-7.234-3.236-7.234-7.214C1.274 3.236 4.52 0 8.508 0s7.234 3.236 7.234 7.213c0 3.978-3.246 7.214-7.234 7.214"/><path fill="#CBCFD2" d="M12.355 1.873c.444.884.7 1.879.7 2.935 0 3.635-2.956 6.581-6.6 6.581a6.58 6.58 0 0 1-3.849-1.241 6.596 6.596 0 0 0 5.901 3.647c3.646 0 6.601-2.947 6.601-6.582a6.562 6.562 0 0 0-2.753-5.34"/><path fill="#35444C" d="M8.592 29.983C3.774 29.983 0 27.98 0 25.425h.008v-7.207h1.267v7.343c.168 1.522 3.125 3.158 7.317 3.158 4.113 0 7.038-1.576 7.305-3.072v-7.135c0-2.027-.888-4.645-3.382-5.918l.577-1.124c3.002 1.531 4.072 4.642 4.072 7.042l.02 6.913c0 .1-.007.198-.017.294l-.01.07c-.338 2.38-3.979 4.194-8.565 4.194"/><path fill="#35444C" d="M8.508 1.263c-3.29 0-5.967 2.67-5.967 5.95 0 3.28 2.677 5.95 5.967 5.95 3.29 0 5.966-2.67 5.966-5.95 0-3.28-2.676-5.95-5.966-5.95m0 13.164c-3.989 0-7.234-3.236-7.234-7.214C1.274 3.236 4.52 0 8.508 0s7.234 3.236 7.234 7.213c0 3.978-3.246 7.214-7.234 7.214"/></g></svg>