<svg xmlns="http://www.w3.org/2000/svg" xmlns:xlink="http://www.w3.org/1999/xlink" width="52" height="43" viewBox="0 0 52 43"><defs><path id="a" d="M.306.802h3.853v4.307H.306z"/></defs><g fill="none" fill-rule="evenodd"><path fill="#FFF" d="M45.485 23.542s2.025-1.308 2.658-1.65c.633-.344.687-.434.687-2.18v-3.458c0-.86-1.36-.865-1.36-1.436 0-.57.054-2.65-.327-3.21-.38-.56-7.62-4.377-8.328-4.834-.707-.458-10.777 1.916-11.81 2.298-1.035.382-8.329 4.481-9.253 5.29-.925.811-6.26 6.105-6.909 6.84-.649.734-7.946 6.937-8.387 7.405-.44.47-.996 1.277-.996 1.693v3.144s-2.16 1.286 0 3.35c3.25 3.103 7.71 4.904 10.522 4.904 2.811 0 4.411-1.337 4.411-1.337l.304-1.207"/><path fill="#CBCFD2" d="M48.83 19.317c-.358-.246.253-3.389-.208-3.35.26.916-8.057 7.916-12.068 10.342-5.052 3.054-13.74 8.316-14.699 8.398.123.431.178 1.178.532 1.422 1.103.761 16.037-7.526 17.171-9.125 1.133-1.6 10.233-5.022 9.13-5.783"/><path fill="#35444C" d="M48.623 15.967s-.377.325-.737.613c-.334.268-.285.562-.288.776-.002.102-.005 1.554 0 1.969.003.252.242.283.35.24.11-.04.74-.513.74-.513"/><path fill="#FFF" d="M12.768 19.218c-.017-.214.017-.521-.167-.736-.183-.216-.722-.94-.918-.94-.197 0-.863.58-.88.758-.016.179-.216 1.23 0 1.492.217.263.32.526.552.772"/><path stroke="#35444C" d="M12.768 19.218c-.017-.214.017-.521-.167-.736-.183-.216-.722-.94-.918-.94-.197 0-.863.58-.88.758-.016.179-.216 1.23 0 1.492.217.263.32.526.552.772"/><path fill="#CBCFD2" d="M21.366 33.919c-.358-.247-.792-.339-1.252-.301.259.917.014 2.141-.756 3.229-.766 1.08-1.842 1.739-2.8 1.821.124.431.349.801.702 1.045 1.103.761 2.917.08 4.05-1.52 1.135-1.6 1.159-3.513.056-4.274"/><path stroke="#35444C" d="M21.37 38.04c-1.144 1.737-3.042 2.522-4.239 1.755-1.197-.768-1.24-2.797-.097-4.532 1.144-1.737 3.042-2.523 4.238-1.755 1.198.767 1.242 2.796.098 4.532z"/><path fill="#FFF" d="M44.724 25.4c-1.144 1.737-3.042 2.522-4.239 1.755-1.197-.768-1.241-2.797-.097-4.533 1.144-1.736 3.042-2.521 4.238-1.755 1.198.767 1.242 2.797.098 4.532"/><path fill="#CBCFD2" d="M44.553 21.112c-.357-.246-.791-.339-1.252-.3.26.917.014 2.141-.757 3.23-.764 1.078-1.84 1.737-2.797 1.82.123.431.346.801.7 1.045 1.103.761 2.917.08 4.05-1.52 1.136-1.6 1.16-3.514.056-4.275"/><path stroke="#35444C" d="M44.724 25.4c-1.144 1.737-3.042 2.522-4.239 1.755-1.197-.768-1.241-2.797-.097-4.533 1.144-1.736 3.042-2.521 4.238-1.755 1.198.767 1.242 2.797.098 4.532zm-4.914 1.604c-1.812 1.188-17.799 9.79-17.799 9.79"/><path stroke="#35444C" stroke-linejoin="round" d="M45.485 23.542s2.025-1.308 2.658-1.65c.633-.344.687-.434.687-2.18v-3.458c0-.86-1.36-.865-1.36-1.436 0-.57.054-2.65-.327-3.21-.38-.56-7.62-4.377-8.328-4.834-.707-.458-10.777 1.916-11.81 2.298-1.035.382-8.329 4.481-9.253 5.29-.925.811-6.26 6.105-6.909 6.84-.649.734-7.946 6.937-8.387 7.405-.44.47-.996 1.277-.996 1.693v3.144s-2.16 1.286 0 3.35c3.25 3.103 7.71 4.904 10.522 4.904 2.72 0 4.038-1.185 4.038-1.185v-2.637"/><path stroke="#35444C" d="M28.102 19.317c-.717 1.461-4.355 8.47-5.142 8.811-.787.341-10.776-3.122-11.51-7.565"/><path stroke="#35444C" d="M17.752 14.362c.435.648 5.314 3.603 6.368 4.16 2.71 1.436 3.573 1.278 5.388.324 1.765-.927 4.744-2.554 5.604-3.093.893-.56.972-1.63-.211-2.275-1.292-.702-7.638-4.406-7.638-4.406M22.96 28.128c1.402-.702 8.05-4.067 14.702-8.811 2.91-2.075 8.288-6.669 9.62-7.378"/><path stroke="#35444C" stroke-linejoin="round" d="M35.907 14.756c1.222-.123 7.433-.214 7.433-.214s-7.86-5.166-10.06-5.47c-2.055-.283-4.047-.315-5.502 0"/><path fill="#FFF" d="M36.897 4.904l-.013 3.213 1.63-.937V5.625"/><path stroke="#35444C" d="M36.897 4.904l-.013 3.213 1.63-.937V5.625"/><path fill="#FFF" d="M43.57 8.712l-.013 3.213 1.63-.937V9.433"/><path stroke="#35444C" d="M43.57 8.712l-.013 3.213 1.63-.937V9.433"/><path fill="#FFF" d="M50.162 10.27L36.884 2.83l-2.566 1.473 13.509 7.365z"/><path stroke="#35444C" d="M50.162 10.27L36.884 2.83l-2.566 1.473 13.509 7.365z"/><path fill="#35444C" d="M51.564 7.611l-4.16 5.157 4.112-2.369z"/><g transform="translate(33 -.801)"><mask id="b" fill="#fff"><use xlink:href="#a"/></mask><path fill="#35444C" d="M4.159.802L.306 5.109l3.805-1.576z" mask="url(#b)"/></g><path fill="#35444C" d="M8.837 36.027c.417.062 2.236.085 2.789 0 .553-.085 2.607-.88 3.446-1.568l.01 1.256s-2.174 1.992-3.13 2.078c-.955.086-3.115-.598-3.115-.598v-1.168zM1.139 30.65c.393.87 2.491 3.047 2.491 3.047v-1.361a64.462 64.462 0 0 1-.884-2.203c-.087-.23-.048-.736.039-1.32M8 35.77v1.082l-2.28-1.16-1.446-1.31.005-1.254 1.44 1.412z"/><path fill="#FFF" d="M25.109 26.083c.132.013 2.177.61 2.374.68.196.068.59.082.576.54-.014.456 0 .796-.098.93-.1.135-.436.44-.878.427-.443-.014-3.092.066-3.312-.203-.221-.269-.418-.655-.165-1.085.253-.43 1.082-1.33 1.503-1.289"/><path stroke="#35444C" d="M25.109 26.083c.132.013 2.177.61 2.374.68.196.068.59.082.576.54-.014.456 0 .796-.098.93-.1.135-.436.44-.878.427-.443-.014-3.092.066-3.312-.203-.221-.269-.418-.655-.165-1.085.253-.43 1.082-1.33 1.503-1.289zm-3.764 11.896c-1.18 1.789-3.135 2.598-4.37 1.808-1.233-.79-1.278-2.881-.1-4.67 1.18-1.788 3.136-2.598 4.369-1.807 1.235.79 1.28 2.88.1 4.669zm23.36-12.639c-1.184 1.787-3.148 2.596-4.387 1.806-1.24-.79-1.285-2.877-.101-4.664s3.148-2.595 4.386-1.806c1.24.79 1.286 2.878.102 4.664"/></g></svg>