<svg xmlns="http://www.w3.org/2000/svg" xmlns:xlink="http://www.w3.org/1999/xlink" width="41" height="36" viewBox="0 0 41 36"><defs><path id="a" d="M0 .147h10.18v10.25H0z"/></defs><g fill="none" fill-rule="evenodd"><path fill="#CBCFD2" d="M21.896 30.508l-.54 3.392c0 .666-1.379 1.206-3.082 1.206-1.702 0-3.082-.54-3.082-1.206l-.437-2.97"/><path fill="#35444C" d="M18.275 35.569c-1.747 0-3.514-.56-3.555-1.631l-.433-2.942.936-.132.442 3.035c0 .192.897.744 2.61.744 1.712 0 2.608-.552 2.608-.744l.006-.07.539-3.392.935.142-.534 3.362c-.044 1.069-1.81 1.628-3.554 1.628"/><path fill="#CBCFD2" d="M31.468 24.894l-.632 4.482c0 .666-1.38 1.206-3.083 1.206-1.703 0-3.083-.54-3.083-1.206"/><path fill="#35444C" d="M27.753 31.045c-1.767 0-3.556-.574-3.556-1.67h.947c0 .192.897.744 2.61.744 1.712 0 2.608-.552 2.608-.743l.005-.064.632-4.481.938.126-.629 4.455c-.04 1.072-1.808 1.633-3.555 1.633"/><path fill="#B4B4B4" d="M9.243 28.646c0 .666-1.38 1.207-3.082 1.207-1.703 0-3.083-.54-3.083-1.207l-.437-2.97"/><path fill="#35444C" d="M6.16 30.316c-1.745 0-3.513-.56-3.554-1.631l-.433-2.942.936-.133.442 3.036c0 .192.897.744 2.61.744 1.712 0 2.61-.552 2.61-.744h.946c0 1.096-1.79 1.67-3.556 1.67"/><path fill="#FFF" d="M34.336 7.871c3.91 7.25.195 16.682-8.298 21.067-5.666 2.925-12.027 2.865-16.795.348-2.38-1.256-4.361-3.123-5.663-5.536-3.91-7.25-.195-16.682 8.298-21.067C20.372-1.702 30.426.621 34.336 7.871"/><path fill="#35444C" d="M20.828.926c-2.954 0-5.955.734-8.729 2.166C3.85 7.351.216 16.521 4 23.534c1.212 2.248 3.103 4.096 5.47 5.345 4.778 2.522 11.042 2.388 16.348-.35 4.007-2.07 7.054-5.342 8.58-9.217 1.517-3.852 1.347-7.838-.48-11.225-1.826-3.387-5.093-5.774-9.2-6.723a17.271 17.271 0 0 0-3.889-.438m-3.773 30.679c-2.846 0-5.619-.635-8.037-1.912-2.53-1.336-4.556-3.316-5.856-5.727C-.864 16.5 2.947 6.77 11.658 2.274 15.866.1 20.58-.542 24.935.464c4.376 1.01 7.863 3.565 9.82 7.191 1.956 3.627 2.142 7.885.525 11.99-1.609 4.083-4.812 7.53-9.021 9.702a20.162 20.162 0 0 1-9.204 2.258"/><path fill="#35444C" d="M12.538 21.077c-.352-.01-.622-.5-.603-1.093.02-.593.32-1.065.672-1.054.352.01.62.5.603 1.093-.02.593-.32 1.065-.672 1.054m-6.095-3.873c-.352-.011-.622-.5-.602-1.093.018-.594.319-1.066.67-1.055.353.01.622.5.603 1.093-.019.593-.32 1.065-.67 1.055"/><path fill="#000" d="M9.03 29.678l-.49-.792 1.531-.904.489.793z"/><path fill="#35444C" d="M1.8 20.926l-.444-.817 1.545-.803.443.818zM17.194 9.014l-1.128-.626 7.622-4.312 1.166.64z"/><path fill="#FFF" d="M3.64 6.708c2.063-1.53 7.839-1.697 7.935-.705.03.299-.803 3.628-1.463 4.558"/><path fill="#35444C" d="M10.5 10.825l-.778-.528c.554-.778 1.28-3.589 1.372-4.196-.698-.465-5.33-.387-7.169.976l-.572-.738c1.898-1.406 6.6-1.737 8.051-1.113.492.211.62.515.642.733.042.43-.84 3.872-1.546 4.866m11.52 10.107l-.593-.721c1.845-1.453 2.916-4.673 2.95-6.344.013-.608-.11-.849-.157-.89-.805-.69-5.565-.19-7.822 1.32l-.534-.765c2.226-1.49 7.602-2.431 8.979-1.252.335.287.496.828.48 1.606-.039 1.894-1.209 5.397-3.303 7.046"/><path fill="#FFF" d="M4.044 10.046c-.946-1.067-1.283-2.266-.74-3.014.722-.997 2.73-.817 4.484.4 1.143.793 1.897 1.831 2.083 2.734-1.448-.39-3.965-.592-5.827-.12"/><path fill="#35444C" d="M6.561 9.31c.901 0 1.797.082 2.568.219-.332-.609-.904-1.227-1.615-1.72-.781-.542-1.633-.878-2.398-.947-.388-.033-1.092-.024-1.426.437-.362.499-.145 1.374.532 2.23.726-.153 1.535-.22 2.34-.22zm3.926 1.503l-.742-.2c-1.42-.384-3.858-.556-5.582-.12l-.285.073-.192-.217c-1.125-1.27-1.427-2.677-.769-3.585.451-.622 1.261-.914 2.285-.823.929.083 1.944.478 2.86 1.113 1.205.837 2.055 1.966 2.273 3.02l.152.739zm5.978 3.457c2.435 1.602 3.75 3.152 5.268 5.523.629-1.132.44-3.13-.89-4.516-1.294-1.347-3.19-1.59-4.378-1.007zm5.123 7.062l-.303-.487c-1.76-2.827-3.032-4.389-5.918-6.17l-.517-.319.446-.41c1.398-1.285 4.303-1.315 6.237.698 1.799 1.874 2.028 4.875.48 6.298l-.425.39zM37.56 10.943c-1.033 0-2.105-.455-2.91-1.31l.697-.627c.956 1.017 2.382 1.308 3.388.693 1.129-.69 1.358-2.213.615-4.072l.88-.338c1.087 2.717.2 4.465-.993 5.195-.507.31-1.086.46-1.677.46"/><path fill="#CBCFD2" d="M34.725 8.277c-1.291-2.394-2.818-4.07-5.172-5.325.74.8 1.39 1.691 1.921 2.678 3.91 7.25.196 16.682-8.298 21.066-5.688 2.937-12.074 2.86-16.848.315 4.7 5.076 12.909 5.607 20.246 1.82 8.493-4.386 12.06-13.304 8.15-20.554"/><path fill="#35444C" d="M4.336 19.905c-.54 0-.99.15-1.311.446-1.128 1.037-.431 3.63 1.521 5.664.993 1.033 2.156 1.783 3.277 2.11 1.031.302 1.887.205 2.406-.272.52-.478.672-1.306.428-2.333-.265-1.115-.957-2.297-1.95-3.331-.992-1.033-2.156-1.783-3.276-2.111a3.931 3.931 0 0 0-1.095-.173m4.585 9.319c-.427 0-.886-.07-1.37-.212-1.277-.373-2.59-1.213-3.694-2.364-2.383-2.481-3.033-5.544-1.48-6.972.776-.713 1.956-.886 3.325-.485 1.278.374 2.59 1.213 3.695 2.364 1.105 1.15 1.88 2.485 2.182 3.756.324 1.36.074 2.503-.703 3.216-.502.462-1.173.697-1.955.697"/><path fill="#FFF" d="M9.015 28.986c-1.34 1.231-4.183.399-6.35-1.86-2.17-2.257-2.84-5.085-1.501-6.317 1.34-1.231 4.183-.4 6.351 1.859 2.168 2.257 2.84 5.086 1.5 6.318"/><g transform="translate(0 19.626)"><mask id="b" fill="#fff"><use xlink:href="#a"/></mask><path fill="#35444C" d="M2.798 1.076c-.527 0-.98.142-1.31.445-.52.477-.672 1.305-.429 2.331.265 1.115.957 2.299 1.95 3.332 1.951 2.033 4.553 2.874 5.683 1.839.52-.479.671-1.307.428-2.333-.265-1.115-.957-2.298-1.95-3.331-1.383-1.44-3.092-2.283-4.372-2.283m4.574 9.32c-1.553 0-3.46-.919-5.053-2.578C1.214 6.668.44 5.334.138 4.062-.185 2.702.064 1.56.84.846 2.394-.582 5.478.243 7.86 2.726c1.105 1.149 1.88 2.483 2.181 3.755.324 1.36.074 2.502-.702 3.216-.514.473-1.197.7-1.967.7" mask="url(#b)"/></g><path fill="#35444C" d="M6.294 26.928c-.352-.01-.623-.5-.603-1.093.019-.593.32-1.065.671-1.054.352.01.621.5.602 1.093-.018.593-.319 1.065-.67 1.054M3.453 25.3c-.352-.01-.622-.5-.603-1.093.02-.593.32-1.065.671-1.054.352.01.622.5.603 1.093-.02.593-.32 1.065-.671 1.054m13.604 6.308c-2.894 0-5.71-.659-8.16-1.98l.457-.81c4.797 2.587 11.106 2.476 16.463-.29 4.007-2.068 7.054-5.341 8.58-9.215 1.517-3.853 1.347-7.84-.48-11.226-1.826-3.386-5.093-5.774-9.2-6.723-4.13-.954-8.611-.34-12.618 1.728l-.441-.819C15.866.101 20.58-.542 24.934.463c4.377 1.012 7.864 3.566 9.82 7.192 1.957 3.627 2.143 7.885.526 11.99-1.609 4.084-4.812 7.529-9.021 9.702-2.915 1.505-6.103 2.26-9.202 2.26"/></g></svg>