<svg xmlns="http://www.w3.org/2000/svg" viewBox="0 0 49.94 47.85"><path fill="#cbcfd2" d="M48.86 21.68a3.59 3.59 0 0 0-2-6.11l-12.08-1.75a1.58 1.58 0 0 1-1.19-.82L28.18 2a3.58 3.58 0 0 0-6.42 0l-5.41 11a1.58 1.58 0 0 1-1.19.87l-12.09 1.7a3.59 3.59 0 0 0-2 6.11l8.75 8.53a1.57 1.57 0 0 1 .46 1.4l-2.07 12A3.53 3.53 0 0 0 9 46.56a3.62 3.62 0 0 0 4.41.87l10.81-5.69a1.67 1.67 0 0 1 1.48 0l10.81 5.69a3.54 3.54 0 0 0 1.67.42 3.6 3.6 0 0 0 2.75-1.29 3.56 3.56 0 0 0 .78-2.91l-2.07-12a1.57 1.57 0 0 1 .46-1.4z"/></svg>