<svg xmlns="http://www.w3.org/2000/svg" width="40" height="46" viewBox="0 0 40 46"><g fill="none" fill-rule="evenodd"><path fill="#CBCFD2" d="M25.775 33.13l1.696 11.18 4.272-2.545s.532-.339.39-1.956c-.14-1.617-1.46-10.969-1.46-10.969l-4.576 2.414s-.675.188-.322 1.875"/><path fill="#FFF" d="M22 0l-5 3-3 5-8-3-5 3c18.667 10 27.667 15 27 15-.667 0-1-3-1-9L22 0z"/><path fill="#CBCFD2" d="M25.422 10.043s1.648 4.22-3.91 5.25l1.001 2.794 10.825 7.858.42.88 4.447-2.312.452-.876-11.21-8.015-2.025-5.579z"/><path fill="#FFF" d="M22.233 17.709l-4.71-13.755a.785.785 0 0 0-1.431-.118l-3.997 7.388a.785.785 0 0 1-.99.351l-9.51-3.918C.899 7.371.238 8.131.622 8.776l7.414 12.436c.095.159.13.345.099.527L6.22 33.04a.78.78 0 0 0 .792.91l9.553-.247a.785.785 0 0 1 .62.278l8.695 10.315c.504.598 1.48.17 1.377-.604l-1.555-11.655a.777.777 0 0 1 .394-.782l7.163-4a.778.778 0 0 0 .078-1.31l-10.825-7.857a.78.78 0 0 1-.28-.378"/><path stroke="#35444C" stroke-width="1.008" d="M22.233 17.709l-4.71-13.755a.785.785 0 0 0-1.431-.118l-3.997 7.388a.785.785 0 0 1-.99.351l-9.51-3.918C.899 7.371.238 8.131.622 8.776l7.414 12.436c.095.159.13.345.099.527L6.22 33.04a.78.78 0 0 0 .792.91l9.553-.247a.785.785 0 0 1 .62.278l8.695 10.315c.504.598 1.48.17 1.377-.604l-1.555-11.655a.777.777 0 0 1 .394-.782l7.163-4a.778.778 0 0 0 .078-1.31l-10.825-7.857a.78.78 0 0 1-.28-.378z"/><path stroke="#35444C" stroke-width="1.008" d="M.764 7.793l5.062-2.82a.766.766 0 0 1 .715-.058l7.315 3.014m17.186 20.582a.778.778 0 0 0-.393.783l1.554 11.655a.763.763 0 0 1-.46.816l-4.79 2.661M16.33 3.575L20.736.762c.872-.516 1.513-.194 1.734.45l4.71 13.754c.051.152.15.284.28.379l10.825 7.858a.778.778 0 0 1-.079 1.31l-4.945 2.742"/></g></svg>