<svg width="128" height="124" xmlns="http://www.w3.org/2000/svg"><g fill="none" fill-rule="evenodd"><path d="M71.022 114.674c0 4.476-5.662 8.105-12.649 8.105-6.985 0-12.647-3.629-12.647-8.105 0-4.477 5.662-8.104 12.647-8.104 6.987 0 12.649 3.627 12.649 8.104" fill="#FFF"/><path d="M71.022 114.674c0 4.476-5.662 8.105-12.649 8.105-6.985 0-12.647-3.629-12.647-8.105 0-4.477 5.662-8.104 12.647-8.104 6.987 0 12.649 3.627 12.649 8.104z" stroke="#35444C"/><path d="M64.707 104.322v8.005c0 2.241-2.835 4.058-6.333 4.058s-6.335-1.817-6.335-4.058v-8.005" fill="#FFF"/><path d="M64.707 104.322v8.005c0 2.241-2.835 4.058-6.333 4.058s-6.335-1.817-6.335-4.058v-8.005" stroke="#35444C"/><path d="M64.707 104.322c0 2.242-2.835 4.059-6.333 4.059s-6.335-1.817-6.335-4.059 2.837-4.058 6.335-4.058c3.498 0 6.333 1.816 6.333 4.058" fill="#FFF"/><path d="M64.707 104.322c0 2.242-2.835 4.059-6.333 4.059s-6.335-1.817-6.335-4.059 2.837-4.058 6.335-4.058c3.498 0 6.333 1.816 6.333 4.058z" stroke="#35444C"/><path d="M54.419 71.643c1.298-6.224 5.613-24.432 5.613-35.402 0-7.072-12.226-12.768-12.858-13.152-.413-.25-3.709-5.659-6.63-5.659-2.92 0-5.088 5.568-3.977 7.047 1.11 1.481 4.787 2.246 8.83 2.742 3.456.423 9.017 6.427 9.511 9.385.496 2.961-4.663 33.558-6.165 35.898-.749 1.162-2.928 4.068-7.102 2.116-4.366-2.042-8.817-4.564-11.964-6.278-8.133-4.43-11.5-16.411-13.563-30.803-.636-4.44-3.668-27.673-1.268-27.861 2.398-.19 4.833 1.608 5.423 2.359.491 1.417 1.966 4.977 5.919 5.328 2.386.212 5.301-3.025 4.06-5.774-1.529-3.392-5.383-3.432-8.027-3.195-1.213-.788-7.899-6.227-11.475-2.995-2.322 2.097-1.44 16.905.464 31.982 3.007 23.793 9.916 32.126 16.751 35.69 2.04 1.062 10.839 5.72 12.897 6.503 4.594 1.75 11.889.083 13.56-7.93" fill="#FFF"/><path d="M54.419 71.643c1.298-6.224 5.613-24.432 5.613-35.402 0-7.072-12.226-12.768-12.858-13.152-.413-.25-3.709-5.659-6.63-5.659-2.92 0-5.088 5.568-3.977 7.047 1.11 1.481 4.787 2.246 8.83 2.742 3.456.423 9.017 6.427 9.511 9.385.496 2.961-4.663 33.558-6.165 35.898-.749 1.162-2.928 4.068-7.102 2.116-4.366-2.042-8.817-4.564-11.964-6.278-8.133-4.43-11.5-16.411-13.563-30.803-.636-4.44-3.668-27.673-1.268-27.861 2.398-.19 4.833 1.608 5.423 2.359.491 1.417 1.966 4.977 5.919 5.328 2.386.212 5.301-3.025 4.06-5.774-1.529-3.392-5.383-3.432-8.027-3.195-1.213-.788-7.899-6.227-11.475-2.995-2.322 2.097-1.44 16.905.464 31.982 3.007 23.793 9.916 32.126 16.751 35.69 2.04 1.062 10.839 5.72 12.897 6.503 4.594 1.75 11.889.083 13.56-7.93z" stroke="#35444C"/><path d="M34.214 76.189c0 1.203.957 10.326-4.592 10.979-8.308.976-13.439-6.087-20.67-5.467-7.795.669-14.348 12.394 5.525 16.836C26.379 101.2 44.366 100.5 51 107.334M47.208 27.78a2.052 2.052 0 0 1 1.966-3.601M20.255 11.967c-.861-.597-1.038-1.833-.395-2.76.64-.929 1.86-1.197 2.722-.6" stroke="#35444C"/><path d="M112.492 59.26l8.873-4.54c3.866-2.192 6.032-6.324 6.032-12.957 0-19.067-16.444-33.084-22.75-36.727C97.233.756 90.666-.121 86.69 2.135l-8.886 4.853 6.048 25.16 10.646-6.293 5.866 6.697 12.127 26.708" fill="#FFF"/><path d="M83.339 32.551l10.503-6.148" stroke="#35444C"/><path d="M88.002 72.686l5.965-3.383 8.634.128c4.026 2.878 7.186 8.701 7.223 13.55.02 2.664-.902 4.531-2.402 5.384l-8.287 4.612c1.5-.85 2.423-2.717 2.404-5.382-.04-5.23-3.714-11.59-8.186-14.172" fill="#FFF"/><path d="M88.002 72.686l5.965-3.383 8.634.128c4.026 2.878 7.186 8.701 7.223 13.55.02 2.664-.902 4.531-2.402 5.384l-8.287 4.612c1.5-.85 2.423-2.717 2.404-5.382-.04-5.23-3.714-11.59-8.186-14.172" stroke="#35444C"/><path d="M93.354 73.424c4.472 2.582 8.144 8.942 8.183 14.17.042 5.236-3.562 7.395-8.036 4.814-4.466-2.58-8.138-8.94-8.18-14.177-.039-5.227 3.567-7.386 8.033-4.807" fill="#FFF"/><path d="M93.354 73.424c4.472 2.582 8.144 8.942 8.183 14.17.042 5.236-3.562 7.395-8.036 4.814-4.466-2.58-8.138-8.94-8.18-14.177-.039-5.227 3.567-7.386 8.033-4.807z" stroke="#35444C"/><path d="M108.647 61.609c-.515.767-.768 1.764-.827 3.252-.04 1.124-.407 1.886-1.004 2.224l-7.476 4.26c.597-.34.964-1.1 1.003-2.223.11-2.772.892-3.833 2.777-4.904" fill="#CBCFD2"/><path d="M108.647 61.609c-.515.767-.768 1.764-.827 3.252-.04 1.124-.407 1.886-1.004 2.224l-7.476 4.26c.597-.34.964-1.1 1.003-2.223.11-2.772.892-3.833 2.777-4.904m9.372-4.958l8.873-4.54c3.866-2.192 6.032-6.324 6.032-12.957 0-19.067-16.444-33.084-22.75-36.727C97.233.756 90.666-.121 86.69 2.135l-8.886 4.853" stroke="#35444C"/><path d="M111.454 24.758c4.858 6.978 7.458 14.555 7.515 21.912.071 9.227-5.81 12.679-11.787 15.555-.611.3-1.176.562-1.698.815-3.629 1.716-4.99 2.354-5.14 6.08-.078 2.228-1.445 3.03-3.33 1.943l-6.781-3.914c-.972-.563-1.858-1.493-2.497-2.632-.661-1.188-1.008-2.492-.974-3.673.262-7.717 2.148-10.198 10.644-13.951 2.883-1.302 4.155-3.29 4.13-6.473-.048-6.229-3.11-11.406-8.625-14.592-5.163-2.981-8.6-1.1-8.553 4.674.013 2.02-1.475 2.803-3.33 1.732l-7.537-4.352c-1.991-1.151-3.445-3.825-3.464-6.358C69.917 7.29 81.135 1.589 95.08 9.638c6.308 3.642 12.126 9.013 16.375 15.12" fill="#FFF"/><path d="M111.454 24.758c4.858 6.978 7.458 14.555 7.515 21.912.071 9.227-5.81 12.679-11.787 15.555-.611.3-1.176.562-1.698.815-3.629 1.716-4.99 2.354-5.14 6.08-.078 2.228-1.445 3.03-3.33 1.943l-6.781-3.914c-.972-.563-1.858-1.493-2.497-2.632-.661-1.188-1.008-2.492-.974-3.673.262-7.717 2.148-10.198 10.644-13.951 2.883-1.302 4.155-3.29 4.13-6.473-.048-6.229-3.11-11.406-8.625-14.592-5.163-2.981-8.6-1.1-8.553 4.674.013 2.02-1.475 2.803-3.33 1.732l-7.537-4.352c-1.991-1.151-3.445-3.825-3.464-6.358C69.917 7.29 81.135 1.589 95.08 9.638c6.308 3.642 12.126 9.013 16.375 15.12z" stroke="#35444C"/><path d="M108.104 76.247l-2.428-4.038c.15.517.705 1.681.705 2.249 0 3.261-3.096 5.276-6.358 5.276a5.9 5.9 0 0 1-1.109-.113c4.761 7.922 1.254 12.504 1.254 12.504l8.078-4.405s1.245-.572 1.535-4.226c.312-3.93-1.677-7.247-1.677-7.247" fill="#CBCFD2"/><path d="M102.6 69.43c4.027 2.88 7.187 8.703 7.227 13.55.018 2.666-.905 4.534-2.405 5.383l-8.287 4.615c1.502-.852 2.423-2.72 2.404-5.384-.04-5.228-3.714-11.588-8.186-14.17" stroke="#35444C"/><path d="M120.658 20.912c-.037 1.976-.792 3.751-2.267 4.865-1.477 1.116-3.397 1.355-5.31.843 1.787 2.745 3.826 6.689 5.18 11.88 2.889 11.093-3.233 19.463-3.233 19.463s4.004-2.049 7.43-3.948c3.426-1.902 4.728-6.351 4.728-15.989 0-5.958-3.703-12.775-6.528-17.114M59.465 37.411c-.019 1.975-3.597 4.353-4.677 3.838 1.008 2.747-3.555 23.766-4.71 28.883-1.955 8.655-10.316 7.904-10.316 7.904s5.237 4.398 12.582-1.675c2.09-1.725 3.765-11.486 5.237-21.01 1.047-6.773 3.478-13.601 1.884-17.94" fill="#CBCFD2"/><path d="M104.646 5.036c6.307 3.64 22.75 17.658 22.75 36.727 0 6.633-2.165 10.766-6.03 12.957l-8.874 4.54" stroke="#35444C"/><path d="M111.454 24.758c4.858 6.978 7.458 14.555 7.515 21.912.071 9.227-5.81 12.679-11.787 15.555M47.175 23.09c.63.384 12.858 6.078 12.858 13.152 0 10.968-4.316 29.175-5.614 35.402-1.672 8.014-8.967 9.681-13.56 7.93l-6.243-2.969" stroke="#35444C"/><path d="M45.397 27.219c3.455.424 9.018 6.426 9.512 9.385.496 2.96-4.663 33.56-6.165 35.897-.749 1.163-2.929 4.068-7.102 2.116" stroke="#35444C"/><path d="M52.763 113.67c7.61.034 10.366-2.687 11.623-5.166v5.166s-.768 2.687-5.41 2.687-6.213-2.687-6.213-2.687" fill="#CBCFD2"/><path d="M64.707 108.016v4.31c0 2.243-2.835 4.06-6.333 4.06s-6.335-1.817-6.335-4.06" stroke="#35444C"/></g></svg>