<svg width="57" height="72" xmlns="http://www.w3.org/2000/svg" xmlns:xlink="http://www.w3.org/1999/xlink"><defs><path id="a" d="M0 52.597L44.692 78.4l.146-51.355L.146 1.242"/><path id="c" d="M0 52.597L44.692 78.4l.146-51.355L.146 1.242z"/><path id="e" d="M0 52.597L44.692 78.4l.146-51.355L.146 1.242z"/><path id="g" d="M0 52.597L44.692 78.4l.146-51.355L.146 1.242z"/><path id="i" d="M0 52.597L44.692 78.4l.146-51.355L.146 1.242z"/><path id="k" d="M0 52.597L44.692 78.4l.146-51.355L.146 1.242z"/><path id="m" d="M0 52.597L44.692 78.4l.146-51.355L.146 1.242z"/><path id="o" d="M0 52.597L44.692 78.4l.146-51.355L.146 1.242z"/><path id="q" d="M0 52.597L44.692 78.4l.146-51.355L.146 1.242z"/><path id="s" d="M0 52.597L44.692 78.4l.146-51.355L.146 1.242z"/><path id="u" d="M0 52.597L44.692 78.4l.146-51.355L.146 1.242z"/><path id="w" d="M0 52.597L44.692 78.4l.146-51.355L.146 1.242z"/><path id="y" d="M0 52.597L44.692 78.4l.146-51.355L.146 1.242z"/><path id="A" d="M0 52.597L44.692 78.4l.146-51.355L.146 1.242z"/><path id="C" d="M0 52.597L44.692 78.4l.146-51.355L.146 1.242z"/><path id="E" d="M0 52.597L44.692 78.4l.146-51.355L.146 1.242z"/><path id="G" d="M0 52.597L44.692 78.4l.146-51.355L.146 1.242z"/><path id="I" d="M0 52.597L44.692 78.4l.146-51.355L.146 1.242z"/><path id="K" d="M0 52.597L44.692 78.4l.146-51.355L.146 1.242z"/></defs><g fill="none" fill-rule="evenodd"><path d="M33.827 11.29c11.94 6.893 21.743 23.875 21.853 37.83.09 11.52-6.389 14.646-14.05 17.072-1.88.595-5.305-3.009-7.408-4.223-11.923-6.883-21.725-23.864-21.835-37.843-.028-3.587-3.633-7.911-1.596-9.653 5.696-4.868 14.178-8.298 23.036-3.184" fill="#FFF"/><path d="M51.752 32.983c-.12 6.932-5.572 9.53-8.677 9.979 4.973 11.637-.511 23.23-.511 23.23l8.911-4.782s2.087-2.31 2.695-4.46c3.665-12.994-2.418-23.967-2.418-23.967" fill="#CBCFD2"/><path d="M18.643 9.295c3.871-2.223 9.191-1.905 15.072 1.49 11.941 6.895 21.744 23.876 21.853 37.83.057 7.373-2.593 12.46-6.861 14.611" stroke="#35444C" stroke-width="1.4"/><path d="M23.268 16.88c11.942 6.895 21.744 23.876 21.853 37.83.109 13.981-9.516 19.745-21.458 12.85C11.741 60.678 1.938 43.696 1.829 29.717c-.11-13.957 9.517-19.72 21.44-12.837" fill="#FFF"/><path d="M23.268 16.88c11.942 6.895 21.744 23.876 21.853 37.83.109 13.981-9.516 19.745-21.458 12.85C11.741 60.678 1.938 43.696 1.829 29.717c-.11-13.957 9.517-19.72 21.44-12.837zm15.661 52.073l10.616-6.2M8.011 15.49l10.616-6.199" stroke="#35444C" stroke-width="1.4"/><g transform="translate(.8 2.436)"><mask id="b" fill="#fff"><use xlink:href="#a"/></mask><path d="M22.492 14.143C10.175 7.031.113 12.756.072 26.918c-.039 14.154 9.957 31.47 22.275 38.58 12.325 7.118 22.379 1.378 22.42-12.775.038-14.165-9.95-31.463-22.275-38.58m-.495.863v-.581l.994.572-.002.581c2.536 1.532 4.962 3.513 7.203 5.81l.195-.422.92.971-.195.424c2.267 2.467 4.325 5.256 6.091 8.224l.364-.207.705 1.22-.364.206c1.687 3.016 3.071 6.187 4.07 9.376l.466.048.38 1.28-.466-.048c.865 3.084 1.36 6.164 1.411 9.111l.507.293-.004 1.14-.507-.293c-.066 2.884-.577 5.387-1.457 7.464l.465.492-.387.836-.465-.489c-1.013 2.024-2.412 3.592-4.11 4.652l.363.627-.709.404-.361-.628c-1.778.923-3.846 1.33-6.118 1.176l.19.646-.922-.101-.188-.636c-2.248-.294-4.68-1.117-7.215-2.514l-.003.573-.991-.574v-.572c-2.539-1.533-4.97-3.515-7.215-5.818l-.191.417-.919-.963.193-.423a50.037 50.037 0 0 1-6.091-8.225l-.364.209-.703-1.22.364-.207c-1.687-3.013-3.071-6.186-4.071-9.376l-.465-.047-.372-1.274.459.045c-.868-3.087-1.364-6.173-1.413-9.126l-.497-.287.003-1.14.497.288c.067-2.88.58-5.38 1.459-7.457l-.456-.483.378-.841.464.489c1.014-2.026 2.411-3.593 4.11-4.653l-.362-.625.709-.405.36.626c1.779-.92 3.847-1.327 6.119-1.175l-.19-.645.92.09.192.646c2.25.294 4.683 1.12 7.222 2.519" fill="#35444C" mask="url(#b)"/></g><g transform="translate(.8 2.436)"><mask id="d" fill="#fff"><use xlink:href="#c"/></mask><path fill="#35444C" mask="url(#d)" d="M22.991 14.997L22 14.425l-.002.58-.02 7 .992.572.02-6.997z"/></g><g transform="translate(.8 2.436)"><mask id="f" fill="#fff"><use xlink:href="#e"/></mask><path fill="#35444C" mask="url(#f)" d="M7.374 12.945l-.709.405.362.625 4.29 7.419.698-.409-4.28-7.414z"/></g><g transform="translate(.8 2.436)"><mask id="h" fill="#fff"><use xlink:href="#g"/></mask><path d="M15.813 26.747l-1.407.814 7.092 12.285 1.676-.34-7.361-12.759zm8.072 13.992l-1.676.339.392.679 1.409-.802-.125-.216z" fill="#35444C" mask="url(#h)"/></g><g transform="translate(.8 2.436)"><mask id="j" fill="#fff"><use xlink:href="#i"/></mask><path fill="#35444C" mask="url(#j)" d="M7.163 30.436l-6.09-3.515-.499-.289-.003 1.141.497.287 6.092 3.516z"/></g><g transform="translate(.8 2.436)"><mask id="l" fill="#fff"><use xlink:href="#k"/></mask><path fill="#35444C" mask="url(#l)" d="M11.248 45.387l-4.316 2.45-.366.207.704 1.22.364-.208 4.31-2.465z"/></g><g transform="translate(.8 2.436)"><mask id="n" fill="#fff"><use xlink:href="#m"/></mask><path fill="#35444C" mask="url(#n)" d="M22.87 57.642l-.992-.572-.02 6.997-.001.573.99.572.004-.57z"/></g><g transform="translate(.8 2.436)"><mask id="p" fill="#fff"><use xlink:href="#o"/></mask><path fill="#35444C" mask="url(#p)" d="M33.532 58.253l-.709.393 4.28 7.423.363.627.707-.403-.362-.627z"/></g><g transform="translate(.8 2.436)"><mask id="r" fill="#fff"><use xlink:href="#q"/></mask><path fill="#35444C" mask="url(#r)" d="M44.276 51.863l-.507-.292-6.09-3.516-.003 1.14 6.09 3.515.507.293z"/></g><g transform="translate(.8 2.436)"><mask id="t" fill="#fff"><use xlink:href="#s"/></mask><path fill="#35444C" mask="url(#t)" d="M37.567 30.378l-.364.207-4.307 2.456.704 1.218 4.308-2.454.364-.208z"/></g><g transform="translate(.8 2.436)"><mask id="v" fill="#fff"><use xlink:href="#u"/></mask><path fill="#35444C" mask="url(#v)" d="M14.584 11.841l-.922-.09.19.644 1.06 3.576.922.1-1.059-3.583z"/></g><g transform="translate(.8 2.436)"><mask id="x" fill="#fff"><use xlink:href="#w"/></mask><path fill="#35444C" mask="url(#x)" d="M2.453 18.139l-.38.841.458.483 2.577 2.72.388-.835-2.579-2.72z"/></g><g transform="translate(.8 2.436)"><mask id="z" fill="#fff"><use xlink:href="#y"/></mask><path fill="#35444C" mask="url(#z)" d="M5.066 37.446l-2.585-.26-.459-.047.373 1.274.464.05 2.588.262z"/></g><g transform="translate(.8 2.436)"><mask id="B" fill="#fff"><use xlink:href="#A"/></mask><path fill="#35444C" mask="url(#B)" d="M14.802 54.929l-1.077 2.352-.193.422.92.964.19-.418 1.08-2.347z"/></g><g transform="translate(.8 2.436)"><mask id="D" fill="#fff"><use xlink:href="#C"/></mask><path fill="#35444C" mask="url(#D)" d="M29.926 63.66l-.922-.089 1.062 3.583.188.637.922.1-.19-.645z"/></g><g transform="translate(.8 2.436)"><mask id="F" fill="#fff"><use xlink:href="#E"/></mask><path fill="#35444C" mask="url(#F)" d="M39.729 57.459l-.378.841 2.57 2.713.465.49.387-.836-.465-.49z"/></g><g transform="translate(.8 2.436)"><mask id="H" fill="#fff"><use xlink:href="#G"/></mask><path fill="#35444C" mask="url(#H)" d="M42.444 41.227l-.467-.046-2.577-.26.372 1.275 2.586.263.466.05z"/></g><g transform="translate(.8 2.436)"><mask id="J" fill="#fff"><use xlink:href="#I"/></mask><path fill="#35444C" mask="url(#J)" d="M30.387 20.965l-.195.424-1.075 2.35.92.964 1.075-2.342.195-.423z"/></g><g transform="translate(.8 2.436)"><mask id="L" fill="#fff"><use xlink:href="#K"/></mask><path fill="#35444C" mask="url(#L)" d="M37.254 36.647l-14.08 2.859-1.675.34-.79.16.552 1.265.949-.193 1.676-.339 13.928-2.822z"/></g><g><path d="M30.101 10.19c0 1.087-1.373 1.968-3.068 1.968-1.696 0-3.07-.88-3.07-1.967 0-1.086 1.374-1.967 3.07-1.967 1.695 0 3.068.88 3.068 1.967" fill="#FFF"/><path d="M30.101 10.19c0 1.087-1.373 1.968-3.068 1.968-1.696 0-3.07-.88-3.07-1.967 0-1.086 1.374-1.967 3.07-1.967 1.695 0 3.068.88 3.068 1.967z" stroke="#35444C" stroke-width="1.4"/><path d="M30.499 9.794v2.868c0 1.087-1.375 1.967-3.07 1.967-1.696 0-3.07-.88-3.07-1.967V9.794" fill="#CBCFD2"/><path d="M30.499 9.794v2.868c0 1.087-1.375 1.967-3.07 1.967-1.696 0-3.07-.88-3.07-1.967V9.794" stroke="#35444C" stroke-width="1.4"/><path d="M32.247 4.588V9.09c0 1.705-2.157 3.088-4.819 3.088-2.661 0-4.817-1.383-4.817-3.088V4.588" fill="#FFF"/><path d="M32.247 4.588V9.09c0 1.705-2.157 3.088-4.819 3.088-2.661 0-4.817-1.383-4.817-3.088V4.588" stroke="#35444C" stroke-width="1.4"/><path d="M32.247 4.588c0 1.705-2.157 3.088-4.819 3.088-2.661 0-4.817-1.383-4.817-3.088 0-1.706 2.156-3.089 4.817-3.089 2.662 0 4.82 1.383 4.82 3.089" fill="#FFF"/><path d="M32.247 4.588c0 1.705-2.157 3.088-4.819 3.088-2.661 0-4.817-1.383-4.817-3.088 0-1.706 2.156-3.089 4.817-3.089 2.662 0 4.82 1.383 4.82 3.089z" stroke="#35444C" stroke-width="1.4"/><path d="M23.475 10.361c5.499.021 7.492-1.638 8.4-3.148v3.148S31.32 12 27.965 12s-4.49-1.638-4.49-1.638" fill="#CBCFD2"/><path d="M32.247 4.588V9.09c0 1.705-2.157 3.088-4.819 3.088-2.661 0-4.817-1.383-4.817-3.088V4.588" stroke="#35444C" stroke-width="1.4"/></g></g></svg>