<svg xmlns="http://www.w3.org/2000/svg" xmlns:xlink="http://www.w3.org/1999/xlink" width="65" height="63" viewBox="0 0 65 63"><defs><path id="a" d="M.206 13.644c0 7.397 7.406 13.394 16.543 13.394s16.545-5.997 16.545-13.394S25.886.251 16.749.251.206 6.247.206 13.644z"/><path id="c" d="M.206 13.644c0 7.397 7.406 13.394 16.543 13.394s16.545-5.997 16.545-13.394S25.886.251 16.749.251.206 6.247.206 13.644z"/><path id="e" d="M.206 13.644c0 7.397 7.406 13.394 16.543 13.394s16.545-5.997 16.545-13.394S25.886.251 16.749.251.206 6.247.206 13.644z"/></defs><g fill="none" fill-rule="evenodd"><path fill="#FFF" d="M51 43l-1-4h-3l-2 3 3 3zm9 8l-2-3h-3l-1 4 3 2 3-3zm1-15l-3 2v3l3 1 2-3zM39 6l-5-1L9 37c3.603 6.594 6.603 11.26 9 14 2.397 2.74 6.397 6.073 12 10l5-6c.667-10.667 1.667-18 3-22s5-6.333 11-7l5-15-5-5H39z"/><path stroke="#35444C" stroke-width=".99" d="M38.983 28.843C32.19 49.7 36.32 60.037 36.32 60.037c-.175 1.23-1.23 2.25-2.75 2.25-.664 0-1.495-.548-2.222-.923l-.004-.006S16.672 53.865 6.888 33.722"/><path fill="#FFF" d="M38.983 28.843c0-7.44-7.45-13.473-16.64-13.473-9.191 0-16.642 6.032-16.642 13.473 0 2.953 1.175 5.683 3.166 7.902"/><path stroke="#525252" stroke-width=".99" d="M38.983 28.843c0-7.44-7.45-13.473-16.64-13.473-9.191 0-16.642 6.032-16.642 13.473 0 2.953 1.175 5.683 3.166 7.902"/><path stroke="#35444C" stroke-width=".99" d="M38.806 28.764c0 7.397-7.407 13.393-16.545 13.393-9.137 0-16.543-5.996-16.543-13.393S13.124 15.37 22.261 15.37c9.138 0 16.545 5.997 16.545 13.394z"/><g transform="translate(5.512 15.12)"><mask id="b" fill="#fff"><use xlink:href="#a"/></mask><path stroke="#35444C" stroke-width=".99" d="M32.758 18.66c0 6.626-6.635 11.999-14.822 11.999-8.185 0-14.82-5.373-14.82-12S9.75 6.66 17.935 6.66c8.187 0 14.822 5.372 14.822 12z" mask="url(#b)"/></g><g transform="translate(5.512 15.12)"><mask id="d" fill="#fff"><use xlink:href="#c"/></mask><path stroke="#35444C" stroke-width=".99" d="M32.14 24.586c0 5.567-5.574 10.08-12.451 10.08-6.877 0-12.452-4.513-12.452-10.08 0-5.568 5.575-10.08 12.452-10.08s12.451 4.512 12.451 10.08z" mask="url(#d)"/></g><g transform="translate(5.512 15.12)"><mask id="f" fill="#fff"><use xlink:href="#e"/></mask><path stroke="#35444C" stroke-width=".99" d="M31.555 29.52c0 4.606-4.612 8.34-10.302 8.34-5.69 0-10.302-3.734-10.302-8.34 0-4.607 4.612-8.34 10.302-8.34 5.69 0 10.302 3.733 10.302 8.34z" mask="url(#f)"/></g><path stroke="#35444C" stroke-width=".99" d="M16.672 51.46C7.74 51.46.496 45.596.496 38.364m44.792 8.881c0 4.42-2.936 8.003-6.559 8.003"/><path fill="#CBCFD2" d="M26.57 57.304c-.119 0-1.04-.088-1.16-.09 3.66 3.248 5.934 4.145 5.934 4.145l.004.006c.623.413 1.31.922 2.222.922 1.519 0 2.574-1.02 2.75-2.25 0 0-1.462-3.005-1.217-7.806-2.176 4.178-4.36 5.073-8.532 5.073"/><path stroke="#35444C" stroke-width=".99" d="M36.269 39.199c-.977 5.04-6.365 8.894-12.865 8.894-4.722 0-8.857-2.034-11.14-5.08m22.905 4.64c0 3.9-3.906 7.062-8.724 7.062-2.803 0-5.298-1.07-6.894-2.734m15.618 1.655c0 2.65-2.654 4.799-5.928 4.799-1.702 0-3.235-.58-4.317-1.51"/><path fill="#FFF" d="M34.991 24.57c-5.388 0-9.757-4.342-9.757-9.698 0-5.356 4.369-9.697 9.757-9.697"/><path stroke="#525252" stroke-width=".99" d="M34.991 24.57c-5.388 0-9.757-4.342-9.757-9.698 0-5.356 4.369-9.697 9.757-9.697"/><path stroke="#35444C" stroke-width=".99" d="M30.75 23.608c-3.265-1.569-5.516-4.891-5.516-8.736 0-5.356 4.368-9.697 9.757-9.697 1.62 0 3.147.391 4.492 1.085"/><path fill="#FFF" d="M36.32 9.606c0-5.033 4.104-9.113 9.168-9.113 5.063 0 9.169 4.08 9.169 9.113"/><path stroke="#525252" stroke-width=".99" d="M36.32 9.606c0-5.033 4.104-9.113 9.168-9.113 5.063 0 9.169 4.08 9.169 9.113"/><path stroke="#35444C" stroke-width=".99" d="M36.32 9.606c0-5.033 4.104-9.113 9.168-9.113 5.063 0 9.169 4.08 9.169 9.113"/><path fill="#FFF" d="M52.912 9.706c5.854 0 10.6 4.717 10.6 10.536 0 5.818-4.746 10.535-10.6 10.535a10.605 10.605 0 0 1-8.717-4.54"/><path stroke="#525252" stroke-width=".99" d="M52.912 9.706c5.854 0 10.6 4.717 10.6 10.536 0 5.818-4.746 10.535-10.6 10.535a10.605 10.605 0 0 1-8.717-4.54"/><path fill="#CBCFD2" d="M61.918 14.872c.507 1.628.763 2.368.401 4.155-1.154 5.705-6.743 9.399-12.482 8.251-2.75-.55-5.174-1.08-6.682-3.186 1.112 3.565 3.81 5.638 7.75 6.426 5.74 1.147 11.133-2.265 12.287-7.97.602-2.97.364-5.388-1.274-7.676m.556 22.098c.194.388.289.564.27 1.027a2.69 2.69 0 0 1-2.799 2.575c-.713-.027-1.343-.063-1.807-.531.424.85 1.345 1.557 2.367 1.597 1.489.056 2.545-1.312 2.603-2.792.03-.77-.129-1.368-.634-1.877M50.34 39.784c.193.388.287.564.27 1.027a2.69 2.69 0 0 1-2.8 2.576c-.713-.028-1.343-.063-1.808-.532.424.85 1.346 1.558 2.368 1.597 1.488.057 2.545-1.312 2.602-2.791.03-.77-.128-1.368-.633-1.877m8.148 8.204c.258.35.38.507.443.966a2.685 2.685 0 0 1-2.314 3.014c-.708.094-1.335.166-1.873-.216.564.766 1.594 1.305 2.607 1.17 1.477-.197 2.282-1.725 2.084-3.192-.103-.765-.362-1.327-.947-1.742"/><path stroke="#35444C" stroke-width=".99" d="M48.535 10.643a10.618 10.618 0 0 1 4.377-.937c5.854 0 10.6 4.717 10.6 10.536 0 5.818-4.746 10.535-10.6 10.535a10.607 10.607 0 0 1-8.717-4.54"/><path fill="#FFF" d="M47.118 26.363a10.253 10.253 0 0 1-9.61 6.632c-5.662 0-10.251-4.562-10.251-10.19a10.13 10.13 0 0 1 3.125-7.325"/><path stroke="#525252" stroke-width=".99" d="M47.118 26.363a10.253 10.253 0 0 1-9.61 6.632c-5.662 0-10.251-4.562-10.251-10.19a10.13 10.13 0 0 1 3.125-7.325"/><path fill="#CBCFD2" d="M47.118 24.67c-1.116 5.516-7.168 7.05-12.72 5.94a10.217 10.217 0 0 1-6.326-4.08c1.075 3.447 3.685 5.452 7.496 6.214 5.55 1.11 11.344-2.103 12.461-7.62.582-2.873-.561-2.183-.911-.454"/><path stroke="#35444C" stroke-width=".99" d="M47.118 26.363a10.253 10.253 0 0 1-9.61 6.632c-5.662 0-10.251-4.562-10.251-10.19a10.12 10.12 0 0 1 2.854-7.054m17.766 29.097l-1.284-1.297-1.327-1.253 1.633-3.257 3.621.538.604 3.59zm7.06 3.145l1.828-.092 1.825-.153 1.363 3.378-2.811 2.332-3.1-1.937zm6.733-6.048l-1.77-.467-1.784-.406-.262-3.63 3.391-1.37 2.36 2.783zm-30.322 19.42l-.004-.006S16.672 53.865 6.889 33.722m28.198 15.939c-.144 6.93 1.233 10.376 1.233 10.376-.176 1.23-1.231 2.25-2.75 2.25-.664 0-1.495-.548-2.221-.923"/></g></svg>