<svg id="Layer_1" xmlns="http://www.w3.org/2000/svg" viewBox="0 0 24 24"><style>.st0{opacity:.1}.st0,.st1{fill:#00cb66}</style><path class="st0" d="M12 0C5.4 0 0 5.4 0 12s5.4 12 12 12 12-5.4 12-12S18.6 0 12 0zm4.3 10l-5.2 5.6-.7.7-.7-.7-2.1-2.1-.6-.7 1.3-1.3.7.7 1.4 1.4L15 8.7l.6-.7L17 9.3l-.7.7z"/><title>atoms / icon / success</title><g id="atoms-_x2F_-icon-_x2F_-success"><g id="colors-_x2F_-accent-green_1_" transform="translate(7 8)"><g id="Mask_1_"><path id="path-3_1_" class="st1" d="M8.6 0L8 .7 3.4 5.5 2 4.2l-.7-.7L0 4.8l.7.7 2 2.1.7.7.7-.7L9.3 2l.7-.7z"/></g></g></g></svg>