<svg width="46" height="44" xmlns="http://www.w3.org/2000/svg" xmlns:xlink="http://www.w3.org/1999/xlink"><defs><path id="a" d="M.56.19h15.364v35.615H.56z"/></defs><g fill="none" fill-rule="evenodd"><path d="M6.121 18.187l-.747-.51-3.947 2.29s-.926.996-.387 1.32c.37-.252.739-.583 1.964.191 1.224.774 6.685 3.935 6.685 3.935l.093-1.582-5.705-3.456s-.701-.594.282-1.12a19.546 19.546 0 0 0 1.762-1.068" fill="#FFF"/><path d="M11.156 32.277c.567-.061 2.4-.432 4.02-1.526a62.382 62.382 0 0 0 3.261-2.39l-.1-2.736s-1.844 1.439-3.464.933c-1.622-.507-5.77-3.177-6.86-3.756" fill="#FFF"/><path d="M11.156 32.277c.567-.061 2.4-.432 4.02-1.526a62.382 62.382 0 0 0 3.261-2.39l-.1-2.736s-1.844 1.439-3.464.933c-1.622-.507-5.77-3.177-6.86-3.756" stroke="#35444C" stroke-linecap="round" stroke-linejoin="round"/><path d="M10.213 36.871c-.24 1.645-1.768 2.523-3.413 1.96-1.645-.562-2.785-2.352-2.545-3.997.24-1.645 1.767-2.523 3.412-1.96 1.645.562 2.785 2.352 2.546 3.997" fill="#FFF"/><path d="M10.213 36.871c-.24 1.645-1.768 2.523-3.413 1.96-1.645-.562-2.785-2.352-2.545-3.997.24-1.645 1.767-2.523 3.412-1.96 1.645.562 2.785 2.352 2.546 3.997z" stroke="#35444C"/><path d="M12.882 29.253c1.802-.242 4.515-1.152 5.35-1.71v.966s-3.492 2.694-4.217 2.973c-.725.279-1.635.427-1.635.427s.576-1.356.502-2.656" fill="#CBCFD2"/><path d="M6.022 25.72s-1.809 4.305-1.3 4.686c.406.304 3.857-.316 3.857-.316" fill="#FFF"/><path d="M6.022 25.72s-1.809 4.305-1.3 4.686c.406.304 3.857-.316 3.857-.316" stroke="#35444C" stroke-linecap="round" stroke-linejoin="round"/><path d="M2.573 21.294l8.586 4.97s1.783.826 1.783 3.65c0 2.823-2.425 2.666-3.923 1.813-1.608-.914-1.244-5.334-2.798-5.96-1.661-.668-1.4 3.15-2.56 2.773-1.795-.584-4.266-8.85-1.088-7.246" fill="#FFF"/><path d="M2.573 21.294l8.586 4.97s1.783.826 1.783 3.65c0 2.823-2.425 2.666-3.923 1.813-1.608-.914-1.244-5.334-2.798-5.96-1.661-.668-1.4 3.15-2.56 2.773-1.795-.584-4.266-8.85-1.088-7.246z" stroke="#35444C" stroke-linecap="round" stroke-linejoin="round"/><path d="M8.014 22.803c-1.02-.541-4.872-2.572-4.487-3.099.385-.526 2.87-1.517 2.87-1.517v1.905s-1.463.546-1.284 1.054" fill="#FFF"/><path d="M8.014 22.803c-1.02-.541-4.872-2.572-4.487-3.099.385-.526 2.87-1.517 2.87-1.517v1.905s-1.463.546-1.284 1.054" stroke="#35444C" stroke-linecap="round" stroke-linejoin="round"/><path d="M1.48 24.933c-.365-.73-1.568-4.181-.029-5.12C3.113 18.8 5.445 17.64 5.445 17.64l.952.547m11.939 7.438l-.57-.363s-1.88 1.466-4.264.686" stroke="#35444C" stroke-linecap="round" stroke-linejoin="round"/><path d="M23.213 21.478c.335.882.168 3.013.026 3.5-.142.485-4.802 3.139-4.802 3.139l-.176-2.167s3.43-1.51 4.573-2.918c1.09-1.344.122-2.492-1.783-3.18-1.904-.69-2.897-1.094-4.62-2.512-1.721-1.419-2.896-2.027-4.74-1.744-1.6.247-4.02 1.246-5.67 2.227l.376.364v1.763s2.508-1.467 4.142-2.035c1.778-.62 3.374-.333 4.974.923s2.439 1.909 4.525 2.537c2.086.628 2.455 1.412 2.334 2.04" fill="#FFF"/><path d="M23.213 21.478c.335.882.168 3.013.026 3.5-.142.485-4.802 3.139-4.802 3.139l-.176-2.167s3.43-1.51 4.573-2.918c1.09-1.344.122-2.492-1.783-3.18-1.904-.69-2.897-1.094-4.62-2.512-1.721-1.419-2.896-2.027-4.74-1.744-1.6.247-4.02 1.246-5.67 2.227l.376.364v1.763s2.508-1.467 4.142-2.035c1.778-.62 3.374-.333 4.974.923s2.439 1.909 4.525 2.537c2.086.628 2.455 1.412 2.334 2.04" stroke="#35444C" stroke-linecap="round" stroke-linejoin="round"/><path d="M18.418 27.135c1.226-.558 4.403-2.582 4.923-3.14v.967s-3.288 2.544-4.012 2.823c-.495.19-.837.65-.911-.65" fill="#CBCFD2"/><path d="M8.7 37.832c-.24 1.645-1.768 2.522-3.413 1.959-1.645-.562-2.784-2.352-2.545-3.997.24-1.645 1.767-2.523 3.413-1.96 1.645.563 2.784 2.353 2.544 3.998" fill="#FFF"/><path d="M8.7 37.832c-.24 1.645-1.768 2.522-3.413 1.959-1.645-.562-2.784-2.352-2.545-3.997.24-1.645 1.767-2.523 3.413-1.96 1.645.563 2.784 2.353 2.544 3.998z" stroke="#35444C"/><path d="M5.816 37.922c-.113.777-.836 1.192-1.613.926-.778-.266-1.317-1.112-1.203-1.89.113-.777.835-1.192 1.613-.926.778.266 1.316 1.112 1.203 1.89" fill="#FFF"/><path d="M5.816 37.922c-.113.777-.836 1.192-1.613.926-.778-.266-1.317-1.112-1.203-1.89.113-.777.835-1.192 1.613-.926.778.266 1.316 1.112 1.203 1.89z" stroke="#35444C"/><path d="M7.586 39.61l1.494-.957m-5.235-4.619l1.458-.93" stroke="#35444C" stroke-linecap="round"/><path d="M11.97 37.58l-1.384-1.284c-.433-.282-1.114.012-1.528.648-.413.637-.403 1.378.03 1.659l2.024.53" fill="#FFF"/><path d="M11.97 37.58l-1.384-1.284c-.433-.282-1.114.012-1.528.648-.413.637-.403 1.378.03 1.659l2.024.53" stroke="#35444C" stroke-linecap="round"/><path d="M11.972 38.652c-.27.417-.719.604-1.002.42-.283-.183-.292-.67-.023-1.086.27-.414.718-.603 1.002-.42.283.185.293.67.023 1.086" fill="#FFF"/><path d="M11.972 38.652c-.27.417-.719.604-1.002.42-.283-.183-.292-.67-.023-1.086.27-.414.718-.603 1.002-.42.283.185.293.67.023 1.086z" stroke="#35444C"/><path d="M11.156 32.277c.567-.061 2.4-.432 4.02-1.526 1.62-1.094 3.261-2.39 3.261-2.39l-.1-2.736s-1.844 1.439-3.464.933c-1.622-.507-5.77-3.177-6.86-3.756" stroke="#35444C" stroke-linecap="round" stroke-linejoin="round"/><path d="M30.122 13.654a7.245 7.245 0 1 1 14.49 0v25.303c0 2.048-3.247 3.71-7.247 3.71s-7.243-1.662-7.243-3.71V13.654z" fill="#FFF"/><path d="M41.218 6.444c-.362.559-1.038.763-1.508.458-.469-.306-.555-1.005-.193-1.563.362-.558 1.037-.763 1.507-.458.47.306.557 1.005.194 1.563" fill="#FFF"/><path d="M44.61 13.724v25.302c0 2.048-3.247 3.71-7.246 3.71-4 0-7.244-1.662-7.244-3.71 0 0 7.264 2.38 10.458-2.585 3.194-4.962 4.032-22.717 4.032-22.717" fill="#CBCFD2"/><path d="M44.61 13.724v25.302c0 2.048-3.247 3.71-7.246 3.71-4 0-7.244-1.662-7.244-3.71" stroke="#35444C" stroke-linecap="round" stroke-linejoin="round"/><path d="M44.61 13.792c0 2.05-3.247 3.71-7.246 3.71-4 0-7.244-1.66-7.244-3.71" stroke="#35444C" stroke-linecap="round" stroke-linejoin="round"/><path d="M35.629 6.177c-.1.579-.65.9-1.229.718-.578-.182-.967-.8-.867-1.378.1-.578.651-.9 1.23-.717.578.182.965.799.866 1.377" fill="#FFF"/><g transform="translate(29.125 7.299)"><mask id="b" fill="#fff"><use xlink:href="#a"/></mask><path d="M12.958.304c-.215.227-.452.42-.715.556a6.797 6.797 0 0 1 2.807 5.495v25.303c0 1.773-3.119 3.272-6.81 3.272-3.688 0-6.805-1.499-6.805-3.272V6.355A6.804 6.804 0 0 1 4.388.75a2.698 2.698 0 0 1-.709-.56C1.791 1.59.56 3.827.56 6.354v25.303c0 2.326 3.375 4.147 7.68 4.147 4.31 0 7.686-1.821 7.686-4.147V6.355A7.664 7.664 0 0 0 12.958.304" fill="#35444C" mask="url(#b)"/></g><path d="M36.897 6.87c.156-.01.311-.023.47-.023.22 0 .436.012.65.033a2.558 2.558 0 0 1-.136-.883c-.17-.01-.34-.025-.513-.025-.105 0-.207.011-.311.016 0 .142-.007.287-.032.43a2.458 2.458 0 0 1-.128.453" fill="#35444C"/><path d="M38.939 8.09c.382.25.817.368 1.253.368a2.56 2.56 0 0 0 1.175-.299 6.754 6.754 0 0 0-3.35-1.28 2.3 2.3 0 0 0 .922 1.212" fill="#FFF"/><path d="M38.018 6.88a6.764 6.764 0 0 1 3.35 1.278c.264-.137.5-.329.715-.555a7.632 7.632 0 0 0-4.202-1.605c-.007.304.042.601.137.882m-3.297 1.483a2.307 2.307 0 0 0 2.175-1.492 6.764 6.764 0 0 0-3.383 1.178 2.482 2.482 0 0 0 1.208.313" fill="#FFF"/><path d="M36.897 6.87c.055-.145.1-.295.128-.452.025-.143.033-.288.032-.43a7.627 7.627 0 0 0-4.253 1.5c.203.223.44.414.71.561a6.762 6.762 0 0 1 3.383-1.178" fill="#FFF"/><path d="M38.273 5.4v2.313c0 .256-.407.464-.908.464-.5 0-.906-.208-.906-.464V5.4" fill="#CBCFD2"/><path d="M38.273 5.4v2.313c0 .256-.407.464-.908.464-.5 0-.906-.208-.906-.464V5.4m-2.426-3.244c-11.532.106-10.315 12.56-7.038 23.983 3.442 11.997-6.815 16.428-15.168 12.424" stroke="#35444C" stroke-linecap="round" stroke-linejoin="round"/><path d="M34.24 3.6c-.47-.306-.557-1.005-.195-1.563.362-.558 1.038-.763 1.508-.458l.016.012 2.06 1.189 1.967-1.138-.017.007c.22-.169.53-.22.853-.11.565.194.956.808.873 1.373a.848.848 0 0 1-.288.538" fill="#FFF"/><path d="M34.24 3.6c-.47-.306-.557-1.005-.195-1.563.362-.558 1.038-.763 1.508-.458l.016.012 2.06 1.189 1.967-1.138-.017.007c.22-.169.53-.22.853-.11.565.194.956.808.873 1.373a.848.848 0 0 1-.288.538" stroke="#35444C" stroke-linecap="round" stroke-linejoin="round"/><path fill="#FFF" d="M40.968 3.499l-1.17.676 1.214.698-1.286 2.04-2.354-1.355-2.123 1.23-1.222-1.945 1.19-.68-.983-.567"/><path stroke="#35444C" stroke-linecap="round" stroke-linejoin="round" d="M40.968 3.499l-1.17.676 1.214.698-1.286 2.04-2.354-1.355-2.123 1.23-1.222-1.945 1.19-.68-.983-.567"/><path d="M35.629 6.177c-.1.579-.65.9-1.229.718-.578-.182-.967-.8-.867-1.378.1-.578.651-.9 1.23-.717.578.182.965.799.866 1.377" fill="#FFF"/><path d="M35.629 6.177c-.1.579-.65.9-1.229.718-.578-.182-.967-.8-.867-1.378.1-.578.651-.9 1.23-.717.578.182.965.799.866 1.377z" stroke="#35444C"/><path d="M41.218 6.444c-.362.559-1.038.763-1.508.458-.469-.306-.555-1.005-.193-1.563.362-.558 1.037-.763 1.507-.458.47.306.557 1.005.194 1.563" fill="#FFF"/><path d="M41.218 6.444c-.362.559-1.038.763-1.508.458-.469-.306-.555-1.005-.193-1.563.362-.558 1.037-.763 1.507-.458.47.306.557 1.005.194 1.563z" stroke="#35444C"/><path d="M23.213 21.478c.335.882.168 3.013.026 3.5-.142.485-4.802 3.139-4.802 3.139l-.176-2.167" stroke="#35444C" stroke-linecap="round" stroke-linejoin="round"/></g></svg>