<svg xmlns="http://www.w3.org/2000/svg" xmlns:xlink="http://www.w3.org/1999/xlink" width="60" height="49" viewBox="0 0 60 49"><defs><path id="a" d="M.052.026h1.38v.777H.052z"/><path id="c" d="M0 .03h1.345v.797H0z"/><path id="e" d="M.02.077h25.7V25.71H.02z"/><path id="g" d="M.02.077h25.7V25.71H.02z"/></defs><g fill="none" fill-rule="evenodd"><path fill="#FFF" d="M34 27h4v7l-2 1-2-1zm-11-2h4v5l-2 1-2-1z"/><path fill="#CBCFD2" d="M36.797 28.666v6.08l1.827-.892-.15-5.734zm-11.343-3.023v5.211l1.828-.765-.15-4.915z"/><g transform="translate(24.765 48.12)"><mask id="b" fill="#fff"><use xlink:href="#a"/></mask><path fill="#35444C" d="M1.239.137c.257.148.258.387.003.534l-.036.021a.953.953 0 0 1-.462.111.961.961 0 0 1-.463-.11L.246.671C-.011.524-.013.285.242.137a.957.957 0 0 1 .495-.11c.18-.006.364.03.502.11" mask="url(#b)"/></g><path fill="#35444C" d="M23.742 46.995c.256.148.258.387.004.535-.255.148-.67.147-.926 0l-.068-.04c-.257-.147-.258-.387-.003-.534.254-.148.668-.148.925 0l.068.039zm-2.259-1.301c.257.148.258.387.003.535a1.021 1.021 0 0 1-.925 0l-.069-.04c-.256-.147-.257-.386-.003-.534.255-.148.67-.148.926 0l.068.04zm-2.259-1.301c.256.148.258.387.003.535a1.021 1.021 0 0 1-.925 0l-.069-.04c-.256-.147-.258-.386-.003-.534.255-.148.67-.147.925 0l.07.04zm-2.259-1.301c.256.148.258.387.003.535a1.021 1.021 0 0 1-.925 0l-.068-.04c-.257-.147-.258-.386-.003-.534.254-.148.668-.148.925 0l.068.04zm-2.259-1.3c.256.147.258.387.003.534-.255.148-.67.148-.925 0l-.069-.04c-.256-.147-.257-.386-.003-.534.255-.148.669-.148.925 0l.07.04zm-2.259-1.302c.256.149.258.388.003.535a1.021 1.021 0 0 1-.925 0l-.07-.04c-.255-.147-.257-.386-.002-.534.255-.148.669-.148.925 0l.069.04zm-2.259-1.3c.256.148.257.387.003.534a1.021 1.021 0 0 1-.926 0l-.068-.039c-.256-.148-.258-.387-.003-.535.254-.147.669-.147.925 0l.069.04zm-2.26-1.301c.257.147.259.387.004.535-.255.147-.67.147-.926 0l-.068-.04c-.256-.148-.258-.387-.003-.534.255-.148.669-.148.925 0l.068.039zM5.67 36.588c.256.147.258.387.003.535-.255.147-.67.147-.925 0l-.07-.04c-.256-.148-.257-.387-.002-.534.255-.148.668-.148.925 0l.069.04zm-2.26-1.301c.257.148.258.387.003.535a1.021 1.021 0 0 1-.925 0l-.068-.04c-.257-.148-.258-.387-.004-.535.255-.147.67-.147.926 0l.068.04zm-2.258-1.342c.137.08.202.186.191.29.01.103-.053.207-.189.285a1.021 1.021 0 0 1-.925 0l-.035-.02C.07 34.43 0 34.332 0 34.233c0-.1.069-.197.19-.268l.036-.02c.255-.148.67-.148.926 0m31.362-18.179c.256.148.258.387.003.535l-.073.042c-.254.148-.67.148-.925 0-.257-.147-.258-.387-.004-.535l.074-.042c.254-.148.669-.147.925 0m-2.412 1.399c.256.147.258.386.003.534l-.074.043c-.254.147-.669.147-.925 0-.256-.148-.257-.388-.003-.535l.073-.043c.255-.148.67-.147.926 0m-2.412 1.399c.255.147.257.387.002.534l-.073.043c-.255.148-.67.147-.925 0-.257-.148-.259-.387-.004-.535l.074-.042c.254-.148.669-.148.925 0m-2.412 1.398c.256.148.258.387.003.535l-.074.042c-.254.148-.669.148-.925 0-.256-.147-.258-.387-.003-.535l.073-.042c.255-.148.67-.147.926 0m-2.413 1.399c.256.147.258.386.003.534l-.073.043c-.255.147-.67.147-.925 0-.257-.148-.259-.387-.004-.535l.074-.043c.254-.147.669-.147.925 0m-2.412 1.399c.256.147.258.387.003.535l-.074.042c-.254.148-.669.147-.925 0-.256-.148-.258-.387-.003-.535l.073-.042c.255-.148.67-.148.926 0m-2.412 1.398c.255.148.257.387.002.535l-.073.042c-.255.148-.67.148-.925 0-.257-.147-.259-.387-.004-.534l.074-.043c.254-.148.669-.147.925 0m-2.412 1.399c.256.147.258.387.003.534l-.074.043c-.254.148-.669.147-.925 0-.256-.148-.258-.387-.004-.535l.074-.043c.255-.147.67-.147.926 0m-2.413 1.399c.256.148.258.387.003.535l-.073.042c-.255.148-.67.148-.925 0-.257-.148-.259-.387-.004-.535l.073-.042c.255-.148.67-.148.926 0m-2.412 1.399c.255.147.258.386.003.534l-.074.043c-.254.147-.669.147-.925 0-.256-.148-.258-.388-.004-.535l.074-.043c.255-.148.67-.147.926 0M8.39 29.75c.255.147.257.387.002.534l-.073.043c-.255.148-.67.147-.925 0-.257-.148-.259-.387-.004-.535l.073-.042c.255-.148.67-.148.926 0m-2.412 1.398c.255.148.257.387.003.535l-.074.042c-.255.148-.67.148-.925 0-.256-.147-.258-.387-.004-.535l.074-.042c.255-.148.67-.147.926 0m-2.413 1.399c.256.147.258.386.003.534l-.073.043c-.255.147-.67.147-.925 0-.257-.148-.259-.387-.004-.535l.073-.043c.255-.147.67-.147.926 0M34.925 14.41c.256.148.258.387.003.535a.958.958 0 0 1-.496.11.966.966 0 0 1-.5-.11c-.257-.148-.258-.388-.004-.535l.036-.02a.95.95 0 0 1 .462-.111c.172 0 .34.04.463.11l.036.021zm22.59 13.009c.257.148.259.387.004.535-.255.147-.67.147-.926 0l-.068-.04c-.256-.147-.258-.387-.003-.534.255-.148.669-.148.925 0l.068.039zm-2.258-1.301c.256.148.258.387.003.535a1.021 1.021 0 0 1-.925 0l-.07-.04c-.256-.147-.257-.387-.002-.534.255-.148.669-.148.925 0l.069.04zm-2.259-1.301c.256.148.257.387.002.535a1.021 1.021 0 0 1-.925 0l-.068-.04c-.256-.147-.258-.387-.003-.534.254-.148.669-.148.925 0l.069.04zm-2.26-1.301c.257.148.258.387.003.535a1.022 1.022 0 0 1-.925 0l-.068-.04c-.256-.147-.258-.387-.004-.534.255-.148.67-.148.926 0l.068.04zm-2.259-1.301c.256.148.258.387.004.535-.255.148-.67.147-.926 0l-.068-.04c-.257-.147-.258-.386-.003-.534.255-.148.668-.148.925 0l.068.04zm-2.259-1.3c.257.147.258.386.003.534a1.021 1.021 0 0 1-.925 0l-.069-.04c-.256-.147-.257-.386-.002-.534.254-.148.668-.148.925 0l.068.04zm-2.259-1.301c.257.147.258.387.003.534a1.021 1.021 0 0 1-.925 0l-.068-.039c-.257-.148-.259-.387-.004-.535.255-.148.67-.147.926 0l.068.04zm-2.259-1.301c.256.147.258.387.003.535-.254.147-.669.147-.925 0l-.068-.04c-.257-.148-.258-.387-.003-.535.254-.147.668-.147.925 0l.068.04zm-2.259-1.301c.256.147.258.387.003.535-.255.147-.67.147-.925 0l-.069-.04c-.256-.148-.258-.387-.003-.535.255-.147.669-.147.925 0l.07.04zm-2.259-1.301c.256.148.258.387.003.535a1.022 1.022 0 0 1-.925 0l-.069-.04c-.256-.148-.258-.387-.003-.535.255-.147.669-.147.925 0l.069.04z"/><g transform="translate(58.59 28.54)"><mask id="d" fill="#fff"><use xlink:href="#c"/></mask><path fill="#35444C" d="M1.151.162c.122.07.193.167.194.267 0 .1-.07.197-.19.267l-.036.02a1.022 1.022 0 0 1-.926 0C.056.639-.008.533.001.429-.009.325.054.22.191.141c.254-.148.669-.147.925 0l.035.02z" mask="url(#d)"/></g><path fill="#35444C" d="M57.367 30.078c.257.147.258.386.003.534l-.073.043a1.022 1.022 0 0 1-.926 0c-.256-.148-.257-.387-.003-.535l.074-.042c.255-.148.669-.148.925 0m-2.412 1.398c.256.148.257.387.002.534l-.073.043a1.022 1.022 0 0 1-.925 0c-.257-.148-.257-.387-.003-.534l.073-.043c.255-.148.669-.148.926 0m-2.413 1.398c.256.148.258.387.003.535l-.073.042a1.022 1.022 0 0 1-.926 0c-.256-.147-.257-.387-.003-.534l.074-.043c.255-.147.669-.147.925 0m-2.412 1.399c.256.147.257.387.002.534l-.073.043a1.022 1.022 0 0 1-.925 0c-.257-.148-.257-.387-.003-.535l.073-.042a1.02 1.02 0 0 1 .925 0m-2.412 1.398c.256.148.258.387.003.535l-.073.042a1.02 1.02 0 0 1-.926 0c-.256-.148-.257-.387-.003-.534l.074-.043c.255-.148.668-.148.925 0m-2.413 1.399c.257.147.258.386.003.534l-.073.042a1.021 1.021 0 0 1-.925 0c-.257-.147-.258-.386-.003-.534l.073-.042a1.02 1.02 0 0 1 .925 0m-2.412 1.398c.256.148.258.387.003.534l-.074.043a1.021 1.021 0 0 1-.925 0c-.256-.148-.257-.387-.003-.535l.074-.042a1.02 1.02 0 0 1 .925 0m-2.412 1.398c.256.148.257.387.002.535l-.073.042a1.021 1.021 0 0 1-.925 0c-.257-.147-.258-.386-.003-.534l.073-.043c.255-.148.669-.148.925 0m-2.412 1.399c.256.147.258.386.003.534l-.074.043a1.021 1.021 0 0 1-.925 0c-.256-.148-.257-.387-.003-.535l.074-.042a1.02 1.02 0 0 1 .925 0m-2.413 1.398c.257.148.258.387.003.534l-.073.043a1.021 1.021 0 0 1-.925 0c-.257-.148-.258-.387-.003-.534l.073-.043c.255-.148.669-.148.925 0m-2.412 1.398c.256.148.258.387.003.535l-.074.042a1.021 1.021 0 0 1-.925 0c-.256-.147-.258-.386-.003-.534l.074-.043c.254-.147.668-.147.925 0M30.83 45.46c.256.147.257.387.002.534l-.073.043a1.02 1.02 0 0 1-.925 0c-.257-.148-.258-.387-.003-.535l.073-.042c.255-.148.669-.148.925 0m-2.412 1.398c.256.148.258.387.003.534l-.074.043a1.021 1.021 0 0 1-.925 0c-.256-.148-.258-.387-.003-.534l.074-.043c.254-.148.668-.148.925 0m-5.123-16.875c.087.074.442.297 1.555.297.909 0 1.368-.267 1.556-.42v-6.168h-3.111v6.291zm1.555 1.445c-1.02 0-1.74-.16-2.2-.49-.47-.338-.506-.735-.506-.85v-6.97c0-.317.258-.574.575-.574h4.262c.318 0 .575.257.575.574v6.97a.573.573 0 0 1-.096.32c-.07.104-.736 1.02-2.61 1.02z"/><path fill="#FFF" d="M37.123 12.916c0 6.761-5.495 12.242-12.274 12.242-6.778 0-12.274-5.48-12.274-12.242 0-6.76 5.496-12.242 12.274-12.242 6.779 0 12.274 5.481 12.274 12.242"/><g transform="translate(11.98 .023)"><mask id="f" fill="#fff"><use xlink:href="#e"/></mask><path fill="#35444C" d="M12.87 1.225c-6.451 0-11.7 5.234-11.7 11.668 0 6.434 5.249 11.668 11.7 11.668 6.45 0 11.698-5.234 11.698-11.668 0-6.434-5.248-11.668-11.699-11.668m0 24.484C5.784 25.709.02 19.959.02 12.893.02 5.826 5.784.077 12.87.077c7.084 0 12.849 5.75 12.849 12.816 0 7.067-5.765 12.816-12.85 12.816" mask="url(#f)"/></g><path fill="#CBCFD2" d="M31.544 2.97s5.78 14.939-12.63 20.04c0 0 13.29 7.76 17.562-8.308 0 0 1.46-9.437-4.932-11.732"/><g transform="translate(11.98 .023)"><mask id="h" fill="#fff"><use xlink:href="#g"/></mask><path fill="#35444C" d="M12.87 1.225c-6.451 0-11.7 5.234-11.7 11.668 0 6.434 5.249 11.668 11.7 11.668 6.45 0 11.698-5.234 11.698-11.668 0-6.434-5.248-11.668-11.699-11.668m0 24.484C5.784 25.709.02 19.959.02 12.893.02 5.826 5.784.077 12.87.077c7.084 0 12.849 5.75 12.849 12.816 0 7.067-5.765 12.816-12.85 12.816" mask="url(#h)"/></g><path fill="#35444C" d="M34.8 33.809c.087.074.442.297 1.556.297.908 0 1.367-.268 1.556-.42v-6.169H34.8v6.292zm1.556 1.445c-1.021 0-1.74-.161-2.2-.491-.47-.337-.506-.735-.506-.848v-6.972c0-.316.257-.573.575-.573h4.262c.318 0 .575.257.575.573v6.972a.573.573 0 0 1-.096.318c-.07.104-.737 1.02-2.61 1.02z"/><path fill="#FFF" d="M43.132 21.641c0 3.832-3.115 6.94-6.957 6.94-3.843 0-6.958-3.108-6.958-6.94 0-3.832 3.115-6.939 6.958-6.939 3.842 0 6.957 3.107 6.957 6.94"/><path fill="#35444C" d="M36.174 15.276c-3.518 0-6.381 2.855-6.381 6.365 0 3.51 2.863 6.365 6.381 6.365 3.52 0 6.382-2.855 6.382-6.365 0-3.51-2.863-6.365-6.382-6.365m0 13.878c-4.153 0-7.532-3.37-7.532-7.513s3.379-7.513 7.532-7.513c4.154 0 7.533 3.37 7.533 7.513s-3.379 7.513-7.533 7.513"/><path fill="#CBCFD2" d="M40.241 15.894s3.377 8.726-7.376 11.705c0 0 7.762 4.533 10.257-4.852 0 0 .853-5.512-2.88-6.853"/><path fill="#35444C" d="M36.174 15.276c-3.518 0-6.381 2.855-6.381 6.365 0 3.51 2.863 6.365 6.381 6.365 3.52 0 6.382-2.855 6.382-6.365 0-3.51-2.863-6.365-6.382-6.365m0 13.878c-4.153 0-7.532-3.37-7.532-7.513s3.379-7.513 7.532-7.513c4.154 0 7.533 3.37 7.533 7.513s-3.379 7.513-7.533 7.513"/></g></svg>