<svg xmlns="http://www.w3.org/2000/svg" width="16" height="16" viewBox="0 0 16 16"><path fill="#35444C" d="M15.872 15.257c-.019-.068-.477-1.658-1.881-2.48-.816-.53-1.839-1.042-2.661-1.453-.658-.33-1.226-.614-1.49-.805-.143-.103-.219-.2-.226-.286-.017-.217.328-.565.633-.872.25-.252.51-.514.697-.803.619-.957.92-2.074.625-4.956-.164-1.606-1.15-2.367-1.95-2.722A4.55 4.55 0 0 0 7.942.5a4.55 4.55 0 0 0-1.678.38c-.799.355-1.786 1.116-1.95 2.722-.294 2.882.006 4 .625 4.956.188.29.447.55.698.803.304.307.65.655.632.872-.007.086-.083.183-.226.286-.264.191-.832.476-1.49.805-.822.41-1.844.922-2.66 1.454C.487 13.598.03 15.189.01 15.257a.308.308 0 0 0 .298.391h15.265a.31.31 0 0 0 .298-.391"/></svg>