<svg xmlns="http://www.w3.org/2000/svg" width="36" height="54" viewBox="0 0 36 54"><g fill="none" fill-rule="evenodd"><path fill="#FFF" d="M29 43l-6.014-11L20 31l-.997 1v2l1.827 5L29 52.27l2 .73 2-.73V49zM5 2h2l3 1 5.2 3 4.615 6 2.156 8v7l-2.156 1.974L17 30l-4-1.026L9 26l-5-5-.993-3-1.993-5V8L2.16 4.246 5 2zm1.536 3L3.493 7 3 11l.019 3.061L4 18l1.772 1.929L10 24.643l2.643 1.55 3.054.807 2.15-.807 1.646-1.55.507-4.714-.997-5.207-4.68-6.58-3.97-2.356L8.063 5H6.536z"/><path fill="#CBCFD2" d="M21.235 30.406l1.244-.775c.688-.217 2.85 1.105 3.211 1.722l8.99 16.112c.439.822 1.151 2.635.487 3.295l-1.697 1.496c-.355.243-.84-2.833-1.052-3.205L22.13 31.945c-.326-.488-2.203-1.141-.895-1.54M5.493 2.104L7.283.786s6.159-2.863 13.8 8.087c0 0 8.71 14.675-.16 18.8 0 0 5.49-6.5-4.082-19.6 0 0-5.348-7.198-11.348-5.969"/><path fill="#35444C" d="M20.058 31.476a.961.961 0 0 0-.476.114c-.236.133-.402.372-.496.713-.23.833.027 2.03.67 3.127l8.742 14.934c.485.829 1.127 1.498 1.807 1.886.586.334 1.131.407 1.498.203.232-.131.399-.372.492-.716.229-.834-.027-2.032-.668-3.126L22.882 33.68c-.477-.819-1.137-1.508-1.807-1.889-.366-.209-.716-.315-1.017-.315m11.269 22.093c-.48 0-1-.152-1.529-.453-.832-.474-1.606-1.274-2.18-2.252l-8.74-14.934c-.785-1.338-1.073-2.792-.77-3.89.165-.599.501-1.055.972-1.318.694-.392 1.583-.32 2.502.202.832.475 1.606 1.276 2.179 2.256l8.744 14.931c.782 1.337 1.07 2.79.77 3.887-.165.6-.5 1.059-.97 1.324a1.981 1.981 0 0 1-.978.247M11.719 25.512c2.2 1.252 4.244 1.469 5.757.61 1.501-.851 2.332-2.683 2.34-5.156.015-5.354-3.819-11.9-8.547-14.59-2.2-1.254-4.245-1.47-5.757-.612-1.501.852-2.332 2.682-2.339 5.153-.015 5.356 3.819 11.903 8.546 14.595m3.701 2.128c-1.303 0-2.735-.423-4.208-1.262-5.008-2.851-9.069-9.789-9.053-15.464.009-2.843 1.02-4.98 2.847-6.017 1.84-1.043 4.245-.826 6.77.612 5.008 2.851 9.07 9.786 9.053 15.46-.008 2.845-1.02 4.983-2.847 6.02-.766.435-1.63.651-2.562.651M6.602 2.505c-.96 0-1.844.218-2.619.658-1.905 1.081-2.96 3.398-2.969 6.525-.019 6.705 4.78 14.901 10.698 18.27 2.78 1.584 5.369 1.855 7.288.765 1.907-1.082 2.962-3.4 2.971-6.53.02-6.702-4.778-14.896-10.694-18.265-1.66-.945-3.252-1.423-4.675-1.423m9.784 27.877c-1.6 0-3.363-.523-5.181-1.558C5.006 25.295-.02 16.71 0 9.684c.01-3.497 1.245-6.121 3.477-7.388 2.248-1.276 5.198-1.003 8.307.766C17.98 6.59 23.006 15.174 22.985 22.197c-.01 3.5-1.245 6.126-3.479 7.393-.932.529-1.985.792-3.12.792"/><path fill="#35444C" d="M32.314 53.317l-.522-.858 2.536-1.5c.242-.137.409-.378.503-.721.228-.835-.028-2.032-.669-3.127L25.417 32.18c-.477-.82-1.136-1.508-1.807-1.89-.583-.332-1.128-.405-1.493-.2l-2.526 1.496-.522-.858 2.535-1.5c.705-.398 1.594-.327 2.513.197.833.474 1.607 1.275 2.179 2.255l8.744 14.931c.782 1.336 1.07 2.79.77 3.887-.165.6-.5 1.058-.97 1.324l-2.526 1.495zM19.748 29.444l-.569-.828 3.601-2.407c1.123-1.268 1.72-3.174 1.727-5.515.019-6.703-4.779-14.897-10.695-18.266-2.859-1.627-5.497-1.87-7.43-.684l-2.837 1.7-.526-.854L5.85.892c2.264-1.388 5.272-1.15 8.47.67 6.196 3.528 11.22 12.112 11.2 19.134-.007 2.62-.707 4.771-2.024 6.224l-.093.081-3.655 2.442z"/></g></svg>