<svg xmlns="http://www.w3.org/2000/svg" width="64" height="64" viewBox="0 0 64 64"><g fill="none" fill-rule="evenodd"><circle cx="32" cy="32" r="25" fill="#FDD319"/><path fill="#333" d="M41.973 41.102c.399-.673-3.694-4.423-4.892-4.327-1.397.097-2.096 2.308-3.294 2.5-1.198.097-2.895-.673-5.39-4.711l-.2-.289c-2.396-3.846-2.296-5.673-1.598-6.442.799-.865 2.796-.577 3.494-1.634.7-.866-.998-5.866-1.697-5.866 0 0-3.594 0-5.49 1.443-2.097 1.538-.2 9.615 2.096 13.653l.2.289c2.595 4.038 9.783 10.48 12.478 9.519 2.496-.866 4.293-4.135 4.293-4.135z"/></g></svg>