<svg xmlns="http://www.w3.org/2000/svg" width="64" height="64" viewBox="0 0 64 64"><g fill="none" fill-rule="evenodd"><circle cx="32" cy="32" r="25" fill="#FDD319"/><path fill="#333" d="M18.667 23.705l8.656 8.439-4.26 4.472-.086.102c-.376.49-.348 1.21.086 1.666a1.152 1.152 0 0 0 1.684 0l4.32-4.538 2.123 2.068.102.089a1.147 1.147 0 0 0 1.518-.089l2.122-2.069 4.322 4.539.096.091a1.149 1.149 0 0 0 1.587-.091 1.295 1.295 0 0 0 0-1.768l-4.26-4.472 8.656-8.438v16.808c0 .772-.57 1.407-1.3 1.48l-.138.006h-23.79c-.794 0-1.438-.666-1.438-1.486V23.705zM43.584 22L32 33.293 20.416 22h23.168z"/></g></svg>