<svg xmlns="http://www.w3.org/2000/svg" width="110" height="110" viewBox="0 0 110 110"><g fill="none" fill-rule="evenodd"><rect width="110" height="110" fill="#CBD8DB" rx="17"/><path fill="#EDF1F2" d="M55 93c20.947 0 38-17.043 38-38S75.947 17 55 17 17 34.053 17 55s17.043 38 38 38z"/><path fill="#4E7380" stroke="#4E7380" stroke-width="2" d="M54.5 37.881c3.342 0 6.045-2.656 6.045-5.94 0-3.285-2.703-5.941-6.045-5.941s-6.045 2.666-6.045 5.94c0 3.275 2.703 5.941 6.045 5.941M66 60.284V47.368c-.265-5.89-3.745-5.355-5.318-5.355-1.572.178-2.23.984-3.361 1.904-1.13.928-2.821 1.04-2.821 1.04s-1.69-.112-2.82-1.04c-1.131-.929-1.79-1.726-3.362-1.904-1.563 0-5.053-.535-5.318 5.355v12.926s.177 2.429 1.484 3.142c.698.713 2.792.628 2.87 1.96 0 1.342.521 17.315 1.22 18.028.697.713 4.53.563 5.926.563s5.23.15 5.927-.563c.698-.713 1.219-16.686 1.219-18.028.088-1.341 2.182-1.247 2.87-1.96C65.823 62.714 66 60.284 66 60.284"/><path fill="#FDD319" fill-rule="nonzero" stroke="#EDF1F2" stroke-width="2" d="M76.992 62.12c0 3.872-2.591 6.905-4.77 8.77A23.85 23.85 0 0 1 67.529 74a24.926 24.926 0 0 1-4.723-3.156c-2.189-1.874-4.8-4.91-4.8-8.724 0-.528-.004-11.214-.006-12.77 3.569-1.852 7.79-2.35 9.529-2.35 1.51 0 6.124.614 9.471 2.35.001 1.556-.008 12.241-.008 12.77"/></g></svg>