<svg xmlns="http://www.w3.org/2000/svg" width="110" height="110" viewBox="0 0 110 110"><g fill="none" fill-rule="evenodd"><rect width="110" height="110" fill="#CBD8DB" rx="17"/><path fill="#EDF1F2" d="M55 93c20.947 0 38-17.043 38-38S75.947 17 55 17 17 34.053 17 55s17.043 38 38 38z"/><g fill="#4E7380"><path stroke="#4E7380" stroke-width="1.44" d="M68.5 42c2.488 0 4.5-2.012 4.5-4.5S70.988 33 68.5 33 64 35.02 64 37.5s2.012 4.5 4.5 4.5M77 58.06v-9.225c-.185-4.208-2.605-3.826-3.7-3.826-1.093.127-1.551.703-2.338 1.36-.786.663-1.962.744-1.962.744s-1.176-.08-1.962-.744c-.787-.663-1.245-1.233-2.339-1.36-1.087 0-3.514-.382-3.699 3.826v9.232s.123 1.735 1.032 2.244c.486.51 1.942.45 1.997 1.4 0 .959.362 12.368.848 12.878.485.509 3.152.402 4.123.402.97 0 3.638.107 4.123-.402.486-.51.848-11.92.848-12.877.061-.958 1.518-.891 1.997-1.4C76.877 59.794 77 58.06 77 58.06M41.5 42c2.488 0 4.5-2.012 4.5-4.5S43.988 33 41.5 33 37 35.02 37 37.5s2.012 4.5 4.5 4.5M49 58.06v-9.225c-.185-4.208-2.605-3.826-3.7-3.826-1.093.127-1.551.703-2.338 1.36-.786.663-1.962.744-1.962.744s-1.176-.08-1.962-.744c-.787-.663-1.245-1.233-2.339-1.36-1.087 0-3.514-.382-3.699 3.826v9.232s.123 1.735 1.032 2.244c.486.51 1.942.45 1.997 1.4 0 .959.362 12.368.848 12.878.485.509 3.152.402 4.123.402.97 0 3.638.107 4.123-.402.486-.51.848-11.92.848-12.877.061-.958 1.518-.891 1.997-1.4C48.877 59.794 49 58.06 49 58.06"/><path stroke="#4E7380" stroke-width="1.8" d="M55 39c3.04 0 5.5-2.46 5.5-5.5S58.04 28 55 28s-5.5 2.468-5.5 5.5S51.96 39 55 39"/><path fill-rule="nonzero" stroke="#EDF1F2" stroke-width="2" d="M60.804 42.017l.115-.006.909-.011c.593.004 1.022.044 1.524.16 2.119.487 3.405 2.115 3.63 5.176l.018.31v11.447l-.002.063c-.031.39-.126.922-.326 1.485l-.092.242c-.293.72-.711 1.3-1.315 1.671l-.055.03c-.255.218-.528.353-.963.504l-.604.194c-.663.208-.807.302-.811.341l-.015.787c-.033 1.18-.114 3.28-.212 5.343l-.108 2.112c-.301 5.455-.532 7.806-1.105 8.347-.569.539-1.616.712-3.398.768l-.322.01c-.292.006-.57.01-.881.01l-1.624-.011L53.21 81a41.7 41.7 0 0 1-.881-.01c-1.979-.047-3.118-.208-3.72-.778-.52-.49-.758-2.47-1.023-6.905l-.16-2.937c-.142-2.863-.256-5.983-.255-6.696-.005-.082-.126-.167-.661-.343l-.334-.106c-.617-.192-.968-.327-1.266-.545l-.118-.093-.053-.03c-.546-.332-.94-.835-1.228-1.46l-.092-.213a5.98 5.98 0 0 1-.397-1.558L43 59.1V47.608c.157-3.215 1.455-4.937 3.638-5.445.506-.118.938-.16 1.534-.163l.91.01.114.007c1.004.105 1.737.4 2.521.948l.216.156c.185.138.851.67 1.007.788.18.136.398.257.648.36.322.133.678.23 1.035.294l.227.036.149.018.151-.018.227-.036a5.095 5.095 0 0 0 1.035-.294c.25-.103.469-.224.652-.363l1.003-.781c.8-.598 1.513-.935 2.47-1.075l.267-.033z"/></g></g></svg>