<svg xmlns="http://www.w3.org/2000/svg" xmlns:xlink="http://www.w3.org/1999/xlink" width="41" height="53" viewBox="0 0 41 53"><defs><path id="a" d="M1.222 14.695l2.279-1.32c1.017-.589 1.666-1.965 1.671-3.916C5.182 5.93 3.082 1.853.48.356"/><path id="c" d="M1.222 14.695l2.279-1.32c1.017-.589 1.666-1.965 1.671-3.916C5.182 5.93 3.082 1.853.48.356"/><path id="e" d="M1.222 14.695l2.279-1.32c1.017-.589 1.666-1.965 1.671-3.916C5.182 5.93 3.082 1.853.48.356"/><path id="g" d="M2.408.676L.129 1.996 5.466.908C4.814.533 4.193.356 3.627.356c-.445 0-.856.11-1.22.32"/><path id="i" d="M2.408.676L.129 1.996 5.466.908C4.814.533 4.193.356 3.627.356c-.445 0-.856.11-1.22.32"/></defs><g fill="none" fill-rule="evenodd"><path fill="#FFF" d="M30 16.2l3-.2 1-1.8 6-4c0-1.333-.333-3.333-1-6S36.667.467 34 1l-2 1-2-.8L26 3l-1 3.2 5 10zM1 14l-1 2 1 4 7 2 5-3v-5z"/><g fill="#FFF"><path d="M12.54 14.187V8.6H1.516l.025 6.159c0 1.765 2.479 3.195 5.537 3.195 3.057 0 5.46-1.253 5.46-3.768 0-.196 0 0 0 0"/><path d="M31.55 8.19c-1.836-3.945-3.763-3.85-4.392-3.688-.683.177-2.463 1.375-2.463 1.375-1.03.6-3.988 2.155-5.231 4.167-.977 1.578-.864 3.922-.836 4.745.155 4.585.382 6.675.401 8.903.03 3.45-.447 5.555-2.764 7.816-2.345 2.288-3.67 2.848-3.67 2.848l-.123-19.176-10.93-.391.053 18.796s-.053 4.871 3.206 7.926c2.466 2.313 4.304 2.978 5.705 3.255 2.849.563 5.3.564 10.099-2.534 7.922-5.115 9.213-13.522 9.29-16.533.041-1.647-.087-4.542-.105-6.923-.008-1.195-.166-2.123.19-2.966.323-.765 1.714-1.328 1.714-1.328 1.063-.6 1.69-2.346-.145-6.292m-2.825 40.99a3.13 3.13 0 0 1-3.136 3.124 3.13 3.13 0 0 1-3.136-3.125c0-1.726 3.136-5.83 3.136-5.83s3.136 4.104 3.136 5.83"/></g><g fill="#CBCFD2"><path d="M23.354 40.016s1.74-2.656-.764-3.98l.04-.25a19.719 19.719 0 0 1-4.942 4.526c-4.798 3.098-7.25 3.097-10.098 2.534a8.888 8.888 0 0 1-2.027-.656c2.087 1.767 3.69 2.328 4.943 2.576 2.848.563 5.3.564 10.098-2.534 1.709-1.103 1.604-.894 2.75-2.216m9.006-29.74c-2.362 1.352-4.436 2.65-4.99 3.71-.495.946-.47 3.77-.462 4.964.018 2.382.111 3.183.07 4.829-.051 2 .391 4.854-2.402 8.956.566.309 3.104 2.098 2.171 3.456 2.71-4.502 3.087-8.132 3.147-10.492.042-1.646-.086-4.542-.104-6.924-.009-1.194-.166-2.122.19-2.965.323-.766 1.714-1.328 1.714-1.328.853-.481 1.422-1.704.667-4.206m7.643-3.897l-4.74 2.43 1.425 3.109c2.05-1.143 1.245-.633 2.05-1.143.816-.516 1.963-1.605 1.265-4.396M12.54 27.51l-.068-8.213-3.036-.084.005 15.978 3.098.595z"/><path d="M12.867 37.247c-.739-1.012-.328-1.46-.328-1.46L9.44 34.73s.028 2.86 2.172 3.659c2.066.767 3.448-.026 3.448-.026-.35.025-1.627-.34-2.193-1.116"/><path d="M14.592 38.035c.107-.008.174-.021.174-.021l-.174.021zM12.52 14.512l-.048-5.826L9.436 8.6l.002 9.06c1.732-.474 2.939-1.522 3.082-3.149M33.292 8.12c2.067 6.136-.156 7.32-1.232 8.177-.018.014.756-.168.74-.15.935-.594 2.909-1.893 3.317-2.38.66-.793.995-4.077-.249-7.115 0 0-.118.19-.825.606-.315.186-1.75.861-1.75.861"/><path d="M8.608 19.029c.028.19.254 1.242-.034 2.127-.054.163-.29.364-.29.364.107.003 5.274-.95 5.274-3.572l-.206-3.132c0 1.826-1.43 3.69-4.744 4.213m16.98 25.096s.953 2.325 1.065 4.831c.152 3.404-2.225 3.127-2.225 3.127s4.548.425 4.296-2.904c-.251-3.328-3.136-5.054-3.136-5.054"/></g><path stroke="#35444C" stroke-width=".99" d="M36.688 11.918c2.051-1.143 1.245-.633 2.051-1.143.998-.63 2.494-2.114.504-6.522C37.34.034 34.865.13 33.563.93l-1.503.882"/><path fill="#FFF" d="M12.595 34.356s-.21 3.912 2.171 3.658"/><path stroke="#35444C" stroke-linecap="round" stroke-width=".99" d="M12.595 34.356s-.21 3.912 2.171 3.658"/><path stroke="#525252" stroke-width=".99" d="M32.06 1.813c2.603 1.497 4.702 5.573 4.693 9.104"/><path stroke="#35444C" stroke-width=".99" d="M32.8 16.148c-.718.373-1.686.413-2.937.005M26.78 2.87c-.816.442-1.405 1.383-1.629 2.713"/><g transform="translate(31.581 1.458)"><mask id="b" fill="#fff"><use xlink:href="#a"/></mask><path stroke="#525252" stroke-width=".99" d="M.479.356c2.603 1.497 4.702 5.572 4.693 9.103" mask="url(#b)"/></g><g transform="translate(31.581 1.458)"><mask id="d" fill="#fff"><use xlink:href="#c"/></mask><path stroke="#525252" stroke-width=".99" d="M.442 13.143l-2.278 1.32c2.603 1.497 4.719-.152 4.729-3.684" mask="url(#d)"/></g><g transform="translate(31.581 1.458)"><mask id="f" fill="#fff"><use xlink:href="#e"/></mask><path stroke="#35444C" stroke-width=".99" d="M.479.356c2.603 1.497 4.702 5.572 4.693 9.103-.006 1.951-.654 3.327-1.672 3.916l-2.278 1.32c1.017-.59 1.665-1.966 1.67-3.916" mask="url(#f)"/></g><path stroke="#35444C" stroke-width=".99" d="M32.06 1.813c2.603 1.497 4.702 5.573 4.693 9.104-.006 1.95-.654 3.327-1.672 3.916l-2.278 1.32"/><g transform="translate(26.595 .905)"><mask id="h" fill="#fff"><use xlink:href="#g"/></mask><path stroke="#525252" stroke-width=".99" d="M-1.542 5.91L.736 4.592" mask="url(#h)"/></g><g transform="translate(26.595 .905)"><mask id="j" fill="#fff"><use xlink:href="#i"/></mask><path stroke="#525252" stroke-width=".99" d="M.129 1.996L2.408.676C3.233.198 4.3.237 5.466.908" mask="url(#j)"/></g><g><path stroke="#35444C" stroke-width=".99" d="M26.724 2.901l2.278-1.32c.826-.477 1.893-.438 3.058.232M1.542 19.973l.053 13.612s-.053 4.871 3.206 7.927c2.466 2.312 4.303 2.976 5.706 3.254 2.848.563 5.3.564 10.098-2.534 1.042-.672 1.729-1.183 2.554-1.949"/><path stroke="#35444C" stroke-linecap="round" stroke-width=".99" d="M26.707 36.247c2.666-3.91 3.134-8.46 3.187-10.548.042-1.646-.086-4.542-.104-6.924-.008-1.194-.166-2.122.19-2.965.323-.766 1.714-1.328 1.714-1.328 1.063-.6 1.69-2.346-.145-6.292-1.834-3.945-3.762-3.85-4.391-3.688-.683.177-2.463 1.375-2.463 1.375-1.029.6-3.988 2.155-5.231 4.167-.977 1.578-.864 3.922-.836 4.745.155 4.585.382 6.675.402 8.903.03 3.45-.448 5.555-2.766 7.816-2.344 2.288-3.67 2.848-3.67 2.848l-.092-14.349"/><path stroke="#35444C" stroke-width=".99" d="M12.54 14.187V8.6H1.516l.025 6.159c0 1.765 2.479 3.195 5.537 3.195 3.057 0 5.46-1.253 5.46-3.768 0-.196 0 0 0 0z"/><path fill="#FFF" d="M12.59 8.58c0 1.764-2.48 3.195-5.536 3.195-3.058 0-5.537-1.43-5.537-3.196 0-1.765 2.479-3.195 5.537-3.195 3.057 0 5.536 1.43 5.536 3.195"/><path stroke="#35444C" stroke-width=".99" d="M12.59 8.58c0 1.764-2.48 3.195-5.536 3.195-3.058 0-5.537-1.43-5.537-3.196 0-1.765 2.479-3.195 5.537-3.195 3.057 0 5.536 1.43 5.536 3.195z"/><path stroke="#35444C" stroke-linecap="round" stroke-width=".99" d="M26.626 36.324s.393-2.228-1.822-3.452m-1.646 7.411s1.935-2.923-.567-4.247"/><path stroke="#35444C" stroke-width=".99" d="M28.724 49.18a3.13 3.13 0 0 1-3.136 3.124 3.13 3.13 0 0 1-3.136-3.125c0-1.726 3.136-5.83 3.136-5.83s3.136 4.104 3.136 5.83z"/></g><path stroke="#35444C" stroke-width=".99" d="M12.541 13.735h-.002v.452c0 2.515-2.403 3.768-5.46 3.768-3.058 0-5.537-1.43-5.537-3.195l-.004-1.042c-.656.588-1.04 1.287-1.04 2.037v2.2c0 2.082 2.924 3.77 6.53 3.77 3.607 0 6.53-1.688 6.53-3.77v-2.2c0-.743-.373-1.436-1.017-2.02z"/></g></svg>