<svg xmlns="http://www.w3.org/2000/svg" width="64" height="63" viewBox="0 0 64 63"><g fill="none" fill-rule="evenodd"><path fill="#35444C" d="M31.667 0L25.28 3.673l1.283.757L31.66 1.5l5.061 2.99 1.292-.742zM56.68 16.282l5.703 3.351-.039 6.687 1.292-.742.04-6.69-5.703-3.349zm5.583 23.843l-.034 5.913-5.742 3.31 1.283.758 5.743-3.312.042-7.41z"/><path fill="#35444C" d="M57.928 22.959l-1.283-.758 6.066-3.481.636 1.129zM.49 17.068l5.371 3.174 1.292-.743-6.013-3.553zm32.166 45.101l-1.288-.008.04-6.64 1.287.007zM0 44.02l5.709 3.365L7 46.642l-5.708-3.366.035-5.919L.043 36.6z"/><path fill="#35444C" d="M.124 22.792l1.283.757.042-7.043-1.286-.384zm25.536 36.39l6.348 3.744 6.388-3.67-1.283-.76-5.096 2.93-5.066-2.987z"/><path fill="#35444C" d="M.164 16.122l.96.945 6.064-3.488-1.283-.757zm.164 26.961l.637 1.13 6.065-3.487-1.284-.759zm62.218 3.894l-6.024-3.55 1.294-.743 5.38 3.17zM32.264 7.048l-1.292.747.04-6.974 1.289.008z"/><path fill="#FFF" d="M49.376 33.165c0 9.904-7.954 17.933-17.766 17.933-9.812 0-17.766-8.029-17.766-17.933s7.954-17.933 17.766-17.933c9.812 0 17.766 8.029 17.766 17.933"/><path stroke="#525252" stroke-width=".954" d="M49.376 33.165c0 9.904-7.954 17.933-17.766 17.933-9.812 0-17.766-8.029-17.766-17.933s7.954-17.933 17.766-17.933c9.812 0 17.766 8.029 17.766 17.933z"/><path fill="#CBCFD2" d="M46.702 24.025a18.02 18.02 0 0 1 .441 8.832c-1.935 9.71-11.302 15.997-20.922 14.044-4.61-.936-8.437-3.598-10.964-7.182 1.863 6.068 6.385 9.596 12.99 10.937 9.62 1.954 18.658-3.854 20.593-13.563 1.008-5.057.609-9.173-2.138-13.068"/><path stroke="#35444C" d="M49.376 33.165c0 9.904-7.954 17.933-17.766 17.933-9.812 0-17.766-8.029-17.766-17.933s7.954-17.933 17.766-17.933c9.812 0 17.766 8.029 17.766 17.933z"/><path stroke="#35444C" d="M14.26 29.307c3.041-6.176 9.612-10.588 17.383-10.588 7.76 0 14.288 4.45 17.334 10.613m-17.537-14.1c.061.996.864 13.823 0 35.866"/><path stroke="#35444C" d="M20.815 47.487c-4.627-8.47.986-23.662 10.795-28.769 5.444-2.833 8.137-1.504 8.137-1.504"/><path stroke="#35444C" d="M23.396 17.262c1.234-.312 5.02-.243 8.214 1.457 6.786 3.611 16.471 18.306 10.364 28.954"/><path stroke="#35444C" d="M49.376 31.784c0 6.02-7.954 10.9-17.766 10.9-9.812 0-17.766-4.88-17.766-10.9"/></g></svg>