<svg xmlns="http://www.w3.org/2000/svg" width="53" height="31" viewBox="0 0 53 31"><g fill="none" fill-rule="evenodd"><path fill="#FFF" d="M33.476 7.328c3.265-1.897 5.968-3.477 6.286-3.719.758-.576 5.543-3.741 9.381-2.015 3.838 1.727 2.843 5.276.047 6.427-1.493.615-13.218 6.283-19.377 9.976-6.159 3.693-16.546 10.865-17.34 11.367-.49.31-3.174 2.446-8.765-.336-5.59-2.781-2.498-3.112-.698-4.12.86-.48 4.965-2.809 9.202-5.226"/><path stroke="#35444C" stroke-linecap="round" stroke-linejoin="round" stroke-width="1.044" d="M33.476 7.328c3.265-1.897 5.968-3.477 6.286-3.719.758-.576 5.543-3.741 9.381-2.015 3.838 1.727 2.843 5.276.047 6.427-1.493.615-13.218 6.283-19.377 9.976-6.159 3.693-16.546 10.865-17.34 11.367-.49.31-3.174 2.446-8.765-.336-5.59-2.781-2.498-3.112-.698-4.12.86-.48 4.965-2.809 9.202-5.226"/><path stroke="#35444C" stroke-linecap="round" stroke-linejoin="round" stroke-width="1.044" d="M16.367 17.306c3.059-1.754 5.543-3.191 6.15-3.577.689-.439 3.648-2.158 6.928-4.061"/><path fill="#FFF" d="M12.29 20.22v-6.433s-.2-1.952 1.03-2.784c1.27-.859 3.023 0 3.023 1.384v5.457"/><path stroke="#35444C" stroke-linecap="round" stroke-width="1.044" d="M12.29 20.22v-6.433s-.2-1.952 1.03-2.784c1.27-.859 3.023 0 3.023 1.384v5.457m4.764 3.071c.445.267.738.695.75 1.183.02.838-1.9 2.302-4.651 1.559"/><path stroke="#35444C" stroke-linecap="round" stroke-linejoin="round" stroke-width="1.044" d="M12.29 21.327l4.863 2.308v-1.078L12.29 20.22s-.014 1.093 0 1.107zm3.968-2.71l4.863 2.31v-.745l-4.863-2.338s-.014.759 0 .773z"/><path stroke="#35444C" stroke-linecap="round" stroke-width="1.044" d="M17.153 22.557s.33-1.706 1.752-2.919c.69-.589 1.872-.594 2.216.544m-6.956.874s.329-1.707 1.751-2.92c.691-.588 1.872-.593 2.217.544m11.291-8.593V3.654s-.201-1.952 1.03-2.784c1.27-.859 3.022 0 3.022 1.384v5.457m4.759 3.028c.446.266.738.694.75 1.183.02.837-1.899 2.301-4.65 1.558"/><path stroke="#35444C" stroke-linecap="round" stroke-linejoin="round" stroke-width="1.044" d="M29.419 11.15l4.863 2.309V12.38l-4.863-2.338s-.014 1.093 0 1.107zm3.967-2.71l4.864 2.31v-.745l-4.864-2.337s-.013.758 0 .773z"/><path stroke="#35444C" stroke-linecap="round" stroke-width="1.044" d="M34.282 12.38s.329-1.706 1.751-2.919c.691-.589 1.871-.593 2.216.544m-6.955.874s.328-1.707 1.75-2.92c.692-.588 1.872-.593 2.217.544m-22.973 20.85l-9.282-4.35M48.879 8.007l-9.103-4.266"/><path stroke="#35444C" stroke-linecap="round" stroke-linejoin="round" stroke-width="1.044" d="M16.278 13.582c-1.031.083-1.604.39-1.83 1.823-.224 1.434-.516 2.527-1.888 1.844M33.28 2.945c-1.03.084-1.603.39-1.828 1.824-.225 1.434-.518 2.527-1.89 1.844"/></g></svg>