<svg xmlns="http://www.w3.org/2000/svg" width="55" height="51" viewBox="0 0 55 51"><g fill="none" fill-rule="evenodd"><path fill="#FFF" d="M51 9L37 1c-2-.667-3.333-.667-4 0-.667.667-10 6.333-28 17l-1 6 13 7 33-20 1-2z"/><path fill="#FFF" d="M26.779 42.818l14.158-8.158s-.453-3.273 3.62-5.492c2.485-1.355 3.728 1.36 3.728 1.36l5.187-3.089V11.912v.623c0-2.9-2.823-4.135-5.007-2.9-2.184 1.234-27.723 16.052-27.723 16.052-2.005 1.208-3.377 3.261-3.377 6.652"/><path fill="#CBCFD2" d="M53.362 20.395C52.663 26.413 24 41.245 22.551 42.107c-.821.489 2.868.768 3.815.697.947-.072 6.363-3.602 8.446-4.8 2.083-1.2 5.391-2.99 6.592-3.685 1.2-.694 5.66-2.977 6.8-3.886.95-.758 5.825-3.905 5.752-4.61-.074-.704-.594-5.428-.594-5.428"/><path fill="#FFF" d="M24.37 47.243c-.877 1.346-2.331 1.954-3.249 1.36-.917-.595-.95-2.167-.074-3.512.877-1.345 2.33-1.954 3.248-1.36.917.595.95 2.167.074 3.512"/><path stroke="#35444C" stroke-width=".99" d="M24.37 47.243c-.877 1.346-2.331 1.954-3.249 1.36-.917-.595-.95-2.167-.074-3.512.877-1.345 2.33-1.954 3.248-1.36.917.595.95 2.167.074 3.512z"/><path stroke="#35444C" stroke-width=".99" d="M24.942 43.168c1.126.885.982 2.94-.323 4.592-1.305 1.651-3.165 2.171-4.402 1.387L17.89 47.77"/><path fill="#FFF" d="M19.663 30.993l4.208-2.452c1.963-1.197 2.99.661 2.99 1.722v12.202l-1.255.687s-1.157-2.827-3.699-1.562c-3.412 1.698-3.26 5.689-3.26 5.689l-4.454 2.555L.496 41.961v-6.377l3.397-4.061 1.645-6.532"/><path stroke="#35444C" stroke-width=".99" d="M19.663 30.993l4.208-2.452c1.963-1.197 2.99.661 2.99 1.722v12.202l-1.255.687s-1.157-2.827-3.699-1.562c-3.412 1.698-3.26 5.689-3.26 5.689l-4.454 2.555L.496 41.961v-6.377l3.397-4.061 1.645-6.532"/><path fill="#FFF" d="M14.2 43.53l3.55-4.231 1.913-8.306"/><path stroke="#35444C" stroke-width=".99" d="M14.2 43.53l3.55-4.231 1.913-8.306M14.2 49.348V43.53L.526 35.695"/><path stroke="#35444C" stroke-linejoin="round" stroke-width=".99" d="M20.326 37.922l4.62-2.61.002-5.133-3.512 2.013z"/><path stroke="#35444C" stroke-width=".99" d="M4.029 31.403l13.722 7.896"/><path fill="#35444C" d="M18.368 46.2l.1 1.648 2.153 1.297 1.1.2-1.1-1.123-.15-1.722 2.014-2.941 2.765.62.1-1.796-2.102-1.148-2.753 1.372z"/><path fill="#FFF" d="M47.05 34.045c-.876 1.345-2.33 1.953-3.248 1.36-.918-.595-.951-2.168-.074-3.512.876-1.345 2.33-1.954 3.247-1.36.918.595.951 2.167.075 3.512"/><path stroke="#35444C" stroke-width=".99" d="M47.05 34.045c-.876 1.345-2.33 1.953-3.248 1.36-.918-.595-.951-2.168-.074-3.512.876-1.345 2.33-1.954 3.247-1.36.918.595.951 2.167.075 3.512z"/><path stroke="#35444C" stroke-width=".99" d="M47.622 29.97c1.127.885.982 2.94-.323 4.591-1.304 1.652-3.164 2.172-4.401 1.388l-2.328-1.378"/><path fill="#35444C" d="M41.049 33.002l.1 1.648 2.152 1.297 1.101.2-1.101-1.123-.15-1.722 2.014-2.941 2.766.62.1-1.797-2.102-1.148-2.753 1.373zM12.08 44.73c.298.504.294 1.04-.036 1.235-.332.194-.871-.035-1.17-.54-.297-.504-.286-1.06.045-1.254.332-.195.864.055 1.161.56m-8.756-4.886c.298.504.295 1.04-.037 1.235-.331.195-.87-.035-1.168-.54-.298-.503-.287-1.06.044-1.254.332-.195.864.055 1.161.56"/><path stroke="#35444C" stroke-linejoin="round" stroke-width=".99" d="M36.592 36.871l.002-14.138-6.316 3.68v14.043m8.842-11.862V21.33l11.368-6.552-.002 7.271z"/><path fill="#35444C" d="M35.33 31.503l-.605.348v-1.454l.605-.349z"/><path stroke="#35444C" stroke-width=".99" d="M33.853.913L6.368 16.676c-3.086 1.784-2.23 7.48-2.23 7.48l13.432 8.011 2.541-1.427M51.407 8.961L37.147.913m.181.111C36.32.359 34.938.298 33.746.97"/><path stroke="#35444C" stroke-width=".99" d="M26.86 42.465l14.16-8.159s-.454-3.273 3.618-5.492c2.485-1.355 3.728 1.36 3.728 1.36l5.188-3.088V11.558v.623c0-2.9-2.824-4.134-5.007-2.9-2.184 1.234-27.723 16.052-27.723 16.052-2.005 1.209-3.377 3.261-3.377 6.652"/></g></svg>