<svg xmlns="http://www.w3.org/2000/svg" width="50" height="47" viewBox="0 0 50 47"><g fill="none" fill-rule="evenodd"><path fill="#FFF" d="M32 2L7 17l-2 3-1 3v1l1 2-1 5-3 4v5l9 6h5l2-1 2 1 2-1 2-3 16-9 9-6 1-6V9l-1-1-9-6h-7z"/><path fill="#CBCFD2" d="M32.293 34.36c-4.297 2.3-7.75 4.355-10.419 5.787-.902.485-2.149-.474-2.874-.147-1.134.511-1.622 2.185-2.338 2.22-.258.888-4.904 3.36-6.188 3.253-1.164-.097 2.254 1.263 5.94.225.385-.11-.473-1.093.586-1.698.36-.206 1.604-3.766 2-4 .312-.184 2.677 1.193 3 1 .47-.28.685.986 1 1 .725.032 1.326-.805 2.114-1.254 2.545-1.448 11.582-6.378 13.048-7.216 1.466-.838 6.078-3.607 7.386-4.8 1.389-1.268 3.835-3.466 3.745-4.317-.09-.852-.129-4.962-.129-4.962-1.373 5.332-8.85 10.616-16.87 14.91z"/><path stroke="#525252" stroke-width=".55" d="M19 40.026c-.835.532-2.498 1.94-2.77 5.904-.37.211-2.809.787-4.95.322-1.937-.42-8.268-4.443-9.075-5.01C.521 40.06.5 39.232.5 38.587V36.94c0-2.422 3.691-6.24 3.691-6.24"/><path stroke="#35444C" stroke-width=".99" d="M19 40.026c-.835.532-2.498 1.94-2.77 5.904-.37.211-2.809.787-4.95.322-1.937-.42-8.268-4.443-9.075-5.01C.521 40.06.5 39.232.5 38.587V36.94c0-2.422 3.691-6.24 3.691-6.24"/><path d="M21.436 44.193c-.954 1.447-2.537 2.101-3.535 1.462-.999-.64-1.035-2.33-.082-3.778.954-1.447 2.537-2.101 3.535-1.462.999.64 1.035 2.33.082 3.778"/><path stroke="#35444C" stroke-width=".99" d="M21.436 44.193c-.954 1.447-2.537 2.101-3.535 1.462-.999-.64-1.035-2.33-.082-3.778.954-1.447 2.537-2.101 3.535-1.462.999.64 1.035 2.33.082 3.778z"/><path stroke="#35444C" stroke-linecap="round" stroke-width=".99" d="M17.099 30.659c-.643.334-1.431.76-2.888-.095-1.6-.937-7.055-3.976-9.48-5.443-.564-.34-1.048-.988-1.025-1.41-.022-2.872 1.664-5.856 3.636-7.267 2.4-1.717 18.025-10.415 24.763-14.2 1.907-1.071 4.82-.864 6.223-.202 1.782.84 5.784 3.297 8.445 4.947 1.435.89 2.703 1.886 2.703 4.416 0 3.52-.012 9.379-.124 13.346-.067 2.395-5.53 5.336-5.53 5.336"/><path fill="#35444C" d="M49.263 19.806s-.549.544-.962.948c-.326.319-.305.595-.308.823-.002.108-.006 2.279 0 2.718.003.268.375.256.492.211.117-.044.624-.408.624-.408"/><path stroke="#35444C" stroke-width=".99" d="M22.39 42.424l15.22-8.662M19 40.026c-.835.532-2.498 1.94-2.77 5.904"/><path fill="#FFF" d="M42.808 32.954c-1.177 1.659-3.057 2.363-4.202 1.575-1.143-.788-1.118-2.772.058-4.43 1.176-1.658 3.056-2.363 4.2-1.574 1.145.788 1.12 2.771-.056 4.43"/><path stroke="#35444C" stroke-width=".99" d="M42.808 32.954c-1.177 1.659-3.057 2.363-4.202 1.575-1.143-.788-1.118-2.772.058-4.43 1.176-1.658 3.056-2.363 4.2-1.574 1.145.788 1.12 2.771-.056 4.43zM21.7 44.254c-1.118 1.697-2.974 2.464-4.144 1.715-1.17-.75-1.214-2.733-.095-4.43 1.118-1.696 2.974-2.464 4.144-1.714 1.171.75 1.214 2.733.095 4.43z"/><path stroke="#35444C" stroke-linejoin="round" stroke-width=".99" d="M45.063 22.352l.021-6.93-9.49 5.42v6.894z"/><path stroke="#35444C" stroke-linecap="round" stroke-linejoin="round" stroke-width=".99" d="M23.74 41.663s-.096-11.508-.096-12.654c0-.967-.676-1.484-1.792-.934-.979.498-4.689 2.55-4.689 2.55"/><path fill="#FFF" d="M42.625 32.844c-.954 1.447-2.536 2.102-3.535 1.462-.999-.64-1.035-2.33-.081-3.778.953-1.446 2.536-2.1 3.535-1.461.998.639 1.035 2.33.08 3.777"/><path stroke="#35444C" stroke-width=".99" d="M42.625 32.844c-.954 1.447-2.536 2.102-3.535 1.462-.999-.64-1.035-2.33-.081-3.778.953-1.446 2.536-2.1 3.535-1.461.998.639 1.035 2.33.08 3.777z"/><path stroke="#35444C" stroke-linecap="round" stroke-linejoin="round" stroke-width=".99" d="M32.309 36.55l.002-13.853-5.556 3.2v13.77"/><path fill="#35444C" d="M31.199 30.812l-.685.39v-1.63l.685-.39z"/><path stroke="#35444C" stroke-linejoin="round" stroke-width=".99" d="M4.98 25.318s-.486 2.766-.77 4.464c-.145.866.374 1.588.854 1.874 1.376.821 7.056 4.052 8.433 4.574 1.028.39 1.829.223 2.605-.12m2.802-1.482c2.682-1.474 4.695-2.69 4.695-2.69"/><path stroke="#525252" stroke-width=".55" d="M15.47 30.7c.397-3.326 2.765-6.052 5.434-7.53 2.22-1.23 22.153-13.12 22.153-13.12"/><path stroke="#35444C" stroke-linecap="round" stroke-width=".99" d="M15.47 30.7c.397-3.326 2.765-6.052 5.434-7.53 2.22-1.23 22.153-13.12 22.153-13.12"/><path stroke="#35444C" stroke-linejoin="round" stroke-width=".99" d="M15.626 36.35l1.37-5.54"/><path stroke="#35444C" stroke-width=".99" d="M16.495 33.755c.13.012 3.088.858 3.31.926.194.059.562.2.562.58 0 .446 0 .726-.096.858s-.426.43-.859.416c-.432-.013-3.166.108-3.644-.184-.29-.178.316-2.637.727-2.596z"/><path fill="#35444C" d="M10.155 43.662l1.388-1.209a.635.635 0 0 1 .3-.144l2.793-.52c.056-.01.096.052.063.097 0 0-1.626 2.248-1.707 2.335-.064.068-.261.204-.752.204-.389 0-1.571-.39-2.046-.553a.122.122 0 0 1-.039-.21M1.54 35.297l.279 3.376a.111.111 0 0 1-.175.086L.51 37.804l-.008-1.662.894-1.292.144.447zm8.421 6.608c-.141.242-.48.746-.556.845-.108.14-.464.225-.962.082-.498-.142-2.247-.802-3.552-1.557a11.073 11.073 0 0 1-2.28-1.79c-.142-.147-.108-.307-.078-.678.03-.381.011-.836.085-.995.073-.158.176-.33.624 0 .496.366 2.087 1.406 3.112 1.938 1.025.533 3.06 1.571 3.284 1.668.252.11.475.229.323.487"/><path stroke="#525252" stroke-width=".55" d="M43.057 10.05c2.836-1.694 6.42-1.352 6.42 1.048"/><path stroke="#35444C" stroke-linecap="round" stroke-width=".99" d="M43.057 10.05c2.836-1.694 6.42-1.352 6.42 1.048"/></g></svg>