<svg xmlns="http://www.w3.org/2000/svg" width="24" height="17" viewBox="0 0 24 17"><g fill="none" fill-rule="evenodd"><path d="M0 0h24v17H0z"/><path fill="#35444c" d="M23.506 2.66c.513 1.9.494 5.86.494 5.86s0 3.94-.494 5.84a3.026 3.026 0 0 1-2.116 2.14C19.512 17 12 17 12 17s-7.493 0-9.39-.52a3.025 3.025 0 0 1-2.116-2.14C0 12.46 0 8.5 0 8.5s0-3.94.494-5.84C.771 1.62 1.601.78 2.609.5 4.488 0 12 0 12 0s7.512 0 9.39.52a3.024 3.024 0 0 1 2.116 2.14zM15.855 8.5L9.608 4.86v7.28l6.247-3.64z"/></g></svg>